<svg version="1.1" xmlns="http://www.w3.org/2000/svg" viewBox="0 0 1306.4147279574229 774.640218703093" width="1306.4147279574229" height="774.640218703093">
  <!-- svg-source:excalidraw -->
  
  <defs>
    <style class="style-fonts">
      @font-face {
        font-family: "Virgil";
        src: url("https://excalidraw.com/Virgil.woff2");
      }
      @font-face {
        font-family: "Cascadia";
        src: url("https://excalidraw.com/Cascadia.woff2");
      }
    </style>
  </defs>
  <rect x="0" y="0" width="1306.4147279574229" height="774.640218703093" fill="#ffffff"></rect><g stroke-linecap="round" transform="translate(93.22200542707014 378.1515833299203) rotate(0 34 39)"><path d="M43.34 1.9 C49.65 3.79, 59.34 8.85, 63.36 15.3 C67.38 21.75, 67.49 33.06, 67.46 40.6 C67.43 48.13, 67.17 54.3, 63.18 60.5 C59.18 66.69, 50.4 75.06, 43.51 77.76 C36.62 80.46, 28.21 79.09, 21.86 76.67 C15.51 74.25, 9.06 69.47, 5.41 63.24 C1.76 57.01, -0.36 47.41, -0.05 39.31 C0.26 31.21, 3.24 20.91, 7.26 14.64 C11.27 8.36, 16.53 2.79, 24.02 1.67 C31.52 0.55, 46.02 5.41, 52.24 7.91 C58.46 10.4, 61.22 16.37, 61.33 16.63 M53.3 8.54 C58.61 13.25, 65.87 22.87, 68.42 29.88 C70.97 36.9, 71.56 43.23, 68.61 50.63 C65.66 58.03, 57 69.33, 50.72 74.27 C44.45 79.2, 37.72 81.2, 30.95 80.23 C24.19 79.26, 14.63 73.81, 10.13 68.46 C5.64 63.11, 5.43 55.5, 3.96 48.15 C2.49 40.79, -0.31 31.22, 1.32 24.31 C2.95 17.4, 7.83 10.73, 13.75 6.67 C19.67 2.61, 29.92 -0.09, 36.83 -0.04 C43.75 0.01, 52.23 5.65, 55.23 6.98 C58.24 8.31, 55.38 7.12, 54.88 7.95" stroke="none" stroke-width="0" fill="#82c91e"></path><path d="M38.48 -0.25 C44.85 0.71, 52.41 7.24, 57.07 13.21 C61.74 19.17, 65.32 28.37, 66.47 35.57 C67.62 42.76, 67.05 50.18, 63.98 56.37 C60.92 62.56, 53.78 68.97, 48.07 72.69 C42.35 76.42, 36.04 79.79, 29.69 78.73 C23.34 77.68, 14.75 72.2, 9.97 66.38 C5.19 60.56, 2.16 51.55, 1.02 43.81 C-0.12 36.06, 0.08 26.66, 3.13 19.92 C6.17 13.17, 10.46 4.94, 19.3 3.32 C28.14 1.71, 48.25 5.81, 56.18 10.21 C64.11 14.62, 67.38 29.1, 66.88 29.74 M17.2 4.46 C22.85 -0.1, 31.66 0.47, 37.85 1.33 C44.04 2.19, 49.9 4.65, 54.35 9.62 C58.79 14.59, 62.51 23.6, 64.52 31.16 C66.53 38.71, 68.64 48.15, 66.41 54.95 C64.18 61.75, 57.23 68.05, 51.15 71.95 C45.07 75.86, 36.58 79.34, 29.94 78.4 C23.31 77.46, 16.09 71.35, 11.32 66.32 C6.56 61.29, 2.58 55.01, 1.35 48.24 C0.13 41.48, 1.44 33.07, 3.97 25.72 C6.51 18.38, 15 7.15, 16.54 4.19 C18.08 1.23, 12.99 7.27, 13.22 7.96" stroke="#e67700" stroke-width="4" fill="none"></path></g><g transform="translate(117.40638042092678 394.57441886364495) rotate(0 9.773994445800781 22.5)"><text x="9.773994445800781" y="0" font-family="Virgil, Segoe UI Emoji" font-size="36px" fill="#e67700" text-anchor="middle" style="white-space: pre;" direction="ltr" dominant-baseline="text-before-edge">s</text></g><g stroke-linecap="round" transform="translate(1155.2135006276367 382.8783997407537) rotate(0 34 39)"><path d="M10.55 9.75 C14.7 4.55, 23.44 1.18, 30.06 0.73 C36.68 0.28, 44.1 3.16, 50.26 7.06 C56.42 10.97, 63.88 17.56, 67.01 24.18 C70.14 30.79, 70.89 39.2, 69.03 46.75 C67.16 54.29, 61.01 64.47, 55.81 69.44 C50.61 74.4, 43.99 76.26, 37.84 76.53 C31.69 76.81, 25.02 74.76, 18.92 71.09 C12.83 67.42, 4.03 61.03, 1.28 54.51 C-1.48 47.98, -0.32 39.74, 2.39 31.93 C5.11 24.13, 14.14 12.39, 17.56 7.68 C20.98 2.96, 22.59 3.47, 22.93 3.65 M42.42 -0.24 C49.25 0.99, 60.38 7.9, 64.22 14.09 C68.06 20.28, 65.53 28.78, 65.44 36.9 C65.34 45.01, 67.5 56.4, 63.64 62.78 C59.77 69.16, 48.73 73.39, 42.24 75.2 C35.75 77, 31.21 75.59, 24.72 73.61 C18.22 71.62, 7.57 69.36, 3.28 63.27 C-1.01 57.18, -1.89 45.08, -1.03 37.04 C-0.17 29, 4.23 21.36, 8.43 15.03 C12.63 8.71, 18.12 1.72, 24.18 -0.92 C30.24 -3.55, 41.23 -1.88, 44.81 -0.75 C48.38 0.37, 45.43 4.66, 45.63 5.81" stroke="none" stroke-width="0" fill="#82c91e"></path><path d="M14.55 6.53 C18.83 2.11, 25.82 1.93, 32.09 1.85 C38.36 1.78, 46.64 2.28, 52.17 6.07 C57.7 9.86, 62.84 17.18, 65.29 24.6 C67.73 32.01, 68.58 43.04, 66.85 50.57 C65.12 58.09, 60.36 65.14, 54.91 69.72 C49.47 74.3, 40.98 77.86, 34.2 78.04 C27.42 78.22, 19.55 74.82, 14.24 70.8 C8.93 66.77, 4.63 60.85, 2.36 53.88 C0.09 46.91, -2.11 37.28, 0.63 28.98 C3.37 20.67, 14.51 8.62, 18.8 4.05 C23.09 -0.52, 26.06 1.12, 26.37 1.56 M18.86 3.13 C24.5 -0.83, 32.32 -2, 39.35 -0.12 C46.38 1.77, 55.93 9.07, 61.01 14.43 C66.09 19.78, 69.23 24.71, 69.83 32.04 C70.42 39.36, 67.98 51.31, 64.58 58.4 C61.19 65.48, 55.1 71.59, 49.44 74.55 C43.78 77.52, 36.96 77.96, 30.62 76.19 C24.27 74.41, 16.78 69.34, 11.36 63.89 C5.95 58.45, -0.15 51.11, -1.86 43.51 C-3.58 35.92, -2.21 24.96, 1.06 18.31 C4.33 11.67, 15.17 6.11, 17.75 3.64 C20.33 1.18, 16.44 3.01, 16.54 3.52" stroke="#1864ab" stroke-width="4" fill="none"></path></g><g transform="translate(1179.0018718983488 399.30123527447836) rotate(0 10.169998168945312 22.5)"><text x="10.169998168945312" y="0" font-family="Virgil, Segoe UI Emoji" font-size="36px" fill="#1864ab" text-anchor="middle" style="white-space: pre;" direction="ltr" dominant-baseline="text-before-edge">t</text></g><g stroke-linecap="round" transform="translate(410.4470791786039 246.05578064879091) rotate(0 34 27.715660281075202)"><path d="M39.7 1 C47.02 1.57, 56.46 5.05, 60.93 9.6 C65.4 14.15, 66.86 22.03, 66.54 28.33 C66.21 34.62, 63.19 43.03, 58.99 47.37 C54.8 51.71, 48.63 53.53, 41.35 54.39 C34.07 55.25, 22.09 55.49, 15.32 52.53 C8.56 49.57, 2.9 42.28, 0.76 36.61 C-1.38 30.93, -0.54 24.25, 2.49 18.48 C5.53 12.71, 10.64 4.06, 18.98 1.98 C27.31 -0.11, 44.92 3.74, 52.5 5.98 C60.08 8.22, 64.28 15.43, 64.45 15.4 M21.97 1.47 C28.14 -0.1, 36.57 2.26, 43.38 4.06 C50.19 5.85, 59.3 7.92, 62.8 12.26 C66.31 16.59, 66.13 23.51, 64.41 30.09 C62.69 36.66, 57.98 47.83, 52.46 51.7 C46.95 55.56, 38.06 53.49, 31.32 53.27 C24.57 53.05, 17.45 53.72, 11.97 50.37 C6.5 47.03, -0.25 39.45, -1.54 33.18 C-2.82 26.91, 0.18 18.41, 4.28 12.75 C8.39 7.09, 20.16 0.72, 23.09 -0.78 C26.02 -2.28, 21.8 2.54, 21.86 3.77" stroke="none" stroke-width="0" fill="#82c91e"></path><path d="M25.96 -0.72 C32.92 -2.85, 42.2 -0.55, 48.45 1.82 C54.7 4.19, 60.4 8.24, 63.47 13.5 C66.54 18.76, 68.49 27, 66.89 33.37 C65.28 39.73, 59.79 47.88, 53.86 51.69 C47.93 55.5, 38.45 56.54, 31.3 56.22 C24.14 55.89, 16.09 54.21, 10.91 49.75 C5.73 45.29, 1.08 35.85, 0.22 29.45 C-0.64 23.05, -0.3 16.29, 5.75 11.34 C11.8 6.39, 28.96 0.94, 36.54 -0.27 C44.11 -1.47, 51.18 3.64, 51.2 4.11 M24.34 0.05 C31.18 -1.07, 40.9 2.25, 47.11 4.58 C53.32 6.91, 58.44 8.78, 61.59 14.01 C64.74 19.25, 67 30.02, 66 35.99 C64.99 41.95, 61.19 46.08, 55.57 49.8 C49.96 53.53, 39.69 58.42, 32.31 58.34 C24.93 58.27, 16.51 53.68, 11.3 49.34 C6.08 45.01, 1.59 38.44, 1.02 32.35 C0.45 26.27, 3.85 18.19, 7.87 12.86 C11.89 7.52, 22.05 1.93, 25.13 0.36 C28.21 -1.22, 26.42 3.3, 26.35 3.4" stroke="#000000" stroke-width="4" fill="none"></path></g><g stroke-linecap="round" transform="translate(897.0842295572331 236.1819833947319) rotate(0 34 32.65255890810482)"><path d="M52.71 3.73 C58.4 6.02, 64.26 12.71, 66.62 18.68 C68.99 24.66, 68.7 33.48, 66.9 39.6 C65.09 45.72, 61.07 51.05, 55.79 55.4 C50.51 59.75, 41.97 65.07, 35.21 65.71 C28.46 66.35, 20.87 62.38, 15.27 59.23 C9.67 56.07, 3.73 52.56, 1.59 46.77 C-0.54 40.98, 0.57 31.03, 2.46 24.5 C4.35 17.98, 7.89 11.83, 12.91 7.62 C17.92 3.41, 23.64 -2.38, 32.55 -0.75 C41.47 0.88, 60.8 11.54, 66.41 17.39 C72.02 23.23, 66.73 34.25, 66.21 34.34 M52.77 7.39 C58.2 10.68, 60.56 17.23, 63.08 22.26 C65.61 27.28, 69.33 31.59, 67.94 37.54 C66.54 43.49, 59.47 53.65, 54.72 57.93 C49.97 62.22, 45.73 62.55, 39.44 63.24 C33.16 63.93, 23.56 64.58, 17.03 62.08 C10.5 59.57, 3.33 54.05, 0.25 48.21 C-2.83 42.38, -3.05 33.32, -1.43 27.07 C0.19 20.83, 4.31 15.22, 9.96 10.73 C15.6 6.23, 25.18 1.28, 32.42 0.11 C39.67 -1.06, 50.43 2.58, 53.43 3.71 C56.43 4.85, 51.52 6.75, 50.41 6.93" stroke="none" stroke-width="0" fill="#82c91e"></path><path d="M5.52 14.81 C9.22 9.49, 17.32 4.47, 23.92 2.24 C30.52 0.01, 39.12 -0.57, 45.12 1.44 C51.13 3.46, 56.2 9.31, 59.96 14.33 C63.72 19.36, 67.58 25.61, 67.7 31.6 C67.83 37.59, 64.06 44.81, 60.71 50.26 C57.35 55.71, 53.29 62.11, 47.59 64.28 C41.89 66.45, 32.97 64.96, 26.52 63.29 C20.08 61.63, 13.6 59.24, 8.94 54.3 C4.28 49.35, -1.4 40.85, -1.41 33.61 C-1.43 26.37, 6.83 14.81, 8.86 10.86 C10.89 6.91, 10.57 9.44, 10.78 9.91 M31.44 2.52 C38.01 0.9, 47.68 1.21, 53.72 3.77 C59.77 6.33, 65.95 12.02, 67.71 17.89 C69.47 23.76, 66.19 32.37, 64.31 38.99 C62.42 45.61, 60.95 52.96, 56.39 57.6 C51.84 62.25, 43.12 66.09, 36.96 66.84 C30.8 67.58, 24.81 65.64, 19.41 62.06 C14.01 58.49, 7.56 51.03, 4.58 45.37 C1.6 39.71, 0.08 34.35, 1.55 28.13 C3.02 21.9, 8.54 12.83, 13.38 8.02 C18.23 3.21, 27.84 0.63, 30.61 -0.71 C33.39 -2.06, 29.55 -0.35, 30.04 -0.04" stroke="#000000" stroke-width="4" fill="none"></path></g><g stroke-linecap="round"><g transform="translate(494.20072225697277 276.1246151918066) rotate(0 198.48849841955783 -7.9861398724031005)"><path d="M-0.25 2.54 C22.36 0.16, 69.71 -13.33, 135.57 -13.98 C201.43 -14.63, 351.64 -3.67, 394.92 -1.35 M-3.83 1.45 C18.46 -1.81, 66.19 -17.15, 133.63 -18.42 C201.07 -19.68, 357.24 -8.43, 400.81 -6.15" stroke="#a61e4d" stroke-width="4" fill="none"></path></g><g transform="translate(494.20072225697277 276.1246151918066) rotate(0 198.48849841955783 -7.9861398724031005)"><path d="M375.68 3.16 C382.09 -2.58, 391.05 -4.65, 404.55 -9.78 M372.02 3.41 C379.36 1.23, 383.25 -2.82, 400.26 -5.97" stroke="#a61e4d" stroke-width="4" fill="none"></path></g><g transform="translate(494.20072225697277 276.1246151918066) rotate(0 198.48849841955783 -7.9861398724031005)"><path d="M376.92 -17.32 C383.01 -16.98, 391.59 -12.97, 404.55 -9.78 M373.27 -17.07 C380.47 -14.86, 384.09 -14.53, 400.26 -5.97" stroke="#a61e4d" stroke-width="4" fill="none"></path></g></g><mask></mask><g stroke-linecap="round" transform="translate(376.4199931182102 512.4736339523321) rotate(0 34 39)"><path d="M42.8 1.6 C49.15 2.95, 55.97 8.38, 60.13 14.11 C64.29 19.84, 67.37 28.66, 67.77 35.99 C68.18 43.31, 65.83 51.51, 62.55 58.08 C59.27 64.66, 54.18 72.31, 48.11 75.42 C42.03 78.53, 32.49 78.49, 26.1 76.75 C19.72 75.01, 14 70.51, 9.77 64.99 C5.55 59.47, 1.33 51.62, 0.75 43.65 C0.18 35.69, 2.77 24.16, 6.32 17.19 C9.88 10.23, 14.24 3.52, 22.07 1.88 C29.91 0.23, 46.25 4.1, 53.33 7.32 C60.41 10.55, 64.49 20.55, 64.56 21.24 M33.84 0.63 C40.07 0.01, 47.77 1.92, 53.54 5.72 C59.3 9.51, 66.51 15.86, 68.42 23.4 C70.33 30.94, 67.04 42.89, 64.98 50.94 C62.91 58.99, 60.86 67.44, 56.03 71.69 C51.19 75.94, 43.27 76.37, 35.98 76.45 C28.7 76.53, 18.34 76.08, 12.32 72.14 C6.3 68.21, 1.4 60.1, -0.15 52.83 C-1.71 45.56, 1.11 35.63, 2.98 28.53 C4.84 21.42, 6.3 14.94, 11.03 10.21 C15.76 5.48, 27.85 1.72, 31.36 0.14 C34.87 -1.45, 31.64 0.19, 32.1 0.71" stroke="none" stroke-width="0" fill="#82c91e"></path><path d="M21.41 1.32 C27.02 -1.97, 36.91 -0.1, 43.47 2.3 C50.03 4.71, 56.69 10.18, 60.79 15.75 C64.88 21.32, 67.95 28.09, 68.03 35.73 C68.12 43.37, 64.78 54.99, 61.3 61.58 C57.81 68.17, 53.07 73.05, 47.13 75.29 C41.2 77.53, 32.17 76.98, 25.68 75.03 C19.18 73.07, 12.15 68.96, 8.18 63.55 C4.21 58.14, 2.03 50.33, 1.85 42.58 C1.67 34.82, 2.23 24.27, 7.1 17.04 C11.96 9.8, 25.09 1.63, 31.05 -0.84 C37.01 -3.31, 42.58 1.17, 42.87 2.19 M45.92 1.67 C51.96 3.4, 58.31 9.95, 62.25 17.01 C66.19 24.08, 70.56 36.39, 69.57 44.05 C68.58 51.7, 60.59 57.27, 56.3 62.95 C52.01 68.64, 49.47 76.43, 43.82 78.16 C38.17 79.89, 28.75 76.21, 22.4 73.36 C16.05 70.51, 9.28 67.61, 5.71 61.06 C2.15 54.5, 0.29 42.42, 1.01 34.04 C1.72 25.66, 5.93 16.14, 10 10.78 C14.07 5.41, 19.17 3.56, 25.42 1.85 C31.68 0.14, 43.42 0.6, 47.51 0.5 C51.59 0.41, 50.51 0.48, 49.93 1.28" stroke="#000000" stroke-width="4" fill="none"></path></g><g stroke-linecap="round" transform="translate(895.4996201887488 539.2739407847787) rotate(0 34 39)"><path d="M33.58 0.43 C39.84 -0.23, 47.76 2.12, 53.43 6.09 C59.11 10.06, 65.61 16.82, 67.62 24.24 C69.64 31.67, 67.53 42.83, 65.52 50.63 C63.52 58.44, 60.58 66.71, 55.59 71.1 C50.61 75.49, 42.71 76.84, 35.63 76.96 C28.56 77.08, 18.99 75.88, 13.14 71.82 C7.29 67.76, 2.34 59.82, 0.55 52.58 C-1.23 45.33, 0.58 35.52, 2.45 28.34 C4.32 21.16, 2.97 12.6, 11.78 9.5 C20.58 6.41, 46.16 5.51, 55.28 9.76 C64.4 14.01, 66.57 34.6, 66.48 35.01 M46.8 3.73 C52.92 6.38, 61.99 11.25, 65.83 17.53 C69.67 23.8, 71.32 33.78, 69.84 41.37 C68.37 48.95, 62 57.51, 56.97 63.03 C51.93 68.55, 45.96 72.95, 39.64 74.51 C33.33 76.07, 24.62 75.36, 19.08 72.38 C13.54 69.41, 9.34 63.14, 6.39 56.66 C3.44 50.18, 1.09 41.29, 1.37 33.51 C1.64 25.73, 3.61 15.61, 8.05 10 C12.49 4.4, 21.11 0.62, 28.02 -0.13 C34.93 -0.89, 46.44 4.88, 49.52 5.48 C52.59 6.09, 47.32 2.86, 46.46 3.48" stroke="none" stroke-width="0" fill="#82c91e"></path><path d="M46.59 2.25 C52.6 4.24, 58.93 10.96, 62.66 17.88 C66.4 24.79, 69.88 36.12, 68.98 43.76 C68.08 51.4, 61.62 58.02, 57.27 63.7 C52.92 69.37, 48.81 76.15, 42.87 77.83 C36.93 79.51, 27.89 76.71, 21.63 73.77 C15.37 70.82, 8.79 66.75, 5.31 60.17 C1.83 53.59, 0.02 42.41, 0.74 34.29 C1.45 26.18, 5.39 16.92, 9.6 11.46 C13.8 5.99, 16.54 -0.77, 25.96 1.51 C35.37 3.78, 59.69 15.97, 66.09 25.11 C72.49 34.24, 65.11 55.95, 64.34 56.29 M6.28 15.48 C9.57 9.28, 18.44 5.12, 24.86 3.02 C31.29 0.92, 38.78 0.67, 44.82 2.88 C50.85 5.1, 57.37 10.64, 61.07 16.34 C64.78 22.03, 66.73 29.39, 67.04 37.05 C67.35 44.71, 66.68 55.89, 62.92 62.3 C59.16 68.71, 50.63 73.1, 44.49 75.51 C38.34 77.92, 32.17 78.66, 26.04 76.76 C19.91 74.86, 11.68 70.77, 7.72 64.12 C3.75 57.48, 2.16 45.12, 2.27 36.87 C2.38 28.62, 7.88 18.09, 8.36 14.65 C8.83 11.21, 4.66 15.37, 5.12 16.25" stroke="#000000" stroke-width="4" fill="none"></path></g><g stroke-linecap="round" transform="translate(10 122.84339718924753) rotate(0 281.40322174068604 296.9191888542076)"><path d="M489.66 100.36 C506.51 112.59, 519.5 133.51, 529.62 152.7 C539.73 171.89, 544.7 194.13, 550.35 215.5 C556 236.86, 562.13 258.79, 563.53 280.9 C564.93 303.01, 562.76 326.65, 558.75 348.16 C554.74 369.66, 547.46 389.53, 539.46 409.92 C531.47 430.32, 522.8 452.14, 510.79 470.53 C498.78 488.92, 482.98 505.74, 467.4 520.26 C451.82 534.79, 435.6 547.09, 417.3 557.67 C399 568.26, 377.43 578.01, 357.59 583.79 C337.74 589.57, 318.86 591.65, 298.21 592.35 C277.56 593.05, 254.25 591.32, 233.68 588 C213.12 584.68, 193.7 580.68, 174.83 572.43 C155.96 564.19, 137.41 551.2, 120.47 538.52 C103.52 525.84, 87.42 512.89, 73.16 496.37 C58.91 479.85, 45.29 459.08, 34.94 439.4 C24.59 419.72, 16.58 399.03, 11.05 378.32 C5.52 357.6, 3.24 336.66, 1.76 315.13 C0.28 293.59, -1.22 271.17, 2.16 249.11 C5.53 227.05, 13.42 203.65, 22 182.76 C30.57 161.86, 41.31 141.72, 53.61 123.75 C65.9 105.78, 80.42 89.52, 95.77 74.93 C111.12 60.35, 127.83 46.94, 145.71 36.25 C163.59 25.56, 183.03 17.03, 203.04 10.78 C223.06 4.54, 244.58 -0.04, 265.82 -1.22 C287.06 -2.4, 310.13 -0.23, 330.5 3.69 C350.87 7.61, 369.14 13.77, 388.03 22.29 C406.91 30.8, 425.5 40.32, 443.83 54.78 C462.15 69.24, 488.04 97.77, 497.98 109.03 C507.92 120.3, 506.64 119.12, 503.45 122.37 M360.93 10.7 C381.36 11.72, 400.02 27.24, 417.75 38.03 C435.48 48.83, 451.65 60.56, 467.32 75.46 C482.98 90.36, 499.53 108.75, 511.73 127.43 C523.93 146.1, 532.82 167.02, 540.52 187.51 C548.22 208, 554.32 228.66, 557.94 250.36 C561.56 272.05, 563.75 296.03, 562.25 317.66 C560.74 339.29, 554.98 359.5, 548.91 380.13 C542.84 400.76, 535.24 422.42, 525.83 441.44 C516.42 460.46, 506.28 478.13, 492.48 494.25 C478.67 510.37, 460.53 524.93, 443.03 538.15 C425.52 551.38, 407.19 564.98, 387.46 573.6 C367.73 582.23, 345.32 586.32, 324.63 589.88 C303.94 593.44, 283.88 596.71, 263.31 594.95 C242.73 593.19, 220.75 585.51, 201.2 579.34 C181.66 573.17, 163.81 568.52, 146.03 557.94 C128.25 547.35, 109.94 530.81, 94.5 515.81 C79.06 500.81, 66.04 485.42, 53.39 467.93 C40.74 450.44, 27.12 431.1, 18.59 410.87 C10.05 390.64, 5.35 368.06, 2.17 346.55 C-1 325.04, -1.85 303.55, -0.46 281.83 C0.93 260.11, 4.35 237.61, 10.53 216.22 C16.71 194.83, 26.36 173.64, 36.62 153.49 C46.89 133.35, 58.33 112.09, 72.14 95.35 C85.95 78.61, 102.44 65.1, 119.5 53.07 C136.55 41.04, 155.14 31.16, 174.48 23.17 C193.83 15.19, 214.45 8.82, 235.57 5.16 C256.7 1.5, 280.29 0.41, 301.25 1.21 C322.21 2.01, 351.77 7.12, 361.34 9.96 C370.91 12.81, 360.62 13.07, 358.67 18.29" stroke="#000000" stroke-width="4" fill="none"></path></g><g stroke-linecap="round" transform="translate(729.3766570814535 10) rotate(0 283.5190354379847 377.3201093515465)"><path d="M106.13 83.28 C118.17 62.88, 139.37 53.44, 157.1 41.37 C174.82 29.3, 194.07 17.53, 212.46 10.86 C230.86 4.19, 247.86 2.62, 267.49 1.35 C287.12 0.08, 310.86 -0.47, 330.24 3.24 C349.62 6.95, 366.08 13.8, 383.78 23.6 C401.49 33.39, 419.75 47.53, 436.49 62.02 C453.23 76.52, 470.21 91.96, 484.22 110.58 C498.23 129.2, 510.08 151.45, 520.55 173.74 C531.02 196.03, 539.9 220.02, 547.03 244.32 C554.16 268.62, 560.26 294.09, 563.32 319.52 C566.38 344.96, 566.67 371.09, 565.4 396.92 C564.14 422.74, 560.41 448.86, 555.73 474.46 C551.06 500.06, 545.98 526.94, 537.37 550.52 C528.76 574.1, 516.56 596.03, 504.06 615.93 C491.56 635.84, 477.43 653.89, 462.37 669.96 C447.3 686.03, 431.36 700.13, 413.68 712.35 C396.01 724.56, 375.35 736.11, 356.32 743.26 C337.29 750.42, 319.32 754.27, 299.5 755.27 C279.68 756.28, 256.79 753.43, 237.4 749.28 C218.01 745.14, 201.58 739.98, 183.17 730.41 C164.75 720.84, 143.82 706.47, 126.91 691.86 C110.01 677.26, 95.26 660.75, 81.74 642.78 C68.21 624.8, 56.02 605.82, 45.75 584.03 C35.48 562.23, 27.23 536.94, 20.12 511.99 C13.02 487.04, 6.44 460.04, 3.12 434.32 C-0.21 408.61, -0.97 383.49, 0.18 357.69 C1.33 331.88, 4.93 305.17, 10.03 279.49 C15.13 253.8, 22.1 226.83, 30.78 203.59 C39.45 180.35, 45.47 163.58, 62.07 140.06 C78.68 116.54, 114.72 77.88, 130.43 62.48 C146.14 47.08, 153.76 42.79, 156.33 47.68 M297.09 2.4 C316.15 -2.08, 338.31 6.23, 356.96 12.61 C375.61 18.99, 392.02 28.86, 409 40.68 C425.98 52.5, 443.31 67.57, 458.86 83.5 C474.41 99.43, 489.26 116.56, 502.3 136.27 C515.34 155.99, 527.98 178.55, 537.1 201.79 C546.22 225.03, 551.59 250.03, 556.99 275.72 C562.38 301.41, 568.02 329.58, 569.47 355.93 C570.93 382.28, 568.91 408.2, 565.73 433.82 C562.55 459.43, 557.45 485.62, 550.4 509.62 C543.35 533.61, 534.19 555.66, 523.43 577.77 C512.67 599.87, 499.83 623.56, 485.84 642.24 C471.86 660.93, 456 675.3, 439.49 689.86 C422.99 704.42, 404.97 719.93, 386.81 729.6 C368.65 739.27, 349.44 743.84, 330.54 747.88 C311.65 751.91, 293.2 755.04, 273.44 753.8 C253.67 752.55, 231.87 747.4, 211.97 740.4 C192.07 733.41, 171.58 722.82, 154.03 711.85 C136.48 700.88, 121.7 690.48, 106.64 674.58 C91.57 658.68, 76.5 636.9, 63.63 616.45 C50.75 595.99, 37.9 575.13, 29.39 551.85 C20.88 528.57, 17.15 501.77, 12.56 476.78 C7.97 451.79, 3.66 428.1, 1.85 401.9 C0.04 375.71, -1.35 346.09, 1.71 319.6 C4.78 293.12, 13.03 267.44, 20.23 243.02 C27.42 218.6, 34.18 194.66, 44.87 173.08 C55.56 151.5, 70.75 132.05, 84.37 113.55 C97.98 95.05, 110.57 76.8, 126.55 62.09 C142.53 47.38, 161.48 35.01, 180.26 25.3 C199.03 15.59, 220.26 7.8, 239.21 3.84 C258.16 -0.11, 284.34 1.14, 293.96 1.55 C303.57 1.96, 297.02 0.46, 296.89 6.31" stroke="#000000" stroke-width="4" fill="none"></path></g><g stroke-linecap="round"><g transform="translate(454.71886555915324 553.992276521329) rotate(0 218.7545121859727 -17.069214824867956)"><path d="M-1.28 2.52 C31.79 -6.84, 126.32 -60.64, 199.66 -56.9 C273.01 -53.16, 399.51 11.38, 438.79 24.95 M3.23 1.42 C37.09 -8.79, 132.63 -66.06, 205.16 -61.66 C277.69 -57.27, 400.03 13.05, 438.41 27.77" stroke="#a61e4d" stroke-width="4" fill="none"></path></g><g transform="translate(454.71886555915324 553.992276521329) rotate(0 218.7545121859727 -17.069214824867956)"><path d="M412.12 22.79 C419.49 30.09, 428.37 26.02, 437.06 31.55 M410.42 23.55 C415.59 24.21, 420.7 26.88, 436.42 28.36" stroke="#a61e4d" stroke-width="4" fill="none"></path></g><g transform="translate(454.71886555915324 553.992276521329) rotate(0 218.7545121859727 -17.069214824867956)"><path d="M420.79 4.18 C425.06 17.84, 430.95 20.19, 437.06 31.55 M419.09 4.95 C422.72 9.66, 426.01 16.22, 436.42 28.36" stroke="#a61e4d" stroke-width="4" fill="none"></path></g></g><mask></mask></svg>