<svg version="1.1" xmlns="http://www.w3.org/2000/svg" viewBox="0 0 1371.2093925957083 1239.096036357582" width="1371.2093925957083" height="1239.096036357582">
  <!-- svg-source:excalidraw -->
  
  <defs>
    <style class="style-fonts">
      @font-face {
        font-family: "Virgil";
        src: url("https://excalidraw.com/Virgil.woff2");
      }
      @font-face {
        font-family: "Cascadia";
        src: url("https://excalidraw.com/Cascadia.woff2");
      }
    </style>
  </defs>
  <rect x="0" y="0" width="1371.2093925957083" height="1239.096036357582" fill="#ffffff"></rect><g stroke-linecap="round" transform="translate(87.4895468220767 364.43350539497294) rotate(0 34 39)"><path d="M43.34 1.9 C49.65 3.79, 59.34 8.85, 63.36 15.3 C67.38 21.75, 67.49 33.06, 67.46 40.6 C67.43 48.13, 67.17 54.3, 63.18 60.5 C59.18 66.69, 50.4 75.06, 43.51 77.76 C36.62 80.46, 28.21 79.09, 21.86 76.67 C15.51 74.25, 9.06 69.47, 5.41 63.24 C1.76 57.01, -0.36 47.41, -0.05 39.31 C0.26 31.21, 3.24 20.91, 7.26 14.64 C11.27 8.36, 16.53 2.79, 24.02 1.67 C31.52 0.55, 46.02 5.41, 52.24 7.91 C58.46 10.4, 61.22 16.37, 61.33 16.63 M53.3 8.54 C58.61 13.25, 65.87 22.87, 68.42 29.88 C70.97 36.9, 71.56 43.23, 68.61 50.63 C65.66 58.03, 57 69.33, 50.72 74.27 C44.45 79.2, 37.72 81.2, 30.95 80.23 C24.19 79.26, 14.63 73.81, 10.13 68.46 C5.64 63.11, 5.43 55.5, 3.96 48.15 C2.49 40.79, -0.31 31.22, 1.32 24.31 C2.95 17.4, 7.83 10.73, 13.75 6.67 C19.67 2.61, 29.92 -0.09, 36.83 -0.04 C43.75 0.01, 52.23 5.65, 55.23 6.98 C58.24 8.31, 55.38 7.12, 54.88 7.95" stroke="none" stroke-width="0" fill="#82c91e"></path><path d="M38.48 -0.25 C44.85 0.71, 52.41 7.24, 57.07 13.21 C61.74 19.17, 65.32 28.37, 66.47 35.57 C67.62 42.76, 67.05 50.18, 63.98 56.37 C60.92 62.56, 53.78 68.97, 48.07 72.69 C42.35 76.42, 36.04 79.79, 29.69 78.73 C23.34 77.68, 14.75 72.2, 9.97 66.38 C5.19 60.56, 2.16 51.55, 1.02 43.81 C-0.12 36.06, 0.08 26.66, 3.13 19.92 C6.17 13.17, 10.46 4.94, 19.3 3.32 C28.14 1.71, 48.25 5.81, 56.18 10.21 C64.11 14.62, 67.38 29.1, 66.88 29.74 M17.2 4.46 C22.85 -0.1, 31.66 0.47, 37.85 1.33 C44.04 2.19, 49.9 4.65, 54.35 9.62 C58.79 14.59, 62.51 23.6, 64.52 31.16 C66.53 38.71, 68.64 48.15, 66.41 54.95 C64.18 61.75, 57.23 68.05, 51.15 71.95 C45.07 75.86, 36.58 79.34, 29.94 78.4 C23.31 77.46, 16.09 71.35, 11.32 66.32 C6.56 61.29, 2.58 55.01, 1.35 48.24 C0.13 41.48, 1.44 33.07, 3.97 25.72 C6.51 18.38, 15 7.15, 16.54 4.19 C18.08 1.23, 12.99 7.27, 13.22 7.96" stroke="#e67700" stroke-width="4" fill="none"></path></g><g transform="translate(111.67392181593334 380.8563409286976) rotate(0 9.773994445800781 22.5)"><text x="9.773994445800781" y="0" font-family="Virgil, Segoe UI Emoji" font-size="36px" fill="#e67700" text-anchor="middle" style="white-space: pre;" direction="ltr" dominant-baseline="text-before-edge">s</text></g><g stroke-linecap="round" transform="translate(401.8935356438784 601.8998285086294) rotate(0 34 39)"><path d="M10.55 9.75 C14.7 4.55, 23.44 1.18, 30.06 0.73 C36.68 0.28, 44.1 3.16, 50.26 7.06 C56.42 10.97, 63.88 17.56, 67.01 24.18 C70.14 30.79, 70.89 39.2, 69.03 46.75 C67.16 54.29, 61.01 64.47, 55.81 69.44 C50.61 74.4, 43.99 76.26, 37.84 76.53 C31.69 76.81, 25.02 74.76, 18.92 71.09 C12.83 67.42, 4.03 61.03, 1.28 54.51 C-1.48 47.98, -0.32 39.74, 2.39 31.93 C5.11 24.13, 14.14 12.39, 17.56 7.68 C20.98 2.96, 22.59 3.47, 22.93 3.65 M42.42 -0.24 C49.25 0.99, 60.38 7.9, 64.22 14.09 C68.06 20.28, 65.53 28.78, 65.44 36.9 C65.34 45.01, 67.5 56.4, 63.64 62.78 C59.77 69.16, 48.73 73.39, 42.24 75.2 C35.75 77, 31.21 75.59, 24.72 73.61 C18.22 71.62, 7.57 69.36, 3.28 63.27 C-1.01 57.18, -1.89 45.08, -1.03 37.04 C-0.17 29, 4.23 21.36, 8.43 15.03 C12.63 8.71, 18.12 1.72, 24.18 -0.92 C30.24 -3.55, 41.23 -1.88, 44.81 -0.75 C48.38 0.37, 45.43 4.66, 45.63 5.81" stroke="none" stroke-width="0" fill="#82c91e"></path><path d="M14.55 6.53 C18.83 2.11, 25.82 1.93, 32.09 1.85 C38.36 1.78, 46.64 2.28, 52.17 6.07 C57.7 9.86, 62.84 17.18, 65.29 24.6 C67.73 32.01, 68.58 43.04, 66.85 50.57 C65.12 58.09, 60.36 65.14, 54.91 69.72 C49.47 74.3, 40.98 77.86, 34.2 78.04 C27.42 78.22, 19.55 74.82, 14.24 70.8 C8.93 66.77, 4.63 60.85, 2.36 53.88 C0.09 46.91, -2.11 37.28, 0.63 28.98 C3.37 20.67, 14.51 8.62, 18.8 4.05 C23.09 -0.52, 26.06 1.12, 26.37 1.56 M18.86 3.13 C24.5 -0.83, 32.32 -2, 39.35 -0.12 C46.38 1.77, 55.93 9.07, 61.01 14.43 C66.09 19.78, 69.23 24.71, 69.83 32.04 C70.42 39.36, 67.98 51.31, 64.58 58.4 C61.19 65.48, 55.1 71.59, 49.44 74.55 C43.78 77.52, 36.96 77.96, 30.62 76.19 C24.27 74.41, 16.78 69.34, 11.36 63.89 C5.95 58.45, -0.15 51.11, -1.86 43.51 C-3.58 35.92, -2.21 24.96, 1.06 18.31 C4.33 11.67, 15.17 6.11, 17.75 3.64 C20.33 1.18, 16.44 3.01, 16.54 3.52" stroke="#1864ab" stroke-width="4" fill="none"></path></g><g transform="translate(425.6819069145905 618.3226640423541) rotate(0 10.169998168945312 22.5)"><text x="10.169998168945312" y="0" font-family="Virgil, Segoe UI Emoji" font-size="36px" fill="#1864ab" text-anchor="middle" style="white-space: pre;" direction="ltr" dominant-baseline="text-before-edge">t</text></g><g stroke-linecap="round" transform="translate(186.08053851944294 529.962162800484) rotate(0 34 27.715660281075202)"><path d="M39.7 1 C47.02 1.57, 56.46 5.05, 60.93 9.6 C65.4 14.15, 66.86 22.03, 66.54 28.33 C66.21 34.62, 63.19 43.03, 58.99 47.37 C54.8 51.71, 48.63 53.53, 41.35 54.39 C34.07 55.25, 22.09 55.49, 15.32 52.53 C8.56 49.57, 2.9 42.28, 0.76 36.61 C-1.38 30.93, -0.54 24.25, 2.49 18.48 C5.53 12.71, 10.64 4.06, 18.98 1.98 C27.31 -0.11, 44.92 3.74, 52.5 5.98 C60.08 8.22, 64.28 15.43, 64.45 15.4 M21.97 1.47 C28.14 -0.1, 36.57 2.26, 43.38 4.06 C50.19 5.85, 59.3 7.92, 62.8 12.26 C66.31 16.59, 66.13 23.51, 64.41 30.09 C62.69 36.66, 57.98 47.83, 52.46 51.7 C46.95 55.56, 38.06 53.49, 31.32 53.27 C24.57 53.05, 17.45 53.72, 11.97 50.37 C6.5 47.03, -0.25 39.45, -1.54 33.18 C-2.82 26.91, 0.18 18.41, 4.28 12.75 C8.39 7.09, 20.16 0.72, 23.09 -0.78 C26.02 -2.28, 21.8 2.54, 21.86 3.77" stroke="none" stroke-width="0" fill="#82c91e"></path><path d="M25.96 -0.72 C32.92 -2.85, 42.2 -0.55, 48.45 1.82 C54.7 4.19, 60.4 8.24, 63.47 13.5 C66.54 18.76, 68.49 27, 66.89 33.37 C65.28 39.73, 59.79 47.88, 53.86 51.69 C47.93 55.5, 38.45 56.54, 31.3 56.22 C24.14 55.89, 16.09 54.21, 10.91 49.75 C5.73 45.29, 1.08 35.85, 0.22 29.45 C-0.64 23.05, -0.3 16.29, 5.75 11.34 C11.8 6.39, 28.96 0.94, 36.54 -0.27 C44.11 -1.47, 51.18 3.64, 51.2 4.11 M24.34 0.05 C31.18 -1.07, 40.9 2.25, 47.11 4.58 C53.32 6.91, 58.44 8.78, 61.59 14.01 C64.74 19.25, 67 30.02, 66 35.99 C64.99 41.95, 61.19 46.08, 55.57 49.8 C49.96 53.53, 39.69 58.42, 32.31 58.34 C24.93 58.27, 16.51 53.68, 11.3 49.34 C6.08 45.01, 1.59 38.44, 1.02 32.35 C0.45 26.27, 3.85 18.19, 7.87 12.86 C11.89 7.52, 22.05 1.93, 25.13 0.36 C28.21 -1.22, 26.42 3.3, 26.35 3.4" stroke="#000000" stroke-width="4" fill="none"></path></g><g stroke-linecap="round" transform="translate(349.70346444385143 377.6235765949998) rotate(0 34 32.65255890810482)"><path d="M52.71 3.73 C58.4 6.02, 64.26 12.71, 66.62 18.68 C68.99 24.66, 68.7 33.48, 66.9 39.6 C65.09 45.72, 61.07 51.05, 55.79 55.4 C50.51 59.75, 41.97 65.07, 35.21 65.71 C28.46 66.35, 20.87 62.38, 15.27 59.23 C9.67 56.07, 3.73 52.56, 1.59 46.77 C-0.54 40.98, 0.57 31.03, 2.46 24.5 C4.35 17.98, 7.89 11.83, 12.91 7.62 C17.92 3.41, 23.64 -2.38, 32.55 -0.75 C41.47 0.88, 60.8 11.54, 66.41 17.39 C72.02 23.23, 66.73 34.25, 66.21 34.34 M52.77 7.39 C58.2 10.68, 60.56 17.23, 63.08 22.26 C65.61 27.28, 69.33 31.59, 67.94 37.54 C66.54 43.49, 59.47 53.65, 54.72 57.93 C49.97 62.22, 45.73 62.55, 39.44 63.24 C33.16 63.93, 23.56 64.58, 17.03 62.08 C10.5 59.57, 3.33 54.05, 0.25 48.21 C-2.83 42.38, -3.05 33.32, -1.43 27.07 C0.19 20.83, 4.31 15.22, 9.96 10.73 C15.6 6.23, 25.18 1.28, 32.42 0.11 C39.67 -1.06, 50.43 2.58, 53.43 3.71 C56.43 4.85, 51.52 6.75, 50.41 6.93" stroke="none" stroke-width="0" fill="#82c91e"></path><path d="M5.52 14.81 C9.22 9.49, 17.32 4.47, 23.92 2.24 C30.52 0.01, 39.12 -0.57, 45.12 1.44 C51.13 3.46, 56.2 9.31, 59.96 14.33 C63.72 19.36, 67.58 25.61, 67.7 31.6 C67.83 37.59, 64.06 44.81, 60.71 50.26 C57.35 55.71, 53.29 62.11, 47.59 64.28 C41.89 66.45, 32.97 64.96, 26.52 63.29 C20.08 61.63, 13.6 59.24, 8.94 54.3 C4.28 49.35, -1.4 40.85, -1.41 33.61 C-1.43 26.37, 6.83 14.81, 8.86 10.86 C10.89 6.91, 10.57 9.44, 10.78 9.91 M31.44 2.52 C38.01 0.9, 47.68 1.21, 53.72 3.77 C59.77 6.33, 65.95 12.02, 67.71 17.89 C69.47 23.76, 66.19 32.37, 64.31 38.99 C62.42 45.61, 60.95 52.96, 56.39 57.6 C51.84 62.25, 43.12 66.09, 36.96 66.84 C30.8 67.58, 24.81 65.64, 19.41 62.06 C14.01 58.49, 7.56 51.03, 4.58 45.37 C1.6 39.71, 0.08 34.35, 1.55 28.13 C3.02 21.9, 8.54 12.83, 13.38 8.02 C18.23 3.21, 27.84 0.63, 30.61 -0.71 C33.39 -2.06, 29.55 -0.35, 30.04 -0.04" stroke="#000000" stroke-width="4" fill="none"></path></g><g stroke-linecap="round" transform="translate(57.868155059899095 265.6955328543812) rotate(40.18644910629355 53.60061366489265 143.8753314162906)"><path d="M86.49 33.76 C91.48 42.42, 96.1 56.36, 99.53 71.43 C102.96 86.51, 105.72 106.82, 107.07 124.2 C108.42 141.58, 109.21 159.27, 107.63 175.72 C106.04 192.18, 101.68 208.37, 97.57 222.95 C93.47 237.54, 88.02 252.84, 82.99 263.24 C77.96 273.64, 73.33 281.17, 67.39 285.34 C61.45 289.5, 53.91 290.5, 47.36 288.21 C40.81 285.91, 34.16 279.93, 28.08 271.56 C22 263.19, 14.76 251.45, 10.87 238 C6.97 224.55, 6.2 207.24, 4.69 190.87 C3.17 174.5, 1.67 157.28, 1.78 139.77 C1.88 122.26, 2.73 101.98, 5.31 85.83 C7.89 69.68, 13.08 54.73, 17.24 42.87 C21.41 31, 24.5 21.76, 30.27 14.61 C36.05 7.46, 45.51 1.3, 51.9 -0.01 C58.28 -1.32, 61.35 -3.21, 68.59 6.74 C75.83 16.69, 89.51 45.17, 95.33 59.67 C101.15 74.18, 103.86 92.53, 103.49 93.75 M10.72 46.94 C13.43 33.29, 21.12 21.44, 27.11 13.71 C33.09 5.98, 40.03 1.79, 46.64 0.54 C53.26 -0.7, 59.84 1.3, 66.79 6.23 C73.75 11.16, 82.66 20.15, 88.4 30.12 C94.13 40.09, 98.36 51.98, 101.19 66.06 C104.01 80.13, 104.06 97.01, 105.34 114.59 C106.62 132.16, 109.6 154.51, 108.87 171.49 C108.13 188.48, 104.91 202.4, 100.95 216.49 C97 230.58, 90.24 245.12, 85.16 256.03 C80.08 266.95, 76.28 276.29, 70.46 281.98 C64.63 287.67, 57.11 291.4, 50.19 290.18 C43.27 288.96, 35.08 283.1, 28.95 274.67 C22.81 266.24, 17.7 252.25, 13.38 239.62 C9.06 226.99, 5.39 214.62, 3.04 198.88 C0.69 183.15, -0.58 163.15, -0.7 145.21 C-0.81 127.28, -0.15 107.06, 2.34 91.28 C4.83 75.49, 12.06 57.04, 14.25 50.52 C16.44 44, 14.88 51.2, 15.46 52.14" stroke="#000000" stroke-width="4" fill="none"></path></g><g stroke-linecap="round" transform="translate(177.23197315150685 348.48771763130395) rotate(40.18644910629355 186.4413692721474 213.50491589702173)"><path d="M165.44 3.1 C181.05 -2.5, 202.07 -0.07, 218.69 2.94 C235.32 5.95, 250.55 13.33, 265.19 21.19 C279.84 29.04, 293.62 37.72, 306.57 50.08 C319.53 62.43, 333.2 79.26, 342.9 95.32 C352.6 111.39, 359.7 128.48, 364.79 146.45 C369.89 164.42, 372.81 183.94, 373.47 203.13 C374.13 222.32, 372.84 242.61, 368.77 261.61 C364.69 280.61, 357.33 300.33, 349.04 317.14 C340.74 333.94, 330.92 348.94, 319.01 362.43 C307.1 375.92, 291.83 388.67, 277.58 398.08 C263.33 407.5, 249.58 413.88, 233.48 418.93 C217.38 423.99, 197.99 428.77, 180.98 428.41 C163.98 428.05, 147.45 422.96, 131.45 416.76 C115.46 410.56, 99.24 401.67, 85.01 391.22 C70.78 380.77, 57.08 368.5, 46.09 354.07 C35.09 339.64, 26.09 322.11, 19.06 304.64 C12.04 287.17, 7.11 267.51, 3.93 249.23 C0.76 230.95, -1.62 213.89, 0.01 194.95 C1.65 176, 7.33 153.83, 13.75 135.54 C20.18 117.25, 28.39 100.4, 38.57 85.21 C48.75 70.02, 61.62 56.33, 74.82 44.42 C88.02 32.5, 100.56 21.36, 117.77 13.72 C134.99 6.09, 166.06 -0.14, 178.1 -1.38 C190.14 -2.61, 189.8 2.22, 190.01 6.32 M343.6 95.48 C355.1 109.19, 359.8 132.08, 365.03 150.76 C370.27 169.44, 374.58 188.56, 375 207.56 C375.42 226.56, 371.77 246.19, 367.55 264.75 C363.34 283.31, 357.53 302.29, 349.68 318.92 C341.83 335.55, 332.05 351.02, 320.45 364.53 C308.86 378.03, 294.67 390.44, 280.1 399.96 C265.54 409.49, 249.93 417.64, 233.06 421.66 C216.19 425.67, 196.53 424.74, 178.89 424.06 C161.26 423.39, 143.28 422.86, 127.27 417.6 C111.26 412.33, 96.02 403, 82.82 392.48 C69.63 381.97, 58.49 368.8, 48.1 354.5 C37.72 340.2, 28.31 324.28, 20.5 306.67 C12.68 289.06, 4.9 268.41, 1.2 248.85 C-2.51 229.28, -3.49 208.74, -1.75 189.28 C-0.01 169.82, 5.27 149.84, 11.66 132.1 C18.04 114.35, 26.42 97.86, 36.54 82.82 C46.67 67.78, 58.43 52.99, 72.42 41.86 C86.42 30.72, 104.4 22.97, 120.52 16.02 C136.64 9.07, 152.37 2.7, 169.14 0.16 C185.91 -2.39, 204.77 -3.17, 221.14 0.75 C237.5 4.67, 252.86 15.47, 267.33 23.7 C281.81 31.92, 295.17 38.02, 308 50.12 C320.83 62.21, 339.17 88.39, 344.33 96.26 C349.48 104.12, 341.71 95.3, 338.95 97.29" stroke="#000000" stroke-width="4" fill="none"></path></g><g stroke-linecap="round"><g transform="translate(131.21636323291034 442.0133409625805) rotate(0 26.5663186204105 46.39705417109249)"><path d="M-0.25 2.54 C9.26 17.72, 47.81 76.49, 56.96 91.34 M-3.83 1.45 C5.36 15.74, 44.29 72.68, 55.02 86.91" stroke="#a61e4d" stroke-width="4" fill="none"></path></g><g transform="translate(131.21636323291034 442.0133409625805) rotate(0 26.5663186204105 46.39705417109249)"><path d="M33.93 70.69 C39.2 72.52, 46.95 78.02, 58.76 83.28 M30.28 70.94 C36.91 74.23, 39.94 75.65, 54.47 87.08" stroke="#a61e4d" stroke-width="4" fill="none"></path></g><g transform="translate(131.21636323291034 442.0133409625805) rotate(0 26.5663186204105 46.39705417109249)"><path d="M50.64 58.77 C50.97 64.11, 53.76 73.16, 58.76 83.28 M46.98 59.02 C50.12 64.92, 49.57 68.88, 54.47 87.08" stroke="#a61e4d" stroke-width="4" fill="none"></path></g></g><mask></mask><g stroke-linecap="round"><g transform="translate(502.18903149256187 264.28499038951554) rotate(0 104.69323496901784 -68.8626506372267)"><path d="M2.62 1.58 C17.02 -11.64, 54.75 -58.74, 89.11 -81.48 C123.47 -104.22, 189.21 -125.4, 208.78 -134.85 M0.6 -0.03 C15.59 -13.85, 59.71 -62.33, 94.11 -85.54 C128.51 -108.76, 188.35 -130.85, 206.99 -139.3" stroke="#1864ab" stroke-width="4" fill="none"></path></g><g transform="translate(502.18903149256187 264.28499038951554) rotate(0 104.69323496901784 -68.8626506372267)"><path d="M1.56 -6.07 C3.48 -6.94, 5.49 -7.15, 7.12 -6.31 C8.75 -5.47, 10.25 -2.61, 11.33 -1.02 C12.41 0.56, 14.14 1.58, 13.6 3.2 C13.05 4.82, 10.02 7.24, 8.06 8.68 C6.11 10.13, 3.81 11.94, 1.89 11.85 C-0.04 11.76, -1.88 9.41, -3.48 8.16 C-5.08 6.91, -7.15 6.08, -7.7 4.37 C-8.26 2.66, -8.33 0.08, -6.82 -2.12 C-5.31 -4.31, 0.03 -7.67, 1.34 -8.8 C2.65 -9.94, 0.85 -9.11, 1.05 -8.91 M6.55 -7.81 C9.37 -7.65, 12.09 -6.08, 13.29 -4 C14.48 -1.92, 14.65 2.23, 13.71 4.66 C12.77 7.09, 9.37 9.69, 7.65 10.6 C5.94 11.5, 4.88 10.58, 3.41 10.08 C1.94 9.59, 0.78 9.03, -1.16 7.63 C-3.09 6.23, -6.8 3.04, -8.21 1.68 C-9.63 0.32, -10.99 0.56, -9.65 -0.56 C-8.3 -1.68, -2.55 -4.3, -0.13 -5.04 C2.29 -5.78, 3.81 -4.82, 4.88 -4.97 C5.96 -5.12, 5.78 -5.37, 6.31 -5.94" stroke="none" stroke-width="0" fill="#1864ab"></path></g><g transform="translate(502.18903149256187 264.28499038951554) rotate(0 104.69323496901784 -68.8626506372267)"><path d="M203.63 -138.39 L198.21 -129.51 L194.65 -140.87 L207.97 -136.5" stroke="none" stroke-width="0" fill="#1864ab" fill-rule="evenodd"></path><path d="M208.68 -142.07 C204.69 -134.69, 200.94 -132.66, 195.5 -131.15 M205.96 -137.82 C203.7 -136.92, 199.41 -132.09, 198.09 -126.97 M195.96 -125.87 C197.77 -133.72, 191.67 -134.7, 193.62 -141.1 M196.87 -128.83 C195.38 -131.93, 194.38 -134.81, 191.41 -140.85 M193.81 -139.35 C196.83 -141.68, 205.41 -142.3, 206.07 -140.07 M192.49 -141.26 C195.17 -139.44, 200.46 -138.48, 207.56 -139.09 M206.99 -139.3 C206.99 -139.3, 206.99 -139.3, 206.99 -139.3 M206.99 -139.3 C206.99 -139.3, 206.99 -139.3, 206.99 -139.3" stroke="#1864ab" stroke-width="4" fill="none"></path></g></g><mask></mask><g stroke-linecap="round" transform="translate(880.6269816109764 82.28580868055224) rotate(0 34 39)"><path d="M21.26 1.82 C27.24 -1.54, 37.77 -1.07, 44.27 1.13 C50.78 3.32, 56.61 8.82, 60.3 14.98 C63.98 21.14, 65.84 30.61, 66.38 38.06 C66.93 45.51, 66.6 53.54, 63.56 59.68 C60.52 65.81, 54.56 72.19, 48.13 74.87 C41.71 77.55, 31.78 77.3, 25.02 75.74 C18.25 74.18, 11.63 71.03, 7.54 65.53 C3.46 60.04, 1.14 50.49, 0.5 42.78 C-0.15 35.07, -4.96 25, 3.66 19.27 C12.27 13.53, 41.53 4.91, 52.17 8.37 C62.81 11.82, 67.92 39.72, 67.5 39.98 M39.09 -0.53 C45.04 -0.02, 54.22 4.9, 58.71 10.13 C63.2 15.35, 65.27 23.2, 66.01 30.82 C66.74 38.44, 66.48 48.84, 63.13 55.83 C59.79 62.82, 51.92 69.53, 45.92 72.75 C39.93 75.96, 33.12 75.9, 27.15 75.12 C21.19 74.35, 15.08 73.6, 10.14 68.09 C5.2 62.57, -1.85 49.69, -2.49 42.03 C-3.12 34.37, 2.83 28.74, 6.34 22.12 C9.85 15.5, 12.73 6.15, 18.58 2.31 C24.44 -1.53, 37.42 -0.46, 41.47 -0.9 C45.51 -1.34, 43.59 -1.55, 42.85 -0.34" stroke="none" stroke-width="0" fill="#82c91e"></path><path d="M12.08 8.76 C16.42 3.47, 21.61 1.8, 28.4 1.12 C35.19 0.44, 46.9 0.95, 52.82 4.66 C58.75 8.36, 61.53 16.42, 63.93 23.35 C66.33 30.28, 68.66 39.15, 67.2 46.24 C65.75 53.34, 60.06 60.65, 55.2 65.92 C50.34 71.19, 44.57 76.95, 38.02 77.87 C31.48 78.79, 21.83 75.22, 15.93 71.42 C10.03 67.63, 5.21 61.71, 2.63 55.08 C0.05 48.45, -1.7 39.38, 0.45 31.64 C2.61 23.89, 12.35 12.82, 15.54 8.59 C18.74 4.37, 19.58 6.26, 19.63 6.29 M61.14 9.81 C66.61 14.4, 69.54 24.35, 70.19 31.98 C70.84 39.6, 68.23 48.95, 65.05 55.56 C61.87 62.17, 57.54 68.47, 51.1 71.64 C44.66 74.8, 33.38 75.25, 26.42 74.55 C19.47 73.86, 13.88 72.9, 9.36 67.46 C4.83 62.03, 0.21 49.61, -0.72 41.94 C-1.66 34.27, 0.45 28.22, 3.72 21.45 C7 14.69, 12.52 4.49, 18.95 1.33 C25.38 -1.83, 36.08 0.67, 42.32 2.5 C48.56 4.34, 53.7 10.42, 56.39 12.35 C59.08 14.27, 58.82 13.85, 58.49 14.03" stroke="#e67700" stroke-width="4" fill="none"></path></g><g transform="translate(904.8113566048329 98.70864421427689) rotate(0 9.773994445800781 22.5)"><text x="9.773994445800781" y="0" font-family="Virgil, Segoe UI Emoji" font-size="36px" fill="#e67700" text-anchor="middle" style="white-space: pre;" direction="ltr" dominant-baseline="text-before-edge">s</text></g><g stroke-linecap="round" transform="translate(1195.0309704327778 319.75213179420876) rotate(0 34 39)"><path d="M18.51 5.31 C23.34 1.78, 30.84 1.1, 37.53 2.06 C44.22 3.03, 53.41 6.06, 58.67 11.1 C63.92 16.13, 68.21 24.89, 69.07 32.27 C69.92 39.65, 67.07 48.23, 63.78 55.39 C60.49 62.54, 55.07 71.31, 49.33 75.21 C43.59 79.1, 36.14 80.01, 29.35 78.78 C22.55 77.55, 13.47 73.1, 8.55 67.84 C3.64 62.59, 0.66 54.68, -0.14 47.27 C-0.93 39.85, -2.03 31.18, 3.78 23.34 C9.59 15.51, 26.53 2.65, 34.74 0.25 C42.96 -2.16, 52.93 8.4, 53.07 8.92 M19.71 -0.08 C25.24 -3.21, 35.25 -2.51, 41.51 -0.38 C47.76 1.75, 52.97 6.93, 57.23 12.69 C61.5 18.45, 66.05 25.96, 67.08 34.16 C68.11 42.36, 67.31 55.41, 63.43 61.87 C59.55 68.33, 49.72 70.19, 43.81 72.93 C37.9 75.67, 34.05 80.09, 27.96 78.33 C21.87 76.57, 11.67 68.74, 7.27 62.37 C2.87 55.99, 1.38 47.71, 1.54 40.06 C1.7 32.42, 5.3 22.39, 8.21 16.49 C11.12 10.59, 16.41 6.8, 19.01 4.67 C21.62 2.53, 22.85 3.73, 23.86 3.69" stroke="none" stroke-width="0" fill="#82c91e"></path><path d="M14.21 8.56 C18.92 3.43, 24.39 1.01, 30.69 0.47 C37 -0.06, 46.5 1.64, 52.03 5.33 C57.57 9.01, 61.36 15.37, 63.9 22.59 C66.43 29.82, 68.82 41.19, 67.26 48.68 C65.7 56.17, 59.77 62.64, 54.54 67.52 C49.3 72.4, 42.35 77.11, 35.86 77.95 C29.38 78.79, 20.98 76.4, 15.62 72.55 C10.26 68.7, 5.86 61.88, 3.7 54.84 C1.53 47.79, -2.96 39.63, 2.64 30.26 C8.24 20.89, 27.38 1.34, 37.27 -1.4 C47.16 -4.14, 62 12.65, 61.98 13.8 M8.32 12.88 C11.87 6.73, 21.09 1.09, 27.08 -1.14 C33.07 -3.37, 38.42 -3.84, 44.28 -0.52 C50.15 2.8, 58.48 12.31, 62.27 18.77 C66.07 25.22, 67.34 30.66, 67.04 38.23 C66.73 45.79, 64.46 58.16, 60.45 64.14 C56.44 70.11, 48.97 71.86, 42.97 74.1 C36.97 76.34, 31.05 79.75, 24.46 77.58 C17.88 75.4, 7.55 67.45, 3.47 61.04 C-0.61 54.63, -0.23 47.02, -0.01 39.12 C0.21 31.23, 3.18 17.23, 4.81 13.67 C6.44 10.12, 9.14 17.04, 9.75 17.79" stroke="#1864ab" stroke-width="4" fill="none"></path></g><g transform="translate(1218.81934170349 336.1749673279334) rotate(0 10.169998168945312 22.5)"><text x="10.169998168945312" y="0" font-family="Virgil, Segoe UI Emoji" font-size="36px" fill="#1864ab" text-anchor="middle" style="white-space: pre;" direction="ltr" dominant-baseline="text-before-edge">t</text></g><g stroke-linecap="round" transform="translate(979.2179733083426 247.8144660860633) rotate(0 34 39)"><path d="M50.01 3.99 C56.38 6.44, 62.87 14.06, 65.7 20.68 C68.53 27.31, 68.3 35.87, 67 43.75 C65.7 51.62, 62.4 62.13, 57.9 67.95 C53.4 73.78, 46.78 77.52, 40 78.69 C33.21 79.85, 23.34 78.26, 17.21 74.95 C11.09 71.64, 6 65.51, 3.23 58.85 C0.46 52.19, -0.32 42.83, 0.56 34.99 C1.45 27.15, 3.81 17.3, 8.51 11.81 C13.22 6.32, 19.93 1.36, 28.78 2.07 C37.64 2.78, 55.38 10.61, 61.64 16.07 C67.91 21.54, 66.99 34.59, 66.35 34.88 M3.36 15.1 C6.65 8.76, 15.36 1.67, 22.26 -0.21 C29.16 -2.09, 38.75 1.57, 44.78 3.84 C50.81 6.11, 54.21 7.38, 58.46 13.41 C62.71 19.45, 69.86 32.3, 70.31 40.06 C70.76 47.81, 65.14 54.22, 61.14 59.95 C57.15 65.68, 52.08 72.01, 46.36 74.43 C40.65 76.86, 33.85 76.22, 26.86 74.51 C19.86 72.8, 8.47 69.99, 4.37 64.18 C0.26 58.37, 1.51 47.93, 2.22 39.65 C2.94 31.36, 7.81 18.37, 8.66 14.47 C9.52 10.58, 7.71 15.81, 7.35 16.29" stroke="none" stroke-width="0" fill="#82c91e"></path><path d="M25.98 0.4 C31.92 -2.19, 39.12 -2.02, 45.34 1.04 C51.56 4.09, 59.74 12.13, 63.3 18.73 C66.85 25.33, 67.31 33.01, 66.67 40.62 C66.04 48.23, 63.64 58.23, 59.47 64.37 C55.3 70.51, 47.88 75.48, 41.68 77.48 C35.48 79.48, 28.1 79.27, 22.25 76.39 C16.41 73.51, 10.37 67.22, 6.61 60.21 C2.85 53.2, -0.84 42.36, -0.3 34.31 C0.23 26.25, 0.02 15.38, 9.8 11.89 C19.58 8.4, 49.29 6.87, 58.37 13.37 C67.44 19.88, 64.9 50.56, 64.24 50.93 M7.56 10.58 C10.97 5.58, 20.39 4.48, 26.88 2.99 C33.37 1.49, 40.54 -1.35, 46.49 1.6 C52.44 4.54, 59.18 14.19, 62.6 20.65 C66.01 27.11, 67.23 32.73, 66.99 40.37 C66.76 48.01, 65.87 60.4, 61.18 66.48 C56.49 72.55, 45.64 75.27, 38.87 76.82 C32.09 78.36, 26.57 79.03, 20.54 75.75 C14.5 72.48, 5.68 63.57, 2.66 57.16 C-0.35 50.75, 1.67 44.55, 2.44 37.3 C3.22 30.05, 5.97 17.62, 7.31 13.66 C8.66 9.71, 10.16 12.74, 10.54 13.58" stroke="#000000" stroke-width="4" fill="none"></path></g><g stroke-linecap="round" transform="translate(1142.8408992327509 95.4758798805791) rotate(0 34 39)"><path d="M31.28 -0.99 C37.26 -1.64, 46.13 3.2, 51.93 7.68 C57.72 12.16, 63.81 18.88, 66.05 25.9 C68.28 32.92, 67.17 42.3, 65.34 49.81 C63.51 57.32, 59.89 65.98, 55.05 70.96 C50.21 75.95, 43.04 79.54, 36.28 79.72 C29.52 79.91, 20.08 76.23, 14.49 72.08 C8.89 67.94, 5 62.09, 2.73 54.86 C0.45 47.62, -0.64 36.28, 0.84 28.65 C2.32 21.01, 2.26 12.09, 11.6 9.05 C20.94 6, 47.91 5.06, 56.87 10.38 C65.82 15.71, 65.71 40.69, 65.34 41.01 M19.84 5.98 C25 2.34, 30.35 -2.93, 37.18 -1.68 C44.02 -0.42, 55.85 7.88, 60.83 13.5 C65.81 19.13, 66.31 25.02, 67.08 32.08 C67.85 39.14, 67.99 49.17, 65.45 55.89 C62.9 62.6, 58.44 68.48, 51.8 72.38 C45.17 76.27, 32.33 80.3, 25.64 79.27 C18.96 78.24, 15.53 72.36, 11.71 66.2 C7.89 60.05, 3.92 50.05, 2.73 42.35 C1.54 34.64, 2.24 26.62, 4.56 19.98 C6.88 13.35, 14.44 4.82, 16.66 2.51 C18.88 0.21, 17.12 5.54, 17.89 6.16" stroke="none" stroke-width="0" fill="#82c91e"></path><path d="M23.02 2.31 C28.91 -0.51, 36.23 -1.99, 42.5 0.18 C48.77 2.36, 56.43 8.95, 60.64 15.36 C64.84 21.76, 67.3 30.75, 67.74 38.61 C68.17 46.47, 66.72 56.18, 63.25 62.52 C59.77 68.85, 53.45 74.59, 46.88 76.63 C40.32 78.66, 30.24 77.36, 23.87 74.74 C17.49 72.12, 12.63 66.47, 8.64 60.91 C4.64 55.34, 0.63 48.44, -0.12 41.37 C-0.86 34.29, -2.08 25.12, 4.18 18.46 C10.43 11.79, 29.41 2.75, 37.4 1.38 C45.39 0.01, 52.25 9.84, 52.13 10.23 M6.5 13.05 C9.93 6.97, 17.94 5.08, 24.38 2.95 C30.82 0.82, 38.53 -2.45, 45.14 0.28 C51.75 3.01, 60.68 12.6, 64.05 19.32 C67.41 26.04, 65.94 33.1, 65.35 40.6 C64.76 48.09, 64.6 58.59, 60.53 64.3 C56.45 70.01, 46.92 72.68, 40.88 74.86 C34.84 77.04, 30.36 79.72, 24.29 77.38 C18.22 75.04, 8.23 67.56, 4.45 60.82 C0.67 54.09, 1.35 44.21, 1.61 36.98 C1.87 29.76, 4.98 21.1, 6.02 17.5 C7.07 13.89, 6.97 15.82, 7.88 15.36" stroke="#000000" stroke-width="4" fill="none"></path></g><g stroke-linecap="round"><g transform="translate(924.35379802181 159.86564424815987) rotate(0 27.224276738879013 45.03288989899275)"><path d="M-2.03 -0.53 C7.36 14.74, 46.6 74.49, 56.47 89.92 M2.07 -3.29 C11.08 12.59, 45.31 78.23, 54.26 93.36" stroke="#a61e4d" stroke-width="4" fill="none"></path></g><g transform="translate(924.35379802181 159.86564424815987) rotate(0 27.224276738879013 45.03288989899275)"><path d="M30.91 73.69 C37.82 81.08, 47.75 88.71, 57.46 95.03 M29.9 73.49 C39.09 76.92, 45.6 82.61, 55.21 91.66" stroke="#a61e4d" stroke-width="4" fill="none"></path></g><g transform="translate(924.35379802181 159.86564424815987) rotate(0 27.224276738879013 45.03288989899275)"><path d="M48.89 63.79 C50.19 73.94, 54.64 84.59, 57.46 95.03 M47.88 63.59 C51.88 70.08, 53.36 78.55, 55.21 91.66" stroke="#a61e4d" stroke-width="4" fill="none"></path></g></g><mask></mask><g stroke-linecap="round" transform="translate(874.9533387345277 17.177010296699564) rotate(330.2104262164021 81.15280448968542 191.71909870976128)"><path d="M33.12 36.91 C38.9 24.07, 48.87 15.92, 57.27 9.8 C65.67 3.67, 75.39 -0.1, 83.52 0.18 C91.65 0.46, 98.54 4.81, 106.07 11.47 C113.6 18.13, 121.86 28.77, 128.69 40.13 C135.53 51.48, 142 63.54, 147.1 79.61 C152.2 95.68, 156.49 117.31, 159.27 136.54 C162.04 155.77, 163.97 175.61, 163.74 195 C163.51 214.39, 160.51 234.32, 157.89 252.88 C155.26 271.45, 153.08 290.13, 148 306.38 C142.93 322.64, 134.35 338.98, 127.45 350.41 C120.56 361.84, 114.73 369.8, 106.65 374.98 C98.58 380.15, 87.65 381.5, 79.02 381.47 C70.39 381.45, 62.82 381.16, 54.88 374.81 C46.94 368.45, 38.14 355.36, 31.38 343.34 C24.62 331.33, 18.87 318.7, 14.32 302.7 C9.78 286.7, 6.21 266.11, 4.11 247.33 C2.01 228.55, 1.95 209.7, 1.71 190.01 C1.46 170.32, 0.4 148.14, 2.63 129.19 C4.85 110.23, 6.81 95.75, 15.04 76.28 C23.28 56.81, 42.74 24.22, 52.04 12.35 C61.33 0.49, 70.15 2.12, 70.8 5.09 M15.07 79.29 C18.29 62.52, 23.6 48.38, 30.14 36.47 C36.68 24.57, 45.81 14.3, 54.31 7.86 C62.81 1.42, 72.89 -2.03, 81.12 -2.16 C89.35 -2.3, 96.08 0.77, 103.69 7.07 C111.29 13.36, 119.24 23.42, 126.76 35.6 C134.27 47.77, 143.91 64.15, 148.75 80.12 C153.59 96.09, 153.31 113.11, 155.8 131.42 C158.3 149.73, 163.38 169.94, 163.74 189.98 C164.11 210.02, 160.72 232.42, 158.02 251.66 C155.31 270.91, 152.46 290.2, 147.54 305.47 C142.61 320.74, 135.07 331.6, 128.47 343.29 C121.87 354.98, 116.08 369.31, 107.94 375.62 C99.8 381.93, 87.72 381.05, 79.64 381.15 C71.56 381.25, 67.56 382.06, 59.46 376.21 C51.37 370.36, 38.07 357.43, 31.07 346.05 C24.07 334.68, 22.21 323.28, 17.45 307.96 C12.69 292.65, 4.96 273.72, 2.51 254.17 C0.05 234.62, 3 210.72, 2.73 190.66 C2.45 170.6, -1.63 152.74, 0.86 133.81 C3.36 114.88, 14.94 85.96, 17.7 77.06 C20.45 68.15, 16.63 77.57, 17.38 80.37" stroke="#000000" stroke-width="4" fill="none"></path></g><g stroke-linecap="round" transform="translate(1123.6540664438262 4.8297365682176405) rotate(347.14424736056077 81.15280448968542 234.6440991608792)"><path d="M114.87 21.12 C121.96 26.15, 129.67 41.64, 135.46 56.08 C141.25 70.52, 145.87 88.9, 149.61 107.78 C153.36 126.65, 155.56 147.76, 157.93 169.33 C160.31 190.89, 163.92 215.12, 163.88 237.18 C163.83 259.24, 160.27 280.94, 157.65 301.68 C155.02 322.42, 151.95 343.43, 148.13 361.61 C144.3 379.79, 140.2 396.28, 134.7 410.74 C129.19 425.19, 122.01 439.19, 115.07 448.36 C108.14 457.53, 100.53 462.39, 93.07 465.75 C85.62 469.11, 78.18 471.66, 70.36 468.51 C62.55 465.36, 53.06 456.65, 46.18 446.84 C39.3 437.03, 34.67 423.69, 29.07 409.63 C23.48 395.57, 16.93 380.49, 12.61 362.49 C8.29 344.49, 5.32 322.77, 3.15 301.63 C0.98 280.48, -0.74 258.03, -0.4 235.62 C-0.05 213.21, 3.25 188.64, 5.24 167.17 C7.23 145.69, 7.4 124.9, 11.56 106.78 C15.72 88.66, 23.98 72.68, 30.18 58.45 C36.38 44.22, 41.96 30.5, 48.77 21.4 C55.58 12.3, 63.71 7.27, 71.03 3.87 C78.36 0.47, 82.78 -6.92, 92.71 0.99 C102.64 8.91, 122.09 35.32, 130.6 51.34 C139.11 67.36, 144.54 93.65, 143.78 97.11 M64.61 1.37 C71.34 -6.66, 78.78 -0.97, 86.62 1.44 C94.45 3.85, 103.94 7.3, 111.62 15.81 C119.3 24.32, 126.59 38.7, 132.7 52.5 C138.82 66.29, 143.84 81.29, 148.31 98.58 C152.78 115.87, 157.35 135.19, 159.54 156.26 C161.73 177.32, 161.66 202.75, 161.46 224.97 C161.26 247.19, 160.44 268.64, 158.35 289.59 C156.26 310.54, 152.73 331.15, 148.92 350.68 C145.11 370.2, 140.13 391.45, 135.49 406.73 C130.86 422.02, 127.92 432.75, 121.11 442.4 C114.31 452.05, 102.2 460.57, 94.67 464.64 C87.14 468.7, 82.95 468.8, 75.94 466.77 C68.94 464.74, 60.06 460.67, 52.65 452.47 C45.24 444.26, 37.39 431.68, 31.47 417.55 C25.55 403.43, 21.81 385.29, 17.12 367.72 C12.44 350.15, 6.2 332.61, 3.38 312.14 C0.55 291.68, 0.61 266.86, 0.16 244.94 C-0.29 223.02, -0.73 201.86, 0.67 180.61 C2.07 159.36, 4.82 136.4, 8.55 117.44 C12.28 98.48, 17.42 81.62, 23.05 66.84 C28.68 52.06, 35.06 39.37, 42.33 28.76 C49.6 18.15, 62.55 6.42, 66.67 3.19 C70.8 -0.04, 67.46 5.36, 67.09 9.38" stroke="#000000" stroke-width="4" fill="none"></path></g><g stroke-linecap="round"><g transform="translate(954.5491928079846 133.20901013372168) rotate(0 87.04865364111552 -2.3620529000726265)"><path d="M-2.61 1.49 C25.58 0.03, 142.16 -4.79, 171.43 -6.22 M1.16 -0.16 C30.03 0.01, 148.41 -2.13, 176.71 -2.9" stroke="#a61e4d" stroke-width="4" fill="none"></path></g><g transform="translate(954.5491928079846 133.20901013372168) rotate(0 87.04865364111552 -2.3620529000726265)"><path d="M150.88 5.01 C158.4 3.68, 167.82 0.31, 180.08 -3.52 M148.17 9.4 C160.87 3.33, 169.33 1.58, 176.55 -2.09" stroke="#a61e4d" stroke-width="4" fill="none"></path></g><g transform="translate(954.5491928079846 133.20901013372168) rotate(0 87.04865364111552 -2.3620529000726265)"><path d="M150.44 -15.51 C158.5 -9, 168.09 -4.54, 180.08 -3.52 M147.73 -11.12 C160.58 -9.7, 169.2 -3.96, 176.55 -2.09" stroke="#a61e4d" stroke-width="4" fill="none"></path></g></g><mask></mask><g stroke-linecap="round" transform="translate(922.7998376328233 851.863384790005) rotate(0 34 39)"><path d="M17.68 7.45 C23.04 3.56, 32.37 -0.73, 39.01 -0.13 C45.66 0.48, 52.56 6.29, 57.57 11.06 C62.58 15.83, 67.99 20.96, 69.08 28.5 C70.17 36.04, 67 48.7, 64.1 56.29 C61.21 63.88, 57.51 70.72, 51.73 74.04 C45.95 77.36, 36.19 77.44, 29.41 76.22 C22.63 75, 15.59 71.52, 11.05 66.72 C6.51 61.93, 3.48 54.44, 2.17 47.47 C0.86 40.5, -1.46 32.51, 3.19 24.91 C7.85 17.31, 23.86 5.94, 30.1 1.88 C36.35 -2.19, 40.54 0.12, 40.68 0.52 M15.68 7.35 C21.09 3.83, 31.05 -0.04, 37.72 0.5 C44.38 1.05, 50.55 5.17, 55.65 10.62 C60.75 16.08, 66.82 26.19, 68.31 33.22 C69.8 40.25, 67.85 46.15, 64.6 52.8 C61.34 59.44, 54.89 69.27, 48.79 73.11 C42.68 76.95, 34.47 76.63, 27.97 75.84 C21.46 75.05, 14.57 73.41, 9.77 68.37 C4.97 63.34, 0.54 53.39, -0.85 45.63 C-2.23 37.86, -1.13 28.32, 1.46 21.77 C4.06 15.22, 12.38 9.44, 14.73 6.34 C17.09 3.25, 14.94 3.17, 15.59 3.22" stroke="none" stroke-width="0" fill="#82c91e"></path><path d="M17.74 1.91 C22.97 -1.72, 33.2 -2.86, 40.35 -0.96 C47.5 0.94, 56.02 7.33, 60.63 13.31 C65.25 19.28, 67.57 27.32, 68.05 34.88 C68.53 42.44, 67.05 51.92, 63.5 58.68 C59.95 65.44, 53 72.04, 46.74 75.44 C40.47 78.84, 32.13 80.83, 25.91 79.07 C19.7 77.3, 13.58 71.06, 9.44 64.86 C5.31 58.65, 2.1 49.49, 1.1 41.83 C0.11 34.17, -1.1 25.49, 3.46 18.88 C8.03 12.28, 22.66 5.25, 28.49 2.2 C34.31 -0.85, 37.83 0.44, 38.4 0.61 M13.61 10.33 C18.25 4.82, 25.98 -0.38, 32.29 -1.3 C38.6 -2.23, 46.29 0.91, 51.47 4.79 C56.65 8.66, 60.79 15.4, 63.38 21.94 C65.96 28.47, 67.89 36.81, 66.97 44.02 C66.04 51.23, 62.26 59.1, 57.82 65.21 C53.38 71.33, 46.63 79.08, 40.33 80.69 C34.03 82.3, 26.65 78.97, 20.03 74.86 C13.41 70.76, 4.16 63.7, 0.62 56.07 C-2.92 48.43, -3.09 37.13, -1.21 29.08 C0.68 21.02, 9.9 10.35, 11.93 7.73 C13.96 5.12, 10.42 12.73, 10.97 13.38" stroke="#e67700" stroke-width="4" fill="none"></path></g><g transform="translate(946.9842126266799 868.2862203237296) rotate(0 9.773994445800781 22.5)"><text x="9.773994445800781" y="0" font-family="Virgil, Segoe UI Emoji" font-size="36px" fill="#e67700" text-anchor="middle" style="white-space: pre;" direction="ltr" dominant-baseline="text-before-edge">s</text></g><g stroke-linecap="round" transform="translate(1237.203826454625 1089.3297079036615) rotate(0 34 39)"><path d="M63.6 19.05 C67.45 24.57, 70.58 31.31, 69.87 39.03 C69.16 46.75, 63.78 58.82, 59.35 65.34 C54.91 71.86, 49.73 76.74, 43.24 78.15 C36.76 79.57, 26.81 77.06, 20.43 73.83 C14.06 70.59, 8.19 64.88, 5.02 58.74 C1.84 52.59, 0.9 44.09, 1.38 36.94 C1.87 29.79, 3.77 21.55, 7.95 15.86 C12.14 10.16, 20.26 5.18, 26.5 2.76 C32.73 0.34, 38.25 -3.58, 45.36 1.34 C52.47 6.26, 65.83 24.66, 69.17 32.29 C72.51 39.93, 66.53 47.26, 65.41 47.17 M57.31 12.52 C62.19 17.71, 67.64 28.76, 68.68 35.87 C69.72 42.99, 67.2 48.78, 63.54 55.19 C59.87 61.6, 53.01 70.96, 46.7 74.33 C40.39 77.7, 32.08 76.73, 25.65 75.42 C19.22 74.11, 12.59 71.88, 8.11 66.47 C3.63 61.07, -0.28 50.82, -1.21 42.97 C-2.14 35.12, -0.48 25.68, 2.53 19.38 C5.53 13.07, 10.87 8.63, 16.82 5.12 C22.77 1.62, 31.29 -2.58, 38.2 -1.65 C45.11 -0.72, 55.11 8.31, 58.29 10.71 C61.47 13.11, 57.33 12.12, 57.27 12.78" stroke="none" stroke-width="0" fill="#82c91e"></path><path d="M10.04 14.29 C13.92 8.84, 20.45 3.31, 26.62 1.56 C32.79 -0.19, 41.23 0.72, 47.05 3.79 C52.88 6.85, 58.35 13.22, 61.56 19.95 C64.78 26.67, 66.6 36.84, 66.34 44.16 C66.09 51.48, 64.01 58.71, 60.04 63.88 C56.07 69.04, 49.23 73.5, 42.54 75.15 C35.85 76.8, 26.35 76.14, 19.91 73.77 C13.47 71.41, 7.39 67.44, 3.9 60.97 C0.42 54.49, -2.32 43.35, -0.98 34.94 C0.35 26.52, 9.99 14.55, 11.92 10.48 C13.85 6.4, 10.59 9.57, 10.6 10.5 M33.28 -0.05 C38.93 -0.77, 45.79 1.97, 51.14 5.76 C56.48 9.55, 62.64 15.83, 65.36 22.68 C68.07 29.53, 68.76 38.59, 67.45 46.86 C66.15 55.14, 62.4 66.86, 57.53 72.34 C52.65 77.81, 45.66 79.71, 38.22 79.7 C30.78 79.68, 19.16 77.12, 12.86 72.24 C6.56 67.36, 2.17 58.11, 0.41 50.41 C-1.35 42.72, 0.31 32.66, 2.3 26.08 C4.29 19.51, 7 15.59, 12.35 10.97 C17.71 6.35, 30.87 0.22, 34.41 -1.65 C37.95 -3.51, 34.17 -1.39, 33.57 -0.22" stroke="#1864ab" stroke-width="4" fill="none"></path></g><g transform="translate(1260.992197725337 1105.752543437386) rotate(0 10.169998168945312 22.5)"><text x="10.169998168945312" y="0" font-family="Virgil, Segoe UI Emoji" font-size="36px" fill="#1864ab" text-anchor="middle" style="white-space: pre;" direction="ltr" dominant-baseline="text-before-edge">t</text></g><g stroke-linecap="round" transform="translate(1021.3908293301896 1017.392042195516) rotate(0 34 39)"><path d="M54.17 10.45 C59.14 15.16, 65.49 23.46, 67.19 30.25 C68.88 37.05, 66.86 44.59, 64.35 51.22 C61.84 57.85, 57.24 65.61, 52.13 70.05 C47.02 74.49, 40.2 77.74, 33.7 77.86 C27.2 77.97, 18.32 75.28, 13.13 70.75 C7.94 66.22, 4.5 58.46, 2.55 50.66 C0.61 42.86, -0.97 31.33, 1.45 23.95 C3.86 16.57, 11.51 10.46, 17.04 6.37 C22.57 2.27, 26.58 -4.32, 34.63 -0.61 C42.68 3.1, 60.1 19.47, 65.34 28.63 C70.58 37.78, 66.3 54.13, 66.05 54.32 M35.45 -2.64 C41.35 -3.09, 48.7 3.68, 53.61 8.6 C58.52 13.53, 63.07 19.39, 64.92 26.91 C66.78 34.43, 67.04 46.38, 64.74 53.7 C62.44 61.02, 56.83 66.9, 51.15 70.82 C45.46 74.74, 37.49 77.2, 30.62 77.21 C23.74 77.21, 15.19 75.9, 9.91 70.85 C4.63 65.79, 0.31 54.76, -1.07 46.87 C-2.44 38.97, -0.9 30.25, 1.66 23.48 C4.23 16.71, 8.38 10.2, 14.31 6.23 C20.24 2.26, 34.11 0.7, 37.25 -0.33 C40.38 -1.37, 33.88 -0.97, 33.11 0" stroke="none" stroke-width="0" fill="#82c91e"></path><path d="M47.78 4.15 C53.42 6.74, 58.88 13.91, 61.96 20.73 C65.04 27.54, 66.67 37.76, 66.27 45.06 C65.86 52.37, 63.6 59.5, 59.52 64.55 C55.43 69.6, 48.49 73.87, 41.77 75.34 C35.05 76.82, 25.57 75.94, 19.19 73.41 C12.81 70.89, 6.85 66.75, 3.51 60.19 C0.16 53.62, -2.13 42.11, -0.91 34.04 C0.31 25.97, 6.41 17.27, 10.83 11.79 C15.25 6.3, 17.18 0.07, 25.59 1.13 C34 2.19, 54.39 12.19, 61.3 18.16 C68.22 24.13, 67.65 36.79, 67.07 36.97 M32.51 -2.39 C39.17 -3.43, 47.79 -0.75, 53.73 4.44 C59.67 9.63, 65.59 20.9, 68.16 28.76 C70.73 36.62, 71.8 44.68, 69.16 51.61 C66.51 58.55, 58.26 66.4, 52.28 70.38 C46.29 74.36, 39.29 75.8, 33.25 75.49 C27.21 75.17, 21.28 72, 16.02 68.51 C10.77 65.02, 3.81 61.56, 1.72 54.55 C-0.38 47.54, 1.36 34.34, 3.47 26.44 C5.59 18.54, 9.77 11.31, 14.41 7.15 C19.05 2.99, 28.71 2.27, 31.31 1.47 C33.92 0.67, 29.25 1.48, 30.03 2.35" stroke="#000000" stroke-width="4" fill="none"></path></g><g stroke-linecap="round" transform="translate(1185.013755254598 865.0534559900318) rotate(0 34 39)"><path d="M59.8 14.05 C63.8 19.04, 66.94 29.02, 67.49 36.91 C68.05 44.81, 66.8 54.68, 63.11 61.41 C59.42 68.13, 51.66 74.56, 45.35 77.27 C39.05 79.98, 31.84 80.35, 25.28 77.66 C18.72 74.96, 9.93 67.47, 6 61.12 C2.06 54.76, 1.81 47.05, 1.68 39.5 C1.55 31.96, 1.94 22.28, 5.22 15.84 C8.5 9.4, 14.61 3.24, 21.36 0.85 C28.11 -1.55, 38.56 -1.72, 45.72 1.47 C52.88 4.66, 60.97 15.62, 64.31 20 C67.65 24.37, 66.1 27.27, 65.76 27.72 M5.58 12.75 C9.28 6.9, 17.49 4.07, 23.98 2.23 C30.48 0.39, 38.43 -0.73, 44.55 1.7 C50.67 4.14, 57.26 10.08, 60.7 16.84 C64.13 23.61, 65.58 34.93, 65.18 42.29 C64.78 49.66, 62.07 55.59, 58.28 61.03 C54.48 66.47, 48.65 72.56, 42.42 74.95 C36.19 77.34, 26.78 77.84, 20.9 75.35 C15.03 72.86, 11.07 66.53, 7.17 60.03 C3.27 53.53, -2.05 43.65, -2.48 36.34 C-2.92 29.02, 2.62 19.3, 4.56 16.13 C6.5 12.97, 8.15 17.4, 9.16 17.33" stroke="none" stroke-width="0" fill="#82c91e"></path><path d="M44.13 4.16 C50.55 5.87, 58.45 10.81, 62.56 16.54 C66.68 22.27, 69.28 30.99, 68.84 38.55 C68.4 46.11, 64.35 55.27, 59.94 61.9 C55.53 68.53, 48.82 76.18, 42.37 78.35 C35.92 80.52, 27 78.03, 21.23 74.94 C15.47 71.85, 11.57 65.97, 7.78 59.8 C4 53.63, -1.33 45.08, -1.48 37.92 C-1.63 30.76, 2.55 22.63, 6.89 16.83 C11.23 11.03, 16.05 3.73, 24.56 3.13 C33.07 2.54, 51.04 9.12, 57.96 13.26 C64.88 17.4, 66.38 27.68, 66.08 27.97 M11.71 14.91 C16.08 9.99, 24.81 4.07, 30.58 2.34 C36.35 0.61, 41.05 1.87, 46.32 4.51 C51.59 7.15, 58.44 11.99, 62.18 18.18 C65.93 24.37, 69.47 33.28, 68.8 41.65 C68.13 50.02, 62.63 62.73, 58.17 68.4 C53.71 74.08, 48.35 74.94, 42.05 75.71 C35.75 76.48, 26.98 75.84, 20.37 73.02 C13.76 70.2, 6.21 65.09, 2.38 58.78 C-1.44 52.47, -4.27 42.49, -2.58 35.15 C-0.89 27.8, 10.48 18.22, 12.51 14.72 C14.53 11.22, 9.33 13.69, 9.58 14.15" stroke="#000000" stroke-width="4" fill="none"></path></g><g stroke-linecap="round"><g transform="translate(966.5266540436569 929.4432203576125) rotate(0 28.89458578240567 44.3169403934252)"><path d="M1.49 -2.14 C11.15 13.35, 49.94 75.17, 58.94 90.78 M-1.15 2.87 C8.28 17.65, 49.02 72.08, 58.07 86.04" stroke="#a61e4d" stroke-width="4" fill="none"></path></g><g transform="translate(966.5266540436569 929.4432203576125) rotate(0 28.89458578240567 44.3169403934252)"><path d="M30.4 72.48 C42.15 73, 51.4 76.43, 56.4 83.76 M32.76 70.87 C38.99 71.97, 46.47 77.45, 59.94 85.94" stroke="#a61e4d" stroke-width="4" fill="none"></path></g><g transform="translate(966.5266540436569 929.4432203576125) rotate(0 28.89458578240567 44.3169403934252)"><path d="M47.18 60.67 C53.13 65.33, 56.75 72.71, 56.4 83.76 M49.54 59.06 C51.77 62.95, 55.03 71.4, 59.94 85.94" stroke="#a61e4d" stroke-width="4" fill="none"></path></g></g><mask></mask><g stroke-linecap="round"><g transform="translate(996.7220488298316 902.7865862431743) rotate(0 87.4262498692382 -4.0825276915994095)"><path d="M-2.58 -1.17 C26.23 -2.53, 142.12 -5.99, 171.9 -7 M1.21 -4.27 C31.03 -5.38, 148.36 -3.99, 177.44 -4.1" stroke="#a61e4d" stroke-width="4" fill="none"></path></g><g transform="translate(996.7220488298316 902.7865862431743) rotate(0 87.4262498692382 -4.0825276915994095)"><path d="M147.53 3.75 C154.68 7.56, 161.9 -0.23, 181.41 -6.06 M151.07 5.93 C157.15 2.78, 162.53 1.5, 176.48 -4.48" stroke="#a61e4d" stroke-width="4" fill="none"></path></g><g transform="translate(996.7220488298316 902.7865862431743) rotate(0 87.4262498692382 -4.0825276915994095)"><path d="M147.62 -16.77 C154.92 -7.51, 162.12 -9.85, 181.41 -6.06 M151.16 -14.59 C157.28 -13.12, 162.65 -9.79, 176.48 -4.48" stroke="#a61e4d" stroke-width="4" fill="none"></path></g></g><mask></mask><g stroke-linecap="round" transform="translate(819.5610860873202 760.7959380222048) rotate(0 234.15004916768862 177.02307934063208)"><path d="M313.88 11.59 C334.27 14.36, 354.78 25.8, 371.98 34.72 C389.18 43.64, 403.93 52.53, 417.08 65.11 C430.23 77.68, 442.79 95.05, 450.88 110.16 C458.96 125.26, 463.4 140, 465.58 155.72 C467.76 171.43, 467 188.7, 463.96 204.44 C460.92 220.18, 455.42 236.19, 447.33 250.17 C439.23 264.15, 428.94 276.3, 415.39 288.32 C401.84 300.34, 383.43 312.7, 366.03 322.27 C348.64 331.83, 330.76 340.59, 311.02 345.69 C291.28 350.79, 269.08 352.33, 247.58 352.88 C226.09 353.43, 202.42 352.44, 182.02 348.99 C161.62 345.53, 143.52 339.71, 125.2 332.18 C106.87 324.64, 87.4 314.76, 72.08 303.77 C56.76 292.78, 44.19 280, 33.29 266.24 C22.39 252.48, 12.06 236.36, 6.68 221.21 C1.3 206.06, 0.84 191.17, 1.01 175.34 C1.17 159.51, 1.75 141.41, 7.67 126.25 C13.58 111.08, 25.15 97.6, 36.5 84.33 C47.85 71.07, 60.5 57.58, 75.77 46.67 C91.04 35.76, 108.97 25.81, 128.13 18.86 C147.29 11.92, 170.19 7.87, 190.74 4.99 C211.3 2.1, 227.52 -0.68, 251.45 1.56 C275.39 3.8, 316.9 13.65, 334.35 18.43 C351.8 23.22, 357.56 28.02, 356.16 30.26 M203.36 0.48 C222.66 -4.76, 247.36 -1.51, 267.37 0.54 C287.38 2.59, 304.24 6.82, 323.4 12.76 C342.57 18.69, 365.22 26.3, 382.38 36.15 C399.55 46.01, 414.43 58.38, 426.38 71.87 C438.34 85.36, 447.46 101.55, 454.13 117.09 C460.8 132.62, 464.85 149.39, 466.4 165.08 C467.95 180.76, 467.47 195.54, 463.42 211.2 C459.37 226.85, 451.8 244.82, 442.09 259 C432.38 273.18, 419.13 285.26, 405.16 296.3 C391.2 307.33, 375.65 317.22, 358.3 325.22 C340.96 333.21, 321.49 339.42, 301.1 344.25 C280.72 349.08, 257.65 353.89, 235.97 354.22 C214.29 354.54, 190.87 350, 171.01 346.19 C151.16 342.37, 134.45 339.25, 116.87 331.34 C99.29 323.43, 80.15 311.12, 65.56 298.74 C50.96 286.36, 38.99 270.81, 29.32 257.04 C19.66 243.27, 12.15 230.84, 7.58 216.12 C3 201.4, 0.97 184.75, 1.86 168.72 C2.75 152.69, 5.92 135.6, 12.92 119.96 C19.92 104.32, 31.78 88.54, 43.86 74.9 C55.95 61.27, 69.85 48.4, 85.42 38.13 C101 27.85, 118.28 19.18, 137.3 13.27 C156.33 7.36, 188.95 4.07, 199.59 2.67 C210.24 1.27, 200.64 2.26, 201.17 4.87" stroke="#000000" stroke-width="4" fill="none"></path></g><g stroke-linecap="round"><g transform="translate(1151.4695431827809 740.4246024910931) rotate(149.5792950694539 75.59950121415483 -104.65718572173392)"><path d="M2.08 1.54 C11.6 -16.57, 32.06 -71.63, 56.96 -106.18 C81.85 -140.74, 135.16 -189.23, 151.43 -205.78 M-0.23 -0.09 C8.85 -16.61, 29.31 -68.09, 54.22 -103.22 C79.12 -138.35, 132.14 -192.91, 149.17 -210.86" stroke="#1864ab" stroke-width="4" fill="none"></path></g><g transform="translate(1151.4695431827809 740.4246024910931) rotate(149.5792950694539 75.59950121415483 -104.65718572173392)"><path d="M2.24 -7.66 C3.92 -7.81, 4.98 -8.47, 6.6 -7.57 C8.23 -6.67, 11.59 -4.44, 11.99 -2.24 C12.39 -0.04, 9.89 3.44, 9 5.62 C8.12 7.8, 8.44 9.92, 6.69 10.85 C4.93 11.78, 0.38 11.63, -1.53 11.2 C-3.43 10.78, -4.02 10.25, -4.74 8.31 C-5.47 6.36, -5.9 2.1, -5.9 -0.44 C-5.9 -2.98, -6.44 -5.5, -4.75 -6.94 C-3.06 -8.37, 1.67 -9.71, 4.25 -9.06 C6.83 -8.41, 10.46 -3.51, 10.74 -3.05 M1.64 -7.53 C3.58 -8.55, 6.42 -11.56, 8.16 -11.14 C9.91 -10.72, 11.5 -7.23, 12.09 -5.02 C12.69 -2.8, 12.46 -0.32, 11.73 2.16 C11.01 4.64, 9.16 8.15, 7.74 9.86 C6.32 11.58, 5.04 12.48, 3.2 12.45 C1.37 12.41, -1.56 11, -3.29 9.65 C-5.01 8.29, -6.81 6.08, -7.15 4.31 C-7.49 2.55, -5.99 1.09, -5.32 -0.97 C-4.65 -3.02, -3.58 -6.63, -3.14 -8.01 C-2.7 -9.38, -3.39 -9.25, -2.69 -9.22" stroke="none" stroke-width="0" fill="#1864ab"></path></g><g transform="translate(1151.4695431827809 740.4246024910931) rotate(149.5792950694539 75.59950121415483 -104.65718572173392)"><path d="M151.5 -213.33 L148.03 -195.75 L138.94 -209.36 L151.58 -212.79" stroke="none" stroke-width="0" fill="#1864ab" fill-rule="evenodd"></path><path d="M150.83 -211.85 C146.71 -207.5, 147.51 -199.93, 145.63 -196.66 M149.82 -212.2 C147.62 -206.59, 147.98 -203.93, 145.32 -196.91 M143.2 -195.87 C140.5 -200.54, 138.07 -201.93, 135.12 -207.69 M143.81 -197.69 C141.83 -199.02, 140.07 -201.87, 134.04 -204.95 M138.21 -203.72 C137.87 -204.89, 147.71 -206.44, 151.11 -208.83 M134.9 -205.42 C140.33 -207.3, 144.49 -209.04, 150.02 -211.82 M149.17 -210.86 C149.17 -210.86, 149.17 -210.86, 149.17 -210.86 M149.17 -210.86 C149.17 -210.86, 149.17 -210.86, 149.17 -210.86" stroke="#1864ab" stroke-width="4" fill="none"></path></g></g><mask></mask><g stroke-linecap="round" transform="translate(1201.8180940658963 1064.0625679683076) rotate(0 79.69564926490602 82.51673419463725)"><path d="M112 6.6 C121.87 9.8, 132.58 17.4, 139.86 25.87 C147.13 34.35, 152.44 46.62, 155.64 57.43 C158.85 68.24, 160.21 79.59, 159.08 90.72 C157.95 101.84, 154.56 114.28, 148.85 124.19 C143.14 134.11, 133.98 143.6, 124.81 150.22 C115.64 156.84, 104.1 161.66, 93.83 163.91 C83.55 166.17, 73.18 166.43, 63.18 163.76 C53.19 161.1, 42.78 154.87, 33.85 147.93 C24.91 141, 14.86 131.61, 9.58 122.13 C4.3 112.65, 2.94 101.82, 2.16 91.05 C1.37 80.28, 1.51 68.46, 4.86 57.48 C8.21 46.51, 15 33.82, 22.27 25.22 C29.55 16.63, 38.58 10.45, 48.51 5.91 C58.45 1.38, 69 -3.42, 81.9 -1.96 C94.79 -0.5, 116.82 9.46, 125.86 14.66 C134.9 19.87, 136.59 27.86, 136.15 29.26 M52.45 6.92 C61.45 2.56, 76.15 2.41, 87.33 2.91 C98.51 3.41, 110.51 5.06, 119.52 9.93 C128.53 14.8, 135.05 23.07, 141.41 32.13 C147.76 41.19, 155.26 52.69, 157.63 64.29 C160.01 75.88, 158.27 90.37, 155.66 101.7 C153.05 113.04, 148.27 123.78, 141.97 132.31 C135.67 140.85, 126.38 147.08, 117.88 152.9 C109.37 158.72, 101.24 166.07, 90.94 167.24 C80.63 168.4, 67.15 164.14, 56.04 159.92 C44.93 155.7, 31.99 148.97, 24.27 141.92 C16.55 134.87, 14.02 127.69, 9.71 117.64 C5.41 107.58, -1.23 92.73, -1.55 81.58 C-1.88 70.42, 3.2 61.2, 7.74 50.71 C12.28 40.23, 18.11 26.14, 25.69 18.67 C33.27 11.21, 48.49 7.82, 53.21 5.92 C57.92 4.01, 53.6 6.31, 53.96 7.25" stroke="#000000" stroke-width="4" fill="none"></path></g><g stroke-linecap="round"><g transform="translate(1221.593071526443 952.4806135409281) rotate(0 9.727398118015799 73.98409189442219)"><path d="M0.27 -1.79 C3.04 23.03, 14.13 121.91, 16.87 146.33 M-3.03 3.4 C0.66 28.91, 19.63 125.87, 22.48 149.76" stroke="#a61e4d" stroke-width="4" fill="none"></path></g><g transform="translate(1221.593071526443 952.4806135409281) rotate(0 9.727398118015799 73.98409189442219)"><path d="M5.27 121.49 C11.34 129.37, 13.55 139.29, 25.77 152 M9.02 123.98 C12.02 131.82, 15.16 138.22, 20.59 150.88" stroke="#a61e4d" stroke-width="4" fill="none"></path></g><g transform="translate(1221.593071526443 952.4806135409281) rotate(0 9.727398118015799 73.98409189442219)"><path d="M25.52 118.2 C25.28 127.13, 21.25 138.07, 25.77 152 M29.28 120.69 C26.01 129.18, 22.89 136.6, 20.59 150.88" stroke="#a61e4d" stroke-width="4" fill="none"></path></g></g><mask></mask></svg>