<svg version="1.1" xmlns="http://www.w3.org/2000/svg" viewBox="0 0 1759.1988591792776 330.31934227043075" width="1759.1988591792776" height="330.31934227043075">
  <!-- svg-source:excalidraw -->
  
  <defs>
    <style class="style-fonts">
      @font-face {
        font-family: "Virgil";
        src: url("https://excalidraw.com/Virgil.woff2");
      }
      @font-face {
        font-family: "Cascadia";
        src: url("https://excalidraw.com/Cascadia.woff2");
      }
    </style>
  </defs>
  <rect x="0" y="0" width="1759.1988591792776" height="330.31934227043075" fill="#ffffff"></rect><g stroke-linecap="round" transform="translate(10 129.89610951357554) rotate(0 869.5994295896388 95.2116163784276)"><path d="M32 0 M32 0 C398.22 -3.52, 768.1 -3.56, 1707.2 0 M32 0 C487.55 3.1, 943.42 2.1, 1707.2 0 M1707.2 0 C1729.25 3.96, 1739.64 12.8, 1739.2 32 M1707.2 0 C1729.34 -1.28, 1743.02 7.5, 1739.2 32 M1739.2 32 C1740.38 76.02, 1741.86 118.67, 1739.2 158.42 M1739.2 32 C1743.44 69.52, 1740.96 106.18, 1739.2 158.42 M1739.2 158.42 C1736.27 178.18, 1729.23 191.9, 1707.2 190.42 M1739.2 158.42 C1739.26 175.22, 1728.43 193.66, 1707.2 190.42 M1707.2 190.42 C1299.75 197.47, 894.2 197.85, 32 190.42 M1707.2 190.42 C1052.76 179.02, 399.84 178.95, 32 190.42 M32 190.42 C8.29 192.85, -0.47 179.3, 0 158.42 M32 190.42 C13.34 192.72, -2.29 184.18, 0 158.42 M0 158.42 C-4.3 134.46, -2.66 106.73, 0 32 M0 158.42 C-0.67 125.34, -1.88 91.66, 0 32 M0 32 C3.15 10.87, 12.02 0.52, 32 0 M0 32 C2.71 13.1, 12.55 0.24, 32 0" stroke="#5f3dc4" stroke-width="4" fill="none"></path></g><g stroke-linecap="round" transform="translate(25.515967113521583 149.6437040216938) rotate(0 294.0981039244764 73.3482081730109)"><path d="M33.01 0.87 L563.35 3.81 L578.16 7.77 L585.7 25.31 L585.74 123.1 L582.5 135.41 L568.88 142.02 L556.74 149.21 L24.93 143.16 L11.83 139.26 L-0.55 120.8 L-1.6 32.1 L3.03 17.94 L9.6 5.23 L18.59 -0.5 L29.92 -1.05" stroke="none" stroke-width="0" fill="#82c91e"></path><path d="M32 0 M32 0 C224.19 -3.31, 417.84 -3.32, 556.2 0 M32 0 C221.91 4.11, 411.61 4.32, 556.2 0 M556.2 0 C574.93 -3.95, 586.87 11.94, 588.2 32 M556.2 0 C577.44 2.43, 586.44 11.54, 588.2 32 M588.2 32 C586.28 44.93, 591.46 65.68, 588.2 114.7 M588.2 32 C590.58 58.76, 587.75 84.11, 588.2 114.7 M588.2 114.7 C590.96 138.35, 576.64 143.69, 556.2 146.7 M588.2 114.7 C591.81 137.09, 574.44 142.68, 556.2 146.7 M556.2 146.7 C347.89 144.49, 141.14 144.31, 32 146.7 M556.2 146.7 C374.67 144.97, 191.87 144.21, 32 146.7 M32 146.7 C10.08 149.95, 2.94 133.59, 0 114.7 M32 146.7 C7.48 144.96, 1.89 137.1, 0 114.7 M0 114.7 C3.3 96.94, 2.64 70.94, 0 32 M0 114.7 C-0.63 90.29, 2.02 63.56, 0 32 M0 32 C1.23 12.57, 10.16 0.93, 32 0 M0 32 C-4.33 8.88, 14.64 2.38, 32 0" stroke="#000000" stroke-width="4" fill="none"></path></g><g stroke-linecap="round" transform="translate(1272.435506054707 148.23316155682835) rotate(0 226.39206561092783 76.87456433517485)"><path d="M33.88 -2.56 L422.01 1.9 L434.28 2.93 L441.02 6.45 L455.74 26.57 L452.16 123.1 L452.92 137.74 L439.87 145.4 L419.8 150.42 L28.91 153.04 L14.7 152.71 L7.01 143.3 L-2.59 129.86 L-0.82 27.12 L8.52 8.23 L20.85 0.03 L31.51 -0.7" stroke="none" stroke-width="0" fill="#82c91e"></path><path d="M32 0 M32 0 C183.27 -0.84, 336.65 0.74, 420.78 0 M32 0 C150.73 -3.63, 266.65 -4.05, 420.78 0 M420.78 0 C440.35 0.45, 448.82 14.48, 452.78 32 M420.78 0 C441.2 1.96, 449.32 14.53, 452.78 32 M452.78 32 C456.04 59.04, 456.51 88.28, 452.78 121.75 M452.78 32 C450.53 65.29, 453.04 97.71, 452.78 121.75 M452.78 121.75 C451.72 142.39, 443.65 152.26, 420.78 153.75 M452.78 121.75 C451.06 140.27, 444.7 158.24, 420.78 153.75 M420.78 153.75 C278.11 154.72, 131.83 154.12, 32 153.75 M420.78 153.75 C302.2 153.64, 184.16 151.98, 32 153.75 M32 153.75 C14.59 153.63, 3.84 142.73, 0 121.75 M32 153.75 C6.68 156.43, -3.13 140.63, 0 121.75 M0 121.75 C-0.08 87.16, -3.25 54.13, 0 32 M0 121.75 C0.8 89.36, 1.53 57.19, 0 32 M0 32 C1.88 14.05, 7.78 -2.61, 32 0 M0 32 C2.47 8.21, 9.43 1.69, 32 0" stroke="#000000" stroke-width="4" fill="none"></path></g><g transform="translate(628.1775038318181 200.42323275685533) rotate(0 30.85198211669922 22.5)"><text x="61.70396423339844" y="0" font-family="Virgil, Segoe UI Emoji" font-size="36px" fill="#000000" text-anchor="end" style="white-space: pre;" direction="ltr" dominant-baseline="text-before-edge">tail</text></g><g transform="translate(1167.894857012365 199.01269029198966) rotate(0 40.985984802246094 22.5)"><text x="81.97196960449219" y="0" font-family="Virgil, Segoe UI Emoji" font-size="36px" fill="#000000" text-anchor="end" style="white-space: pre;" direction="ltr" dominant-baseline="text-before-edge">head</text></g><g transform="translate(22.907438326942952 55.137358875698965) rotate(0 49.967979431152344 22.5)"><text x="99.93595886230469" y="0" font-family="Virgil, Segoe UI Emoji" font-size="36px" fill="#000000" text-anchor="end" style="white-space: pre;" direction="ltr" dominant-baseline="text-before-edge">queue</text></g><g stroke-linecap="round"><g transform="translate(60.77952873516142 225.81299712443592) rotate(0 240.17344677257148 0.00041427537798810476)"><path d="M0.64 2.25 C80.97 2.19, 402.91 -1.81, 482.8 -2.25 M-2.45 1 C77.58 1.4, 401.52 -0.09, 481.54 0.16" stroke="#000000" stroke-width="4" fill="none"></path></g><g transform="translate(60.77952873516142 225.81299712443592) rotate(0 240.17344677257148 0.00041427537798810476)"><path d="M456.57 13.03 C459.61 5.48, 471.6 6.68, 482.14 -0.96 M455.29 8.93 C460.83 8.9, 470.4 3.57, 480.74 0.34" stroke="#000000" stroke-width="4" fill="none"></path></g><g transform="translate(60.77952873516142 225.81299712443592) rotate(0 240.17344677257148 0.00041427537798810476)"><path d="M456.55 -7.49 C459.32 -8.25, 471.32 -0.25, 482.14 -0.96 M455.27 -11.59 C461.08 -5.8, 470.65 -5.3, 480.74 0.34" stroke="#000000" stroke-width="4" fill="none"></path></g></g><mask></mask><g stroke-linecap="round"><g transform="translate(1275.602289607851 222.6953251462743) rotate(0 201.08607621171916 2.18710241287906)"><path d="M0.91 1.46 C68.44 1.63, 336.88 1.53, 404.22 2.22 M-2.05 -0.22 C65.18 0.12, 334.27 4.45, 401.84 4.59" stroke="#000000" stroke-width="4" fill="none"></path></g><g transform="translate(1275.602289607851 222.6953251462743) rotate(0 201.08607621171916 2.18710241287906)"><path d="M375.63 14.2 C377.65 12.35, 389.96 9.82, 405.05 8.22 M373.06 14.21 C384.37 12.46, 393.81 7.58, 402.32 4.57" stroke="#000000" stroke-width="4" fill="none"></path></g><g transform="translate(1275.602289607851 222.6953251462743) rotate(0 201.08607621171916 2.18710241287906)"><path d="M375.83 -6.32 C377.97 -2.74, 390.24 0.16, 405.05 8.22 M373.26 -6.31 C384.3 -1.22, 393.66 0.74, 402.32 4.57" stroke="#000000" stroke-width="4" fill="none"></path></g></g><mask></mask><g stroke-linecap="round"><g transform="translate(708.2185201084692 224.40245465957037) rotate(0 47.999414072040565 -0.10282568212531729)"><path d="M-2.34 0.84 C13.93 0.88, 81.96 2.32, 98.34 2.32 M1.58 -1.17 C17.64 -2.2, 81.99 -3, 97.42 -2.2" stroke="#000000" stroke-width="4" fill="none"></path></g><g transform="translate(708.2185201084692 224.40245465957037) rotate(0 47.999414072040565 -0.10282568212531729)"><path d="M70.3 11.15 C79.45 4.98, 86.53 5.35, 99.27 -1.76 M69.43 8.69 C76.21 7.7, 83.35 4.82, 95.57 -3.42" stroke="#000000" stroke-width="4" fill="none"></path></g><g transform="translate(708.2185201084692 224.40245465957037) rotate(0 47.999414072040565 -0.10282568212531729)"><path d="M70.57 -9.37 C79.95 -8.87, 86.94 -1.82, 99.27 -1.76 M69.7 -11.83 C76.82 -8.02, 83.89 -6.1, 95.57 -3.42" stroke="#000000" stroke-width="4" fill="none"></path></g></g><mask></mask><g transform="translate(715.9943612417469 172.21238345954328) rotate(0 42.65998077392578 22.5)"><text x="85.31996154785156" y="0" font-family="Virgil, Segoe UI Emoji" font-size="36px" fill="#c92a2a" text-anchor="end" style="white-space: pre;" direction="ltr" dominant-baseline="text-before-edge">write</text></g><g transform="translate(1302.7898495642237 162.33858620548426) rotate(0 39.833984375 22.5)"><text x="79.66796875" y="0" font-family="Virgil, Segoe UI Emoji" font-size="36px" fill="#c92a2a" text-anchor="end" style="white-space: pre;" direction="ltr" dominant-baseline="text-before-edge">read</text></g><g stroke-linecap="round"><g transform="translate(1275.2565909844382 104.5063451459948) rotate(0 228.95507925026197 -19.552423073479837)"><path d="M-0.63 -2.32 C35.33 -8.22, 140.13 -36.84, 216.66 -37.17 C293.18 -37.51, 418.03 -10.43, 458.54 -4.32 M4.22 2.6 C39.94 -4.03, 140.34 -40.92, 215.64 -41.69 C290.94 -42.46, 415.26 -8.09, 456.03 -2.02" stroke="#c92a2a" stroke-width="4" fill="none"></path></g></g><mask></mask><g transform="translate(1464.364076225828 10) rotate(0 37.33197784423828 22.5)"><text x="74.66395568847656" y="0" font-family="Virgil, Segoe UI Emoji" font-size="36px" fill="#c92a2a" text-anchor="end" style="white-space: pre;" direction="ltr" dominant-baseline="text-before-edge">peek</text></g></svg>