<svg version="1.1" xmlns="http://www.w3.org/2000/svg" viewBox="0 0 842.7090683651402 753.2418883538013" width="842.7090683651402" height="753.2418883538013">
  <!-- svg-source:excalidraw -->
  
  <defs>
    <style class="style-fonts">
      @font-face {
        font-family: "Virgil";
        src: url("https://excalidraw.com/Virgil.woff2");
      }
      @font-face {
        font-family: "Cascadia";
        src: url("https://excalidraw.com/Cascadia.woff2");
      }
    </style>
    
  </defs>
  <rect x="0" y="0" width="842.7090683651402" height="753.2418883538013" fill="#ffffff"></rect><g stroke-linecap="round" transform="translate(171.4299117595899 88.77001718389647) rotate(0 264.5116626422198 264.9978973161947)"><path d="M-0.18 -1.38 C136.51 1.84, 271.16 1.91, 530.03 -0.1 M0.17 0.34 C175.4 -2.84, 352.19 -2.7, 528.59 -0.06 M528.72 -0.4 C529.68 130.13, 530.63 262.33, 529.64 528.71 M529.4 0.37 C526.3 156.83, 527.14 312.15, 528.79 529.32 M529.43 529.9 C381.23 530.21, 230.06 530.65, 0.7 528.42 M529.37 529.45 C344.81 532.91, 160.67 533.39, -0.44 529.82 M0.76 531.18 C-3.78 419.03, -3.98 306.52, -0.78 -1.45 M-0.13 530.6 C-2.94 364.71, -2.56 197.99, -0.07 -0.64" stroke="#1971c2" stroke-width="4" fill="none"></path></g><g stroke-linecap="round" transform="translate(337.722170258927 76.12791566055506) rotate(0 25.770437720657583 278.6124681874854)"><path d="M-3.9 -2.75 C8.89 1.79, 26.66 1.51, 52.04 -1.76 M1.23 1.86 C12.61 -2.77, 26.69 0.32, 49.58 -1.81 M53.08 -1.52 C54.64 146.45, 54.47 293.14, 50.67 557.36 M52.25 0.6 C54.79 178.98, 55.35 358.18, 50.97 557.51 M53.35 557.46 C29.75 560.08, 10.09 560.25, 3.28 560.24 M52.37 558.77 C37.39 557.34, 23.8 556.3, -0.12 556.91 M-0.14 555.69 C-0.45 354.76, -2.14 153.36, 1.16 1.29 M0.29 556.83 C-1.18 354.71, -0.77 153.46, -0.53 0.79" stroke="#e03131" stroke-width="4" fill="none"></path></g><g stroke-linecap="round" transform="translate(159.76027958419786 326.05253808353507) rotate(0 276.1812948176123 28.687845764505482)"><path d="M-0.73 0 C186.91 0.53, 376.69 1.64, 552.79 -0.53 M-0.04 -0.47 C161.35 -1.48, 322.44 -1.56, 552.48 0.23 M550.47 -0.54 C554.36 16.67, 555.73 41.22, 553.29 56.91 M553.11 -1.33 C551.37 18.82, 553.02 40.03, 553.94 56.59 M550.88 58.2 C342.9 55.4, 134.07 54.21, -1.13 56.47 M552.42 56.92 C353.84 60.42, 155.04 60.31, 0.47 58.07 M-2.94 54.8 C-4.11 38.43, 2.62 12.97, 2.85 -1.27 M0.52 57.48 C-1.13 38.63, 2.62 22.85, 0.78 -1.14" stroke="#e03131" stroke-width="4" fill="none"></path></g><g transform="translate(587.6467926819071 10) rotate(0 5.3485814137213765 23.339264350784134)" stroke="none"><path fill="#e03131" d="M 1.91,0.59 Q 1.91,0.59 0.42,5.04 -1.05,9.48 -1.97,13.52 -2.89,17.57 -3.87,21.83 -4.85,26.10 -5.27,29.24 -5.69,32.38 -5.88,34.82 -6.07,37.27 -6.41,39.25 -6.75,41.23 -6.78,42.30 -6.81,43.36 -4.55,43.96 -2.30,44.56 0.21,44.40 2.73,44.24 4.73,44.16 6.72,44.08 8.58,43.79 10.44,43.50 11.87,43.28 13.31,43.06 15.01,42.50 16.71,41.93 17.07,41.35 17.43,40.76 17.65,40.47 17.87,40.17 18.17,39.96 18.48,39.76 18.83,39.66 19.18,39.55 19.55,39.57 19.92,39.59 20.26,39.72 20.60,39.86 20.88,40.09 21.17,40.33 21.36,40.64 21.55,40.96 21.63,41.31 21.71,41.67 21.68,42.04 21.64,42.40 21.49,42.74 21.33,43.07 21.08,43.34 20.83,43.61 20.51,43.78 20.18,43.96 19.82,44.02 19.46,44.08 19.10,44.03 18.73,43.97 18.41,43.80 18.08,43.63 17.83,43.36 17.57,43.10 17.42,42.77 17.26,42.43 17.22,42.07 17.17,41.70 17.25,41.34 17.33,40.98 17.52,40.67 17.70,40.35 17.98,40.11 18.26,39.87 18.60,39.73 18.94,39.60 19.31,39.57 19.67,39.55 20.03,39.65 20.38,39.74 20.69,39.95 21.00,40.15 21.22,40.44 21.44,40.73 21.56,41.08 21.68,41.43 21.69,41.80 21.69,42.16 21.57,42.51 21.46,42.86 21.46,42.86 21.46,42.86 18.92,44.54 16.38,46.22 15.04,46.51 13.70,46.81 12.35,46.87 11.01,46.92 8.97,47.29 6.93,47.65 5.01,47.79 3.10,47.93 0.35,48.29 -2.38,48.65 -4.78,48.72 -7.19,48.79 -8.87,47.53 -10.55,46.26 -10.40,44.57 -10.25,42.89 -9.98,41.78 -9.71,40.68 -9.34,38.87 -8.98,37.07 -8.83,34.54 -8.69,32.01 -8.32,28.72 -7.95,25.43 -7.07,21.15 -6.19,16.87 -5.36,12.63 -4.53,8.40 -3.22,3.90 -1.91,-0.59 -1.81,-0.81 -1.71,-1.03 -1.56,-1.22 -1.41,-1.41 -1.22,-1.56 -1.03,-1.71 -0.81,-1.81 -0.59,-1.91 -0.35,-1.95 -0.11,-2.00 0.12,-1.98 0.36,-1.97 0.59,-1.89 0.82,-1.82 1.03,-1.70 1.23,-1.57 1.40,-1.40 1.57,-1.23 1.70,-1.02 1.82,-0.82 1.90,-0.59 1.97,-0.35 1.98,-0.11 2.00,0.12 1.95,0.36 1.91,0.59 1.91,0.59 L 1.91,0.59 Z"></path></g><g transform="translate(617.7933424683367 40.146549786429546) rotate(0 -2.917408043848127 15.073274893214744)" stroke="none"><path fill="#e03131" d="M 2.11,0.35 Q 2.11,0.35 1.16,5.36 0.21,10.38 -0.49,14.45 -1.21,18.52 -1.82,21.14 -2.44,23.75 -2.62,25.38 -2.80,27.00 -3.41,28.82 -4.02,30.65 -4.15,30.92 -4.27,31.20 -4.48,31.42 -4.69,31.64 -4.96,31.78 -5.23,31.92 -5.53,31.97 -5.83,32.02 -6.13,31.97 -6.43,31.92 -6.70,31.78 -6.97,31.64 -7.18,31.42 -7.39,31.20 -7.51,30.92 -7.64,30.64 -7.67,30.34 -7.71,30.04 -7.64,29.74 -7.58,29.44 -7.42,29.18 -7.26,28.92 -7.03,28.73 -6.80,28.53 -6.52,28.42 -6.23,28.31 -5.93,28.29 -5.63,28.27 -5.33,28.35 -5.04,28.44 -4.79,28.61 -4.54,28.78 -4.35,29.02 -4.17,29.26 -4.07,29.55 -3.97,29.84 -3.97,30.14 -3.97,30.45 -4.07,30.74 -4.17,31.02 -4.35,31.27 -4.54,31.51 -4.79,31.68 -5.04,31.85 -5.34,31.93 -5.63,32.01 -5.93,31.99 -6.24,31.98 -6.52,31.86 -6.80,31.75 -7.03,31.55 -7.26,31.36 -7.42,31.10 -7.58,30.84 -7.64,30.54 -7.71,30.24 -7.67,29.94 -7.64,29.64 -7.64,29.64 -7.64,29.64 -6.93,28.04 -6.22,26.44 -5.93,24.76 -5.65,23.07 -5.16,20.53 -4.68,17.98 -4.13,13.86 -3.57,9.74 -2.84,4.69 -2.11,-0.35 -2.03,-0.59 -1.96,-0.84 -1.83,-1.07 -1.70,-1.29 -1.52,-1.47 -1.34,-1.66 -1.12,-1.80 -0.91,-1.93 -0.66,-2.01 -0.41,-2.09 -0.16,-2.11 0.09,-2.13 0.34,-2.09 0.60,-2.05 0.84,-1.95 1.07,-1.85 1.28,-1.69 1.48,-1.53 1.65,-1.33 1.81,-1.13 1.92,-0.90 2.03,-0.66 2.08,-0.41 2.13,-0.16 2.12,0.09 2.11,0.35 2.11,0.35 L 2.11,0.35 Z"></path></g><g transform="translate(21.669632175392053 314.382905908143) rotate(0 7.29352010962009 41.81618196182154)" stroke="none"><path fill="#e03131" d="M 1.71,0.41 Q 1.71,0.41 -0.02,7.38 -1.76,14.36 -3.35,20.95 -4.94,27.54 -6.19,33.40 -7.44,39.25 -8.25,44.78 -9.06,50.30 -9.41,55.41 -9.76,60.52 -9.92,65.21 -10.07,69.90 -10.14,73.01 -10.21,76.12 -10.19,78.01 -10.17,79.89 -8.61,80.65 -7.04,81.42 -4.76,81.58 -2.47,81.74 1.22,81.56 4.92,81.38 8.52,79.72 12.11,78.05 14.98,75.48 17.85,72.92 19.64,70.74 21.43,68.57 23.20,66.32 24.98,64.06 25.19,63.89 25.39,63.71 25.65,63.61 25.90,63.52 26.17,63.50 26.44,63.49 26.70,63.56 26.96,63.64 27.18,63.79 27.41,63.94 27.57,64.16 27.73,64.37 27.82,64.63 27.90,64.89 27.90,65.16 27.90,65.43 27.81,65.68 27.73,65.94 27.56,66.15 27.40,66.37 27.17,66.52 26.95,66.67 26.69,66.74 26.43,66.81 26.16,66.80 25.89,66.78 25.63,66.68 25.38,66.58 25.18,66.40 24.97,66.23 24.83,66.00 24.70,65.76 24.64,65.50 24.58,65.23 24.61,64.97 24.64,64.70 24.76,64.45 24.87,64.21 25.06,64.01 25.24,63.82 25.48,63.69 25.72,63.56 25.99,63.52 26.26,63.48 26.53,63.52 26.79,63.57 27.03,63.70 27.27,63.82 27.45,64.02 27.64,64.22 27.75,64.46 27.87,64.71 27.89,64.98 27.92,65.25 27.86,65.51 27.80,65.78 27.66,66.01 27.52,66.24 27.52,66.24 27.52,66.24 25.59,68.31 23.66,70.39 21.75,72.76 19.84,75.13 16.64,77.99 13.45,80.85 9.33,82.75 5.21,84.65 1.31,84.96 -2.59,85.27 -5.05,85.27 -7.50,85.26 -9.54,84.86 -11.58,84.46 -12.35,83.48 -13.11,82.50 -13.10,81.17 -13.08,79.85 -13.01,77.96 -12.94,76.07 -12.88,72.94 -12.83,69.81 -12.70,65.08 -12.56,60.34 -12.24,55.12 -11.91,49.90 -11.13,44.27 -10.35,38.65 -9.15,32.74 -7.96,26.83 -6.45,20.21 -4.94,13.59 -3.32,6.59 -1.71,-0.41 -1.63,-0.60 -1.56,-0.80 -1.44,-0.98 -1.32,-1.15 -1.16,-1.30 -1.00,-1.44 -0.82,-1.54 -0.63,-1.64 -0.42,-1.69 -0.22,-1.74 -0.01,-1.74 0.20,-1.74 0.40,-1.69 0.61,-1.64 0.80,-1.55 0.99,-1.45 1.15,-1.31 1.31,-1.17 1.43,-1.00 1.55,-0.82 1.62,-0.62 1.70,-0.43 1.73,-0.22 1.75,-0.01 1.73,0.20 1.71,0.41 1.71,0.41 L 1.71,0.41 Z"></path></g><g transform="translate(61.54087544131494 357.1715572179138) rotate(0 21.394325654885506 21.880560328860156)" stroke="none"><path fill="#e03131" d="M 1.44,-1.44 Q 1.44,-1.44 3.33,0.58 5.21,2.60 7.11,4.61 9.01,6.61 10.72,8.96 12.42,11.31 13.94,13.39 15.46,15.48 16.46,17.28 17.47,19.09 18.23,20.70 18.99,22.31 19.41,23.65 19.84,24.99 20.06,26.22 20.28,27.46 19.76,29.21 19.23,30.96 18.03,32.58 16.83,34.21 15.46,35.85 14.09,37.50 12.61,39.08 11.13,40.65 10.01,41.90 8.89,43.15 8.72,43.30 8.56,43.44 8.37,43.54 8.17,43.65 7.96,43.70 7.75,43.75 7.53,43.75 7.31,43.75 7.10,43.70 6.88,43.65 6.69,43.55 6.49,43.44 6.33,43.30 6.17,43.15 6.04,42.97 5.92,42.79 5.84,42.59 5.76,42.38 5.73,42.16 5.71,41.95 5.73,41.73 5.76,41.51 5.84,41.31 5.92,41.10 6.04,40.92 6.17,40.74 8.01,41.08 9.86,41.42 11.37,41.51 12.89,41.59 15.87,41.75 18.86,41.91 22.38,42.00 25.90,42.10 29.36,42.15 32.81,42.21 35.32,41.97 37.83,41.73 40.24,41.41 42.64,41.09 42.92,41.11 43.19,41.13 43.44,41.24 43.70,41.35 43.90,41.53 44.11,41.71 44.24,41.95 44.38,42.19 44.43,42.46 44.48,42.73 44.45,43.01 44.41,43.28 44.29,43.53 44.17,43.77 43.97,43.97 43.78,44.16 43.53,44.29 43.29,44.41 43.01,44.45 42.74,44.48 42.47,44.43 42.20,44.38 41.96,44.25 41.72,44.11 41.54,43.91 41.35,43.70 41.24,43.45 41.13,43.20 41.11,42.92 41.09,42.65 41.15,42.38 41.22,42.12 41.37,41.88 41.52,41.65 41.73,41.48 41.94,41.30 42.20,41.21 42.46,41.11 42.73,41.11 43.01,41.10 43.27,41.18 43.54,41.26 43.76,41.42 43.98,41.58 44.14,41.80 44.31,42.02 44.39,42.29 44.47,42.55 44.46,42.83 44.45,43.10 44.36,43.36 44.27,43.62 44.09,43.83 43.92,44.05 43.69,44.20 43.46,44.34 43.19,44.41 42.93,44.48 42.93,44.48 42.93,44.48 40.53,44.56 38.14,44.64 35.47,44.95 32.80,45.25 29.33,45.28 25.86,45.30 22.31,45.31 18.75,45.32 15.61,45.30 12.47,45.27 10.68,44.21 8.89,43.15 8.72,43.30 8.56,43.44 8.37,43.54 8.17,43.65 7.96,43.70 7.75,43.75 7.53,43.75 7.31,43.75 7.10,43.70 6.88,43.65 6.69,43.55 6.49,43.44 6.33,43.30 6.17,43.15 6.04,42.97 5.92,42.79 5.84,42.59 5.76,42.38 5.73,42.16 5.71,41.95 5.73,41.73 5.76,41.51 5.84,41.31 5.92,41.10 6.04,40.92 6.17,40.74 7.34,39.54 8.52,38.34 9.81,36.79 11.10,35.24 12.30,33.46 13.51,31.69 14.41,30.54 15.32,29.38 15.79,27.61 16.25,25.83 16.10,24.72 15.95,23.61 15.35,22.09 14.76,20.56 13.89,18.93 13.02,17.30 11.44,15.26 9.87,13.22 8.24,11.12 6.60,9.01 4.60,7.11 2.60,5.21 0.58,3.33 -1.44,1.44 -1.59,1.24 -1.74,1.05 -1.84,0.83 -1.94,0.60 -1.99,0.36 -2.03,0.12 -2.02,-0.12 -2.00,-0.36 -1.93,-0.60 -1.85,-0.83 -1.73,-1.04 -1.60,-1.25 -1.43,-1.43 -1.25,-1.60 -1.04,-1.73 -0.83,-1.85 -0.60,-1.93 -0.36,-2.00 -0.12,-2.02 0.12,-2.03 0.36,-1.99 0.60,-1.94 0.83,-1.84 1.05,-1.74 1.24,-1.59 1.44,-1.44 1.44,-1.44 L 1.44,-1.44 Z"></path></g><g transform="translate(416.4921874428235 661.5544631260568) rotate(0 3.403642717822777 27.715376416556126)" stroke="none"><path fill="#e03131" d="M 1.30,1.08 Q 1.30,1.08 -0.13,2.72 -1.56,4.36 -2.94,6.88 -4.32,9.41 -5.47,12.40 -6.63,15.39 -7.69,18.36 -8.76,21.33 -9.48,25.01 -10.19,28.69 -10.50,32.19 -10.81,35.68 -10.95,39.12 -11.09,42.56 -10.87,44.78 -10.66,47.01 -10.20,48.11 -9.73,49.21 -8.82,50.26 -7.91,51.32 -5.96,51.97 -4.01,52.62 -2.35,52.84 -0.69,53.06 1.17,53.20 3.05,53.34 5.13,53.19 7.21,53.04 9.03,52.92 10.86,52.80 12.73,52.21 14.61,51.62 16.62,50.43 18.63,49.23 19.01,49.16 19.40,49.09 19.80,49.15 20.19,49.21 20.54,49.39 20.89,49.57 21.17,49.85 21.45,50.13 21.62,50.49 21.79,50.84 21.84,51.24 21.89,51.63 21.81,52.02 21.73,52.40 21.53,52.75 21.33,53.09 21.04,53.35 20.74,53.61 20.37,53.76 20.01,53.92 19.61,53.94 19.22,53.97 18.84,53.87 18.45,53.77 18.12,53.55 17.79,53.34 17.55,53.03 17.30,52.72 17.17,52.34 17.04,51.97 17.03,51.58 17.03,51.18 17.15,50.80 17.27,50.43 17.50,50.11 17.73,49.79 18.06,49.56 18.38,49.33 18.76,49.22 19.14,49.11 19.54,49.12 19.93,49.14 20.30,49.28 20.67,49.42 20.98,49.67 21.28,49.92 21.49,50.26 21.70,50.59 21.79,50.98 21.88,51.36 21.85,51.76 21.81,52.15 21.65,52.51 21.49,52.88 21.22,53.17 20.96,53.46 20.61,53.65 20.26,53.84 20.26,53.84 20.26,53.84 18.76,54.33 17.26,54.81 15.45,55.33 13.63,55.86 12.36,56.13 11.09,56.41 9.34,56.49 7.60,56.58 5.23,56.91 2.87,57.24 0.85,57.20 -1.15,57.15 -3.38,56.94 -5.60,56.72 -6.98,56.12 -8.35,55.53 -10.15,53.84 -11.95,52.16 -12.36,51.14 -12.76,50.12 -13.05,48.70 -13.33,47.28 -13.56,44.87 -13.80,42.46 -13.67,38.95 -13.54,35.45 -13.24,31.81 -12.93,28.17 -12.19,24.28 -11.44,20.39 -10.40,17.37 -9.36,14.36 -8.18,11.17 -6.99,7.97 -5.51,5.16 -4.02,2.34 -2.66,0.62 -1.30,-1.08 -1.15,-1.22 -1.00,-1.36 -0.82,-1.46 -0.64,-1.56 -0.45,-1.62 -0.25,-1.67 -0.05,-1.68 0.15,-1.68 0.35,-1.64 0.55,-1.60 0.73,-1.51 0.92,-1.42 1.07,-1.29 1.23,-1.16 1.35,-0.99 1.47,-0.83 1.55,-0.64 1.63,-0.45 1.66,-0.25 1.69,-0.05 1.67,0.15 1.65,0.35 1.59,0.54 1.52,0.74 1.41,0.91 1.30,1.08 1.30,1.08 L 1.30,1.08 Z"></path></g><g transform="translate(461.2257774484931 705.315583783777) rotate(0 7.779754783594626 18.476917611037493)" stroke="none"><path fill="#e03131" d="M -0.45,-2.26 Q -0.45,-2.26 0.94,-2.56 2.33,-2.85 3.90,-3.00 5.46,-3.15 7.35,-3.22 9.24,-3.29 10.27,-2.66 11.29,-2.02 11.76,-0.77 12.23,0.47 12.24,2.35 12.24,4.23 12.10,6.38 11.96,8.52 11.98,9.99 12.01,11.47 11.64,12.85 11.27,14.24 9.96,15.43 8.66,16.62 7.40,17.46 6.13,18.30 4.35,19.20 2.56,20.10 1.11,20.60 -0.33,21.11 -0.59,21.32 -0.84,21.52 -1.13,21.57 -1.42,21.63 -1.71,21.61 -2.01,21.59 -2.28,21.50 -2.56,21.41 -2.81,21.26 -3.07,21.11 -3.27,20.90 -3.48,20.69 -3.63,20.44 -3.78,20.19 -3.87,19.91 -3.95,19.63 -3.97,19.34 -3.99,19.05 -3.93,18.76 -3.88,18.47 -3.76,18.20 -3.64,17.94 -3.46,17.71 -3.28,17.48 -3.05,17.30 -2.81,17.12 -2.55,17.00 -2.28,16.88 -1.07,16.88 0.12,16.88 1.19,16.87 2.25,16.87 3.56,16.87 4.86,16.87 6.54,16.93 8.21,16.98 9.76,17.00 11.32,17.02 13.49,17.35 15.66,17.67 16.71,18.65 17.75,19.64 18.41,20.64 19.08,21.64 19.63,23.76 20.18,25.87 20.45,27.02 20.72,28.17 20.55,29.68 20.38,31.19 19.56,32.63 18.74,34.08 17.67,35.08 16.60,36.08 15.54,36.78 14.49,37.48 13.06,38.09 11.62,38.71 9.95,39.00 8.28,39.30 5.32,40.00 2.36,40.69 1.91,40.69 1.46,40.68 1.03,40.53 0.60,40.38 0.24,40.10 -0.11,39.83 -0.36,39.45 -0.61,39.07 -0.72,38.63 -0.84,38.19 -0.81,37.74 -0.78,37.29 -0.61,36.87 -0.43,36.45 -0.14,36.11 0.15,35.77 0.54,35.54 0.93,35.31 1.38,35.21 1.82,35.12 2.27,35.18 2.72,35.23 3.13,35.42 3.54,35.62 3.86,35.94 4.19,36.25 4.40,36.65 4.61,37.06 4.67,37.50 4.74,37.95 4.66,38.40 4.59,38.85 4.37,39.24 4.15,39.64 3.82,39.95 3.49,40.26 3.07,40.44 2.66,40.63 2.21,40.67 1.76,40.72 1.32,40.62 0.87,40.51 0.49,40.27 0.10,40.04 -0.18,39.69 -0.47,39.34 -0.63,38.92 -0.79,38.49 -0.81,38.04 -0.83,37.59 -0.71,37.15 -0.58,36.72 -0.32,36.34 -0.06,35.97 0.29,35.70 0.66,35.43 1.09,35.29 1.52,35.15 1.52,35.15 1.52,35.15 3.12,34.96 4.72,34.77 7.11,34.20 9.50,33.64 11.29,32.75 13.08,31.87 14.13,30.96 15.18,30.04 15.23,28.66 15.29,27.27 14.83,25.87 14.38,24.47 13.91,23.40 13.44,22.33 12.37,22.10 11.31,21.86 9.75,21.87 8.20,21.89 6.51,21.93 4.82,21.98 3.47,21.96 2.12,21.93 0.63,21.73 -0.84,21.52 -1.13,21.57 -1.42,21.63 -1.71,21.61 -2.01,21.59 -2.28,21.50 -2.56,21.41 -2.81,21.26 -3.07,21.11 -3.27,20.90 -3.48,20.69 -3.63,20.44 -3.78,20.19 -3.87,19.91 -3.95,19.63 -3.97,19.34 -3.99,19.05 -3.93,18.76 -3.88,18.47 -3.76,18.20 -3.64,17.94 -3.46,17.71 -3.28,17.48 -3.05,17.30 -2.82,17.12 -2.55,17.00 -2.28,16.88 -2.02,16.75 -1.77,16.63 -0.70,16.35 0.35,16.08 1.86,15.15 3.37,14.21 5.39,12.83 7.41,11.44 7.41,10.00 7.42,8.56 7.23,6.48 7.05,4.39 7.66,2.90 8.26,1.41 7.06,1.48 5.85,1.56 4.55,1.65 3.25,1.73 1.85,2.00 0.45,2.26 0.17,2.28 -0.10,2.30 -0.37,2.26 -0.65,2.21 -0.90,2.10 -1.16,1.99 -1.38,1.82 -1.60,1.66 -1.78,1.44 -1.95,1.22 -2.07,0.97 -2.19,0.72 -2.24,0.44 -2.30,0.17 -2.29,-0.10 -2.27,-0.37 -2.20,-0.64 -2.12,-0.91 -1.98,-1.15 -1.84,-1.39 -1.64,-1.59 -1.45,-1.79 -1.21,-1.94 -0.98,-2.09 -0.71,-2.17 -0.45,-2.26 -0.45,-2.26 L -0.45,-2.26 Z"></path></g><g transform="translate(775.3333768361292 357.1715572179138) rotate(0 2.2737367544323206e-13 26.742907068606826)" stroke="none"><path fill="#e03131" d="M 1.98,0.46 Q 1.98,0.46 0.76,5.19 -0.44,9.92 -1.25,15.48 -2.06,21.04 -2.71,26.76 -3.36,32.49 -3.65,36.86 -3.94,41.22 -4.07,44.20 -4.21,47.17 -4.17,48.72 -4.13,50.27 -2.95,50.72 -1.77,51.17 -0.42,51.17 0.91,51.17 3.02,50.64 5.12,50.11 5.52,50.06 5.92,50.01 6.32,50.09 6.72,50.17 7.07,50.37 7.42,50.58 7.69,50.88 7.95,51.18 8.11,51.56 8.26,51.93 8.29,52.33 8.32,52.74 8.22,53.13 8.12,53.52 7.90,53.86 7.67,54.20 7.36,54.45 7.04,54.70 6.66,54.84 6.27,54.97 5.87,54.98 5.46,54.98 5.08,54.86 4.69,54.74 4.37,54.50 4.04,54.26 3.81,53.93 3.58,53.60 3.46,53.21 3.35,52.82 3.36,52.41 3.38,52.01 3.52,51.63 3.67,51.25 3.92,50.94 4.18,50.63 4.52,50.41 4.87,50.20 5.26,50.11 5.65,50.01 6.06,50.05 6.46,50.09 6.83,50.25 7.20,50.41 7.50,50.69 7.80,50.96 7.99,51.32 8.19,51.67 8.26,52.07 8.33,52.47 8.27,52.87 8.21,53.27 8.03,53.63 7.85,53.99 7.56,54.27 7.27,54.56 6.90,54.73 6.54,54.91 6.54,54.91 6.54,54.91 3.68,55.31 0.81,55.70 -0.60,55.64 -2.02,55.58 -4.39,54.85 -6.77,54.12 -7.08,52.14 -7.40,50.17 -7.26,48.62 -7.13,47.06 -7.05,44.06 -6.97,41.05 -6.75,36.60 -6.53,32.16 -5.98,26.37 -5.43,20.59 -4.73,14.83 -4.03,9.08 -3.00,4.30 -1.98,-0.46 -1.89,-0.69 -1.81,-0.92 -1.67,-1.13 -1.53,-1.33 -1.35,-1.49 -1.17,-1.66 -0.95,-1.77 -0.74,-1.89 -0.50,-1.95 -0.26,-2.01 -0.02,-2.02 0.22,-2.02 0.46,-1.96 0.70,-1.91 0.92,-1.79 1.13,-1.68 1.32,-1.52 1.50,-1.36 1.65,-1.16 1.79,-0.96 1.88,-0.73 1.97,-0.50 2.00,-0.26 2.03,-0.02 2.00,0.22 1.98,0.46 1.98,0.46 L 1.98,0.46 Z"></path></g><g transform="translate(812.287212058204 388.29057635229265) rotate(0 7.7797547835948535 12.64210152334141)" stroke="none"><path fill="#e03131" d="M 1.89,0.54 Q 1.89,0.54 1.27,2.48 0.65,4.42 -0.22,6.68 -1.11,8.94 -1.75,11.20 -2.40,13.46 -2.68,15.74 -2.96,18.01 -3.00,19.54 -3.03,21.07 -1.95,21.03 -0.87,20.99 0.76,21.10 2.40,21.20 4.22,21.28 6.04,21.35 7.66,21.34 9.28,21.34 10.95,21.20 12.61,21.07 14.02,21.33 15.42,21.60 18.21,22.26 21.01,22.92 21.37,23.08 21.73,23.23 22.02,23.49 22.31,23.76 22.51,24.10 22.70,24.44 22.77,24.83 22.85,25.22 22.79,25.60 22.74,25.99 22.57,26.35 22.39,26.70 22.11,26.98 21.83,27.25 21.48,27.43 21.13,27.60 20.74,27.66 20.35,27.71 19.96,27.63 19.58,27.56 19.23,27.37 18.89,27.17 18.63,26.88 18.37,26.59 18.21,26.23 18.06,25.86 18.03,25.47 17.99,25.08 18.09,24.70 18.18,24.32 18.40,23.99 18.61,23.65 18.92,23.41 19.22,23.16 19.59,23.03 19.96,22.89 20.35,22.88 20.75,22.87 21.12,22.99 21.50,23.10 21.82,23.33 22.14,23.56 22.37,23.88 22.60,24.20 22.71,24.58 22.83,24.95 22.81,25.35 22.80,25.74 22.67,26.11 22.53,26.48 22.29,26.78 22.04,27.09 21.71,27.30 21.38,27.51 20.99,27.61 20.61,27.70 20.22,27.67 19.83,27.64 19.83,27.64 19.83,27.64 16.19,26.61 12.56,25.59 10.89,25.43 9.23,25.27 7.58,25.22 5.94,25.17 4.03,25.14 2.13,25.11 0.26,24.97 -1.60,24.84 -3.44,24.20 -5.28,23.57 -5.82,22.25 -6.35,20.94 -6.17,19.31 -5.98,17.68 -5.73,15.17 -5.49,12.66 -4.90,10.23 -4.31,7.80 -3.60,5.60 -2.89,3.40 -2.39,1.43 -1.89,-0.54 -1.80,-0.76 -1.71,-0.98 -1.56,-1.17 -1.42,-1.36 -1.24,-1.51 -1.06,-1.66 -0.84,-1.76 -0.63,-1.86 -0.39,-1.91 -0.16,-1.96 0.07,-1.95 0.30,-1.94 0.53,-1.88 0.76,-1.81 0.97,-1.69 1.17,-1.58 1.35,-1.41 1.52,-1.25 1.65,-1.05 1.77,-0.85 1.85,-0.62 1.93,-0.40 1.95,-0.16 1.97,0.07 1.93,0.30 1.89,0.54 1.89,0.54 L 1.89,0.54 Z"></path></g><g transform="translate(826.8742522774444 399.9602085276847) rotate(0 -5.3485814137213765 20.9080909809108)" stroke="none"><path fill="#e03131" d="M 1.78,0.63 Q 1.78,0.63 0.31,4.52 -1.15,8.41 -2.34,12.25 -3.54,16.08 -4.63,19.68 -5.72,23.28 -6.75,27.03 -7.78,30.78 -8.21,33.69 -8.64,36.60 -8.84,39.30 -9.03,42.00 -9.11,42.26 -9.18,42.52 -9.34,42.75 -9.49,42.97 -9.71,43.13 -9.92,43.29 -10.18,43.38 -10.44,43.46 -10.71,43.46 -10.98,43.46 -11.23,43.37 -11.49,43.28 -11.70,43.12 -11.91,42.95 -12.06,42.73 -12.21,42.50 -12.28,42.24 -12.35,41.98 -12.34,41.71 -12.32,41.44 -12.22,41.19 -12.12,40.94 -11.94,40.73 -11.76,40.53 -11.53,40.39 -11.30,40.26 -11.03,40.20 -10.77,40.14 -10.50,40.17 -10.23,40.21 -9.99,40.32 -9.74,40.44 -9.55,40.62 -9.35,40.81 -9.23,41.05 -9.11,41.29 -9.06,41.56 -9.02,41.82 -9.07,42.09 -9.11,42.36 -9.24,42.59 -9.37,42.83 -9.57,43.02 -9.77,43.20 -10.01,43.31 -10.26,43.42 -10.53,43.45 -10.80,43.48 -11.06,43.42 -11.32,43.36 -11.55,43.22 -11.78,43.08 -11.96,42.87 -12.13,42.66 -12.23,42.41 -12.33,42.16 -12.34,41.89 -12.35,41.62 -12.35,41.62 -12.35,41.62 -11.92,38.91 -11.48,36.20 -11.06,33.11 -10.64,30.02 -9.66,26.22 -8.68,22.42 -7.67,18.79 -6.66,15.16 -5.54,11.20 -4.43,7.24 -3.11,3.30 -1.78,-0.63 -1.68,-0.84 -1.58,-1.04 -1.43,-1.22 -1.28,-1.39 -1.10,-1.52 -0.91,-1.66 -0.70,-1.74 -0.49,-1.83 -0.26,-1.86 -0.03,-1.89 0.19,-1.87 0.41,-1.85 0.63,-1.77 0.84,-1.69 1.04,-1.57 1.23,-1.44 1.38,-1.27 1.54,-1.10 1.65,-0.90 1.76,-0.70 1.82,-0.48 1.87,-0.26 1.88,-0.03 1.88,0.19 1.83,0.41 1.78,0.63 1.78,0.63 L 1.78,0.63 Z"></path></g><g transform="translate(699.4807676960811 176.29225849933692) rotate(0 -7.7797547835948535 16.045744241164073)" stroke="none"><path fill="#1971c2" d="M 1.16,1.55 Q 1.16,1.55 0.09,2.41 -0.96,3.28 -2.40,5.55 -3.84,7.83 -5.08,10.47 -6.33,13.11 -7.46,15.66 -8.58,18.20 -9.65,20.42 -10.72,22.64 -11.43,24.62 -12.14,26.60 -13.12,28.63 -14.10,30.65 -14.18,30.81 -14.26,30.98 -14.38,31.12 -14.50,31.27 -14.65,31.38 -14.80,31.49 -14.97,31.56 -15.14,31.63 -15.33,31.66 -15.51,31.68 -15.69,31.67 -15.88,31.65 -16.06,31.59 -16.23,31.53 -16.39,31.43 -16.54,31.33 -16.67,31.19 -16.80,31.05 -16.89,30.89 -16.98,30.73 -17.03,30.55 -17.08,30.37 -17.08,30.19 -17.09,30.00 -17.05,29.82 -17.01,29.64 -17.05,29.78 -17.08,29.93 -17.01,29.69 -16.93,29.45 -16.79,29.25 -16.64,29.05 -16.44,28.90 -16.23,28.76 -16.00,28.69 -15.76,28.61 -15.51,28.62 -15.26,28.63 -15.02,28.71 -14.79,28.80 -14.60,28.96 -14.40,29.12 -14.27,29.33 -14.14,29.54 -14.08,29.78 -14.02,30.02 -14.04,30.27 -14.06,30.52 -14.16,30.75 -14.26,30.98 -14.43,31.16 -14.59,31.35 -14.81,31.47 -15.03,31.59 -15.27,31.64 -15.52,31.68 -15.77,31.65 -16.01,31.61 -16.24,31.50 -16.46,31.39 -16.63,31.21 -16.81,31.04 -16.92,30.81 -17.03,30.59 -17.06,30.34 -17.10,30.09 -17.05,29.85 -17.00,29.60 -16.88,29.39 -16.75,29.17 -16.57,29.00 -16.38,28.84 -16.15,28.74 -15.92,28.64 -15.67,28.62 -15.42,28.60 -15.18,28.67 -14.94,28.73 -14.73,28.86 -14.52,29.00 -14.36,29.19 -14.21,29.39 -14.12,29.62 -14.04,29.86 -14.07,30.25 -14.10,30.65 -14.18,30.81 -14.26,30.98 -14.38,31.12 -14.50,31.27 -14.65,31.38 -14.80,31.49 -14.97,31.56 -15.14,31.63 -15.33,31.66 -15.51,31.68 -15.69,31.67 -15.88,31.65 -16.06,31.59 -16.23,31.53 -16.39,31.43 -16.54,31.33 -16.67,31.19 -16.80,31.05 -16.89,30.89 -16.98,30.73 -17.03,30.55 -17.08,30.37 -17.08,30.19 -17.09,30.00 -17.05,29.82 -17.01,29.64 -15.96,27.64 -14.91,25.64 -14.20,23.51 -13.49,21.37 -12.51,19.16 -11.54,16.96 -10.50,14.34 -9.45,11.72 -8.23,8.81 -7.00,5.89 -5.25,2.98 -3.50,0.07 -2.33,-0.74 -1.16,-1.55 -0.96,-1.67 -0.76,-1.78 -0.53,-1.85 -0.31,-1.91 -0.07,-1.92 0.15,-1.93 0.38,-1.89 0.61,-1.84 0.82,-1.74 1.04,-1.64 1.22,-1.49 1.40,-1.34 1.54,-1.15 1.68,-0.97 1.77,-0.75 1.86,-0.53 1.90,-0.30 1.94,-0.07 1.92,0.15 1.90,0.39 1.83,0.61 1.75,0.83 1.63,1.03 1.50,1.23 1.33,1.39 1.16,1.55 1.16,1.55 L 1.16,1.55 Z"></path></g><g transform="translate(697.535829000182 175.31978915138757) rotate(0 17.990682937062957 15.073274893214744)" stroke="none"><path fill="#1971c2" d="M 1.62,-1.39 Q 1.62,-1.39 3.21,0.63 4.81,2.66 6.59,4.96 8.37,7.25 10.19,9.32 12.01,11.39 13.56,12.80 15.11,14.20 16.55,14.97 17.99,15.74 19.22,16.31 20.45,16.88 22.34,17.41 24.24,17.94 26.14,19.28 28.04,20.63 29.04,21.15 30.04,21.67 31.44,22.91 32.85,24.16 33.87,24.94 34.89,25.73 36.32,26.89 37.75,28.04 38.04,28.38 38.33,28.71 38.50,29.13 38.66,29.54 38.69,29.98 38.71,30.43 38.60,30.86 38.48,31.29 38.23,31.66 37.98,32.03 37.63,32.30 37.28,32.57 36.85,32.71 36.43,32.86 35.99,32.86 35.54,32.86 35.12,32.72 34.70,32.58 34.34,32.31 33.99,32.04 33.73,31.67 33.48,31.31 33.36,30.88 33.24,30.45 33.26,30.01 33.29,29.56 33.45,29.15 33.61,28.73 33.90,28.39 34.19,28.05 34.57,27.82 34.95,27.59 35.38,27.49 35.82,27.39 36.26,27.44 36.70,27.49 37.11,27.67 37.51,27.86 37.84,28.16 38.16,28.47 38.37,28.86 38.58,29.25 38.65,29.69 38.73,30.13 38.66,30.57 38.59,31.01 38.38,31.40 38.17,31.80 37.85,32.11 37.53,32.41 37.13,32.60 36.72,32.79 36.28,32.84 35.84,32.89 35.40,32.80 34.97,32.70 34.58,32.47 34.20,32.25 34.20,32.25 34.20,32.25 32.94,31.13 31.67,30.01 29.63,28.30 27.59,26.59 26.86,25.81 26.13,25.03 25.00,23.87 23.87,22.72 22.55,21.83 21.23,20.95 19.99,20.51 18.75,20.07 17.55,19.32 16.35,18.57 14.72,17.56 13.08,16.55 11.34,15.08 9.60,13.61 7.63,11.55 5.65,9.48 3.77,7.32 1.89,5.16 0.13,3.27 -1.62,1.39 -1.76,1.17 -1.91,0.96 -1.99,0.72 -2.08,0.47 -2.11,0.22 -2.14,-0.03 -2.10,-0.29 -2.07,-0.54 -1.97,-0.78 -1.87,-1.02 -1.72,-1.23 -1.57,-1.44 -1.38,-1.61 -1.18,-1.78 -0.95,-1.89 -0.72,-2.01 -0.47,-2.07 -0.22,-2.12 0.03,-2.12 0.29,-2.12 0.54,-2.05 0.79,-1.98 1.01,-1.86 1.24,-1.74 1.43,-1.56 1.62,-1.39 1.62,-1.39 L 1.62,-1.39 Z"></path></g><g transform="translate(274.51166264222 64.45828348516301) rotate(0 -5.834816087695913 17.990682937062758)" stroke="none"><path fill="#1971c2" d="M 1.64,1.43 Q 1.64,1.43 -0.40,3.59 -2.44,5.75 -4.72,8.32 -7.01,10.88 -8.83,13.05 -10.65,15.23 -12.00,16.75 -13.36,18.28 -14.08,19.46 -14.80,20.64 -15.72,21.82 -16.63,23.00 -17.37,24.26 -18.11,25.51 -18.40,25.72 -18.69,25.92 -18.84,26.16 -18.99,26.39 -19.20,26.59 -19.40,26.78 -19.65,26.92 -19.89,27.06 -20.16,27.14 -20.43,27.22 -20.72,27.23 -21.00,27.24 -21.27,27.18 -21.55,27.12 -21.80,27.00 -22.06,26.88 -22.27,26.70 -22.49,26.52 -22.66,26.29 -22.83,26.07 -22.94,25.81 -23.05,25.55 -23.09,25.27 -23.13,24.99 -23.11,24.71 -23.08,24.43 -22.99,24.16 -22.90,23.90 -21.07,23.63 -19.24,23.37 -16.76,23.83 -14.29,24.29 -12.54,24.81 -10.80,25.32 -8.35,26.21 -5.90,27.10 -3.13,28.38 -0.36,29.66 1.65,30.80 3.67,31.95 4.96,32.27 6.25,32.59 8.31,33.37 10.36,34.14 10.64,34.29 10.92,34.44 11.13,34.67 11.34,34.90 11.47,35.19 11.60,35.48 11.63,35.79 11.66,36.10 11.59,36.41 11.52,36.72 11.36,36.99 11.19,37.25 10.95,37.46 10.70,37.66 10.41,37.77 10.12,37.88 9.80,37.90 9.49,37.91 9.18,37.82 8.88,37.73 8.62,37.55 8.36,37.38 8.18,37.12 7.99,36.87 7.89,36.57 7.79,36.27 7.80,35.95 7.80,35.64 7.91,35.34 8.01,35.04 8.20,34.80 8.40,34.55 8.66,34.37 8.92,34.20 9.23,34.12 9.53,34.04 9.85,34.06 10.16,34.08 10.45,34.20 10.74,34.32 10.98,34.53 11.22,34.73 11.38,35.00 11.54,35.28 11.60,35.58 11.67,35.89 11.63,36.21 11.59,36.52 11.45,36.80 11.32,37.09 11.10,37.31 10.88,37.54 10.60,37.68 10.32,37.83 10.01,37.88 9.70,37.92 9.39,37.87 9.08,37.81 9.08,37.81 9.08,37.82 7.11,36.95 5.14,36.09 3.62,35.52 2.10,34.95 0.14,33.99 -1.81,33.03 -4.45,32.00 -7.10,30.97 -9.52,30.35 -11.93,29.74 -13.73,29.35 -15.52,28.95 -17.11,28.56 -18.69,28.16 -20.30,27.51 -21.92,26.87 -20.30,26.39 -18.69,25.92 -18.84,26.16 -18.99,26.39 -19.20,26.59 -19.40,26.78 -19.65,26.92 -19.89,27.06 -20.16,27.14 -20.43,27.22 -20.72,27.23 -21.00,27.24 -21.27,27.18 -21.55,27.12 -21.80,27.00 -22.06,26.88 -22.27,26.70 -22.49,26.52 -22.66,26.29 -22.83,26.07 -22.94,25.81 -23.05,25.55 -23.09,25.27 -23.13,24.99 -23.11,24.71 -23.08,24.43 -22.99,24.16 -22.90,23.90 -22.39,23.60 -21.88,23.30 -20.71,21.90 -19.55,20.50 -18.63,19.55 -17.72,18.59 -16.76,17.37 -15.80,16.15 -14.52,14.65 -13.23,13.16 -11.48,10.87 -9.73,8.57 -7.55,5.88 -5.38,3.18 -3.51,0.87 -1.64,-1.43 -1.44,-1.61 -1.25,-1.78 -1.01,-1.91 -0.78,-2.03 -0.53,-2.10 -0.27,-2.16 -0.01,-2.16 0.24,-2.16 0.50,-2.10 0.76,-2.04 0.99,-1.92 1.22,-1.80 1.42,-1.63 1.62,-1.45 1.77,-1.24 1.92,-1.02 2.02,-0.78 2.11,-0.53 2.14,-0.27 2.18,-0.01 2.15,0.24 2.12,0.50 2.03,0.75 1.93,1.00 1.79,1.22 1.64,1.43 1.64,1.43 L 1.64,1.43 Z"></path></g><g transform="translate(149.06311675675533 470.95047092798643) rotate(0 18.963152285012143 31.119019134378846)" stroke="none"><path fill="#1971c2" d="M 1.63,-0.40 Q 1.63,-0.40 2.42,2.95 3.21,6.32 4.09,9.99 4.97,13.66 6.16,17.42 7.34,21.17 8.69,25.30 10.03,29.43 11.70,33.67 13.36,37.90 14.92,41.96 16.47,46.03 17.68,49.15 18.90,52.27 19.70,54.75 20.51,57.23 21.19,58.41 21.87,59.60 23.06,58.84 24.25,58.08 25.46,56.53 26.67,54.99 28.37,52.38 30.06,49.77 31.33,47.06 32.60,44.35 33.41,42.79 34.22,41.22 35.44,39.36 36.66,37.50 36.92,37.34 37.17,37.18 37.47,37.10 37.76,37.03 38.06,37.05 38.37,37.07 38.64,37.19 38.92,37.31 39.15,37.51 39.38,37.71 39.53,37.98 39.68,38.24 39.74,38.54 39.79,38.84 39.76,39.14 39.72,39.44 39.58,39.71 39.45,39.98 39.23,40.20 39.02,40.41 38.75,40.55 38.48,40.68 38.18,40.73 37.88,40.77 37.58,40.71 37.28,40.66 37.02,40.51 36.75,40.36 36.55,40.13 36.35,39.91 36.23,39.63 36.10,39.35 36.08,39.05 36.05,38.75 36.12,38.45 36.20,38.16 36.36,37.90 36.52,37.65 36.76,37.46 36.99,37.27 37.28,37.16 37.56,37.05 37.86,37.04 38.17,37.04 38.46,37.12 38.75,37.21 38.99,37.39 39.24,37.56 39.42,37.81 39.60,38.05 39.69,38.34 39.78,38.63 39.77,38.94 39.76,39.24 39.66,39.52 39.56,39.81 39.37,40.05 39.18,40.28 39.18,40.28 39.18,40.28 38.22,41.59 37.26,42.90 36.43,44.30 35.61,45.70 34.34,48.65 33.08,51.61 31.45,54.43 29.81,57.25 28.46,59.28 27.10,61.31 25.71,62.38 24.32,63.45 23.25,63.55 22.19,63.65 20.63,62.31 19.08,60.97 18.52,59.52 17.96,58.07 17.17,55.66 16.38,53.25 15.15,50.13 13.92,47.01 12.35,42.97 10.78,38.93 9.06,34.62 7.34,30.32 5.95,26.19 4.57,22.07 3.31,18.23 2.04,14.40 1.09,10.74 0.14,7.09 -0.74,3.75 -1.63,0.40 -1.65,0.20 -1.68,0.00 -1.66,-0.19 -1.63,-0.39 -1.56,-0.58 -1.49,-0.77 -1.37,-0.94 -1.26,-1.11 -1.11,-1.24 -0.96,-1.38 -0.78,-1.47 -0.60,-1.57 -0.40,-1.62 -0.20,-1.67 -0.00,-1.67 0.19,-1.67 0.39,-1.62 0.59,-1.57 0.77,-1.48 0.95,-1.38 1.10,-1.25 1.25,-1.12 1.37,-0.95 1.48,-0.78 1.56,-0.59 1.63,-0.40 1.63,-0.40 L 1.63,-0.40 Z"></path></g><g transform="translate(600.2888942052484 585.7018539860084) rotate(0 14.10080554526553 28.201611090530832)" stroke="none"><path fill="#1971c2" d="M 1.73,-0.98 Q 1.73,-0.98 2.76,1.00 3.80,3.00 4.91,3.72 6.03,4.43 8.44,5.54 10.86,6.64 12.29,7.56 13.72,8.47 15.24,9.82 16.76,11.16 18.92,12.83 21.07,14.50 23.95,16.66 26.83,18.82 29.71,20.86 32.58,22.91 34.40,24.39 36.21,25.86 37.22,26.31 38.23,26.76 40.06,28.51 41.90,30.26 40.88,31.44 39.86,32.63 37.95,33.13 36.04,33.63 33.78,34.48 31.52,35.33 28.75,36.25 25.99,37.18 23.43,38.09 20.88,39.01 18.62,39.67 16.36,40.34 14.60,40.94 12.84,41.53 11.61,42.12 10.38,42.70 9.33,43.26 8.29,43.83 6.91,44.70 5.54,45.57 4.50,46.21 3.46,46.85 2.04,47.66 0.62,48.46 -0.38,49.27 -1.38,50.07 -2.85,51.05 -4.31,52.04 -5.70,53.16 -7.09,54.28 -7.93,55.11 -8.77,55.95 -9.85,57.06 -10.94,58.18 -11.27,58.40 -11.60,58.63 -11.98,58.74 -12.36,58.84 -12.76,58.82 -13.16,58.80 -13.53,58.66 -13.90,58.51 -14.20,58.25 -14.51,58.00 -14.71,57.66 -14.92,57.32 -15.01,56.93 -15.09,56.54 -15.05,56.14 -15.01,55.75 -14.84,55.39 -14.68,55.02 -14.41,54.73 -14.13,54.44 -13.78,54.26 -13.43,54.07 -13.04,54.00 -12.65,53.94 -12.25,54.00 -11.86,54.06 -11.51,54.25 -11.15,54.43 -10.88,54.72 -10.61,55.01 -10.44,55.37 -10.27,55.73 -10.22,56.13 -10.18,56.52 -10.26,56.91 -10.35,57.30 -10.55,57.64 -10.76,57.98 -11.06,58.24 -11.36,58.50 -11.73,58.65 -12.10,58.80 -12.50,58.82 -12.89,58.85 -13.28,58.74 -13.66,58.64 -13.99,58.41 -14.32,58.19 -14.57,57.87 -14.81,57.56 -14.94,57.18 -15.06,56.80 -15.07,56.41 -15.07,56.01 -14.94,55.63 -14.82,55.25 -14.58,54.94 -14.34,54.62 -14.34,54.62 -14.34,54.62 -13.14,53.56 -11.94,52.49 -11.01,51.70 -10.08,50.90 -8.61,49.50 -7.14,48.10 -5.84,47.10 -4.53,46.10 -2.97,44.86 -1.41,43.62 0.25,42.88 1.92,42.14 2.97,41.73 4.01,41.32 5.34,40.79 6.67,40.25 7.86,39.81 9.05,39.37 10.44,38.91 11.84,38.44 13.62,37.89 15.41,37.34 17.54,36.61 19.68,35.88 22.21,34.84 24.74,33.79 27.35,32.73 29.95,31.68 33.21,30.74 36.47,29.81 35.39,29.05 34.31,28.30 32.52,26.95 30.73,25.60 27.76,23.64 24.79,21.67 21.82,19.64 18.84,17.62 16.43,16.02 14.01,14.42 12.67,13.35 11.32,12.27 9.97,11.44 8.61,10.60 7.46,9.92 6.30,9.24 4.30,8.08 2.29,6.93 1.48,5.87 0.66,4.82 -0.53,2.90 -1.73,0.98 -1.82,0.76 -1.91,0.54 -1.95,0.30 -1.99,0.07 -1.97,-0.16 -1.95,-0.40 -1.87,-0.63 -1.79,-0.86 -1.66,-1.06 -1.53,-1.26 -1.36,-1.43 -1.19,-1.59 -0.98,-1.71 -0.77,-1.83 -0.54,-1.90 -0.31,-1.96 -0.07,-1.97 0.16,-1.98 0.40,-1.93 0.63,-1.88 0.85,-1.78 1.07,-1.68 1.25,-1.52 1.44,-1.37 1.58,-1.18 1.73,-0.98 1.73,-0.98 L 1.73,-0.98 Z"></path></g></svg>