<svg version="1.1" xmlns="http://www.w3.org/2000/svg" viewBox="0 0 1100.5540129820938 903.9724728992337" width="1100.5540129820938" height="903.9724728992337">
  <!-- svg-source:excalidraw -->
  
  <defs>
    <style class="style-fonts">
      @font-face {
        font-family: "Virgil";
        src: url("https://excalidraw.com/Virgil.woff2");
      }
      @font-face {
        font-family: "Cascadia";
        src: url("https://excalidraw.com/Cascadia.woff2");
      }
    </style>
    
  </defs>
  <rect x="0" y="0" width="1100.5540129820938" height="903.9724728992337" fill="#ffffff"></rect><g stroke-linecap="round"><g transform="translate(10.000394683033164 757.1438018491755) rotate(0 522.3063336785517 0.42006875229762386)"><path d="M2.23 0.45 C175.02 0, 866.52 -0.68, 1039.24 -0.65 M0 -1.77 C173.46 -1.98, 870.62 1.65, 1044.61 2.62" stroke="#000000" stroke-width="4" fill="none"></path></g><g transform="translate(10.000394683033164 757.1438018491755) rotate(0 522.3063336785517 0.42006875229762386)"><path d="M1044.54 2.94 L1033.84 6.95 L1027.44 -7.35 L1042.2 0.61" stroke="none" stroke-width="0" fill="#000000" fill-rule="evenodd"></path><path d="M1045.1 0.59 C1038.7 2.5, 1034.74 9.61, 1029.27 7.66 M1044.1 3.09 C1040.8 5.69, 1033.57 6.8, 1030.2 9.26 M1032.62 7.16 C1032.77 7.09, 1030.72 1.43, 1030.44 -3.24 M1029.91 8.69 C1030 5.96, 1031.94 1.64, 1031.39 -4.92 M1030.84 -5.14 C1034.85 -0.14, 1037.71 0.47, 1041.73 1.47 M1030.24 -5.23 C1035.99 -0.08, 1040.27 1.41, 1045.67 3.7 M1044.61 2.62 C1044.61 2.62, 1044.61 2.62, 1044.61 2.62 M1044.61 2.62 C1044.61 2.62, 1044.61 2.62, 1044.61 2.62" stroke="#000000" stroke-width="4" fill="none"></path></g></g><mask></mask><g stroke-linecap="round"><g transform="translate(142.022682961094 891.8499894021207) rotate(0 -0.018062167614630198 -428.2135791466042)"><path d="M-2.44 2.12 C-1.9 -140.39, 2.14 -711.19, 2.4 -854.26 M1.44 0.81 C1.89 -142.62, 2.23 -716.16, 1.47 -858.55" stroke="#000000" stroke-width="4" fill="none"></path></g><g transform="translate(142.022682961094 891.8499894021207) rotate(0 -0.018062167614630198 -428.2135791466042)"><path d="M3.17 -857.6 L8.5 -842.47 L-3.39 -843.97 L-1.6 -860.07" stroke="none" stroke-width="0" fill="#000000" fill-rule="evenodd"></path><path d="M3.74 -855.98 C4.68 -855.71, 4.25 -850.53, 5.94 -845.57 M2.33 -859.98 C4.16 -853.69, 6.71 -849.56, 9.12 -844.94 M9.3 -844.84 C6.23 -843.91, -1.09 -844.81, -5.43 -845.51 M7.98 -845.9 C5.79 -844.51, 3.52 -844.16, -4.37 -843.97 M-5.08 -842.05 C-1.72 -849.26, -0.94 -853.12, 0.49 -860.38 M-3.61 -843.84 C-1.97 -849.51, 0.34 -854.27, 2.91 -858.46 M1.47 -858.55 C1.47 -858.55, 1.47 -858.55, 1.47 -858.55 M1.47 -858.55 C1.47 -858.55, 1.47 -858.55, 1.47 -858.55" stroke="#000000" stroke-width="4" fill="none"></path></g></g><mask></mask><g transform="translate(1070.3220183531876 781.8240130707574) rotate(0 10.115997314453125 22.5)"><text x="20.23199462890625" y="0" font-family="Virgil, Segoe UI Emoji" font-size="36px" fill="#1e1e1e" text-anchor="end" style="white-space: pre;" direction="ltr" dominant-baseline="text-before-edge">x</text></g><g transform="translate(93.28931108035249 10) rotate(0 8.441993713378906 22.5)"><text x="16.883987426757812" y="0" font-family="Virgil, Segoe UI Emoji" font-size="36px" fill="#1e1e1e" text-anchor="end" style="white-space: pre;" direction="ltr" dominant-baseline="text-before-edge">y</text></g><g transform="translate(98.5427384045206 771.9709405634711) rotate(0 12.383995056152344 22.5)"><text x="24.767990112304688" y="0" font-family="Virgil, Segoe UI Emoji" font-size="36px" fill="#1e1e1e" text-anchor="end" style="white-space: pre;" direction="ltr" dominant-baseline="text-before-edge">0</text></g><g stroke-linecap="round"><g stroke-opacity="0.3" fill-opacity="0.3" transform="translate(141.78172069514608 757.4306241573871) rotate(0 342.3200924111062 -321.6415237197665)"><path d="M2.57 -2.34 C116.86 -109.22, 571.37 -534.58, 684.12 -641.49 M0.52 2.55 C114.79 -105.14, 569.15 -538.53, 683.12 -645.84" stroke="#f08c00" stroke-width="4" fill="none"></path></g></g><mask></mask><g stroke-linecap="round" transform="translate(230.26085630489706 753.7213921278199) rotate(0 11.127696088701668 10.453290265144062)"><path d="M4.84 1.56 C4.84 1.56, 4.84 1.56, 4.84 1.56 M4.84 1.56 C4.84 1.56, 4.84 1.56, 4.84 1.56 M3.85 8.45 C5.39 6.55, 9.69 2.86, 9.41 2.14 M3.32 9.66 C5.75 7.29, 8.5 3.52, 10.73 0.73 M3.17 15.76 C6.71 10.81, 11.95 5.87, 12.37 3.24 M2.42 17.09 C5.09 12.96, 7.43 10.6, 14.07 2.7 M4.46 19.03 C11.71 12.49, 16.02 7.7, 18.42 4.07 M5.74 18.62 C8.69 14.59, 12.98 11.45, 18.16 3.4 M9.27 21 C13.56 15.89, 13.8 15.45, 24.17 6.91 M8.44 20.67 C12.03 18.37, 15.61 13.35, 23.21 4.39 M14.45 21.14 C16.36 16.94, 19.23 15.56, 24.61 10.64 M14.02 21.96 C17.86 17.17, 20.61 14.03, 23.39 10.59" stroke="#e64980" stroke-width="0.5" fill="none"></path><path d="M11.97 1.11 C14.39 1.17, 18.53 1.49, 20.25 2.94 C21.98 4.39, 22.45 7.6, 22.32 9.83 C22.18 12.07, 20.8 14.45, 19.44 16.37 C18.08 18.28, 16.34 20.88, 14.14 21.33 C11.95 21.78, 8.42 20.1, 6.27 19.06 C4.12 18.02, 2.11 16.97, 1.23 15.08 C0.36 13.18, 0.43 9.93, 1.02 7.69 C1.61 5.46, 2.54 2.84, 4.76 1.66 C6.97 0.49, 12.54 0.74, 14.3 0.65 C16.06 0.55, 15.6 1.06, 15.33 1.08 M6.42 1.79 C8.63 0.55, 13.41 -0.48, 15.81 0.07 C18.21 0.62, 19.64 3.3, 20.81 5.1 C21.99 6.89, 23.04 8.78, 22.86 10.87 C22.67 12.95, 21.83 15.71, 19.72 17.62 C17.62 19.54, 12.65 22.01, 10.23 22.36 C7.81 22.7, 6.88 21.34, 5.21 19.69 C3.54 18.03, 0.96 14.94, 0.22 12.43 C-0.52 9.92, -0.48 6.5, 0.75 4.64 C1.98 2.77, 6.66 1.93, 7.57 1.24 C8.48 0.55, 6 0.66, 6.2 0.51" stroke="#e03131" stroke-width="1" fill="none"></path></g><g stroke-linecap="round"><g transform="translate(232.9584795991277 763.837479481185) rotate(0 -43.91960410304182 -0.8350926696274144)"><path d="M0.38 -0.31 C-14.04 -0.45, -72.93 -1.3, -87.41 -1.11 M-0.88 -1.51 C-15.36 -1.52, -73.93 -0.23, -88.22 -0.16" stroke="#e03131" stroke-width="2" fill="none"></path></g></g><mask></mask><g stroke-linecap="round" transform="translate(331.42172983854925 655.2581418883985) rotate(0 11.127696088701668 10.453290265144062)"><path d="M4.95 0.33 C4.95 0.33, 4.95 0.33, 4.95 0.33 M4.95 0.33 C4.95 0.33, 4.95 0.33, 4.95 0.33 M2.98 9.76 C4.76 7.26, 6.11 4.37, 9.08 0.16 M3.01 9.41 C5.76 5.94, 8.31 3.45, 9.54 0.84 M4.03 16.3 C7.28 9.62, 10.6 7.58, 14.89 2.89 M3.2 15.79 C4.56 12.52, 7.86 9.05, 13.72 2.29 M3.26 17.51 C6.63 15.06, 11.43 13.17, 18.73 4.79 M5.08 18.24 C9.03 14.22, 14.88 7.67, 17.69 3.94 M6.75 20.87 C12.41 15.97, 15.75 11.55, 22.23 4.86 M7.48 21.27 C10.36 17.46, 13.84 13.74, 21.61 5.38 M10.89 22.31 C15.01 18.26, 16.29 15.87, 23.42 11.2 M11.78 22.4 C15.69 18.22, 18.23 15.35, 21.9 10.25" stroke="#e64980" stroke-width="0.5" fill="none"></path><path d="M4.96 0.32 C6.76 -0.81, 11.03 -0.21, 13.51 0.56 C15.99 1.34, 18.3 3.41, 19.85 4.98 C21.4 6.55, 22.81 8.05, 22.81 9.99 C22.81 11.94, 21.42 14.69, 19.85 16.64 C18.29 18.59, 15.87 21.17, 13.4 21.7 C10.94 22.22, 7.3 21.1, 5.08 19.78 C2.86 18.46, 0.86 15.88, 0.08 13.77 C-0.71 11.66, -0.74 9.44, 0.36 7.1 C1.45 4.77, 5.29 0.91, 6.63 -0.26 C7.97 -1.43, 8.24 -0.38, 8.39 0.07 M11.24 -1.36 C13.62 -1.38, 18.3 0.6, 20.03 2.55 C21.75 4.51, 21.67 8.26, 21.6 10.36 C21.52 12.45, 20.95 13.37, 19.57 15.11 C18.19 16.86, 15.32 20.06, 13.31 20.83 C11.3 21.6, 9.5 20.62, 7.52 19.74 C5.54 18.87, 2.67 17.49, 1.45 15.57 C0.23 13.65, -0.22 10.31, 0.19 8.2 C0.61 6.08, 2.01 4.34, 3.93 2.9 C5.85 1.46, 10.41 0.18, 11.71 -0.45 C13.02 -1.08, 11.76 -1.19, 11.74 -0.9" stroke="#e03131" stroke-width="1" fill="none"></path></g><g stroke-linecap="round"><g transform="translate(334.1193531327799 665.3742292417637) rotate(0 -43.78144112605423 -0.021261954680085182)"><path d="M-1.18 1.06 C-15.91 0.98, -72.64 -0.95, -87.24 -1.11 M0.4 0.58 C-14.55 0.65, -73.49 -0.3, -87.97 -0.15" stroke="#e03131" stroke-width="2" fill="none"></path></g></g><mask></mask><g stroke-linecap="round" transform="translate(434.605820842874 555.4460800018619) rotate(0 11.127696088701668 10.453290265144062)"><path d="M-0.22 6.44 C-0.22 6.44, -0.22 6.44, -0.22 6.44 M-0.22 6.44 C-0.22 6.44, -0.22 6.44, -0.22 6.44 M0.51 11.11 C3.18 10.26, 4.78 5.1, 8.32 2.24 M0.7 11.51 C1.37 10.42, 3.51 8.4, 7.55 3.5 M3.78 14.08 C5.74 11.09, 8.28 9.33, 16.09 0.1 M2.06 15.31 C5.39 12.98, 8.06 8.36, 15.19 2.12 M3.57 20.64 C8.69 13.65, 13.43 9.19, 17.92 4.27 M5.01 19.02 C8.49 16.37, 11.49 12.03, 18.07 4.63 M7.34 21.81 C13.15 14.93, 19.12 10.51, 19.8 5.42 M7.54 22 C9.97 17.2, 14.22 13.92, 22.31 6.48 M12.84 22.84 C14.76 18.29, 17.59 17.37, 22.42 11.87 M13.08 21.76 C15.86 18.43, 19.13 14.02, 21.51 11.62" stroke="#e64980" stroke-width="0.5" fill="none"></path><path d="M12.64 0.66 C14.94 1.07, 18.99 2.46, 20.45 4.16 C21.91 5.86, 21.59 8.68, 21.42 10.87 C21.25 13.07, 20.89 15.59, 19.4 17.32 C17.92 19.06, 14.88 20.99, 12.49 21.28 C10.1 21.57, 7.14 20.42, 5.07 19.09 C3 17.75, 0.93 15.43, 0.09 13.28 C-0.75 11.12, -0.87 8.12, 0.03 6.15 C0.94 4.18, 2.83 2.27, 5.52 1.43 C8.2 0.6, 14.1 0.96, 16.13 1.13 C18.15 1.3, 17.77 2.38, 17.68 2.44 M13.72 1.39 C16.01 1.55, 17.18 1.6, 18.67 2.99 C20.16 4.39, 22.27 7.69, 22.65 9.77 C23.03 11.85, 22.55 13.81, 20.98 15.46 C19.41 17.12, 15.56 19.2, 13.24 19.7 C10.91 20.19, 9.02 19.49, 7.05 18.41 C5.09 17.33, 2.38 15.26, 1.45 13.24 C0.52 11.21, 0.91 8.24, 1.46 6.25 C2.01 4.27, 3.03 2.28, 4.77 1.33 C6.51 0.37, 10.83 0.87, 11.91 0.53 C12.98 0.19, 11.22 -0.55, 11.21 -0.7" stroke="#e03131" stroke-width="1" fill="none"></path></g><g stroke-linecap="round"><g transform="translate(437.30344413710463 565.5621673552271) rotate(0 -44.0092000653018 0.19418315332128344)"><path d="M0.41 0.72 C-14.42 0.58, -73.85 -0.5, -88.43 -0.46 M-0.83 0.06 C-15.33 0.05, -71.67 0.98, -86.12 0.83" stroke="#e03131" stroke-width="2" fill="none"></path></g></g><mask></mask><g stroke-linecap="round" transform="translate(538.464317670757 456.9828297624405) rotate(0 11.127696088701668 10.453290265144062)"><path d="M2.04 5.75 C2.04 5.75, 2.04 5.75, 2.04 5.75 M2.04 5.75 C2.04 5.75, 2.04 5.75, 2.04 5.75 M0.91 13.65 C2.29 11.88, 3.86 9.49, 8.55 3.45 M1.02 13.13 C4.69 9.47, 7.72 6.2, 9.42 3.05 M2.43 16.55 C6.1 13.72, 10.12 6.89, 16.06 2.53 M3.65 17.16 C5.87 12.33, 8.56 10.71, 16.48 2.6 M6.8 19.03 C12.43 13.96, 13.57 10.36, 21.6 5.25 M6.44 19.67 C9.69 14.07, 15.25 9.73, 20.06 4.68 M11.67 19.16 C14.94 17.36, 17.55 11.36, 22.14 4.71 M10.3 21.37 C12.51 16.88, 16.03 15.57, 23.56 7.35 M13.24 22 C15.45 20.68, 17.89 18.29, 23.58 11.54 M13.39 23.91 C16.17 20.13, 18.32 15.9, 23.5 11.63" stroke="#e64980" stroke-width="0.5" fill="none"></path><path d="M6.9 1.18 C8.69 0.26, 11.58 -0.66, 13.9 -0.05 C16.22 0.57, 19.37 2.7, 20.84 4.89 C22.3 7.08, 23.18 10.77, 22.7 13.1 C22.22 15.43, 19.96 17.58, 17.97 18.87 C15.98 20.17, 12.94 20.99, 10.73 20.86 C8.53 20.73, 6.59 19.54, 4.74 18.1 C2.88 16.65, 0.04 14.3, -0.37 12.2 C-0.78 10.1, 0.78 7.35, 2.27 5.49 C3.77 3.63, 7.56 1.81, 8.61 1.03 C9.66 0.26, 8.57 0.82, 8.59 0.87 M7.42 -0.67 C9.46 -1.5, 13.41 -1.73, 15.85 -0.53 C18.29 0.66, 21.16 4.16, 22.07 6.49 C22.99 8.82, 22.22 11.43, 21.35 13.45 C20.49 15.46, 18.44 17.38, 16.87 18.56 C15.3 19.74, 14.31 20.6, 11.96 20.53 C9.6 20.47, 4.47 19.31, 2.74 18.16 C1 17.01, 1.7 15.96, 1.55 13.62 C1.4 11.29, 0.7 6.18, 1.83 4.17 C2.97 2.15, 7.26 1.93, 8.36 1.54 C9.45 1.14, 8.51 1.91, 8.43 1.78" stroke="#e03131" stroke-width="1" fill="none"></path></g><g stroke-linecap="round"><g transform="translate(541.1619409649877 467.0989171158057) rotate(0 -44.11512566406088 0.22376484833657795)"><path d="M-0.85 0.9 C-15.33 0.85, -73.65 -0.11, -88.01 -0.45 M0.91 0.33 C-13.66 0.45, -74.41 0.98, -89.14 0.84" stroke="#e03131" stroke-width="2" fill="none"></path></g></g><mask></mask><g stroke-linecap="round" transform="translate(641.6484086750822 355.82195622878845) rotate(0 11.127696088701668 10.453290265144062)"><path d="M1.73 5.48 C1.73 5.48, 1.73 5.48, 1.73 5.48 M1.73 5.48 C1.73 5.48, 1.73 5.48, 1.73 5.48 M0.15 12.01 C4.4 9.26, 8.4 4.62, 10.02 0.95 M1.26 12.34 C4.6 9.1, 7.99 3.68, 9.99 2.05 M2.26 16.62 C6.54 11.14, 9 7.28, 13.77 4.15 M3.5 16.9 C5.82 12.9, 8.4 9.9, 14.37 1.77 M3.93 19.64 C10.8 15.34, 11.98 9.91, 17.27 5.13 M5.84 18.57 C10.71 13.14, 14.77 9.24, 18.19 4.94 M8 20.62 C11.07 16.62, 13.82 12.89, 22.99 6.88 M10.66 20.31 C15.17 15, 19.51 9.41, 22.47 5.39 M14.74 20.18 C19.14 16.73, 20.4 13.39, 22.6 10.37 M15.42 20.37 C17.27 17.84, 18.08 16.86, 23.5 11.31" stroke="#e64980" stroke-width="0.5" fill="none"></path><path d="M15.51 1.95 C17.74 2.51, 19.86 3.16, 21.05 5.19 C22.24 7.22, 23.12 11.77, 22.65 14.14 C22.18 16.51, 20.39 18.43, 18.23 19.43 C16.08 20.43, 12.13 20.39, 9.73 20.12 C7.33 19.86, 5.62 19.37, 3.85 17.86 C2.08 16.35, -0.57 13.19, -0.89 11.08 C-1.21 8.98, 0.34 6.89, 1.93 5.25 C3.53 3.6, 6.01 1.77, 8.68 1.22 C11.34 0.67, 16.08 1.33, 17.94 1.96 C19.79 2.59, 20.04 4.71, 19.81 5.01 M12.63 -1.21 C14.63 -0.93, 16.69 1.04, 18.33 3.01 C19.98 4.98, 22.12 8.36, 22.5 10.61 C22.88 12.86, 22.4 14.71, 20.61 16.51 C18.83 18.32, 14.06 20.72, 11.8 21.46 C9.55 22.2, 8.69 22.36, 7.08 20.96 C5.47 19.57, 3.4 15.47, 2.13 13.09 C0.86 10.71, -1.12 8.84, -0.54 6.67 C0.03 4.51, 3.36 1.18, 5.57 0.11 C7.78 -0.96, 11.55 0.12, 12.73 0.25 C13.91 0.38, 12.66 0.69, 12.66 0.88" stroke="#e03131" stroke-width="1" fill="none"></path></g><g stroke-linecap="round"><g transform="translate(644.3460319693129 365.9380435821537) rotate(0 -43.3533828853798 0.014501567241623547)"><path d="M1.05 -1.01 C-13.61 -1.17, -72.51 -0.51, -87.1 -0.38 M0.14 1.07 C-14.7 1.03, -73.29 0.97, -87.75 0.96" stroke="#e03131" stroke-width="2" fill="none"></path></g></g><mask></mask><g stroke-linecap="round" transform="translate(745.5069055029649 262.07954675427084) rotate(0 11.127696088701668 10.453290265144062)"><path d="M6.1 0 C6.1 0, 6.1 0, 6.1 0 M6.1 0 C6.1 0, 6.1 0, 6.1 0 M3.31 8.93 C7.12 5.79, 9.42 2.93, 11.48 -0.14 M2.88 8.78 C5.56 6.32, 9.08 3.08, 11.32 -0.57 M4.79 16.81 C6.31 12.64, 10.25 7.31, 14.32 2.23 M3.14 14.93 C7.89 11, 10.69 6.57, 15.39 1.03 M5.65 16.89 C9.24 14.07, 15.9 7.57, 20.94 3.28 M5.3 19.2 C10.74 13.21, 13.85 8.74, 18.33 3.88 M10.14 19.46 C13.45 14.35, 17.41 8.75, 22.75 7.65 M8.39 21.14 C11.9 16.01, 17.16 12.51, 21.25 6.39 M12.93 23.64 C16.41 20.39, 19.68 15.37, 23.64 11.57 M13.33 22.74 C15.45 18.71, 19.78 14.77, 21.86 11.33" stroke="#e64980" stroke-width="0.5" fill="none"></path><path d="M14.32 -0.26 C16.39 -0.03, 17.99 2.2, 19.38 4.14 C20.77 6.09, 22.67 9.18, 22.66 11.39 C22.65 13.59, 21.09 15.66, 19.31 17.38 C17.53 19.1, 14.2 21.49, 12 21.73 C9.8 21.98, 7.92 20.25, 6.13 18.86 C4.33 17.46, 2.05 15.27, 1.22 13.38 C0.38 11.48, 0.35 9.65, 1.12 7.48 C1.89 5.3, 3.55 1.48, 5.82 0.33 C8.09 -0.83, 13.1 0.4, 14.76 0.56 C16.42 0.71, 15.89 1.17, 15.8 1.25 M12.42 -0.89 C14.49 -0.26, 17.16 3.17, 18.61 5.13 C20.06 7.09, 20.72 8.77, 21.12 10.86 C21.52 12.95, 22.12 16.02, 21.03 17.68 C19.94 19.34, 17.15 20.5, 14.6 20.8 C12.04 21.1, 7.99 20.77, 5.69 19.47 C3.4 18.18, 1.86 15.21, 0.84 13.05 C-0.18 10.88, -1.1 8.42, -0.44 6.48 C0.22 4.54, 2.74 2.43, 4.78 1.41 C6.82 0.39, 10.23 0.51, 11.8 0.34 C13.37 0.17, 14.12 0.4, 14.2 0.38" stroke="#e03131" stroke-width="1" fill="none"></path></g><g stroke-linecap="round"><g transform="translate(748.2045287971955 272.19563410763607) rotate(0 -43.59703869427358 0.4618614585825611)"><path d="M0.48 0.77 C-13.84 0.81, -72.26 1.41, -87.05 1.19 M-0.73 0.13 C-15.05 -0.22, -72.91 -0.37, -87.67 -0.3" stroke="#e03131" stroke-width="2" fill="none"></path></g></g><mask></mask><g stroke-linecap="round" transform="translate(848.6909965072903 163.61629651484952) rotate(0 11.127696088701668 10.453290265144062)"><path d="M2.97 3.91 C2.97 3.91, 2.97 3.91, 2.97 3.91 M2.97 3.91 C2.97 3.91, 2.97 3.91, 2.97 3.91 M1.55 12.8 C3 8.92, 5.76 4.28, 11.18 1.99 M0.42 13.22 C2.93 10.45, 5.03 8.43, 10.62 1.46 M3.29 16.58 C9.12 10.32, 10.57 4.94, 15.81 1.48 M2.51 16.39 C5 12.43, 8.14 10.23, 14.75 1.9 M5.77 18.29 C10.29 14.76, 12.39 10.53, 19.77 4.72 M6.03 19.37 C8.07 15.42, 11.83 12.3, 17.86 4.14 M7.54 21.95 C11.47 16.86, 13.33 15.76, 20.91 7.31 M9.18 20.41 C13.58 16.38, 16.7 12.41, 21.96 6.05 M11.08 24.61 C16.28 22.1, 17.42 19.25, 22.32 11.12 M12.85 23.2 C15.4 20.31, 16.45 18.35, 22.98 11.69" stroke="#e64980" stroke-width="0.5" fill="none"></path><path d="M9.21 0.42 C11.24 -0.18, 13.5 0.82, 15.47 1.82 C17.43 2.83, 19.92 4.6, 21.01 6.46 C22.1 8.31, 22.54 10.85, 21.99 12.97 C21.44 15.09, 19.8 17.76, 17.69 19.17 C15.58 20.58, 11.82 21.83, 9.33 21.44 C6.84 21.05, 4.38 18.52, 2.73 16.85 C1.08 15.18, -0.59 13.51, -0.6 11.41 C-0.61 9.31, 1.23 6.16, 2.66 4.26 C4.09 2.36, 7.03 0.73, 8 -0.01 C8.96 -0.75, 8.44 -0.49, 8.43 -0.18 M16.64 0.17 C18.54 1.09, 19.02 5.14, 19.93 7.45 C20.84 9.76, 22.47 12.2, 22.1 14.03 C21.72 15.86, 19.74 17.18, 17.67 18.41 C15.6 19.64, 11.97 21.75, 9.68 21.4 C7.39 21.06, 5.36 18.25, 3.94 16.35 C2.51 14.46, 1.34 11.94, 1.13 10.02 C0.92 8.1, 1.23 6.52, 2.65 4.85 C4.07 3.18, 7.46 0.84, 9.66 0.01 C11.85 -0.81, 14.91 -0.38, 15.83 -0.08 C16.75 0.22, 15.07 1.55, 15.17 1.82" stroke="#e03131" stroke-width="1" fill="none"></path></g><g stroke-linecap="round"><g transform="translate(851.3886198015209 173.73238386821475) rotate(0 -43.34051143823001 0.3618051263996733)"><path d="M-0.63 0.42 C-15.1 0.8, -72.72 1.28, -87.22 1.14 M1.25 -0.41 C-13.31 -0.23, -73 -0.56, -87.93 -0.39" stroke="#e03131" stroke-width="2" fill="none"></path></g></g><mask></mask><g stroke-linecap="round" transform="translate(230.34528742662565 654.1807789309648) rotate(179.63646836016775 11.127696088701668 10.453290265144062)"><path d="M2.93 3.87 C2.93 3.87, 2.93 3.87, 2.93 3.87 M2.93 3.87 C2.93 3.87, 2.93 3.87, 2.93 3.87 M1.27 12.89 C3.87 8.58, 4.27 8.05, 11.13 2.8 M1.9 12.1 C3.26 8.95, 5.56 6.95, 10.44 1.57 M2.85 15.68 C6.07 11.81, 10.36 8.17, 14.23 2.42 M2.65 16.62 C6.82 11.72, 9.66 7.56, 14.6 1.63 M5.79 18.49 C10.96 14.06, 12.2 8.66, 20.68 2.93 M5.71 20.02 C8.02 16.54, 12.64 11.48, 19.33 2.56 M7.77 19.25 C14.11 16.23, 15.88 11.35, 23.73 6.83 M8.42 21.25 C14.23 15.83, 17.88 12.26, 21.76 6.37 M15.95 19.26 C18.14 16.96, 19.09 16.25, 21.88 13.57 M16.21 19.49 C17.03 17.89, 18.32 17, 21.64 13.39" stroke="#a5d8ff" stroke-width="0.5" fill="none"></path><path d="M7.94 -0.15 C10.09 -0.75, 14.29 -0.42, 16.63 0.56 C18.96 1.55, 21.2 3.61, 21.94 5.78 C22.68 7.96, 21.86 11.38, 21.07 13.61 C20.27 15.83, 19.17 17.93, 17.17 19.13 C15.17 20.34, 11.45 21.08, 9.08 20.84 C6.7 20.6, 4.41 19.45, 2.92 17.7 C1.43 15.94, 0.18 12.59, 0.16 10.31 C0.14 8.04, 1.32 5.71, 2.78 4.05 C4.23 2.38, 7.58 0.91, 8.89 0.32 C10.2 -0.27, 10.64 0.5, 10.63 0.51 M10.77 -0.65 C12.95 -0.74, 17.22 0.96, 18.94 2.55 C20.65 4.15, 21.03 6.73, 21.06 8.89 C21.09 11.06, 20 13.82, 19.11 15.53 C18.21 17.24, 17.63 18.41, 15.7 19.14 C13.77 19.87, 10.1 20.69, 7.52 19.93 C4.95 19.17, 1.39 16.63, 0.25 14.59 C-0.9 12.55, -0.08 9.68, 0.65 7.7 C1.39 5.72, 2.8 4.01, 4.66 2.69 C6.53 1.36, 10.71 0.35, 11.86 -0.26 C13.02 -0.88, 11.58 -1.23, 11.61 -1.02" stroke="#1971c2" stroke-width="1" fill="none"></path></g><g stroke-linecap="round"><g transform="translate(238.94990790782094 665.0789117738752) rotate(179.63646836016775 -43.41660751752363 -0.21830335222183805)"><path d="M-0.51 0.6 C-15.16 0.58, -73.66 -0.99, -88.26 -1.04 M1.43 -0.13 C-12.8 0.05, -70.77 0.24, -85.86 -0.04" stroke="#1971c2" stroke-width="2" fill="none"></path></g></g><mask></mask><g stroke-linecap="round" transform="translate(334.4448388330843 557.4692974725349) rotate(179.63646836016775 11.127696088701668 10.453290265144062)"><path d="M0.29 8.2 C0.29 8.2, 0.29 8.2, 0.29 8.2 M0.29 8.2 C0.29 8.2, 0.29 8.2, 0.29 8.2 M0.77 14.92 C2.4 10.29, 6.93 8.14, 11.13 1.55 M-0.07 14.07 C3.81 9.53, 7.37 6.68, 10.75 1.2 M3.67 15.83 C8.3 10.53, 12.33 5.03, 16.11 2.2 M4.04 16.39 C6.39 11.6, 10.79 7.7, 16.15 2.08 M5.88 20.07 C10.82 14.42, 14.5 10.93, 18.23 5.79 M5.54 20.27 C9.57 16.79, 12.32 13.86, 20.03 4.98 M8.24 22.36 C11.78 20.76, 16.34 14.94, 20.48 8.69 M9.41 21.74 C12.49 17.15, 17.77 13.99, 22.44 8.32 M16.84 20.45 C17.79 19.35, 19.4 17.33, 24.19 11.26 M16.32 20.89 C18.64 18.31, 21.11 15.05, 24.28 11.65" stroke="#a5d8ff" stroke-width="0.5" fill="none"></path><path d="M10.72 0.94 C13.13 0.95, 17.13 1.09, 18.96 2.58 C20.79 4.06, 21.42 7.61, 21.7 9.86 C21.98 12.11, 21.81 14.45, 20.64 16.07 C19.48 17.69, 17.06 18.92, 14.72 19.57 C12.37 20.22, 8.83 20.77, 6.54 19.97 C4.26 19.17, 2.02 16.78, 1 14.79 C-0.02 12.81, -0.27 10.03, 0.41 8.06 C1.1 6.09, 2.55 4.04, 5.11 2.96 C7.66 1.88, 13.71 1.75, 15.72 1.58 C17.74 1.41, 17.46 1.95, 17.18 1.92 M15.19 1.6 C17.16 2.05, 19.27 2.61, 20.24 4.41 C21.22 6.21, 21.17 10.11, 21.04 12.39 C20.91 14.68, 21.18 16.89, 19.45 18.14 C17.73 19.38, 12.92 19.86, 10.7 19.85 C8.47 19.83, 7.96 19.19, 6.1 18.05 C4.24 16.9, 0.34 15.08, -0.45 12.97 C-1.24 10.86, 0.4 7.37, 1.37 5.39 C2.35 3.42, 3.03 1.74, 5.41 1.12 C7.79 0.51, 14.02 1.54, 15.65 1.69 C17.27 1.84, 15.42 2.06, 15.17 2.02" stroke="#1971c2" stroke-width="1" fill="none"></path></g><g stroke-linecap="round"><g transform="translate(343.0494593142794 567.6930244918876) rotate(179.63646836016775 -44.161605106012985 -0.6873747321032013)"><path d="M0.05 -0.44 C-14.86 -0.76, -73.94 -0.96, -88.38 -0.79 M-1.38 -1.71 C-16 -1.4, -71.81 0.29, -86.04 0.34" stroke="#1971c2" stroke-width="2" fill="none"></path></g></g><mask></mask><g stroke-linecap="round" transform="translate(440.32655313164014 457.65723558599814) rotate(179.63646836016775 11.127696088701668 10.453290265144062)"><path d="M0.24 6.83 C0.24 6.83, 0.24 6.83, 0.24 6.83 M0.24 6.83 C0.24 6.83, 0.24 6.83, 0.24 6.83 M-0.99 12.27 C2.28 10.09, 3.01 7.62, 8.82 4.67 M0.52 12.76 C3.46 9.66, 6.19 6.53, 7.79 4.57 M2.49 16.49 C7.29 13, 11.24 8.72, 16 1.87 M1.91 15.85 C6 11.57, 11.47 5.85, 15.1 1.42 M3.69 20.19 C8.06 16.57, 13.04 12.09, 19.92 0.98 M5.05 18.66 C9.65 13.81, 13.99 10.48, 20.19 2.22 M7.01 20.79 C13.36 19.11, 18.44 13.17, 21.53 8.48 M7.61 21.89 C13.36 15.35, 19.25 9.14, 20.69 6.46 M13.95 21.11 C17.55 16.66, 20.43 13.96, 23.04 12.11 M14.37 20.13 C16.89 18.58, 18.09 16.66, 22.69 10.54" stroke="#a5d8ff" stroke-width="0.5" fill="none"></path><path d="M11.58 0.09 C14.03 0.02, 17.92 0.77, 19.64 2.43 C21.36 4.09, 21.74 7.72, 21.9 10.05 C22.05 12.38, 21.88 14.64, 20.54 16.39 C19.21 18.13, 16.39 20, 13.91 20.52 C11.42 21.04, 7.95 20.4, 5.65 19.51 C3.36 18.62, 1.01 17.3, 0.11 15.18 C-0.79 13.07, -0.59 9.03, 0.25 6.81 C1.09 4.6, 3.09 3.1, 5.15 1.88 C7.22 0.65, 11.07 -0.18, 12.64 -0.54 C14.21 -0.89, 14.37 -0.61, 14.55 -0.27 M7.61 -0.87 C9.59 -1.52, 12.7 -0.16, 14.91 0.69 C17.11 1.53, 19.48 2, 20.86 4.19 C22.24 6.37, 23.85 11.59, 23.2 13.78 C22.56 15.96, 19.26 16.21, 17.01 17.3 C14.77 18.39, 11.96 20.13, 9.74 20.32 C7.51 20.51, 5.27 19.76, 3.67 18.43 C2.06 17.09, 0.37 14.52, 0.1 12.3 C-0.17 10.09, 0.87 7.06, 2.05 5.15 C3.23 3.23, 6.22 1.59, 7.2 0.79 C8.17 -0.01, 7.78 0.13, 7.89 0.35" stroke="#1971c2" stroke-width="1" fill="none"></path></g><g stroke-linecap="round"><g transform="translate(448.93117361283566 467.880962605351) rotate(179.63646836016775 -44.13881951562871 0.5977776803689183)"><path d="M0.2 -0.52 C-14.46 -0.52, -72.94 -0.8, -87.58 -0.58 M-1.15 1.83 C-16 2.03, -73.95 1.15, -88.48 0.66" stroke="#1971c2" stroke-width="2" fill="none"></path></g></g><mask></mask><g stroke-linecap="round" transform="translate(542.1618324888495 356.4963620523461) rotate(179.63646836016775 11.127696088701668 10.453290265144062)"><path d="M0.52 5.75 C0.52 5.75, 0.52 5.75, 0.52 5.75 M0.52 5.75 C0.52 5.75, 0.52 5.75, 0.52 5.75 M-1.42 13.19 C1.96 9.94, 5.49 6.44, 9.91 1.14 M-0.41 12.81 C2.6 9.69, 5.55 6.48, 8.65 2.85 M2.3 16.67 C7.53 11.17, 10.89 5.11, 13.83 1.65 M2.8 15.47 C5.34 12.79, 7.52 10.22, 14.89 -0.17 M3.95 20.6 C8.4 14.61, 15.67 7.67, 19.65 2.7 M4.45 19.76 C8.93 12.41, 14.06 8.5, 18.64 2.77 M6.85 20.85 C11.39 15.18, 18.37 9.74, 19.37 5.64 M8.78 21.43 C12.54 16.32, 16.28 13.02, 20.24 5.87 M14.23 21.31 C14.39 18.58, 16.88 16.89, 22.51 11.55 M12.83 21.52 C15.11 18.81, 17.86 17.48, 21.61 11.65" stroke="#a5d8ff" stroke-width="0.5" fill="none"></path><path d="M7 0.3 C9.22 -0.81, 12.54 -1.24, 14.73 -0.43 C16.92 0.39, 18.96 3.27, 20.13 5.16 C21.29 7.06, 21.88 8.86, 21.72 10.93 C21.56 13, 20.7 15.93, 19.17 17.6 C17.63 19.27, 14.83 20.74, 12.5 20.95 C10.17 21.15, 7.37 20.25, 5.19 18.84 C3.02 17.44, 0.24 14.7, -0.55 12.52 C-1.33 10.34, -0.8 7.86, 0.51 5.76 C1.81 3.67, 5.93 0.98, 7.29 -0.03 C8.65 -1.04, 8.44 -0.64, 8.65 -0.31 M12.13 0.68 C14.31 0.84, 17.02 1.24, 18.81 3.15 C20.61 5.06, 22.56 9.7, 22.91 12.14 C23.27 14.58, 22.62 16.12, 20.94 17.78 C19.25 19.43, 15.18 21.59, 12.8 22.08 C10.42 22.58, 8.71 22.32, 6.66 20.75 C4.6 19.17, 1.44 14.96, 0.47 12.61 C-0.5 10.26, 0.09 8.34, 0.82 6.64 C1.56 4.95, 3.03 3.72, 4.88 2.45 C6.72 1.17, 10.58 -0.87, 11.91 -1 C13.24 -1.12, 12.84 1.27, 12.85 1.69" stroke="#1971c2" stroke-width="1" fill="none"></path></g><g stroke-linecap="round"><g transform="translate(550.7664529700451 366.72008907169896) rotate(179.63646836016775 -43.87952865946852 -0.3598392727039794)"><path d="M-0.95 -1.01 C-15.43 -0.88, -73.04 -0.01, -87.6 0.22 M0.74 1.07 C-13.82 0.86, -73.48 -1.32, -88.5 -1.79" stroke="#1971c2" stroke-width="2" fill="none"></path></g></g><mask></mask><g stroke-linecap="round" transform="translate(646.0203293167324 263.4283584013862) rotate(179.63646836016775 11.127696088701668 10.453290265144062)"><path d="M0.53 7.09 C0.53 7.09, 0.53 7.09, 0.53 7.09 M0.53 7.09 C0.53 7.09, 0.53 7.09, 0.53 7.09 M0.45 11.69 C2.96 10.45, 6.19 6.52, 9.05 2.77 M0.28 12.57 C3.87 9.95, 6.67 6.97, 9.63 2.96 M3.64 17.66 C6.74 9.12, 12.82 4.74, 15.13 0.48 M2.64 16.83 C5.75 12.13, 10.41 9.03, 16.48 2.21 M4.63 17.17 C10.92 13.36, 13.74 11.64, 16.92 6.03 M7.17 18.27 C9.88 15.9, 12.18 12.55, 19.31 4.69 M9.87 21.09 C13.18 15.02, 16.46 13.47, 22.37 7.11 M10.14 20.74 C13.43 18.55, 14.25 15.29, 21.99 6.19 M12.03 24.2 C16.09 21.63, 19.02 17.94, 24.13 10.54 M13.65 23.2 C15.6 20.59, 18.82 16.09, 24.12 10.51" stroke="#a5d8ff" stroke-width="0.5" fill="none"></path><path d="M6.53 0.38 C8.26 -0.78, 10.8 -0.77, 13.04 -0.18 C15.28 0.4, 18.49 2.12, 19.98 3.89 C21.47 5.65, 22.06 7.97, 22 10.42 C21.94 12.88, 21.4 16.79, 19.63 18.61 C17.85 20.43, 13.69 21.36, 11.35 21.32 C9.02 21.28, 7.35 19.59, 5.61 18.39 C3.87 17.18, 1.7 16.05, 0.9 14.11 C0.11 12.16, -0.28 8.8, 0.86 6.71 C2 4.62, 6.67 2.46, 7.74 1.57 C8.81 0.69, 7.18 1.23, 7.29 1.41 M10.22 0.16 C12.33 -0.63, 13.41 -0.62, 15.3 0.56 C17.19 1.74, 20.64 5.21, 21.59 7.25 C22.53 9.28, 21.89 10.48, 20.97 12.75 C20.05 15.03, 18.23 19.55, 16.07 20.89 C13.91 22.23, 10.25 21.59, 8.01 20.81 C5.78 20.03, 4.04 18, 2.66 16.21 C1.28 14.43, -0.1 11.96, -0.28 10.1 C-0.46 8.24, -0.04 6.54, 1.59 5.05 C3.22 3.57, 8.29 1.9, 9.5 1.19 C10.71 0.49, 8.68 1, 8.83 0.83" stroke="#1971c2" stroke-width="1" fill="none"></path></g><g stroke-linecap="round"><g transform="translate(654.6249497979279 273.65208542073907) rotate(179.63646836016775 -43.797613472620014 0.9695858889763542)"><path d="M-1.06 0.76 C-15.46 0.84, -72.82 0.5, -87.38 0.19 M0.58 0.11 C-13.86 0.44, -73.76 1.9, -88.18 1.83" stroke="#1971c2" stroke-width="2" fill="none"></path></g></g><mask></mask><g stroke-linecap="round" transform="translate(749.2044203210578 163.61629651484958) rotate(179.63646836016775 11.127696088701668 10.453290265144062)"><path d="M2.27 4.62 C2.27 4.62, 2.27 4.62, 2.27 4.62 M2.27 4.62 C2.27 4.62, 2.27 4.62, 2.27 4.62 M2.38 11.04 C3.49 10.56, 5.17 8.32, 10.17 2.12 M0.91 12.33 C4.55 8.83, 7.38 5.71, 9.04 2.84 M1.32 15.34 C6.87 9.32, 13.38 5.52, 16.32 1.62 M2.45 17.31 C5.73 12.25, 8.56 8.71, 16.64 0.87 M6.33 18.22 C9.68 12.92, 13.36 8.73, 18.82 3.6 M5.23 21.03 C7.02 17.28, 11.19 13.08, 19.78 4.06 M8.19 23.89 C13.42 16.6, 17.91 11.75, 22.77 5.53 M9.4 21.6 C13.84 16.99, 18.69 9.43, 21.61 6.49 M11.52 24.5 C14.79 21.4, 14.93 19.39, 22.82 11.19 M12.03 23.34 C15.54 20.82, 17.73 17.47, 22.42 12.4" stroke="#a5d8ff" stroke-width="0.5" fill="none"></path><path d="M15.93 1.06 C18.36 1.85, 20.76 4.05, 21.69 5.95 C22.61 7.86, 21.94 10.51, 21.48 12.48 C21.02 14.45, 20.85 16.23, 18.93 17.77 C17.01 19.31, 12.66 21.52, 9.97 21.72 C7.29 21.91, 4.44 20.73, 2.8 18.95 C1.17 17.16, 0.19 13.42, 0.14 10.98 C0.09 8.55, 1.32 6.04, 2.52 4.33 C3.73 2.61, 4.98 1.34, 7.37 0.71 C9.75 0.08, 15.21 0.29, 16.84 0.53 C18.46 0.77, 17.35 1.8, 17.11 2.15 M14.98 0.51 C17.1 1.1, 19.11 3.4, 20.29 5.03 C21.47 6.66, 22.34 8.04, 22.06 10.31 C21.77 12.57, 20.29 16.74, 18.58 18.61 C16.87 20.48, 14.38 21.69, 11.79 21.55 C9.21 21.4, 4.76 19.13, 3.06 17.74 C1.36 16.34, 1.88 14.95, 1.6 13.19 C1.32 11.42, 0.28 9.42, 1.36 7.14 C2.45 4.86, 5.83 0.77, 8.12 -0.47 C10.42 -1.71, 14.13 -0.39, 15.12 -0.31 C16.11 -0.23, 14.42 -0.38, 14.06 0.01" stroke="#1971c2" stroke-width="1" fill="none"></path></g><g stroke-linecap="round"><g transform="translate(757.8090408022529 173.84002353420243) rotate(179.63646836016775 -44.13137556711956 0.03575346834202264)"><path d="M0.91 -1.01 C-13.76 -0.73, -73.34 0.51, -88.03 0.83 M-0.07 1.08 C-14.93 1.09, -74.54 -0.52, -89.17 -0.86" stroke="#1971c2" stroke-width="2" fill="none"></path></g></g><mask></mask><g stroke-linecap="round"><g transform="translate(342.7546561153349 652.8977215059467) rotate(0 1.3326362403165604 -41.26741099449135)"><path d="M0.1 -1.16 C0.62 -14.68, 2.04 -68.28, 2.57 -81.38" stroke="#e03131" stroke-width="2.5" fill="none" stroke-dasharray="1.5 8"></path></g></g><mask></mask><g stroke-linecap="round"><g transform="translate(241.60995798848126 750.8152216792831) rotate(0 0.9110414417517632 -41.26993252130487)"><path d="M0.26 -1 C0.34 -14.45, 1.07 -68.24, 1.57 -81.54" stroke="#e03131" stroke-width="2.5" fill="none" stroke-dasharray="1.5 8"></path></g></g><mask></mask><g stroke-linecap="round"><g transform="translate(447.30373417357396 553.8887212004405) rotate(0 1.3607789786589137 -41.18928847404458)"><path d="M-0.39 -0.47 C0.07 -14.05, 2.78 -68.65, 3.11 -81.91" stroke="#e03131" stroke-width="2.5" fill="none" stroke-dasharray="1.5 8"></path></g></g><mask></mask><g stroke-linecap="round"><g transform="translate(552.5110426485721 452.7278476667884) rotate(0 1.594470802141359 -40.65127714963891)"><path d="M0.18 -0.74 C0.77 -14.07, 2.77 -67.17, 3 -80.56" stroke="#e03131" stroke-width="2.5" fill="none" stroke-dasharray="1.5 8"></path></g></g><mask></mask><g stroke-linecap="round"><g transform="translate(655.0207278293396 353.5901916038094) rotate(0 1.4328214967680424 -41.22489683049061)"><path d="M-0.18 -0.62 C0.23 -14.37, 2.49 -68.26, 3.05 -81.83" stroke="#e03131" stroke-width="2.5" fill="none" stroke-dasharray="1.5 8"></path></g></g><mask></mask><g stroke-linecap="round"><g transform="translate(756.856007186549 257.1501588350611) rotate(0 2.079307683749221 -40.69016506092885)"><path d="M0.27 -0.42 C0.89 -14.06, 3.53 -67.36, 3.89 -80.96" stroke="#e03131" stroke-width="2.5" fill="none" stroke-dasharray="1.5 8"></path></g></g><mask></mask><g stroke-linecap="round"><g transform="translate(659.0671627706859 264.5686228941956) rotate(0 1.0277051175070255 -40.197640139034775)"><path d="M-0.7 -0.34 C-0.06 -13.58, 2.36 -66.79, 2.75 -80.05" stroke="#1971c2" stroke-width="2.5" fill="none" stroke-dasharray="1.5 8"></path></g></g><mask></mask><g stroke-linecap="round"><g transform="translate(554.1647854184969 358.59007316037196) rotate(0 1.2678177202176357 -40.52219468968251)"><path d="M0.95 0.92 C1.36 -12.64, 1.46 -68.45, 1.58 -81.96" stroke="#1971c2" stroke-width="2.5" fill="none" stroke-dasharray="1.5 8"></path></g></g><mask></mask><g stroke-linecap="round"><g transform="translate(452.3295060612877 458.40213504690865) rotate(0 1.111916931910514 -40.80914706604816)"><path d="M0.45 -0.27 C0.73 -14.01, 1.56 -67.98, 1.78 -81.35" stroke="#1971c2" stroke-width="2.5" fill="none" stroke-dasharray="1.5 8"></path></g></g><mask></mask><g stroke-linecap="round"><g transform="translate(345.7733859391742 558.2141969334454) rotate(0 1.772835906786895 -39.58931080715992)"><path d="M0.92 1.09 C1.49 -12.41, 2.26 -66.56, 2.63 -80.27" stroke="#1971c2" stroke-width="2.5" fill="none" stroke-dasharray="1.5 8"></path></g></g><mask></mask><g stroke-linecap="round"><g transform="translate(241.91488911129113 658.7006646435398) rotate(0 2.047212513728141 -40.75611714737751)"><path d="M0.94 -0.01 C1.47 -13.78, 2.78 -68.1, 3.16 -81.5" stroke="#1971c2" stroke-width="2.5" fill="none" stroke-dasharray="1.5 8"></path></g></g><mask></mask></svg>