<svg version="1.1" xmlns="http://www.w3.org/2000/svg" viewBox="0 0 892.0574795914802 468.432677875634" width="892.0574795914802" height="468.432677875634">
  <!-- svg-source:excalidraw -->
  
  <defs>
    <style class="style-fonts">
      @font-face {
        font-family: "Virgil";
        src: url("https://excalidraw.com/Virgil.woff2");
      }
      @font-face {
        font-family: "Cascadia";
        src: url("https://excalidraw.com/Cascadia.woff2");
      }
    </style>
    
  </defs>
  <rect x="0" y="0" width="892.0574795914802" height="468.432677875634" fill="#ffffff"></rect><g stroke-linecap="round" transform="translate(183.37168898769642 51.81173369873352) rotate(0 255.7594385106761 183.31047208845033)"><path d="M1.26 1.22 C142.16 1.51, 283.64 -1.49, 510.71 -0.63 M509.2 -0.16 C510.15 74.98, 506.19 155.46, 511.94 366.38 M512.83 366.29 C310.32 368.52, 109.48 369.28, 1.05 365.71 M2.21 368.59 C-2.28 271.36, -3.13 172.81, -1.95 1.94" stroke="#1971c2" stroke-width="4.5" fill="none" stroke-dasharray="8 12"></path></g><g stroke-linecap="round"><g transform="translate(227.13280964541696 384.39625069740725) rotate(0 0.3812402328303506 -152.59385028209965)"><path d="M-0.18 -1.98 C5.35 -85.9, 2.88 -164.28, -2.2 -303.2" stroke="#1e1e1e" stroke-width="1.5" fill="none" stroke-dasharray="8 9"></path></g><g transform="translate(227.13280964541696 384.39625069740725) rotate(0 0.3812402328303506 -152.59385028209965)"><path d="M-2.57 -305.16 L5.07 -289.06 L-8.11 -289 L-2.91 -304.18" stroke="none" stroke-width="0" fill="#1e1e1e" fill-rule="evenodd"></path><path d="M-2.38 -305.26 C1.54 -302.11, 1.12 -293.23, 3.33 -287.6 M5.96 -288.68 C1.24 -287.3, -6.69 -288.56, -7.83 -289.11 M-8.7 -286.85 C-5.94 -291.6, -3.29 -300.61, -3.19 -300.46 M-2.2 -303.2 C-2.2 -303.2, -2.2 -303.2, -2.2 -303.2" stroke="#1e1e1e" stroke-width="1.5" fill="none"></path></g></g><mask></mask><g stroke-linecap="round"><g transform="translate(278.2924448539011 386.2573520473593) rotate(0 2.367974520442317 -152.5336338979307)"><path d="M0.54 1.13 C5.62 -77.44, 5.02 -148.2, 1.13 -306.19" stroke="#1e1e1e" stroke-width="1.5" fill="none" stroke-dasharray="8 9"></path></g><g transform="translate(278.2924448539011 386.2573520473593) rotate(0 2.367974520442317 -152.5336338979307)"><path d="M2.85 -302.55 L4.22 -290.33 L-3.94 -295.52 L-2.41 -304.84" stroke="none" stroke-width="0" fill="#1e1e1e" fill-rule="evenodd"></path><path d="M1.69 -305.03 C5.13 -305.69, 6.37 -298.28, 9.93 -293.6 M6.94 -290.27 C3.84 -290.65, -3 -292.1, -5.31 -293.8 M-6.02 -294.72 C-1.9 -296.38, -4.27 -297.12, 1.52 -303.23 M1.13 -306.19 C1.13 -306.19, 1.13 -306.19, 1.13 -306.19" stroke="#1e1e1e" stroke-width="1.5" fill="none"></path></g></g><mask></mask><g stroke-linecap="round"><g transform="translate(333.72319768701345 379.45006661171413) rotate(0 -0.32543156089661807 -152.84680772851868)"><path d="M1.04 2.48 C0.94 -68.47, -1 -144.11, -1.7 -308.17" stroke="#1e1e1e" stroke-width="1.5" fill="none" stroke-dasharray="8 9"></path></g><g transform="translate(333.72319768701345 379.45006661171413) rotate(0 -0.32543156089661807 -152.84680772851868)"><path d="M1.34 -309.18 L1.5 -298.36 L-4.91 -291.5 L0.36 -305.79" stroke="none" stroke-width="0" fill="#1e1e1e" fill-rule="evenodd"></path><path d="M-0.61 -305.61 C0.97 -302.53, 0.69 -304.17, 3.99 -297.54 M2.93 -292.18 C-1.47 -292.36, -3.43 -294.23, -6.71 -296.3 M-8.44 -293.27 C-6.64 -300.95, -2.6 -304.85, 0.14 -309.8 M-1.7 -308.17 C-1.7 -308.17, -1.7 -308.17, -1.7 -308.17" stroke="#1e1e1e" stroke-width="1.5" fill="none"></path></g></g><mask></mask><g stroke-linecap="round"><g transform="translate(383.31913443242934 377.50512791581536) rotate(0 -1.229341241916245 -153.43422414990766)"><path d="M2.52 -0.59 C-6.21 -103.34, -7.26 -203.47, -0.95 -306.28" stroke="#1e1e1e" stroke-width="1.5" fill="none" stroke-dasharray="8 9"></path></g><g transform="translate(383.31913443242934 377.50512791581536) rotate(0 -1.229341241916245 -153.43422414990766)"><path d="M-4.68 -303.25 L7.88 -290.39 L-5.44 -295.22 L0.21 -303.57" stroke="none" stroke-width="0" fill="#1e1e1e" fill-rule="evenodd"></path><path d="M1.67 -306.89 C-0.94 -302.43, 0.26 -295.2, 4.87 -293.4 M7.16 -291.47 C2.35 -291.49, -2.73 -293, -6.26 -294.34 M-10.3 -291.11 C-8.36 -294.88, -5.67 -297.86, 0.64 -304.44 M-0.95 -306.28 C-0.95 -306.28, -0.95 -306.28, -0.95 -306.28" stroke="#1e1e1e" stroke-width="1.5" fill="none"></path></g></g><mask></mask><g stroke-linecap="round"><g transform="translate(515.5749657535393 384.31241335146075) rotate(0 0.5508263909695188 -155.022393331079)"><path d="M-0.72 -2.82 C2.28 -118.18, -0.78 -238.47, 1.83 -307.23" stroke="#1e1e1e" stroke-width="1.5" fill="none" stroke-dasharray="8 9"></path></g><g transform="translate(515.5749657535393 384.31241335146075) rotate(0 0.5508263909695188 -155.022393331079)"><path d="M3.88 -304.84 L5.69 -292.38 L-2.01 -296.75 L1.17 -305.95" stroke="none" stroke-width="0" fill="#1e1e1e" fill-rule="evenodd"></path><path d="M1.08 -310.14 C5.97 -301.81, 5.56 -298.68, 10.85 -295.47 M9.19 -295.31 C2.83 -292.01, -3.35 -294.07, -3.65 -294.04 M-2.89 -295.36 C-0.83 -294.97, -0.19 -296.59, 4.76 -308.74 M1.83 -307.23 C1.83 -307.23, 1.83 -307.23, 1.83 -307.23" stroke="#1e1e1e" stroke-width="1.5" fill="none"></path></g></g><mask></mask><g stroke-linecap="round"><g transform="translate(467.9239677040223 382.3674746555621) rotate(0 0.7493044422459434 -152.90692942876515)"><path d="M0.03 -0.93 C1.97 -81.18, 1.9 -165.32, 0.15 -304.89" stroke="#1e1e1e" stroke-width="1.5" fill="none" stroke-dasharray="8 9"></path></g><g transform="translate(467.9239677040223 382.3674746555621) rotate(0 0.7493044422459434 -152.90692942876515)"><path d="M1.3 -302.17 L3.6 -292.02 L-4.78 -294.54 L-1.62 -305.35" stroke="none" stroke-width="0" fill="#1e1e1e" fill-rule="evenodd"></path><path d="M0.17 -305.85 C-0.48 -298.35, 1.51 -294.79, 7.78 -290.87 M8.18 -292.75 C1.78 -290.26, -2.53 -293.38, -4.5 -293.24 M-4.47 -289.39 C-0.76 -293.34, -2.94 -298.78, -2.07 -303.69 M0.15 -304.89 C0.15 -304.89, 0.15 -304.89, 0.15 -304.89" stroke="#1e1e1e" stroke-width="1.5" fill="none"></path></g></g><mask></mask><g stroke-linecap="round"><g transform="translate(417.3555616106569 379.450066611714) rotate(0 0.005936119213970414 -153.70562760465086)"><path d="M2.8 -1.87 C3.76 -90.78, 1.3 -182.38, -2.99 -305.54" stroke="#1e1e1e" stroke-width="1.5" fill="none" stroke-dasharray="8 9"></path></g><g transform="translate(417.3555616106569 379.450066611714) rotate(0 0.005936119213970414 -153.70562760465086)"><path d="M-3.65 -304.26 L0.47 -293.92 L-9.35 -291.92 L-1.58 -308.72" stroke="none" stroke-width="0" fill="#1e1e1e" fill-rule="evenodd"></path><path d="M-0.1 -307.48 C1.69 -300.26, 1.48 -295.93, 1.69 -292.35 M4.85 -292.47 C-2.9 -290.49, -7.4 -290.35, -10.27 -289.53 M-5.96 -293.26 C-4.56 -298.94, -3.7 -301.31, -5.29 -303.26 M-2.99 -305.54 C-2.99 -305.54, -2.99 -305.54, -2.99 -305.54" stroke="#1e1e1e" stroke-width="1.5" fill="none"></path></g></g><mask></mask><g stroke-linecap="round"><g transform="translate(563.2259638030578 381.39500530761273) rotate(0 -0.08847544906495841 -152.68414303799247)"><path d="M1.12 0.47 C3.88 -123.1, 1.9 -240.38, -2.56 -305.84" stroke="#1e1e1e" stroke-width="1.5" fill="none" stroke-dasharray="8 9"></path></g><g transform="translate(563.2259638030578 381.39500530761273) rotate(0 -0.08847544906495841 -152.68414303799247)"><path d="M-4.33 -306.3 L4.22 -291.13 L-11.45 -290.43 L-4.82 -307.99" stroke="none" stroke-width="0" fill="#1e1e1e" fill-rule="evenodd"></path><path d="M-1.4 -305.35 C1.48 -302.79, 2.59 -293.57, 2.75 -293.04 M5.95 -294.55 C1.61 -293.93, -2.06 -291.01, -6.71 -289.51 M-10.49 -290.77 C-5.57 -299.87, -1.31 -303.84, -4.99 -308.64 M-2.56 -305.84 C-2.56 -305.84, -2.56 -305.84, -2.56 -305.84" stroke="#1e1e1e" stroke-width="1.5" fill="none"></path></g></g><mask></mask><g stroke-linecap="round"><g transform="translate(607.9595538087269 383.33994400351145) rotate(0 -1.3729035565742151 -153.96494394213397)"><path d="M-2.02 -0.19 C0.74 -104.98, -1.85 -205.55, -1.33 -307.74" stroke="#1e1e1e" stroke-width="1.5" fill="none" stroke-dasharray="8 9"></path></g><g transform="translate(607.9595538087269 383.33994400351145) rotate(0 -1.3729035565742151 -153.96494394213397)"><path d="M0.09 -310.92 L6.56 -296.41 L-9.8 -290.22 L-5.32 -307.29" stroke="none" stroke-width="0" fill="#1e1e1e" fill-rule="evenodd"></path><path d="M-3.42 -307.94 C2.72 -304.85, 2.52 -297.34, 4.66 -296.63 M3.65 -291.94 C1.79 -292.44, -1.68 -291.51, -8.92 -292.09 M-9.94 -291.86 C-7.08 -299.66, -7.7 -298.03, 0.95 -306.2 M-1.33 -307.74 C-1.33 -307.74, -1.33 -307.74, -1.33 -307.74" stroke="#1e1e1e" stroke-width="1.5" fill="none"></path></g></g><mask></mask><g stroke-linecap="round"><g transform="translate(648.8032664225989 382.3674746555621) rotate(0 -1.8995631624604812 -152.032303857082)"><path d="M-1.59 -0.48 C1.29 -70.65, -2.55 -138.81, -3.26 -303.58" stroke="#1e1e1e" stroke-width="1.5" fill="none" stroke-dasharray="8 9"></path></g><g transform="translate(648.8032664225989 382.3674746555621) rotate(0 -1.8995631624604812 -152.032303857082)"><path d="M-5.52 -305.74 L7.13 -294.04 L-9.02 -287.51 L-0.04 -302.41" stroke="none" stroke-width="0" fill="#1e1e1e" fill-rule="evenodd"></path><path d="M-4.91 -304.08 C-0.52 -300.92, -2.77 -295.59, 0.84 -288.22 M4.77 -287.59 C2.57 -291.16, -0.97 -291.73, -8.46 -289.68 M-11.9 -292.73 C-6.02 -290.67, -5.36 -294.21, -4.96 -302.72 M-3.26 -303.58 C-3.26 -303.58, -3.26 -303.58, -3.26 -303.58" stroke="#1e1e1e" stroke-width="1.5" fill="none"></path></g></g><mask></mask><g stroke-linecap="round" transform="translate(431.3513727147781 224.9112776337157) rotate(0 9.238458805518803 10.210928153468046)"><path d="M6.4 0.38 C8.16 -0.59, 11.18 -1.59, 12.78 -1.27 C14.37 -0.95, 14.71 0.1, 15.97 2.3 C17.23 4.51, 20.37 9.74, 20.33 11.96 C20.3 14.18, 17.55 13.91, 15.75 15.62 C13.94 17.33, 11.25 21.55, 9.5 22.23 C7.74 22.91, 6.61 21.39, 5.22 19.68 C3.82 17.96, 1.96 14.01, 1.11 11.91 C0.27 9.82, -2.32 8.47, 0.14 7.1 C2.6 5.74, 13.06 2.33, 15.88 3.7 C18.7 5.07, 17.26 14.88, 17.06 15.33 M1.98 2.02 C2.39 -0.52, 2.79 -1.91, 4.55 -2.38 C6.3 -2.85, 9.86 -2.22, 12.52 -0.79 C15.19 0.64, 19.9 4.19, 20.53 6.19 C21.16 8.19, 17.66 9.16, 16.32 11.23 C14.97 13.31, 13.3 17, 12.48 18.64 C11.65 20.29, 12.61 21.18, 11.37 21.1 C10.14 21.03, 7.17 20.04, 5.08 18.21 C2.98 16.38, -1.09 12.79, -1.21 10.12 C-1.33 7.44, 4.25 2.69, 4.35 2.16 C4.46 1.64, -0.32 6.1, -0.6 6.94" stroke="#e03131" stroke-width="4" fill="none"></path></g><g transform="translate(10 423.432677875634) rotate(0 82.79596710205078 17.5)"><text x="165.59193420410156" y="0" font-family="Virgil, Segoe UI Emoji" font-size="28px" fill="#1971c2" text-anchor="end" style="white-space: pre;" direction="ltr" dominant-baseline="text-before-edge">(x0-a, y0-b)</text></g><g transform="translate(704.4815365983161 10) rotate(0 88.78797149658203 17.5)"><text x="177.57594299316406" y="0" font-family="Virgil, Segoe UI Emoji" font-size="28px" fill="#1971c2" text-anchor="end" style="white-space: pre;" direction="ltr" dominant-baseline="text-before-edge">(x0+a, y0+b)</text></g><g stroke-linecap="round"><g transform="translate(189.20650507539244 330.9104365601937) rotate(0 249.2506014383323 -50.2005535827368)"><path d="M3.93 -1.08 C39.41 -22.24, 83.97 -39.9, 126.55 -68.92 M-1.14 1.52 C45.21 -26.79, 92.03 -48.05, 128.06 -67.02 M128.58 -62.11 C173.71 -78.81, 212.65 -93.1, 251.51 -101.92 M126.58 -64.14 C152.96 -74.12, 177.57 -81.55, 250.97 -98.58 M253.53 -101.43 C325.18 -85.26, 398.39 -66.08, 499.64 -47.11 M250.92 -101.73 C317.41 -82.93, 387.42 -68.14, 499.16 -45.95" stroke="#e03131" stroke-width="4" fill="none"></path></g><g transform="translate(189.20650507539244 330.9104365601937) rotate(0 249.2506014383323 -50.2005535827368)"><path d="M497.03 -48.29 L486.83 -41.35 L486.08 -57.64 L495.65 -49.53" stroke="none" stroke-width="0" fill="#e03131" fill-rule="evenodd"></path><path d="M502.11 -46.76 C492.37 -45.59, 489.13 -41.39, 483.95 -45.25 M498.31 -44.81 C493.09 -45.78, 487.56 -42.38, 485.09 -43.83 M485.33 -40.5 C487.97 -46.26, 486.74 -51.98, 487.49 -55.97 M484.07 -41.79 C485.2 -45.74, 485.4 -48.46, 487.15 -53.85 M489.53 -56.03 C492.78 -53.04, 496.82 -47.77, 500.77 -48.14 M487.12 -56.31 C488.96 -52.4, 493.97 -50.41, 500.33 -47.07 M499.16 -45.95 C499.16 -45.95, 499.16 -45.95, 499.16 -45.95 M499.16 -45.95 C499.16 -45.95, 499.16 -45.95, 499.16 -45.95" stroke="#e03131" stroke-width="4" fill="none"></path></g></g><mask></mask><g stroke-linecap="round" transform="translate(683.2209338336563 43.05950956718942) rotate(0 9.724693479493453 7.779754783594711)"><path d="M19.04 3.17 C19.84 3.88, 18.08 4.86, 17.89 6.68 C17.7 8.5, 19.21 12.81, 17.91 14.09 C16.61 15.37, 12.36 14.03, 10.09 14.35 C7.82 14.68, 5.9 16.54, 4.29 16.03 C2.68 15.51, 1.22 13.43, 0.42 11.25 C-0.38 9.06, -1.65 4.92, -0.5 2.93 C0.66 0.95, 5.41 -0.23, 7.38 -0.66 C9.34 -1.08, 9.38 -1.52, 11.3 0.39 C13.22 2.29, 18.21 8.6, 18.92 10.76 C19.63 12.92, 15.78 13.28, 15.55 13.34 M12.1 -0.2 C14.23 0.47, 18.53 2.76, 19.78 4.27 C21.03 5.79, 20.26 7.19, 19.62 8.9 C18.99 10.61, 17.73 13.21, 15.98 14.54 C14.23 15.87, 10.83 16.94, 9.14 16.88 C7.46 16.82, 7.51 15.59, 5.87 14.18 C4.23 12.77, -0.19 9.84, -0.71 8.44 C-1.23 7.04, 1.57 7.49, 2.75 5.78 C3.92 4.06, 4.74 -0.72, 6.35 -1.85 C7.96 -2.98, 11.37 -0.98, 12.43 -1.02 C13.48 -1.06, 12.38 -2.23, 12.69 -2.1" stroke="#1971c2" stroke-width="4" fill="none"></path></g><g stroke-linecap="round" transform="translate(179.48181159589922 407.73551504819136) rotate(0 10.21092815346799 10.210928153468046)"><path d="M9.41 -0.13 C11.45 0.01, 13.46 2.2, 15.11 3.59 C16.77 4.99, 18.54 6.4, 19.35 8.24 C20.16 10.08, 20.89 12.98, 19.98 14.63 C19.08 16.28, 16.36 16.96, 13.93 18.14 C11.5 19.32, 7.53 22.02, 5.4 21.69 C3.27 21.37, 1.81 18.47, 1.17 16.2 C0.54 13.93, 1.14 10.49, 1.6 8.06 C2.06 5.64, 1.04 2.02, 3.93 1.65 C6.81 1.27, 16.05 3.96, 18.89 5.84 C21.74 7.71, 21.12 12.79, 21.01 12.89 M3.02 6.95 C4.17 4.59, 6.01 -0.96, 7.73 -1.49 C9.46 -2.02, 11.31 2.53, 13.37 3.77 C15.43 5.01, 19.4 4.9, 20.09 5.93 C20.79 6.96, 18.36 7.55, 17.54 9.96 C16.73 12.38, 16.16 18.79, 15.22 20.4 C14.28 22.01, 13.43 20.05, 11.88 19.63 C10.33 19.2, 8.04 19.07, 5.92 17.87 C3.79 16.66, 0.02 14.43, -0.86 12.37 C-1.74 10.31, 0.18 7.18, 0.64 5.53 C1.09 3.87, 1.3 2.47, 1.85 2.43" stroke="#1971c2" stroke-width="4" fill="none"></path></g></svg>