<svg version="1.1" xmlns="http://www.w3.org/2000/svg" viewBox="0 0 911.9685034109716 422.00460248669424" width="911.9685034109716" height="422.00460248669424">
  <!-- svg-source:excalidraw -->
  
  <defs>
    <style class="style-fonts">
      @font-face {
        font-family: "Virgil";
        src: url("https://excalidraw.com/Virgil.woff2");
      }
      @font-face {
        font-family: "Cascadia";
        src: url("https://excalidraw.com/Cascadia.woff2");
      }
    </style>
  </defs>
  <rect x="0" y="0" width="911.9685034109716" height="422.00460248669424" fill="#ffffff"></rect><g stroke-linecap="round" transform="translate(49.29558339972027 196.89687659469126) rotate(0 20.452865740551033 20.45286574055109)"><path d="M16.29 -0.74 C20.52 -1.84, 25.48 1.15, 28.91 3.34 C32.35 5.54, 34.7 9.08, 36.9 12.45 C39.1 15.81, 43.03 19.42, 42.1 23.52 C41.18 27.61, 35.22 34.3, 31.34 37.04 C27.45 39.78, 22.94 40.11, 18.81 39.96 C14.68 39.8, 9.76 38.95, 6.55 36.11 C3.35 33.27, -0.2 27.26, -0.42 22.91 C-0.64 18.56, 1.04 13.78, 5.24 10.02 C9.44 6.25, 19.64 0.64, 24.78 0.29 C29.93 -0.05, 36.39 7.4, 36.12 7.94 M23.04 -0.23 C27.59 0.39, 37.53 3.95, 40.25 7.96 C42.98 11.96, 40.14 19.04, 39.4 23.79 C38.66 28.53, 39.2 33.81, 35.82 36.43 C32.44 39.05, 24.14 39.39, 19.12 39.51 C14.09 39.62, 8.92 39.66, 5.66 37.09 C2.4 34.52, 0.25 28.17, -0.43 24.1 C-1.1 20.04, -0.66 16.23, 1.63 12.7 C3.92 9.16, 9.42 4.88, 13.31 2.88 C17.2 0.88, 23.13 1.27, 24.96 0.69 C26.8 0.12, 24.59 -0.76, 24.33 -0.58" stroke="none" stroke-width="0" fill="#82c91e"></path><path d="M10.3 4.3 C13.96 1.89, 22 -0.08, 26.17 0.22 C30.33 0.52, 33.11 2.95, 35.3 6.1 C37.49 9.25, 39.07 14.36, 39.31 19.13 C39.54 23.91, 39.59 31.04, 36.72 34.74 C33.86 38.44, 26.4 40.62, 22.14 41.35 C17.88 42.08, 14.88 41.81, 11.16 39.14 C7.45 36.47, 1.73 29.61, -0.15 25.33 C-2.04 21.05, -2.65 17.49, -0.16 13.47 C2.33 9.45, 11.37 3.52, 14.8 1.19 C18.22 -1.14, 20.32 -1.03, 20.41 -0.51 M30.21 0.58 C33.46 1.71, 38.19 6.82, 39.66 11.94 C41.12 17.06, 40.86 26.46, 39 31.31 C37.14 36.16, 32.07 39.26, 28.51 41.06 C24.95 42.86, 21.6 43.06, 17.64 42.12 C13.68 41.17, 8.05 39.19, 4.75 35.37 C1.45 31.56, -2.34 23.6, -2.16 19.22 C-1.97 14.84, 2.24 12.01, 5.86 9.08 C9.48 6.15, 15.45 2.28, 19.58 1.63 C23.71 0.98, 28.66 4.35, 30.65 5.19 C32.65 6.04, 31.89 6.49, 31.56 6.68" stroke="#d9480f" stroke-width="4" fill="none"></path></g><g stroke-linecap="round" transform="translate(440.7211173999224 371.09887100559206) rotate(0 20.452865740551033 20.45286574055109)"><path d="M10.12 3.15 C13.48 0.82, 18.94 1.1, 23.11 1.93 C27.28 2.76, 31.99 5.36, 35.12 8.14 C38.24 10.92, 41.64 14.67, 41.88 18.61 C42.13 22.56, 39.4 28.49, 36.56 31.83 C33.71 35.18, 29.25 37.79, 24.81 38.69 C20.37 39.6, 14.01 39.35, 9.91 37.25 C5.8 35.15, 1.81 30.35, 0.18 26.09 C-1.46 21.83, -2.79 16.13, 0.11 11.69 C3 7.25, 13.66 1.53, 17.53 -0.55 C21.39 -2.63, 23.51 -1.32, 23.29 -0.77 M14.86 0.82 C17.96 -1.54, 21.32 -1.93, 25.22 -0.32 C29.11 1.28, 36.1 7.05, 38.23 10.45 C40.37 13.86, 38.61 15.75, 38.01 20.1 C37.42 24.45, 37.19 33.09, 34.68 36.56 C32.17 40.04, 26.96 41.14, 22.95 40.96 C18.93 40.78, 13.83 38.33, 10.59 35.49 C7.35 32.65, 4.84 27.52, 3.48 23.92 C2.13 20.33, 0.81 17.96, 2.46 13.94 C4.12 9.91, 12.22 2.13, 13.4 -0.22 C14.58 -2.57, 9.45 -0.75, 9.55 -0.17" stroke="none" stroke-width="0" fill="#82c91e"></path><path d="M35.45 6.02 C38.97 8.3, 41.05 11.98, 41.24 16.65 C41.42 21.33, 39.24 30.31, 36.55 34.08 C33.86 37.85, 29.08 38.33, 25.1 39.27 C21.12 40.21, 16.39 41.75, 12.67 39.74 C8.95 37.74, 4.94 31.64, 2.79 27.24 C0.65 22.83, -1.2 17.34, -0.21 13.3 C0.78 9.27, 5.15 5.27, 8.74 3.01 C12.32 0.76, 15.82 -3.21, 21.31 -0.2 C26.8 2.8, 39.28 15.41, 41.67 21.05 C44.06 26.68, 36.12 33.92, 35.64 33.61 M9.19 2.18 C12.76 0.28, 17.69 2.5, 22.13 2.85 C26.57 3.2, 32.72 1.79, 35.85 4.26 C38.97 6.73, 41.09 12.79, 40.88 17.67 C40.67 22.54, 36.7 29.88, 34.58 33.51 C32.46 37.13, 32.32 38.61, 28.16 39.43 C24 40.25, 14.14 40.05, 9.61 38.42 C5.08 36.79, 2.4 33.16, 0.98 29.63 C-0.44 26.11, 0.05 21.29, 1.11 17.27 C2.17 13.25, 6.23 8.02, 7.35 5.52 C8.47 3.01, 6.89 2.07, 7.85 2.24" stroke="#000000" stroke-width="4" fill="none"></path></g><g stroke-linecap="round" transform="translate(419.56298042693857 10) rotate(0 20.452865740551033 20.45286574055109)"><path d="M19.66 -0.96 C23.81 -1.37, 29.34 1.66, 32.41 4.34 C35.47 7.01, 37.23 10.91, 38.06 15.1 C38.89 19.3, 39.08 25.58, 37.36 29.49 C35.64 33.39, 31.46 36.89, 27.72 38.53 C23.97 40.17, 19.05 40.52, 14.9 39.35 C10.76 38.18, 5.59 34.82, 2.84 31.5 C0.09 28.18, -1.92 23.86, -1.6 19.45 C-1.27 15.04, -1 7.57, 4.78 5.04 C10.56 2.51, 27.05 1.56, 33.07 4.28 C39.1 7, 40.6 20.71, 40.94 21.36 M35.94 9.34 C39.01 12.23, 42.92 14.91, 42.39 19.12 C41.86 23.33, 35.83 30.85, 32.77 34.62 C29.71 38.39, 27.98 40.94, 24.04 41.75 C20.09 42.55, 13.24 41.6, 9.1 39.46 C4.96 37.32, 0.69 33.39, -0.8 28.91 C-2.28 24.43, -2.25 16.8, 0.19 12.55 C2.63 8.3, 9.99 5.86, 13.86 3.43 C17.73 1, 19.93 -3.06, 23.39 -2.03 C26.86 -1.01, 32.51 8.07, 34.66 9.55 C36.81 11.03, 36.67 6.71, 36.3 6.84" stroke="none" stroke-width="0" fill="#82c91e"></path><path d="M24.04 0.11 C28.43 0.81, 36.66 4.42, 39.29 8.29 C41.93 12.17, 40.51 18.75, 39.87 23.37 C39.22 27.99, 38.75 33.23, 35.45 35.99 C32.14 38.76, 24.86 39.77, 20.06 39.95 C15.25 40.13, 9.95 39.64, 6.6 37.07 C3.24 34.5, 0.73 28.68, -0.08 24.56 C-0.88 20.43, -0.4 15.98, 1.77 12.31 C3.93 8.64, 7.7 3.77, 12.9 2.52 C18.1 1.27, 28.88 3.44, 32.99 4.82 C37.1 6.2, 37.88 10.63, 37.55 10.79 M23.01 0.52 C27.01 0.35, 28.67 2.37, 31.33 4.69 C33.99 7.02, 37.68 9.66, 38.97 14.47 C40.27 19.27, 41.13 29.62, 39.08 33.53 C37.03 37.45, 30.97 37.04, 26.67 37.96 C22.37 38.87, 17.08 40.18, 13.29 39.03 C9.49 37.88, 5.61 35.03, 3.89 31.06 C2.17 27.09, 2.06 19.82, 2.97 15.19 C3.88 10.56, 6.7 5.37, 9.34 3.29 C11.99 1.22, 16.76 2.74, 18.83 2.74 C20.91 2.74, 21.79 3.66, 21.77 3.28" stroke="#000000" stroke-width="4" fill="none"></path></g><g stroke-linecap="round" transform="translate(861.0627719298695 176.44401085414006) rotate(0 20.452865740551033 20.45286574055109)"><path d="M36.08 4.2 C39.44 6.56, 41.06 12.68, 41.38 17.06 C41.7 21.44, 40.68 26.74, 38 30.47 C35.32 34.2, 29.87 38.23, 25.3 39.43 C20.72 40.63, 14.67 39.69, 10.56 37.66 C6.45 35.62, 2.23 31.15, 0.63 27.23 C-0.97 23.3, -0.21 18.34, 0.94 14.12 C2.1 9.9, 4.21 4.17, 7.55 1.92 C10.9 -0.33, 15.94 -1.26, 21 0.62 C26.07 2.5, 34.57 10.09, 37.94 13.22 C41.3 16.35, 41.47 19.66, 41.2 19.42 M10.45 -1.06 C14.1 -2.79, 22.41 0.77, 27.17 2.63 C31.93 4.5, 36.41 6.88, 39 10.14 C41.59 13.4, 43.09 18.16, 42.7 22.2 C42.3 26.24, 40.22 30.87, 36.62 34.38 C33.03 37.89, 25.75 43.28, 21.13 43.25 C16.5 43.22, 12.76 37.79, 8.86 34.23 C4.95 30.67, -1.44 25.91, -2.3 21.88 C-3.15 17.84, 1.44 13.95, 3.72 10.04 C6 6.13, 9.67 -0.11, 11.39 -1.57 C13.11 -3.02, 13.75 0.52, 14.06 1.31" stroke="none" stroke-width="0" fill="#82c91e"></path><path d="M2.61 8.4 C4.91 4.57, 10.84 3.09, 15.28 1.64 C19.73 0.2, 25.54 -1.54, 29.29 -0.27 C33.03 1, 35.91 5.16, 37.77 9.26 C39.62 13.36, 41.4 19.79, 40.42 24.33 C39.44 28.87, 35.25 33.6, 31.88 36.49 C28.51 39.39, 24.28 42, 20.18 41.7 C16.07 41.4, 10.6 38.01, 7.25 34.72 C3.9 31.42, -0.66 27.7, 0.1 21.91 C0.86 16.13, 7.71 3.5, 11.82 0.02 C15.93 -3.47, 24.56 0.54, 24.75 1.01 M36.53 6.21 C38.84 9.82, 38.25 17.44, 38.61 21.93 C38.97 26.43, 41.5 30.09, 38.69 33.16 C35.87 36.24, 26.66 39.42, 21.71 40.38 C16.76 41.34, 12.39 40.72, 8.99 38.91 C5.58 37.1, 2.84 33.51, 1.27 29.53 C-0.29 25.54, -1.72 19.77, -0.4 15.01 C0.92 10.25, 4.57 3.15, 9.2 0.96 C13.82 -1.22, 22.34 1.03, 27.37 1.89 C32.4 2.76, 38.18 5.2, 39.4 6.15 C40.61 7.11, 34.94 7.2, 34.65 7.63" stroke="#c92a2a" stroke-width="4" fill="none"></path></g><g transform="translate(10 196.89687659469126) rotate(0 9.773994445800781 22.5)"><text x="19.547988891601562" y="0" font-family="Virgil, Segoe UI Emoji" font-size="36px" fill="#000000" text-anchor="end" style="white-space: pre;" direction="ltr" dominant-baseline="text-before-edge">s</text></g><g stroke-linecap="round"><g transform="translate(90.20131488082393 233.57098068119643) rotate(0 172.19555093420408 82.76448546607715)"><path d="M-2.14 -0.76 C54.92 27.18, 283.77 141.34, 341.55 169.17 M1.89 -3.64 C59.86 23.32, 289.68 136.19, 346.53 164.88" stroke="#000000" stroke-width="4" fill="none"></path></g><g transform="translate(90.20131488082393 233.57098068119643) rotate(0 172.19555093420408 82.76448546607715)"><path d="M315.63 157.79 C326.68 163.48, 330.57 164.65, 349.36 168.26 M316.11 161.02 C324.72 162.61, 334.37 164.34, 347.46 165.6" stroke="#000000" stroke-width="4" fill="none"></path></g><g transform="translate(90.20131488082393 233.57098068119643) rotate(0 172.19555093420408 82.76448546607715)"><path d="M324.76 139.41 C333.54 149.92, 334.96 156.05, 349.36 168.26 M325.23 142.64 C331.5 149.24, 338.61 156.08, 347.46 165.6" stroke="#000000" stroke-width="4" fill="none"></path></g></g><mask></mask><g stroke-linecap="round"><g transform="translate(463.99506807020657 34.68449313514765) rotate(0 195.7633691736184 80.7029043749083)"><path d="M-2.23 1.25 C63.01 28.09, 327.76 135.05, 393.75 161.94 M1.76 -0.54 C66.43 25.36, 326.59 131.12, 391.63 157.55" stroke="#000000" stroke-width="4" fill="none"></path></g><g transform="translate(463.99506807020657 34.68449313514765) rotate(0 195.7633691736184 80.7029043749083)"><path d="M363.44 156.75 C374.77 157.62, 387.21 159.52, 388.62 161.54 M362.45 154.8 C365.95 157.03, 373.15 157.12, 391.35 156.16" stroke="#000000" stroke-width="4" fill="none"></path></g><g transform="translate(463.99506807020657 34.68449313514765) rotate(0 195.7633691736184 80.7029043749083)"><path d="M371.17 137.73 C379.66 145.77, 389.14 154.95, 388.62 161.54 M370.18 135.79 C372.15 141.91, 377.79 145.82, 391.35 156.16" stroke="#000000" stroke-width="4" fill="none"></path></g></g><mask></mask><g stroke-linecap="round"><g transform="translate(413.21553933504515 44.558290389206775) rotate(0 -157.73977686941143 77.17394801913785)"><path d="M0.01 0.21 C-52.38 26.09, -261.77 128.01, -314.21 154.17 M-3.43 -2.15 C-56.05 24.1, -263.45 129.37, -315.49 156.5" stroke="#364fc7" stroke-width="4" fill="none"></path></g><g transform="translate(413.21553933504515 44.558290389206775) rotate(0 -157.73977686941143 77.17394801913785)"><path d="M-294.8 137 C-304.94 143.16, -306.89 146.85, -314.19 153.07 M-296.31 135.11 C-300.37 139.57, -309.74 149.05, -314 156.25" stroke="#364fc7" stroke-width="4" fill="none"></path></g><g transform="translate(413.21553933504515 44.558290389206775) rotate(0 -157.73977686941143 77.17394801913785)"><path d="M-285.43 155.26 C-298.3 155.83, -303.11 153.93, -314.19 153.07 M-286.94 153.36 C-293.61 152.13, -305.86 156.01, -314 156.25" stroke="#364fc7" stroke-width="4" fill="none"></path></g></g><mask></mask><g stroke-linecap="round"><g transform="translate(458.3528982107441 366.1619723785622) rotate(0 -6.187534587307198 -155.77478793961313)"><path d="M1.64 -0.25 C-0.19 -52.35, -10.05 -259.45, -13.09 -311.3 M-0.91 -2.86 C-2.71 -54.55, -10.99 -256.58, -14.02 -307.43" stroke="#364fc7" stroke-width="4" fill="none"></path></g><g transform="translate(458.3528982107441 366.1619723785622) rotate(0 -6.187534587307198 -155.77478793961313)"><path d="M-2.76 -276.32 C-4.65 -287.48, -7.29 -289.68, -14.78 -307.59 M-0.54 -278.23 C-6.02 -284.18, -7.67 -292.02, -13.08 -308.07" stroke="#364fc7" stroke-width="4" fill="none"></path></g><g transform="translate(458.3528982107441 366.1619723785622) rotate(0 -6.187534587307198 -155.77478793961313)"><path d="M-23.25 -275.32 C-20.54 -286.95, -18.57 -289.37, -14.78 -307.59 M-21.04 -277.23 C-22.25 -282.98, -19.64 -291.02, -13.08 -308.07" stroke="#364fc7" stroke-width="4" fill="none"></path></g></g><mask></mask><g stroke-linecap="round"><g transform="translate(858.946958232573 215.23392863794373) rotate(0 -184.20348295505397 84.91460487637676)"><path d="M-0.77 2.59 C-62.62 30.44, -310.32 137.69, -372.42 165.3 M4.01 1.52 C-56.79 29.92, -304.82 141.28, -366.81 168.3" stroke="#364fc7" stroke-width="4" fill="none"></path></g><g transform="translate(858.946958232573 215.23392863794373) rotate(0 -184.20348295505397 84.91460487637676)"><path d="M-341.5 145.42 C-352.59 149.19, -353.86 157.09, -363.59 169.93 M-343.39 146.5 C-352.8 154.16, -359.69 162.03, -364.84 167.15" stroke="#364fc7" stroke-width="4" fill="none"></path></g><g transform="translate(858.946958232573 215.23392863794373) rotate(0 -184.20348295505397 84.91460487637676)"><path d="M-333.18 164.18 C-346.13 163.14, -349.51 166.29, -363.59 169.93 M-335.07 165.26 C-347.44 166.98, -356.97 168.88, -364.84 167.15" stroke="#364fc7" stroke-width="4" fill="none"></path></g></g><mask></mask></svg>