<svg version="1.1" xmlns="http://www.w3.org/2000/svg" viewBox="0 0 1416.4370402169386 571.3847448867484" width="1416.4370402169386" height="571.3847448867484">
  <!-- svg-source:excalidraw -->
  
  <defs>
    <style class="style-fonts">
      @font-face {
        font-family: "Virgil";
        src: url("https://excalidraw.com/Virgil.woff2");
      }
      @font-face {
        font-family: "Cascadia";
        src: url("https://excalidraw.com/Cascadia.woff2");
      }
    </style>
  </defs>
  <rect x="0" y="0" width="1416.4370402169386" height="571.3847448867484" fill="#ffffff"></rect><g stroke-linecap="round" transform="translate(10 87.57983556760769) rotate(0 198.88648754604878 191.12850398928805)"><path d="M234.36 1.89 C251.82 1.9, 269.74 10.1, 285.97 18.14 C302.2 26.18, 318.18 38.44, 331.75 50.13 C345.32 61.82, 357.61 74.31, 367.4 88.26 C377.19 102.21, 385.72 117.56, 390.49 133.83 C395.27 150.09, 395.8 168.16, 396.06 185.84 C396.32 203.53, 396.27 223.03, 392.06 239.94 C387.85 256.84, 380.1 272.35, 370.82 287.27 C361.54 302.18, 348.89 317.75, 336.38 329.41 C323.86 341.08, 311.45 349.19, 295.72 357.28 C279.99 365.37, 259.68 373.92, 242.01 377.95 C224.34 381.97, 207.09 382.52, 189.69 381.45 C172.28 380.37, 154.53 377.05, 137.59 371.51 C120.65 365.98, 103.32 357.72, 88.03 348.23 C72.74 338.74, 57.59 327.46, 45.85 314.59 C34.1 301.71, 24.79 286.47, 17.56 270.99 C10.34 255.5, 5.42 238.65, 2.5 221.69 C-0.43 204.72, -2.38 186.03, -0.01 169.17 C2.36 152.31, 9.71 136.42, 16.71 120.51 C23.71 104.6, 31.56 87.79, 42 73.7 C52.44 59.61, 64.69 45.89, 79.34 35.99 C93.98 26.09, 113.08 20.03, 129.85 14.3 C146.61 8.57, 151.55 -0.34, 179.91 1.6 C208.27 3.53, 271.86 14.43, 300.02 25.91 C328.18 37.39, 350.97 68.05, 348.87 70.49 M249.55 5 C266.73 6.53, 286.45 20.37, 301.49 29.16 C316.52 37.94, 327.57 46.15, 339.77 57.71 C351.97 69.27, 366.13 83.78, 374.69 98.52 C383.26 113.27, 387.81 129.39, 391.17 146.2 C394.52 163.01, 395.67 181.4, 394.81 199.37 C393.94 217.33, 391.16 237.76, 385.99 254.01 C380.83 270.25, 373.15 283.4, 363.82 296.82 C354.48 310.25, 343.85 323.48, 329.98 334.57 C316.11 345.65, 297.6 355.79, 280.59 363.35 C263.57 370.91, 245.65 377, 227.88 379.94 C210.11 382.88, 191.87 382.95, 173.94 380.97 C156.01 378.99, 136.36 374.74, 120.33 368.06 C104.29 361.39, 91.18 351.88, 77.72 340.93 C64.26 329.98, 50.89 316.32, 39.57 302.34 C28.25 288.36, 16.3 273.33, 9.78 257.05 C3.26 240.76, 1.13 221.42, 0.44 204.63 C-0.26 187.84, 1.81 173.13, 5.6 156.33 C9.39 139.52, 15.3 118.87, 23.18 103.81 C31.07 88.74, 41.05 78.64, 52.9 65.94 C64.75 53.24, 78.96 36.85, 94.29 27.61 C109.62 18.37, 127.54 15.1, 144.85 10.51 C162.17 5.91, 180.96 1.08, 198.18 0.03 C215.39 -1.01, 239.82 2.14, 248.17 4.24 C256.51 6.34, 249.08 9.2, 248.23 12.62" stroke="#5f3dc4" stroke-width="4" fill="none"></path></g><g transform="translate(123.93653214135213 256.06007830803003) rotate(0 84.81597137451172 22.5)"><text x="84.81597137451172" y="0" font-family="Virgil, Segoe UI Emoji" font-size="36px" fill="#5f3dc4" text-anchor="middle" style="white-space: pre;" direction="ltr" dominant-baseline="text-before-edge">socket_0</text></g><g stroke-linecap="round"><g transform="translate(310.23272210029165 94.46431097032743) rotate(0 368.16486432759046 -18.67339502864658)"><path d="M-2.5 0.26 C56.02 -5.8, 227.39 -37.18, 350.05 -37.6 C472.72 -38.03, 668.77 -8.3, 733.47 -2.3 M1.33 -2.06 C59.58 -7.63, 224.91 -34.84, 347.83 -34.57 C470.75 -34.3, 673.48 -6.25, 738.83 -0.47" stroke="#000000" stroke-width="4" fill="none"></path></g><g transform="translate(310.23272210029165 94.46431097032743) rotate(0 368.16486432759046 -18.67339502864658)"><path d="M710.07 6.7 C715.82 1.46, 721.66 6.44, 736.51 0.03 M708.23 7.79 C716.29 5.37, 722.31 5.75, 739.99 1.4" stroke="#000000" stroke-width="4" fill="none"></path></g><g transform="translate(310.23272210029165 94.46431097032743) rotate(0 368.16486432759046 -18.67339502864658)"><path d="M712.3 -13.7 C717.29 -13.63, 722.54 -3.31, 736.51 0.03 M710.46 -12.61 C717.7 -10.75, 723.25 -6.05, 739.99 1.4" stroke="#000000" stroke-width="4" fill="none"></path></g></g><mask></mask><g stroke-linecap="round" transform="translate(967.758333643739 67.83224105948943) rotate(0 219.33935328659982 213.69718342713747)"><path d="M150.09 10.29 C166.56 1.78, 188.75 2.2, 207.23 0.86 C225.71 -0.48, 242.54 -1.54, 260.94 2.25 C279.35 6.05, 300.75 15.37, 317.65 23.61 C334.55 31.85, 347.97 39.66, 362.34 51.7 C376.71 63.74, 392.86 80.3, 403.88 95.86 C414.9 111.42, 422.96 127.55, 428.44 145.05 C433.91 162.56, 435.92 182.6, 436.72 200.89 C437.52 219.18, 436.78 236.76, 433.25 254.79 C429.72 272.82, 423.88 292.52, 415.53 309.06 C407.18 325.6, 395.26 340.01, 383.15 354.05 C371.03 368.09, 358.45 382.87, 342.81 393.28 C327.18 403.7, 307.39 410.6, 289.36 416.53 C271.33 422.46, 253.46 427.68, 234.63 428.87 C215.8 430.06, 194.97 427.89, 176.4 423.65 C157.82 419.42, 140.06 411.91, 123.2 403.45 C106.34 394.99, 89.57 384.9, 75.24 372.91 C60.9 360.93, 47.87 346.62, 37.2 331.54 C26.52 316.46, 17.11 299.52, 11.2 282.43 C5.29 265.33, 2.82 247.45, 1.73 228.95 C0.63 210.44, 0.88 189.62, 4.64 171.39 C8.39 153.16, 15.94 135.89, 24.24 119.57 C32.53 103.25, 42.48 87.42, 54.42 73.46 C66.36 59.5, 70.19 47.75, 95.89 35.82 C121.6 23.9, 180.07 6.52, 208.64 1.89 C237.2 -2.74, 266.87 4.59, 267.29 8.05 M82.36 43.74 C94.15 30.21, 111.56 26.87, 129.08 20.19 C146.59 13.51, 168.46 7.09, 187.45 3.65 C206.44 0.22, 224.63 -2.63, 243.04 -0.43 C261.45 1.77, 280.38 10.19, 297.91 16.87 C315.44 23.54, 332.57 28.62, 348.2 39.6 C363.83 50.58, 380.17 68.01, 391.69 82.74 C403.22 97.46, 409.83 111.83, 417.36 127.95 C424.88 144.08, 433.41 161.47, 436.85 179.5 C440.28 197.53, 440.44 217.21, 437.97 236.12 C435.51 255.03, 429.51 276.06, 422.06 292.97 C414.62 309.88, 404.65 322.78, 393.3 337.59 C381.94 352.4, 368.57 369.8, 353.94 381.82 C339.32 393.85, 322.87 402.12, 305.56 409.73 C288.26 417.34, 268.2 425.25, 250.11 427.49 C232.02 429.72, 215.33 425.99, 197.03 423.16 C178.74 420.34, 158.24 416.27, 140.34 410.53 C122.44 404.79, 105.16 398.82, 89.62 388.71 C74.08 378.6, 58.59 364.86, 47.12 349.85 C35.65 334.83, 28.42 315.63, 20.82 298.62 C13.22 281.61, 4.99 265.95, 1.54 247.78 C-1.91 229.62, -1.73 208.69, 0.14 189.63 C2 170.56, 6.08 150.22, 12.72 133.41 C19.37 116.6, 28.35 102.81, 39.99 88.78 C51.63 74.76, 75.2 55.75, 82.57 49.24 C89.94 42.74, 81.58 47.56, 84.2 49.75" stroke="#c92a2a" stroke-width="4" fill="none"></path></g><g stroke-linecap="round"><g transform="translate(1037.8784065362322 443.438188006392) rotate(0 -369.3061431140396 37.45521875997284)"><path d="M0.41 2.07 C-59.67 13.75, -237.98 67.36, -360.85 71.75 C-483.71 76.15, -673.88 35.92, -736.78 28.44 M-2.81 0.72 C-63.12 12.51, -239.7 70.16, -362.4 73.97 C-485.11 77.77, -676.27 31.02, -739.02 23.57" stroke="#000000" stroke-width="4" fill="none"></path></g><g transform="translate(1037.8784065362322 443.438188006392) rotate(0 -369.3061431140396 37.45521875997284)"><path d="M-706.54 20.07 C-721.62 18.74, -724.63 18.13, -739.54 27.33 M-710.76 19.67 C-716.26 18.7, -720.84 19.69, -738.53 23.25" stroke="#000000" stroke-width="4" fill="none"></path></g><g transform="translate(1037.8784065362322 443.438188006392) rotate(0 -369.3061431140396 37.45521875997284)"><path d="M-710.04 40.29 C-724.36 33.15, -726.36 26.74, -739.54 27.33 M-714.26 39.89 C-719.26 34.8, -723.14 31.71, -738.53 23.25" stroke="#000000" stroke-width="4" fill="none"></path></g></g><mask></mask><g transform="translate(335.1478957280367 10) rotate(0 42.65998077392578 22.5)"><text x="85.31996154785156" y="0" font-family="Virgil, Segoe UI Emoji" font-size="36px" fill="#5f3dc4" text-anchor="end" style="white-space: pre;" direction="ltr" dominant-baseline="text-before-edge">write</text></g><g transform="translate(328.10500634209757 516.3847448867484) rotate(0 39.833984375 22.5)"><text x="79.66796875" y="0" font-family="Virgil, Segoe UI Emoji" font-size="36px" fill="#5f3dc4" text-anchor="end" style="white-space: pre;" direction="ltr" dominant-baseline="text-before-edge">read</text></g><g transform="translate(892.3219922883354 14.231627394596785) rotate(0 39.833984375 22.5)"><text x="79.66796875" y="0" font-family="Virgil, Segoe UI Emoji" font-size="36px" fill="#c92a2a" text-anchor="end" style="white-space: pre;" direction="ltr" dominant-baseline="text-before-edge">read</text></g><g transform="translate(905.0070515337366 509.3320325624204) rotate(0 42.65998077392578 22.5)"><text x="85.31996154785156" y="0" font-family="Virgil, Segoe UI Emoji" font-size="36px" fill="#c92a2a" text-anchor="end" style="white-space: pre;" direction="ltr" dominant-baseline="text-before-edge">write</text></g><g transform="translate(1100.8890471354998 269.53981353526945) rotate(0 77.30997467041016 22.5)"><text x="154.6199493408203" y="0" font-family="Virgil, Segoe UI Emoji" font-size="36px" fill="#c92a2a" text-anchor="end" style="white-space: pre;" direction="ltr" dominant-baseline="text-before-edge">socket_1</text></g></svg>