<svg version="1.1" xmlns="http://www.w3.org/2000/svg" viewBox="0 0 1319.397853535244 874.5036269085098" width="1319.397853535244" height="874.5036269085098">
  <!-- svg-source:excalidraw -->
  
  <defs>
    <style class="style-fonts">
      @font-face {
        font-family: "Virgil";
        src: url("https://excalidraw.com/Virgil.woff2");
      }
      @font-face {
        font-family: "Cascadia";
        src: url("https://excalidraw.com/Cascadia.woff2");
      }
    </style>
  </defs>
  <rect x="0" y="0" width="1319.397853535244" height="874.5036269085098" fill="#ffffff"></rect><g stroke-linecap="round" transform="translate(563.637917459746 10) rotate(0 35.968832854072616 39)"><path d="M35.36 0.62 C41.73 -0.73, 47.61 0.92, 53.07 4.9 C58.52 8.89, 65.19 17.35, 68.09 24.54 C70.99 31.72, 72.15 40.57, 70.48 48.02 C68.81 55.46, 63.34 64.08, 58.07 69.21 C52.8 74.33, 45.97 78.47, 38.86 78.75 C31.75 79.02, 21.23 75.23, 15.4 70.88 C9.57 66.54, 6.26 59.33, 3.89 52.68 C1.53 46.04, -0.29 38.17, 1.21 31.02 C2.72 23.86, 4.82 14.88, 12.91 9.78 C21 4.68, 41.98 -0.14, 49.76 0.43 C57.55 1, 60.14 12.49, 59.62 13.19 M22.19 3.43 C27.54 0.14, 35.11 -1.48, 41.64 -0.3 C48.17 0.88, 56.67 4.56, 61.35 10.51 C66.02 16.46, 68.67 27.78, 69.69 35.4 C70.72 43.02, 70.58 49.87, 67.51 56.21 C64.45 62.54, 57.48 69.98, 51.28 73.42 C45.08 76.87, 36.82 78.56, 30.33 76.85 C23.84 75.15, 17.41 68.39, 12.33 63.2 C7.26 58.02, 1.03 52.98, -0.12 45.74 C-1.27 38.51, 2.13 26.63, 5.45 19.81 C8.78 12.98, 17.28 7.14, 19.84 4.81 C22.39 2.48, 20.79 5.25, 20.78 5.82" stroke="none" stroke-width="0" fill="#82c91e"></path><path d="M45.62 1.18 C52.27 2.59, 62.2 8.42, 66.7 14.59 C71.2 20.77, 73.01 30.05, 72.61 38.22 C72.2 46.39, 68.54 57.06, 64.29 63.63 C60.04 70.2, 53.83 75.32, 47.13 77.63 C40.42 79.93, 30.73 80.26, 24.07 77.45 C17.4 74.64, 11.09 67.42, 7.14 60.76 C3.18 54.1, 0.34 45, 0.33 37.5 C0.32 29.99, 3.24 21.62, 7.09 15.74 C10.94 9.87, 15 3.09, 23.42 2.23 C31.84 1.36, 50.41 7.09, 57.61 10.55 C64.81 14, 67.02 22.59, 66.63 22.95 M9.68 9.68 C14.91 4.12, 26.75 -1.81, 34.2 -2.63 C41.64 -3.45, 48.12 0.75, 54.36 4.76 C60.6 8.76, 69.29 14.1, 71.66 21.42 C74.02 28.74, 70.76 40.68, 68.56 48.69 C66.36 56.71, 63.59 64.44, 58.46 69.49 C53.32 74.55, 44.17 78.45, 37.74 79.03 C31.31 79.61, 25.79 77.48, 19.88 72.99 C13.97 68.49, 5.77 59.17, 2.28 52.07 C-1.22 44.96, -3.05 37.06, -1.09 30.34 C0.87 23.62, 11.24 14.88, 14.04 11.77 C16.84 8.67, 15.42 11.26, 15.7 11.73" stroke="#000000" stroke-width="4" fill="none"></path></g><g transform="translate(594.7949463392875 26.42283553372465) rotate(0 4.877998352050781 22.5)"><text x="4.877998352050781" y="0" font-family="Virgil, Segoe UI Emoji" font-size="36px" fill="#000000" text-anchor="middle" style="white-space: pre;" direction="ltr" dominant-baseline="text-before-edge">1</text></g><g stroke-linecap="round" transform="translate(397.89917783803844 211.00230124334735) rotate(0 35.968832854072616 39)"><path d="M10.93 11.18 C15.6 5.71, 22.85 -0.49, 30.18 -1.64 C37.51 -2.79, 48.79 0.32, 54.92 4.27 C61.04 8.23, 63.99 15.08, 66.93 22.1 C69.87 29.11, 73.88 38.81, 72.58 46.37 C71.28 53.93, 64.34 62.04, 59.13 67.44 C53.92 72.85, 48.19 78.04, 41.33 78.82 C34.47 79.6, 24.35 76.18, 17.97 72.14 C11.6 68.09, 5.94 61.24, 3.09 54.55 C0.25 47.85, -5.56 40.97, 0.92 31.96 C7.39 22.95, 30.61 1.77, 41.94 0.47 C53.27 -0.82, 68.94 23.39, 68.89 24.18 M50.02 5.55 C56.91 7.66, 63.98 10.88, 67.56 16.6 C71.13 22.32, 72.59 31.53, 71.49 39.88 C70.38 48.23, 64.98 60.06, 60.92 66.68 C56.87 73.3, 53.6 77.88, 47.16 79.6 C40.71 81.32, 29.43 80.25, 22.25 76.98 C15.07 73.71, 7.3 66.89, 4.09 59.96 C0.88 53.04, 2.5 43.61, 2.98 35.43 C3.46 27.26, 2.65 16.76, 6.96 10.93 C11.27 5.09, 22.12 2.2, 28.83 0.42 C35.54 -1.36, 43.38 -0.63, 47.21 0.24 C51.04 1.1, 51.49 4.86, 51.81 5.62" stroke="none" stroke-width="0" fill="#82c91e"></path><path d="M38.78 0.39 C45.94 -0.03, 53.68 4.75, 59.17 9.11 C64.65 13.48, 70.21 19.68, 71.69 26.6 C73.17 33.51, 70.79 43.13, 68.07 50.59 C65.34 58.05, 61.04 66.61, 55.36 71.36 C49.69 76.11, 40.92 79.23, 34.03 79.1 C27.14 78.98, 19.38 75.44, 14.02 70.59 C8.65 65.75, 3.57 57.17, 1.83 50.03 C0.09 42.89, 1 35.23, 3.56 27.76 C6.13 20.3, 6.61 7.24, 17.21 5.24 C27.81 3.24, 58.27 8.3, 67.16 15.76 C76.05 23.22, 71.26 49.71, 70.56 50.01 M37.38 -1.45 C44.18 -1.47, 50.33 1.83, 56.24 6.99 C62.16 12.16, 70.56 22.37, 72.87 29.54 C75.18 36.71, 73.18 42.96, 70.09 50.02 C67.01 57.08, 59.8 67.4, 54.35 71.9 C48.91 76.4, 43.77 77.74, 37.41 77.01 C31.06 76.28, 22.52 71.66, 16.21 67.5 C9.91 63.34, 1.46 59.31, -0.41 52.04 C-2.29 44.77, 2.5 31.04, 4.99 23.87 C7.47 16.71, 9.54 13.01, 14.48 9.06 C19.42 5.11, 31.16 1.1, 34.62 0.18 C38.09 -0.74, 35.08 2.66, 35.25 3.53" stroke="#000000" stroke-width="4" fill="none"></path></g><g transform="translate(421.1182108069355 227.425136777072) rotate(0 12.815994262695312 22.5)"><text x="12.815994262695312" y="0" font-family="Virgil, Segoe UI Emoji" font-size="36px" fill="#000000" text-anchor="middle" style="white-space: pre;" direction="ltr" dominant-baseline="text-before-edge">2</text></g><g stroke-linecap="round" transform="translate(792.8510680004049 194.0757916649602) rotate(0 35.968832854072616 39)"><path d="M29.33 2.14 C35.76 0.61, 46.22 -0.3, 52.73 3.26 C59.23 6.81, 65.22 16.6, 68.37 23.48 C71.52 30.36, 72.88 37.11, 71.63 44.53 C70.38 51.94, 65.85 62.57, 60.88 67.95 C55.91 73.33, 49 76, 41.79 76.81 C34.58 77.62, 24.22 76.29, 17.62 72.83 C11.03 69.37, 5.04 63.14, 2.21 56.07 C-0.62 49, -0.8 37.91, 0.64 30.41 C2.08 22.91, 5.07 16.31, 10.87 11.08 C16.67 5.85, 30.54 0.57, 35.44 -0.98 C40.34 -2.53, 40.47 1.06, 40.27 1.76 M40.57 0.26 C46.48 0.43, 54.44 3.45, 60.04 9.45 C65.65 15.45, 72.45 28.29, 74.18 36.26 C75.91 44.22, 73.86 51.16, 70.41 57.24 C66.95 63.33, 60.2 68.93, 53.45 72.77 C46.71 76.61, 37.3 81.65, 29.93 80.27 C22.56 78.89, 14.63 70.24, 9.21 64.49 C3.78 58.75, -1.69 53.5, -2.63 45.79 C-3.58 38.09, 0.16 24.84, 3.55 18.28 C6.94 11.73, 10.9 9.25, 17.7 6.47 C24.51 3.69, 40.58 2.28, 44.38 1.62 C48.19 0.96, 40.5 2.34, 40.54 2.51" stroke="none" stroke-width="0" fill="#fa5252"></path><path d="M64.81 15.53 C69.12 20.31, 70.47 27.73, 70.45 35.01 C70.43 42.28, 68.24 52.62, 64.69 59.19 C61.14 65.77, 55.29 71.52, 49.17 74.44 C43.04 77.37, 34.66 78.47, 27.94 76.74 C21.22 75.01, 13.47 69.73, 8.83 64.06 C4.2 58.38, 0.32 50.12, 0.11 42.69 C-0.09 35.25, 4.05 25.8, 7.6 19.44 C11.14 13.08, 15.22 7.39, 21.37 4.53 C27.52 1.67, 36.19 -2.71, 44.48 2.26 C52.77 7.23, 67.35 25.67, 71.13 34.37 C74.9 43.07, 67.9 54.8, 67.14 54.45 M41.66 3.12 C48.86 4.24, 59.19 7.64, 63.87 12.45 C68.55 17.26, 69 24.06, 69.74 31.99 C70.49 39.92, 71.56 52.64, 68.33 60.03 C65.09 67.42, 57.27 73.77, 50.35 76.33 C43.42 78.89, 33.22 76.67, 26.77 75.4 C20.32 74.12, 16.43 74.11, 11.65 68.69 C6.87 63.27, -1.07 51.34, -1.92 42.9 C-2.76 34.47, 2.78 24.85, 6.57 18.07 C10.35 11.28, 14.31 5.26, 20.78 2.19 C27.26 -0.89, 41.53 -0.62, 45.41 -0.39 C49.28 -0.15, 44.25 3.16, 44.02 3.6" stroke="#000000" stroke-width="4" fill="none"></path></g><g transform="translate(816.6280996265285 210.49862719868486) rotate(0 12.25799560546875 22.5)"><text x="12.25799560546875" y="0" font-family="Virgil, Segoe UI Emoji" font-size="36px" fill="#000000" text-anchor="middle" style="white-space: pre;" direction="ltr" dominant-baseline="text-before-edge">3</text></g><g stroke-linecap="round" transform="translate(190.5494355027961 447.9734353407671) rotate(0 35.968832854072616 39)"><path d="M4.4 17.54 C7.56 11.3, 17.89 5.5, 24.46 2.83 C31.02 0.17, 37.1 -0.6, 43.8 1.55 C50.5 3.7, 60.11 10.01, 64.65 15.74 C69.19 21.48, 70.87 28.74, 71.03 35.97 C71.2 43.2, 69.29 52.52, 65.63 59.1 C61.96 65.69, 55.8 72.64, 49.04 75.5 C42.28 78.36, 31.86 78.29, 25.07 76.26 C18.28 74.23, 12.65 69.12, 8.32 63.32 C3.98 57.52, -1.74 50.64, -0.94 41.47 C-0.14 32.3, 9.59 14.4, 13.11 8.29 C16.64 2.18, 19.64 3.99, 20.2 4.82 M13.28 9.25 C19.04 5.52, 32.31 2.63, 39.75 2.77 C47.19 2.91, 53 5.8, 57.91 10.1 C62.82 14.4, 66.74 21.68, 69.19 28.58 C71.65 35.49, 75.09 44.91, 72.66 51.54 C70.23 58.17, 60.67 64.08, 54.6 68.36 C48.53 72.65, 43.41 77.46, 36.24 77.25 C29.06 77.04, 16.93 71.36, 11.56 67.12 C6.18 62.87, 5.38 58.98, 3.99 51.79 C2.59 44.61, 1.01 31.03, 3.17 23.99 C5.33 16.95, 15.09 12.15, 16.97 9.57 C18.84 7, 14.55 8.71, 14.4 8.54" stroke="none" stroke-width="0" fill="#82c91e"></path><path d="M51.26 3.14 C57.03 6.38, 64.29 14.93, 67.49 22.26 C70.69 29.59, 71.56 39.5, 70.45 47.11 C69.34 54.72, 65.72 62.82, 60.83 67.92 C55.95 73.02, 47.9 76.49, 41.15 77.71 C34.41 78.92, 26.38 79.11, 20.37 75.21 C14.36 71.32, 8.07 61.65, 5.09 54.34 C2.1 47.04, 1.29 38.71, 2.46 31.37 C3.63 24.04, 7.22 15.66, 12.1 10.31 C16.99 4.96, 22.07 -3.37, 31.79 -0.73 C41.5 1.9, 64.83 16.5, 70.4 26.13 C75.98 35.76, 65.99 56.8, 65.24 57.06 M24.36 0.25 C29.77 -2.78, 37.24 0.12, 44.33 2.49 C51.43 4.86, 61.99 8.93, 66.93 14.47 C71.87 20.01, 74.56 27.6, 74 35.71 C73.44 43.83, 67.44 56.84, 63.56 63.16 C59.68 69.48, 57.23 71.09, 50.72 73.64 C44.21 76.19, 32.11 80.28, 24.5 78.46 C16.9 76.64, 9.45 68.71, 5.11 62.72 C0.77 56.73, -1.58 49.94, -1.54 42.52 C-1.49 35.1, 0.74 24.59, 5.39 18.2 C10.03 11.8, 23.53 7.2, 26.32 4.15 C29.12 1.1, 22.67 -0.32, 22.13 -0.1" stroke="#000000" stroke-width="4" fill="none"></path></g><g transform="translate(215.06446609132206 464.39627087449173) rotate(0 11.519996643066406 22.5)"><text x="11.519996643066406" y="0" font-family="Virgil, Segoe UI Emoji" font-size="36px" fill="#000000" text-anchor="middle" style="white-space: pre;" direction="ltr" dominant-baseline="text-before-edge">4</text></g><g stroke-linecap="round" transform="translate(447.2681641083341 456.43669012996065) rotate(0 35.968832854072616 39)"><path d="M11.89 8.7 C16.53 3.29, 24.83 1.66, 31.97 0.9 C39.12 0.14, 48.83 0.57, 54.75 4.14 C60.67 7.71, 64.97 15.16, 67.5 22.3 C70.04 29.44, 71.15 39.66, 69.96 46.99 C68.77 54.31, 65.41 61.04, 60.38 66.23 C55.35 71.42, 46.8 77.17, 39.78 78.13 C32.76 79.1, 24.24 75.69, 18.25 72.01 C12.27 68.33, 7.01 62.94, 3.87 56.05 C0.73 49.15, -4.65 39.54, -0.6 30.66 C3.45 21.79, 20.29 7.72, 28.17 2.81 C36.05 -2.11, 46.62 1.03, 46.66 1.16 M11.57 13.22 C15.47 6.75, 23.25 0.86, 29.72 -0.35 C36.18 -1.55, 44.31 3.03, 50.36 5.99 C56.41 8.95, 62.93 11.1, 66.01 17.42 C69.09 23.74, 69.44 36.43, 68.84 43.91 C68.23 51.39, 66.95 56.36, 62.39 62.31 C57.82 68.25, 47.85 77.32, 41.44 79.59 C35.03 81.85, 30.28 79.13, 23.95 75.9 C17.62 72.67, 6.94 67.23, 3.46 60.21 C-0.03 53.18, 1.94 41.86, 3.04 33.76 C4.14 25.66, 9.21 14.92, 10.04 11.62 C10.88 8.33, 7.83 13.1, 8.05 14" stroke="none" stroke-width="0" fill="#82c91e"></path><path d="M8.22 13.49 C12.51 7.68, 20.95 3.08, 27.86 1.33 C34.76 -0.42, 43.25 0, 49.65 3 C56.04 5.99, 62.21 12.69, 66.23 19.3 C70.25 25.91, 74.42 34.96, 73.77 42.66 C73.11 50.36, 67.18 59.65, 62.32 65.49 C57.45 71.32, 51.2 75.92, 44.56 77.67 C37.93 79.42, 29.17 78.91, 22.52 76 C15.87 73.09, 8.66 67.07, 4.68 60.22 C0.69 53.37, -2.9 43.67, -1.37 34.9 C0.15 26.13, 10.41 12.73, 13.83 7.61 C17.25 2.49, 18.56 3.3, 19.15 4.16 M39.03 2.37 C45.89 2.98, 53.02 6.84, 57.9 11 C62.78 15.17, 66.07 19.81, 68.3 27.36 C70.53 34.91, 73.83 49.04, 71.29 56.29 C68.74 63.55, 58.95 67.64, 53.05 70.88 C47.15 74.12, 42.5 76.3, 35.87 75.73 C29.23 75.17, 18.56 72.2, 13.23 67.52 C7.89 62.84, 5.41 54.43, 3.88 47.65 C2.34 40.87, 1.54 34.12, 4.01 26.81 C6.47 19.5, 13.47 8.63, 18.67 3.8 C23.88 -1.03, 32.03 -1.8, 35.22 -2.18 C38.4 -2.56, 37.58 0.99, 37.78 1.52" stroke="#000000" stroke-width="4" fill="none"></path></g><g transform="translate(472.1791984200046 472.8595256636853) rotate(0 11.123992919921875 22.5)"><text x="11.123992919921875" y="0" font-family="Virgil, Segoe UI Emoji" font-size="36px" fill="#000000" text-anchor="middle" style="white-space: pre;" direction="ltr" dominant-baseline="text-before-edge">5</text></g><g stroke-linecap="round" transform="translate(795.672152930136 462.0788599894229) rotate(0 35.968832854072616 39)"><path d="M41.96 1.59 C48.78 1.93, 55.5 5.1, 60.34 10.06 C65.19 15.02, 69.67 23.59, 71.03 31.33 C72.38 39.06, 71.78 49.48, 68.46 56.47 C65.14 63.46, 57.34 69.75, 51.1 73.25 C44.86 76.75, 37.9 78.45, 31.01 77.47 C24.12 76.49, 14.71 72.94, 9.75 67.38 C4.79 61.82, 2.36 51.67, 1.26 44.09 C0.15 36.52, -0.2 28.42, 3.13 21.92 C6.45 15.42, 11.36 6.52, 21.18 5.09 C31.01 3.66, 53.93 7.96, 62.05 13.33 C70.18 18.71, 69.93 36.58, 69.96 37.33 M63.14 15.58 C68.12 20.57, 74.65 30.07, 74.81 37.16 C74.98 44.24, 68.35 51.79, 64.14 58.1 C59.92 64.41, 56.29 72.41, 49.52 75.02 C42.74 77.64, 30.08 75.48, 23.5 73.78 C16.92 72.08, 13.79 70.7, 10.04 64.8 C6.29 58.9, 1.45 45.87, 1.02 38.37 C0.58 30.88, 3.92 25.65, 7.43 19.84 C10.94 14.02, 15.93 6.73, 22.09 3.47 C28.24 0.21, 37.29 -1.65, 44.36 0.29 C51.44 2.22, 61.13 12.58, 64.56 15.09 C67.99 17.59, 64.99 15.17, 64.96 15.32" stroke="none" stroke-width="0" fill="#fa5252"></path><path d="M38.84 0.84 C45.76 0.71, 54.13 4.26, 59.72 9.42 C65.32 14.58, 70.58 24.64, 72.42 31.8 C74.25 38.96, 73.36 45.75, 70.73 52.39 C68.09 59.03, 62.72 67.46, 56.62 71.63 C50.52 75.79, 41.33 78.07, 34.1 77.39 C26.87 76.72, 18.73 72.68, 13.22 67.56 C7.71 62.43, 3.11 53.84, 1.04 46.65 C-1.04 39.46, -1.76 31.42, 0.77 24.43 C3.3 17.44, 8.77 8.24, 16.22 4.7 C23.68 1.17, 39.22 3.09, 45.5 3.23 C51.78 3.36, 54.15 5.39, 53.88 5.51 M47.7 -1.07 C53.58 0.85, 57.71 10.6, 62.23 16.64 C66.76 22.68, 74.42 27.48, 74.86 35.16 C75.31 42.84, 69.65 55.96, 64.89 62.72 C60.14 69.48, 53.01 72.96, 46.32 75.72 C39.63 78.49, 31.36 81.14, 24.76 79.31 C18.16 77.47, 10.48 70.83, 6.72 64.72 C2.95 58.6, 2.68 51.01, 2.18 42.63 C1.69 34.25, 0.56 21.19, 3.73 14.43 C6.89 7.67, 14.08 4.49, 21.17 2.06 C28.27 -0.37, 42.75 -0.63, 46.3 -0.16 C49.85 0.32, 42.85 4.39, 42.47 4.91" stroke="#000000" stroke-width="4" fill="none"></path></g><g transform="translate(820.187183518662 478.50169552314753) rotate(0 11.519996643066406 22.5)"><text x="11.519996643066406" y="0" font-family="Virgil, Segoe UI Emoji" font-size="36px" fill="#000000" text-anchor="middle" style="white-space: pre;" direction="ltr" dominant-baseline="text-before-edge">6</text></g><g stroke-linecap="round" transform="translate(1142.6655992870724 460.6683175245573) rotate(0 35.968832854072616 39)"><path d="M46.06 1.53 C52.17 3.5, 59.56 10.49, 63.88 16.52 C68.19 22.55, 71.85 30.05, 71.97 37.71 C72.09 45.36, 68.81 56.2, 64.62 62.44 C60.44 68.68, 53.41 72.76, 46.86 75.15 C40.31 77.55, 32.21 79.15, 25.31 76.82 C18.42 74.48, 9.64 67.16, 5.49 61.13 C1.33 55.1, 0 48.37, 0.36 40.64 C0.72 32.91, 3.59 21.44, 7.66 14.77 C11.72 8.09, 16.64 1.41, 24.75 0.6 C32.85 -0.21, 49.2 6.62, 56.29 9.89 C63.39 13.16, 67.44 19.77, 67.34 20.2 M19.56 2.38 C24.83 -1.48, 32.47 0.91, 39.42 2.14 C46.36 3.37, 56.3 4.06, 61.23 9.77 C66.16 15.47, 67.58 28.23, 68.99 36.34 C70.4 44.46, 72.86 51.99, 69.68 58.48 C66.5 64.96, 56.11 72.41, 49.9 75.25 C43.7 78.1, 38.91 77.38, 32.46 75.53 C26.01 73.68, 16.77 69.37, 11.2 64.17 C5.63 58.96, 0.19 51.41, -0.98 44.32 C-2.16 37.22, 0.65 27.86, 4.15 21.57 C7.64 15.29, 17.48 9.63, 19.97 6.61 C22.45 3.6, 18.85 3.48, 19.06 3.49" stroke="none" stroke-width="0" fill="#fa5252"></path><path d="M36.43 1.47 C43.32 1.22, 53.93 4.61, 59.32 9.24 C64.7 13.87, 67.06 22.04, 68.74 29.24 C70.43 36.44, 71.49 45.41, 69.41 52.44 C67.34 59.47, 62.12 67.16, 56.3 71.43 C50.48 75.7, 41.69 78.56, 34.48 78.04 C27.28 77.53, 18.49 73.05, 13.07 68.32 C7.66 63.59, 4.05 56.74, 2.01 49.67 C-0.02 42.59, -1.61 32.75, 0.85 25.87 C3.32 18.98, 7.63 11.8, 16.78 8.34 C25.93 4.87, 47.44 2.5, 55.76 5.08 C64.08 7.65, 66.8 23.14, 66.71 23.79 M60.7 11.85 C66.22 16.2, 66.77 21.64, 68.58 28.18 C70.39 34.72, 73.76 44.06, 71.58 51.08 C69.4 58.11, 61.32 66.04, 55.48 70.34 C49.64 74.63, 43.35 76.71, 36.54 76.86 C29.72 77.02, 20.16 76.32, 14.59 71.26 C9.03 66.2, 5.66 54.64, 3.14 46.51 C0.63 38.38, -2.68 29.1, -0.5 22.48 C1.68 15.85, 10.06 11.01, 16.23 6.78 C22.41 2.55, 29 -3.14, 36.55 -2.9 C44.1 -2.66, 58.29 6.19, 61.55 8.24 C64.82 10.28, 56.67 8.69, 56.14 9.37" stroke="#000000" stroke-width="4" fill="none"></path></g><g transform="translate(1169.0166284107545 477.091153058282) rotate(0 9.683998107910156 22.5)"><text x="9.683998107910156" y="0" font-family="Virgil, Segoe UI Emoji" font-size="36px" fill="#000000" text-anchor="middle" style="white-space: pre;" direction="ltr" dominant-baseline="text-before-edge">7</text></g><g stroke-linecap="round" transform="translate(10 751.2400652868699) rotate(0 35.968832854072616 39)"><path d="M16.7 6.33 C21.88 2.08, 29.35 -0.69, 36.4 -0.31 C43.45 0.07, 53.44 3.63, 59 8.59 C64.55 13.56, 67.84 22.31, 69.73 29.49 C71.61 36.67, 72.79 44.58, 70.32 51.67 C67.85 58.77, 60.63 67.57, 54.89 72.06 C49.15 76.56, 43 79.15, 35.88 78.65 C28.76 78.15, 18.13 74.28, 12.15 69.07 C6.16 63.86, 1.3 54.45, -0.04 47.39 C-1.38 40.33, -0.9 34.48, 4.1 26.72 C9.11 18.95, 23.67 5.21, 30 0.8 C36.33 -3.62, 42.22 -0.73, 42.08 0.25 M28.09 0.62 C34.3 -1.72, 39.74 -3.25, 46.5 -0.06 C53.27 3.12, 64.28 13.16, 68.68 19.72 C73.08 26.27, 73.49 31.49, 72.9 39.27 C72.3 47.05, 69.99 59.94, 65.09 66.37 C60.2 72.81, 50.8 76.58, 43.51 77.87 C36.23 79.16, 27.63 77.08, 21.36 74.13 C15.1 71.18, 9.3 66.42, 5.92 60.17 C2.54 53.93, 0.29 44.54, 1.09 36.67 C1.89 28.79, 6.64 18.92, 10.71 12.92 C14.78 6.92, 22.94 2.56, 25.5 0.66 C28.05 -1.24, 25.82 0.97, 26.03 1.51" stroke="none" stroke-width="0" fill="#82c91e"></path><path d="M38.51 -1.54 C45.28 -2.28, 54.3 2.62, 59.79 7.46 C65.28 12.3, 69.67 20.25, 71.45 27.51 C73.23 34.76, 73 43.96, 70.48 51 C67.96 58.04, 62.58 65.19, 56.34 69.75 C50.09 74.31, 40.2 78.51, 32.99 78.36 C25.78 78.21, 18.42 73.32, 13.05 68.87 C7.69 64.41, 2.43 58.77, 0.79 51.64 C-0.84 44.5, 0.96 33.74, 3.23 26.04 C5.49 18.34, 5.17 8.18, 14.38 5.44 C23.58 2.71, 49.34 5.6, 58.46 9.63 C67.59 13.66, 69.87 29.55, 69.13 29.6 M55.9 9.45 C60.77 13.65, 65.79 19.54, 67.92 26.9 C70.05 34.25, 70.65 46.07, 68.7 53.57 C66.75 61.07, 61.28 67.5, 56.22 71.9 C51.16 76.3, 45.59 80.69, 38.34 79.99 C31.09 79.29, 19.18 72.55, 12.72 67.7 C6.26 62.84, 1.3 57.9, -0.43 50.88 C-2.15 43.86, 0.34 32.34, 2.36 25.58 C4.38 18.82, 6.22 14.94, 11.68 10.31 C17.14 5.67, 27.58 -2.04, 35.1 -2.23 C42.62 -2.42, 53.17 7.88, 56.81 9.17 C60.46 10.46, 57.25 5.14, 56.97 5.51" stroke="#000000" stroke-width="4" fill="none"></path></g><g transform="translate(32.265030588525974 767.6629008205946) rotate(0 13.769996643066406 22.5)"><text x="13.769996643066406" y="0" font-family="Virgil, Segoe UI Emoji" font-size="36px" fill="#000000" text-anchor="middle" style="white-space: pre;" direction="ltr" dominant-baseline="text-before-edge">8</text></g><g stroke-linecap="round" transform="translate(451.499791502931 786.5036269085098) rotate(0 35.968832854072616 39)"><path d="M41.34 0.9 C48.01 1.61, 56.26 5.04, 61.39 10.53 C66.51 16.01, 71.22 26.19, 72.1 33.79 C72.98 41.4, 69.92 49.18, 66.66 56.15 C63.4 63.11, 58.51 72.23, 52.55 75.6 C46.6 78.96, 37.99 78.04, 30.94 76.31 C23.88 74.58, 15.58 70.16, 10.21 65.23 C4.84 60.29, -0.53 53.73, -1.29 46.69 C-2.04 39.66, 2.18 29.89, 5.66 23.01 C9.15 16.14, 12.61 8.81, 19.61 5.42 C26.61 2.03, 41.5 2.6, 47.63 2.69 C53.77 2.77, 56.65 5.71, 56.42 5.96 M50.74 7.45 C57.3 11.05, 67.44 16.8, 70.58 23.47 C73.72 30.15, 70.8 40.48, 69.61 47.51 C68.41 54.54, 68.1 60.91, 63.44 65.64 C58.77 70.37, 49.32 74.65, 41.62 75.91 C33.93 77.17, 23.66 76.43, 17.26 73.21 C10.86 69.98, 6.08 63.05, 3.24 56.57 C0.41 50.1, -0.82 42.21, 0.27 34.35 C1.36 26.5, 4.7 15.23, 9.79 9.43 C14.89 3.63, 23.68 0.45, 30.85 -0.44 C38.01 -1.33, 49.27 3.45, 52.77 4.08 C56.27 4.71, 52.36 3.08, 51.82 3.34" stroke="none" stroke-width="0" fill="#82c91e"></path><path d="M60.3 11.9 C65.63 16.35, 69.75 25.45, 70.9 32.82 C72.06 40.19, 70.47 49.68, 67.23 56.12 C63.98 62.55, 57.43 68.02, 51.45 71.45 C45.47 74.87, 38.28 77.49, 31.36 76.65 C24.45 75.81, 14.83 71.36, 9.97 66.41 C5.11 61.45, 3.21 54.57, 2.18 46.94 C1.14 39.32, 1.17 27.63, 3.75 20.66 C6.34 13.69, 11.23 8.61, 17.68 5.12 C24.13 1.63, 33.51 -7.69, 42.47 -0.28 C51.44 7.14, 72.04 36.55, 71.48 49.62 C70.92 62.7, 39.58 78.33, 39.11 78.16 M23.97 0.76 C30.2 -2.01, 41.77 -2.27, 48.76 0.48 C55.74 3.23, 61.69 11.42, 65.88 17.26 C70.08 23.1, 74.44 28.6, 73.91 35.51 C73.39 42.41, 67.08 51.87, 62.72 58.68 C58.36 65.49, 54.15 73.9, 47.75 76.36 C41.35 78.83, 30.58 75.83, 24.33 73.48 C18.08 71.12, 14.68 67.8, 10.26 62.24 C5.84 56.67, -1.85 47.54, -2.22 40.09 C-2.58 32.64, 4.15 23.77, 8.08 17.52 C12.01 11.26, 18.55 4.69, 21.36 2.57 C24.18 0.45, 24.6 4.5, 24.99 4.78" stroke="#000000" stroke-width="4" fill="none"></path></g><g transform="translate(476.5728207486835 802.9264624422344) rotate(0 10.961997985839844 22.500000000000004)"><text x="10.961997985839844" y="0" font-family="Virgil, Segoe UI Emoji" font-size="36px" fill="#000000" text-anchor="middle" style="white-space: pre;" direction="ltr" dominant-baseline="text-before-edge">9</text></g><g stroke-linecap="round" transform="translate(829.5251720869103 783.6825419787787) rotate(0 35.968832854072616 39)"><path d="M28.46 1.24 C35.02 -0.8, 45.85 -0.74, 52.26 2.51 C58.67 5.77, 63.4 13.73, 66.93 20.78 C70.45 27.84, 74.43 37.36, 73.42 44.84 C72.4 52.31, 66.21 60.5, 60.85 65.63 C55.48 70.77, 47.67 73.94, 41.23 75.64 C34.78 77.35, 28.01 78.91, 22.17 75.88 C16.32 72.84, 9.61 64.59, 6.17 57.44 C2.73 50.29, 0.88 40.2, 1.54 32.97 C2.2 25.74, 4.51 19.71, 10.13 14.05 C15.75 8.39, 30.27 0.96, 35.26 -0.99 C40.24 -2.94, 40.02 1.79, 40.03 2.35 M9.39 12.29 C13.06 6.53, 21.98 5.45, 28.34 4.07 C34.7 2.7, 41.5 1.89, 47.55 4.04 C53.6 6.19, 60.59 10.73, 64.65 16.97 C68.71 23.22, 71.93 33.74, 71.92 41.52 C71.92 49.3, 68.68 58.02, 64.6 63.64 C60.52 69.26, 54.66 73.41, 47.47 75.22 C40.28 77.02, 28.58 77.17, 21.46 74.49 C14.34 71.81, 8.45 65.68, 4.75 59.12 C1.06 52.56, -0.94 43.01, -0.7 35.14 C-0.46 27.26, 5 15.22, 6.18 11.86 C7.35 8.51, 5.91 14.36, 6.34 15.01" stroke="none" stroke-width="0" fill="#82c91e"></path><path d="M25.31 0.89 C31.35 -2.05, 40.68 -2.15, 46.96 0.42 C53.24 2.99, 58.99 10.07, 62.99 16.29 C66.99 22.52, 70.71 29.92, 70.97 37.77 C71.22 45.62, 68.27 56.99, 64.51 63.39 C60.75 69.79, 55.19 74.26, 48.4 76.15 C41.61 78.05, 30.57 76.86, 23.76 74.77 C16.94 72.68, 11.59 69.31, 7.52 63.61 C3.45 57.91, -0.25 48.68, -0.65 40.58 C-1.06 32.47, -2.71 21.19, 5.09 14.96 C12.89 8.72, 36.94 3.64, 46.14 3.19 C55.34 2.74, 60.41 12.2, 60.29 12.26 M36.95 1.55 C44.28 1.31, 55.63 6.71, 60.88 10.8 C66.14 14.89, 67.42 19.09, 68.47 26.09 C69.53 33.08, 69.3 45.4, 67.24 52.75 C65.17 60.11, 62.13 65.56, 56.08 70.21 C50.03 74.86, 38.2 81.2, 30.95 80.66 C23.69 80.11, 17.53 71.94, 12.55 66.96 C7.57 61.98, 2.67 58.2, 1.06 50.78 C-0.55 43.35, 0.28 29.7, 2.9 22.42 C5.52 15.15, 10.64 11.09, 16.79 7.15 C22.93 3.21, 36.51 -0.07, 39.76 -1.23 C43 -2.39, 36.89 -0.74, 36.25 0.21" stroke="#000000" stroke-width="4" fill="none"></path></g><g transform="translate(848.2982059102995 800.1053775125033) rotate(0 17.261993408203125 22.500000000000004)"><text x="17.261993408203125" y="0" font-family="Virgil, Segoe UI Emoji" font-size="36px" fill="#000000" text-anchor="middle" style="white-space: pre;" direction="ltr" dominant-baseline="text-before-edge">10</text></g><g stroke-linecap="round" transform="translate(1210.3716376006205 754.061150216601) rotate(0 35.968832854072616 39)"><path d="M17.66 3.97 C23.29 0.24, 33.88 1.2, 41.19 2.15 C48.51 3.1, 56.57 4.88, 61.56 9.65 C66.55 14.43, 70.28 22.81, 71.13 30.82 C71.98 38.82, 69.39 50.28, 66.65 57.68 C63.91 65.07, 60.62 71.66, 54.67 75.19 C48.72 78.73, 38.38 80.17, 30.97 78.87 C23.56 77.57, 14.93 72.97, 10.19 67.39 C5.44 61.81, 3.76 53.28, 2.5 45.39 C1.23 37.51, -3.13 27.71, 2.59 20.06 C8.3 12.42, 28.75 2.29, 36.79 -0.48 C44.82 -3.26, 50.67 2.43, 50.79 3.39 M50.69 0.32 C57.65 1.72, 63.4 8.34, 66.72 14.94 C70.04 21.53, 70.99 31.76, 70.62 39.87 C70.25 47.99, 68.59 57.08, 64.48 63.61 C60.38 70.15, 52.98 77.22, 45.99 79.08 C39 80.93, 29.25 77.85, 22.54 74.76 C15.83 71.66, 9.6 66.75, 5.75 60.53 C1.89 54.31, -0.65 45.3, -0.59 37.41 C-0.53 29.53, 2.1 19.62, 6.11 13.23 C10.12 6.84, 16.41 1.31, 23.45 -0.93 C30.48 -3.17, 44.43 -1.03, 48.31 -0.21 C52.2 0.6, 46.68 2.76, 46.78 3.96" stroke="none" stroke-width="0" fill="#fa5252"></path><path d="M45.6 -0.09 C52.36 1.47, 61.19 8.66, 65.41 15.05 C69.62 21.44, 70.68 30.27, 70.91 38.26 C71.13 46.26, 70.67 56.92, 66.73 63.01 C62.79 69.1, 54.47 72.53, 47.27 74.8 C40.07 77.07, 30.01 78.9, 23.54 76.66 C17.06 74.41, 12.13 67.87, 8.43 61.33 C4.74 54.78, 1.86 44.72, 1.38 37.4 C0.9 30.07, 1.32 23.53, 5.55 17.38 C9.78 11.22, 17.7 1.35, 26.76 0.46 C35.83 -0.43, 53.16 7.9, 59.92 12.02 C66.68 16.13, 67.79 24.62, 67.32 25.16 M25.43 0.16 C30.79 -3.59, 36.26 -3.36, 42.65 -0.81 C49.04 1.73, 59.16 9.57, 63.77 15.44 C68.38 21.31, 69.5 26.99, 70.31 34.4 C71.13 41.82, 72.65 53.09, 68.64 59.93 C64.64 66.77, 53.02 72.59, 46.27 75.43 C39.52 78.28, 34.97 79, 28.15 77.01 C21.33 75.02, 9.87 69.26, 5.35 63.49 C0.82 57.72, 1.09 50.34, 0.99 42.37 C0.88 34.4, 1.08 22.66, 4.72 15.68 C8.36 8.71, 19.56 2.61, 22.8 0.53 C26.04 -1.54, 24.21 2.39, 24.17 3.22" stroke="#000000" stroke-width="4" fill="none"></path></g><g transform="translate(1236.6506681281112 770.4839857503257) rotate(0 9.755996704101562 22.5)"><text x="9.755996704101562" y="0" font-family="Virgil, Segoe UI Emoji" font-size="36px" fill="#000000" text-anchor="middle" style="white-space: pre;" direction="ltr" dominant-baseline="text-before-edge">11</text></g><g stroke-linecap="round"><g transform="translate(566.4590023894768 62.19007120002698) rotate(0 -51.1814639318292 76.19358804489923)"><path d="M-1.44 2.56 C-18.19 27.68, -86.2 126.1, -102.56 150.91 M2.97 1.48 C-14.06 25.76, -88.13 122.42, -105.33 146.65" stroke="#000000" stroke-width="4" fill="none"></path></g><g transform="translate(566.4590023894768 62.19007120002698) rotate(0 -51.1814639318292 76.19358804489923)"><path d="M-108.5 145.62 L-100.92 135.08 L-90.67 141.15 L-105.56 143.3" stroke="none" stroke-width="0" fill="#000000" fill-rule="evenodd"></path><path d="M-102.59 145.58 C-103.18 145.49, -101.99 137.73, -105.32 129.7 M-106.82 148.01 C-104.86 141.34, -103.74 139.17, -102.11 130.74 M-103.42 130.49 C-99.67 132.55, -95.58 136.54, -93.98 139.04 M-101.96 132.44 C-99.91 134.04, -95.6 138.02, -91.7 138.75 M-89.57 142.04 C-93.29 141.14, -97.99 142.05, -104.99 149.54 M-91.39 139.14 C-96.96 139.88, -98.14 144.17, -104.83 145.81 M-105.33 146.65 C-105.33 146.65, -105.33 146.65, -105.33 146.65 M-105.33 146.65 C-105.33 146.65, -105.33 146.65, -105.33 146.65" stroke="#000000" stroke-width="4" fill="none"></path></g></g><mask></mask><g stroke-linecap="round"><g transform="translate(404.2466189299337 273.7714409298661) rotate(0 -71.99847878405204 86.75969504810467)"><path d="M-0.74 -1.39 C-25.47 27.31, -123.85 146.12, -148.05 174.91 M4.05 4.03 C-19.89 33.09, -117.78 142.45, -143.15 170.67" stroke="#000000" stroke-width="4" fill="none"></path></g><g transform="translate(404.2466189299337 273.7714409298661) rotate(0 -71.99847878405204 86.75969504810467)"><path d="M-146.21 173.51 L-140.91 156.72 L-128.35 164.1 L-144.96 173.2" stroke="none" stroke-width="0" fill="#000000" fill-rule="evenodd"></path><path d="M-144.64 167.7 C-140.56 165.49, -143 159.13, -136.21 158.34 M-141.7 169.74 C-140.93 164.95, -140.75 161.09, -138.88 156.83 M-139.72 155.73 C-136.56 158.34, -133.89 160.26, -131.22 162.98 M-139.13 156.76 C-135.77 158.73, -134.22 160, -130.42 165.49 M-127.37 167.2 C-131.6 168.26, -136.09 169.48, -140.2 169.22 M-129.52 165.15 C-131.97 164.74, -135.34 165.85, -141.67 171.2 M-143.15 170.67 C-143.15 170.67, -143.15 170.67, -143.15 170.67 M-143.15 170.67 C-143.15 170.67, -143.15 170.67, -143.15 170.67" stroke="#000000" stroke-width="4" fill="none"></path></g></g><mask></mask><g stroke-linecap="round"><g transform="translate(188.43362180549775 516.3847448867483) rotate(0 -65.99996746736515 115.82024794553847)"><path d="M2.18 -2.65 C-20.13 36.47, -111.72 194.79, -134.17 234.29 M-0.09 2.08 C-21.44 40.42, -106.26 192.18, -128.63 230.13" stroke="#000000" stroke-width="4" fill="none"></path></g><g transform="translate(188.43362180549775 516.3847448867483) rotate(0 -65.99996746736515 115.82024794553847)"><path d="M-127.07 229.13 L-128.91 219.02 L-117.55 225.13 L-132.51 230.19" stroke="none" stroke-width="0" fill="#000000" fill-rule="evenodd"></path><path d="M-131.47 228.43 C-126.56 225.84, -126.1 221.84, -129.68 217.31 M-128.89 229.45 C-127.4 225.57, -127.49 221.41, -127.44 215.29 M-125 214.7 C-123.69 214.76, -121.41 220.44, -118.8 223.45 M-126.75 215.94 C-125.43 216.27, -121.63 218.11, -115.39 222.44 M-119.35 220.83 C-116.17 225.94, -120.92 226.45, -128.12 230.09 M-116.23 220.92 C-122.11 225.45, -124.37 228.71, -129.95 231.35 M-128.63 230.13 C-128.63 230.13, -128.63 230.13, -128.63 230.13 M-128.63 230.13 C-128.63 230.13, -128.63 230.13, -128.63 230.13" stroke="#000000" stroke-width="4" fill="none"></path></g></g><mask></mask><g stroke-linecap="round"><g transform="translate(256.30181342368365 531.8201654726981) rotate(0 94.51276407809334 136.5169608543255)"><path d="M-0.64 -1.64 C31.36 44.45, 158.76 228.83, 189.66 274.67 M4.21 3.64 C36.24 49.13, 157.63 226.71, 188.62 270.83" stroke="#000000" stroke-width="4" fill="none"></path></g><g transform="translate(256.30181342368365 531.8201654726981) rotate(0 94.51276407809334 136.5169608543255)"><path d="M188.31 270.53 L172.14 260.53 L184.47 255.27 L189.16 273.72" stroke="none" stroke-width="0" fill="#000000" fill-rule="evenodd"></path><path d="M186.86 273.18 C188.2 266.25, 184.02 266.33, 172.7 262.62 M189.39 271.08 C183.43 268.94, 179.55 266.01, 175.82 262.7 M176.87 261.03 C179.87 263.75, 177.78 258.77, 188.16 256.65 M175.95 263.28 C179.9 261.68, 182.31 259.31, 186.42 255.53 M187.77 257.24 C187.81 261.3, 186.51 263.11, 191.5 269.95 M187.07 254.92 C187.18 260.74, 187.94 266.77, 190.03 272.16 M188.62 270.83 C188.62 270.83, 188.62 270.83, 188.62 270.83 M188.62 270.83 C188.62 270.83, 188.62 270.83, 188.62 270.83" stroke="#000000" stroke-width="4" fill="none"></path></g></g><mask></mask><g stroke-linecap="round"><g transform="translate(443.7418079461702 290.69795050825326) rotate(0 12.862870716118309 77.45139786806783)"><path d="M-2.22 -1.75 C1.16 23.95, 18.14 127.19, 22.4 152.78 M1.77 3.47 C5.87 29.82, 24.7 131.46, 27.95 156.66" stroke="#000000" stroke-width="4" fill="none"></path></g><g transform="translate(443.7418079461702 290.69795050825326) rotate(0 12.862870716118309 77.45139786806783)"><path d="M24.1 152.95 L17.24 145.4 L33.61 138.41 L30.79 153.58" stroke="none" stroke-width="0" fill="#000000" fill-rule="evenodd"></path><path d="M26.07 154.97 C25.39 151.2, 21.19 149.28, 20.95 146.37 M27.98 157.23 C25.96 154.59, 24.87 150.59, 19.42 144.13 M19.04 144.59 C24.04 141.46, 25.31 143.51, 32.35 142.65 M20.75 144.68 C22.71 143.28, 24.81 143.44, 31.86 141.21 M34.57 140.32 C33.36 146.09, 29.6 146.52, 29.3 157.48 M31.04 143.62 C31.69 145.8, 29.87 149.72, 28.22 156.72 M27.95 156.66 C27.95 156.66, 27.95 156.66, 27.95 156.66 M27.95 156.66 C27.95 156.66, 27.95 156.66, 27.95 156.66" stroke="#000000" stroke-width="4" fill="none"></path></g></g><mask></mask><g stroke-linecap="round"><g transform="translate(628.5228708435632 73.47441091895178) rotate(0 84.57790879642715 64.44729991568863)"><path d="M-1.78 2.44 C26.99 22.72, 142.65 103.53, 170.93 124.02 M2.45 1.3 C31.02 23.28, 140.37 107.72, 168.84 127.6" stroke="#000000" stroke-width="4" fill="none"></path></g><g transform="translate(628.5228708435632 73.47441091895178) rotate(0 84.57790879642715 64.44729991568863)"><path d="M166.96 130.65 L153.36 122.31 L163.6 112.68 L169.63 130.33" stroke="none" stroke-width="0" fill="#000000" fill-rule="evenodd"></path><path d="M171.45 127.87 C165.14 123.75, 163.08 126.79, 151.94 126.42 M169.23 127.82 C162.52 127.54, 157.42 125.55, 155.26 123.61 M153.57 123.74 C159.27 121.2, 159.53 116.8, 162.86 115.14 M153.33 123.36 C156.19 122.01, 157.72 118.97, 160.46 113.24 M158.82 116.55 C161.19 119.23, 164.15 118.99, 165.93 127.6 M160.49 115.21 C164.8 117.29, 165.95 121.58, 169.46 127.91 M168.84 127.6 C168.84 127.6, 168.84 127.6, 168.84 127.6 M168.84 127.6 C168.84 127.6, 168.84 127.6, 168.84 127.6" stroke="#000000" stroke-width="4" fill="none"></path></g></g><mask></mask><g stroke-linecap="round"><g transform="translate(827.409358389612 265.30818614067255) rotate(0 -0.7819031907083627 94.09262176140587)"><path d="M-2.66 0.35 C-2.69 31.48, 0.16 155.77, 0.99 187.38 M1.09 -1.93 C0.68 29.48, -0.82 158.96, -0.71 190.12" stroke="#000000" stroke-width="4" fill="none"></path></g><g transform="translate(827.409358389612 265.30818614067255) rotate(0 -0.7819031907083627 94.09262176140587)"><path d="M-3.58 193.24 L-10.41 176.65 L5.92 177.91 L-1.78 186.59" stroke="none" stroke-width="0" fill="#000000" fill-rule="evenodd"></path><path d="M-0.34 191.18 C-4.66 187.81, -3.99 179.63, -7.54 178.41 M-1.98 188.8 C-1.52 185.99, -6.34 181.66, -7.48 176.79 M-5.04 176 C-5.88 177.84, -2.98 177.14, 7.43 175.42 M-5.95 175.75 C-4.88 176.89, -1.13 177.77, 4.65 177.74 M7.59 176.3 C4.43 177.93, 4.69 180.75, -3.42 188.17 M4.5 176.33 C4.96 180.72, 3.23 182.04, -1.56 189.9 M-0.71 190.12 C-0.71 190.12, -0.71 190.12, -0.71 190.12 M-0.71 190.12 C-0.71 190.12, -0.71 190.12, -0.71 190.12" stroke="#000000" stroke-width="4" fill="none"></path></g></g><mask></mask><g stroke-linecap="round"><g transform="translate(862.6729200112518 254.02384642174786) rotate(0 143.31837807565756 111.68255355044991)"><path d="M-0.77 2.17 C47.47 39.04, 240.16 185.63, 287.41 222.49 M4.01 0.88 C52.29 36.78, 239.12 181.72, 286.51 218.04" stroke="#000000" stroke-width="4" fill="none"></path></g><g transform="translate(862.6729200112518 254.02384642174786) rotate(0 143.31837807565756 111.68255355044991)"><path d="M287.58 219.35 L270.96 211.11 L279.52 203.22 L286.52 219.41" stroke="none" stroke-width="0" fill="#000000" fill-rule="evenodd"></path><path d="M288.83 220.69 C284.26 214.83, 281.83 216.07, 270.7 214.21 M287.54 217.98 C282.64 218.15, 278.01 215.08, 273.05 213.47 M271.2 212.52 C273.76 209.52, 276.17 207.7, 277.43 202.75 M271.87 214.74 C274.22 210.86, 278.44 208.19, 280.8 204.23 M278.11 201.93 C279.45 209.06, 282.78 216.39, 284.66 218.81 M280.06 205.4 C281.12 208.7, 284.25 212.61, 285.81 217.85 M286.51 218.04 C286.51 218.04, 286.51 218.04, 286.51 218.04 M286.51 218.04 C286.51 218.04, 286.51 218.04, 286.51 218.04" stroke="#000000" stroke-width="4" fill="none"></path></g></g><mask></mask><g stroke-linecap="round"><g transform="translate(828.1236157239075 549.1892898702706) rotate(0 8.974268152800903 113.5212081489798)"><path d="M1.55 -1.73 C4.81 36.23, 16.2 187.96, 19.01 225.69 M-1.06 3.5 C1.95 42.05, 14.21 191.58, 17.16 228.77" stroke="#000000" stroke-width="4" fill="none"></path></g><g transform="translate(828.1236157239075 549.1892898702706) rotate(0 8.974268152800903 113.5212081489798)"><path d="M18.59 226.75 L10.77 216.74 L25.17 217.43 L18.05 229.69" stroke="none" stroke-width="0" fill="#000000" fill-rule="evenodd"></path><path d="M15.31 229.54 C14.21 225.31, 11.03 222.45, 11.11 215.08 M16.46 228.58 C15.43 224.1, 12.91 220.07, 9.3 216.89 M9.2 216.16 C10.34 217.39, 14.68 216.84, 21.98 215.78 M10.69 216.69 C14.24 215.9, 17.77 213.99, 22.35 214.24 M20.57 215.93 C22.78 220.81, 17.85 224.46, 14.35 231.51 M21.24 215.25 C19.95 218.86, 20.82 224.2, 16.47 228.97 M17.16 228.77 C17.16 228.77, 17.16 228.77, 17.16 228.77 M17.16 228.77 C17.16 228.77, 17.16 228.77, 17.16 228.77" stroke="#000000" stroke-width="4" fill="none"></path></g></g><mask></mask><g stroke-linecap="round"><g transform="translate(857.8760865235724 533.4538845802525) rotate(0 178.25426377677064 117.48944413453673)"><path d="M1.82 -0.55 C60.81 38.9, 293.13 195.5, 351.54 234.68 M-0.63 -3.31 C59.5 36.79, 298.68 198.15, 357.14 238.29" stroke="#000000" stroke-width="4" fill="none"></path></g><g transform="translate(857.8760865235724 533.4538845802525) rotate(0 178.25426377677064 117.48944413453673)"><path d="M353.56 241.12 L342.06 237.31 L349.66 221.45 L358.3 240.02" stroke="none" stroke-width="0" fill="#000000" fill-rule="evenodd"></path><path d="M356.55 236.71 C353.94 237.2, 350.58 238.64, 342.92 233.25 M358.48 237.97 C352.17 236.68, 344.49 237.16, 341.57 236.28 M342.9 236.48 C343 233.76, 346.58 227.42, 348.3 226.9 M341.52 235.99 C344.45 234.23, 346.22 229.68, 350.47 225.65 M349.62 228 C349.54 228.2, 353.91 235.78, 355.54 239.81 M348.4 225.8 C351.18 229.23, 355.81 236.07, 358.34 239.34 M357.14 238.29 C357.14 238.29, 357.14 238.29, 357.14 238.29 M357.14 238.29 C357.14 238.29, 357.14 238.29, 357.14 238.29" stroke="#000000" stroke-width="4" fill="none"></path></g></g><mask></mask><g stroke-linecap="round"><g transform="translate(1178.634432141145 445.85762164346863) rotate(0 -152.34413857379076 -115.92524217043112)"><path d="M-1.97 -0.48 C-11.62 -30.07, -10.27 -140.13, -60.39 -178.61 C-110.52 -217.09, -262.4 -223.14, -302.72 -231.37" stroke="#5f3dc4" stroke-width="4.5" fill="none" stroke-dasharray="8 12"></path></g><g transform="translate(1178.634432141145 445.85762164346863) rotate(0 -152.34413857379076 -115.92524217043112)"><path d="M-301.71 -234.42 L-288.1 -234.69 L-288.4 -223.24 L-304.67 -229.69" stroke="none" stroke-width="0" fill="#5f3dc4" fill-rule="evenodd"></path><path d="M-303.24 -232.6 C-300.6 -231.55, -298.18 -232.08, -286.32 -237.88 M-288.28 -235.23 C-287.91 -233.1, -291.77 -229.74, -290.59 -225.47 M-287.47 -221.79 C-297.8 -227.23, -302.2 -229.97, -304.05 -233.84 M-302.72 -231.37 C-302.72 -231.37, -302.72 -231.37, -302.72 -231.37" stroke="#5f3dc4" stroke-width="4.5" fill="none"></path></g></g><mask></mask><g stroke-linecap="round"><g transform="translate(521.3216435137779 799.9037803247328) rotate(0 39.77678281242811 -142.79757101177336)"><path d="M1.3 -1.04 C14.11 -31.2, 77.84 -135.26, 78.25 -182.51 C78.66 -229.76, 15.89 -267.41, 3.75 -284.56" stroke="#e67700" stroke-width="4.5" fill="none" stroke-dasharray="8 12"></path></g><g transform="translate(521.3216435137779 799.9037803247328) rotate(0 39.77678281242811 -142.79757101177336)"><path d="M0.02 -286.88 L20.6 -278.92 L6.94 -274.19 L0.84 -287.57" stroke="none" stroke-width="0" fill="#e67700" fill-rule="evenodd"></path><path d="M2.64 -285.35 C6.56 -282, 12.5 -278.52, 15.97 -279.96 M16.96 -279.36 C12.91 -277.27, 9.76 -274.34, 10.67 -269.45 M9.83 -272.73 C7.54 -272.85, 8.06 -277.49, 4.63 -282.89 M3.75 -284.56 C3.75 -284.56, 3.75 -284.56, 3.75 -284.56" stroke="#e67700" stroke-width="4.5" fill="none"></path></g></g><mask></mask><g stroke-linecap="round"><g transform="translate(1266.0880649628118 746.3031666598405) rotate(0 -4.34892860939226 -103.54031702603037)"><path d="M1.9 1.84 C8.56 -14.64, 51.05 -66.37, 42.07 -101.5 C33.08 -136.63, -36.37 -190.16, -52.01 -208.92" stroke="#a61e4d" stroke-width="4.5" fill="none" stroke-dasharray="8 12"></path></g><g transform="translate(1266.0880649628118 746.3031666598405) rotate(0 -4.34892860939226 -103.54031702603037)"><path d="M-55.29 -211.26 L-38.13 -207.85 L-44.93 -192.15 L-49.85 -212.37" stroke="none" stroke-width="0" fill="#a61e4d" fill-rule="evenodd"></path><path d="M-50.03 -206.17 C-49.75 -207.07, -38.64 -204.95, -40.54 -202.15 M-35.88 -206.01 C-40.52 -200.48, -43.8 -199.47, -45.76 -194.31 M-46.01 -194.75 C-45.28 -199.94, -51.66 -203.52, -50.67 -211.78 M-52.01 -208.92 C-52.01 -208.92, -52.01 -208.92, -52.01 -208.92" stroke="#a61e4d" stroke-width="4.5" fill="none"></path></g></g><mask></mask></svg>