<svg version="1.1" xmlns="http://www.w3.org/2000/svg" viewBox="0 0 2149.1062837427285 1099.9523257032924" width="2149.1062837427285" height="1099.9523257032924">
  <!-- svg-source:excalidraw -->
  
  <defs>
    <style class="style-fonts">
      @font-face {
        font-family: "Virgil";
        src: url("https://excalidraw.com/Virgil.woff2");
      }
      @font-face {
        font-family: "Cascadia";
        src: url("https://excalidraw.com/Cascadia.woff2");
      }
    </style>
  </defs>
  <rect x="0" y="0" width="2149.1062837427285" height="1099.9523257032924" fill="#ffffff"></rect><g stroke-linecap="round" transform="translate(275.98853317830765 63.710466682917854) rotate(1.4498777997696684 38 39)"><path d="M48.58 1.9 C55.6 3.79, 66.12 8.85, 70.6 15.3 C75.08 21.75, 75.49 33.06, 75.46 40.6 C75.43 48.13, 74.87 54.3, 70.41 60.5 C65.96 66.69, 56.38 75.06, 48.75 77.76 C41.12 80.46, 31.72 79.09, 24.63 76.67 C17.53 74.25, 10.29 69.47, 6.18 63.24 C2.07 57.01, -0.36 47.41, -0.05 39.31 C0.26 31.21, 3.55 20.91, 8.02 14.64 C12.49 8.36, 18.35 2.79, 26.78 1.67 C35.22 0.55, 51.65 5.41, 58.6 7.91 C65.56 10.4, 68.45 16.37, 68.51 16.63 M59.8 8.54 C65.72 13.25, 73.52 22.87, 76.28 29.88 C79.04 36.9, 79.58 43.23, 76.36 50.63 C73.13 58.03, 63.86 69.33, 56.93 74.27 C49.99 79.2, 42.32 81.2, 34.77 80.23 C27.22 79.26, 16.75 73.81, 11.64 68.46 C6.53 63.11, 5.78 55.5, 4.11 48.15 C2.43 40.79, -0.33 31.22, 1.57 24.31 C3.48 17.4, 8.98 10.73, 15.55 6.67 C22.12 2.61, 33.32 -0.09, 41.02 -0.04 C48.71 0.01, 58.34 5.65, 61.73 6.98 C65.11 8.31, 61.87 7.12, 61.33 7.95" stroke="none" stroke-width="0" fill="#82c91e"></path><path d="M43.2 -0.25 C50.31 0.71, 58.75 7.24, 63.96 13.21 C69.17 19.17, 73.18 28.37, 74.44 35.57 C75.69 42.76, 74.95 50.18, 71.51 56.37 C68.07 62.56, 60.23 68.97, 53.81 72.69 C47.39 76.42, 40.1 79.79, 32.98 78.73 C25.86 77.68, 16.4 72.2, 11.08 66.38 C5.76 60.56, 2.3 51.55, 1.05 43.81 C-0.19 36.06, 0.19 26.66, 3.6 19.92 C7.02 13.17, 11.69 4.94, 21.56 3.32 C31.43 1.71, 53.99 5.81, 62.84 10.21 C71.68 14.62, 75.17 29.1, 74.63 29.74 M19.05 4.46 C25.3 -0.1, 35.11 0.47, 42.09 1.33 C49.06 2.19, 55.84 4.65, 60.89 9.62 C65.94 14.59, 70.18 23.6, 72.39 31.16 C74.6 38.71, 76.65 48.15, 74.13 54.95 C71.62 61.75, 64.04 68.05, 57.3 71.95 C50.56 75.86, 41.12 79.34, 33.7 78.4 C26.28 77.46, 18.15 71.35, 12.78 66.32 C7.41 61.29, 2.9 55.01, 1.48 48.24 C0.06 41.48, 1.43 33.07, 4.25 25.72 C7.07 18.38, 16.58 7.15, 18.39 4.19 C20.2 1.23, 14.85 7.27, 15.11 7.96" stroke="#e67700" stroke-width="4" fill="none"></path></g><g transform="translate(309.240477141168 80.1333022166425) rotate(1.4498777997696684 4.877998352050781 22.5)"><text x="4.877998352050781" y="0" font-family="Virgil, Segoe UI Emoji" font-size="36px" fill="#e67700" text-anchor="middle" style="white-space: pre;" direction="ltr" dominant-baseline="text-before-edge">1</text></g><g stroke-linecap="round" transform="translate(535.0341811149772 593.8900488961772) rotate(65.0908650168829 34 39)"><path d="M10.55 9.75 C14.7 4.55, 23.44 1.18, 30.06 0.73 C36.68 0.28, 44.1 3.16, 50.26 7.06 C56.42 10.97, 63.88 17.56, 67.01 24.18 C70.14 30.79, 70.89 39.2, 69.03 46.75 C67.16 54.29, 61.01 64.47, 55.81 69.44 C50.61 74.4, 43.99 76.26, 37.84 76.53 C31.69 76.81, 25.02 74.76, 18.92 71.09 C12.83 67.42, 4.03 61.03, 1.28 54.51 C-1.48 47.98, -0.32 39.74, 2.39 31.93 C5.11 24.13, 14.14 12.39, 17.56 7.68 C20.98 2.96, 22.59 3.47, 22.93 3.65 M42.42 -0.24 C49.25 0.99, 60.38 7.9, 64.22 14.09 C68.06 20.28, 65.53 28.78, 65.44 36.9 C65.34 45.01, 67.5 56.4, 63.64 62.78 C59.77 69.16, 48.73 73.39, 42.24 75.2 C35.75 77, 31.21 75.59, 24.72 73.61 C18.22 71.62, 7.57 69.36, 3.28 63.27 C-1.01 57.18, -1.89 45.08, -1.03 37.04 C-0.17 29, 4.23 21.36, 8.43 15.03 C12.63 8.71, 18.12 1.72, 24.18 -0.92 C30.24 -3.55, 41.23 -1.88, 44.81 -0.75 C48.38 0.37, 45.43 4.66, 45.63 5.81" stroke="none" stroke-width="0" fill="#82c91e"></path><path d="M14.55 6.53 C18.83 2.11, 25.82 1.93, 32.09 1.85 C38.36 1.78, 46.64 2.28, 52.17 6.07 C57.7 9.86, 62.84 17.18, 65.29 24.6 C67.73 32.01, 68.58 43.04, 66.85 50.57 C65.12 58.09, 60.36 65.14, 54.91 69.72 C49.47 74.3, 40.98 77.86, 34.2 78.04 C27.42 78.22, 19.55 74.82, 14.24 70.8 C8.93 66.77, 4.63 60.85, 2.36 53.88 C0.09 46.91, -2.11 37.28, 0.63 28.98 C3.37 20.67, 14.51 8.62, 18.8 4.05 C23.09 -0.52, 26.06 1.12, 26.37 1.56 M18.86 3.13 C24.5 -0.83, 32.32 -2, 39.35 -0.12 C46.38 1.77, 55.93 9.07, 61.01 14.43 C66.09 19.78, 69.23 24.71, 69.83 32.04 C70.42 39.36, 67.98 51.31, 64.58 58.4 C61.19 65.48, 55.1 71.59, 49.44 74.55 C43.78 77.52, 36.96 77.96, 30.62 76.19 C24.27 74.41, 16.78 69.34, 11.36 63.89 C5.95 58.45, -0.15 51.11, -1.86 43.51 C-3.58 35.92, -2.21 24.96, 1.06 18.31 C4.33 11.67, 15.17 6.11, 17.75 3.64 C20.33 1.18, 16.44 3.01, 16.54 3.52" stroke="#000000" stroke-width="4" fill="none"></path></g><g stroke-linecap="round" transform="translate(4.93023145308689 190.3775483872016) rotate(65.0908650168829 34 27.715660281075202)"><path d="M39.7 1 C47.02 1.57, 56.46 5.05, 60.93 9.6 C65.4 14.15, 66.86 22.03, 66.54 28.33 C66.21 34.62, 63.19 43.03, 58.99 47.37 C54.8 51.71, 48.63 53.53, 41.35 54.39 C34.07 55.25, 22.09 55.49, 15.32 52.53 C8.56 49.57, 2.9 42.28, 0.76 36.61 C-1.38 30.93, -0.54 24.25, 2.49 18.48 C5.53 12.71, 10.64 4.06, 18.98 1.98 C27.31 -0.11, 44.92 3.74, 52.5 5.98 C60.08 8.22, 64.28 15.43, 64.45 15.4 M21.97 1.47 C28.14 -0.1, 36.57 2.26, 43.38 4.06 C50.19 5.85, 59.3 7.92, 62.8 12.26 C66.31 16.59, 66.13 23.51, 64.41 30.09 C62.69 36.66, 57.98 47.83, 52.46 51.7 C46.95 55.56, 38.06 53.49, 31.32 53.27 C24.57 53.05, 17.45 53.72, 11.97 50.37 C6.5 47.03, -0.25 39.45, -1.54 33.18 C-2.82 26.91, 0.18 18.41, 4.28 12.75 C8.39 7.09, 20.16 0.72, 23.09 -0.78 C26.02 -2.28, 21.8 2.54, 21.86 3.77" stroke="none" stroke-width="0" fill="#82c91e"></path><path d="M25.96 -0.72 C32.92 -2.85, 42.2 -0.55, 48.45 1.82 C54.7 4.19, 60.4 8.24, 63.47 13.5 C66.54 18.76, 68.49 27, 66.89 33.37 C65.28 39.73, 59.79 47.88, 53.86 51.69 C47.93 55.5, 38.45 56.54, 31.3 56.22 C24.14 55.89, 16.09 54.21, 10.91 49.75 C5.73 45.29, 1.08 35.85, 0.22 29.45 C-0.64 23.05, -0.3 16.29, 5.75 11.34 C11.8 6.39, 28.96 0.94, 36.54 -0.27 C44.11 -1.47, 51.18 3.64, 51.2 4.11 M24.34 0.05 C31.18 -1.07, 40.9 2.25, 47.11 4.58 C53.32 6.91, 58.44 8.78, 61.59 14.01 C64.74 19.25, 67 30.02, 66 35.99 C64.99 41.95, 61.19 46.08, 55.57 49.8 C49.96 53.53, 39.69 58.42, 32.31 58.34 C24.93 58.27, 16.51 53.68, 11.3 49.34 C6.08 45.01, 1.59 38.44, 1.02 32.35 C0.45 26.27, 3.85 18.19, 7.87 12.86 C11.89 7.52, 22.05 1.93, 25.13 0.36 C28.21 -1.22, 26.42 3.3, 26.35 3.4" stroke="#000000" stroke-width="4" fill="none"></path></g><g stroke-linecap="round" transform="translate(416.8585896590874 387.6189947072393) rotate(65.0908650168829 34 32.65255890810482)"><path d="M52.71 3.73 C58.4 6.02, 64.26 12.71, 66.62 18.68 C68.99 24.66, 68.7 33.48, 66.9 39.6 C65.09 45.72, 61.07 51.05, 55.79 55.4 C50.51 59.75, 41.97 65.07, 35.21 65.71 C28.46 66.35, 20.87 62.38, 15.27 59.23 C9.67 56.07, 3.73 52.56, 1.59 46.77 C-0.54 40.98, 0.57 31.03, 2.46 24.5 C4.35 17.98, 7.89 11.83, 12.91 7.62 C17.92 3.41, 23.64 -2.38, 32.55 -0.75 C41.47 0.88, 60.8 11.54, 66.41 17.39 C72.02 23.23, 66.73 34.25, 66.21 34.34 M52.77 7.39 C58.2 10.68, 60.56 17.23, 63.08 22.26 C65.61 27.28, 69.33 31.59, 67.94 37.54 C66.54 43.49, 59.47 53.65, 54.72 57.93 C49.97 62.22, 45.73 62.55, 39.44 63.24 C33.16 63.93, 23.56 64.58, 17.03 62.08 C10.5 59.57, 3.33 54.05, 0.25 48.21 C-2.83 42.38, -3.05 33.32, -1.43 27.07 C0.19 20.83, 4.31 15.22, 9.96 10.73 C15.6 6.23, 25.18 1.28, 32.42 0.11 C39.67 -1.06, 50.43 2.58, 53.43 3.71 C56.43 4.85, 51.52 6.75, 50.41 6.93" stroke="none" stroke-width="0" fill="#82c91e"></path><path d="M5.52 14.81 C9.22 9.49, 17.32 4.47, 23.92 2.24 C30.52 0.01, 39.12 -0.57, 45.12 1.44 C51.13 3.46, 56.2 9.31, 59.96 14.33 C63.72 19.36, 67.58 25.61, 67.7 31.6 C67.83 37.59, 64.06 44.81, 60.71 50.26 C57.35 55.71, 53.29 62.11, 47.59 64.28 C41.89 66.45, 32.97 64.96, 26.52 63.29 C20.08 61.63, 13.6 59.24, 8.94 54.3 C4.28 49.35, -1.4 40.85, -1.41 33.61 C-1.43 26.37, 6.83 14.81, 8.86 10.86 C10.89 6.91, 10.57 9.44, 10.78 9.91 M31.44 2.52 C38.01 0.9, 47.68 1.21, 53.72 3.77 C59.77 6.33, 65.95 12.02, 67.71 17.89 C69.47 23.76, 66.19 32.37, 64.31 38.99 C62.42 45.61, 60.95 52.96, 56.39 57.6 C51.84 62.25, 43.12 66.09, 36.96 66.84 C30.8 67.58, 24.81 65.64, 19.41 62.06 C14.01 58.49, 7.56 51.03, 4.58 45.37 C1.6 39.71, 0.08 34.35, 1.55 28.13 C3.02 21.9, 8.54 12.83, 13.38 8.02 C18.23 3.21, 27.84 0.63, 30.61 -0.71 C33.39 -2.06, 29.55 -0.35, 30.04 -0.04" stroke="#000000" stroke-width="4" fill="none"></path></g><g stroke-linecap="round" transform="translate(107.52329603166567 453.18843636085717) rotate(65.0908650168829 34 39)"><path d="M42.8 1.6 C49.15 2.95, 55.97 8.38, 60.13 14.11 C64.29 19.84, 67.37 28.66, 67.77 35.99 C68.18 43.31, 65.83 51.51, 62.55 58.08 C59.27 64.66, 54.18 72.31, 48.11 75.42 C42.03 78.53, 32.49 78.49, 26.1 76.75 C19.72 75.01, 14 70.51, 9.77 64.99 C5.55 59.47, 1.33 51.62, 0.75 43.65 C0.18 35.69, 2.77 24.16, 6.32 17.19 C9.88 10.23, 14.24 3.52, 22.07 1.88 C29.91 0.23, 46.25 4.1, 53.33 7.32 C60.41 10.55, 64.49 20.55, 64.56 21.24 M33.84 0.63 C40.07 0.01, 47.77 1.92, 53.54 5.72 C59.3 9.51, 66.51 15.86, 68.42 23.4 C70.33 30.94, 67.04 42.89, 64.98 50.94 C62.91 58.99, 60.86 67.44, 56.03 71.69 C51.19 75.94, 43.27 76.37, 35.98 76.45 C28.7 76.53, 18.34 76.08, 12.32 72.14 C6.3 68.21, 1.4 60.1, -0.15 52.83 C-1.71 45.56, 1.11 35.63, 2.98 28.53 C4.84 21.42, 6.3 14.94, 11.03 10.21 C15.76 5.48, 27.85 1.72, 31.36 0.14 C34.87 -1.45, 31.64 0.19, 32.1 0.71" stroke="none" stroke-width="0" fill="#82c91e"></path><path d="M21.41 1.32 C27.02 -1.97, 36.91 -0.1, 43.47 2.3 C50.03 4.71, 56.69 10.18, 60.79 15.75 C64.88 21.32, 67.95 28.09, 68.03 35.73 C68.12 43.37, 64.78 54.99, 61.3 61.58 C57.81 68.17, 53.07 73.05, 47.13 75.29 C41.2 77.53, 32.17 76.98, 25.68 75.03 C19.18 73.07, 12.15 68.96, 8.18 63.55 C4.21 58.14, 2.03 50.33, 1.85 42.58 C1.67 34.82, 2.23 24.27, 7.1 17.04 C11.96 9.8, 25.09 1.63, 31.05 -0.84 C37.01 -3.31, 42.58 1.17, 42.87 2.19 M45.92 1.67 C51.96 3.4, 58.31 9.95, 62.25 17.01 C66.19 24.08, 70.56 36.39, 69.57 44.05 C68.58 51.7, 60.59 57.27, 56.3 62.95 C52.01 68.64, 49.47 76.43, 43.82 78.16 C38.17 79.89, 28.75 76.21, 22.4 73.36 C16.05 70.51, 9.28 67.61, 5.71 61.06 C2.15 54.5, 0.29 42.42, 1.01 34.04 C1.72 25.66, 5.93 16.14, 10 10.78 C14.07 5.41, 19.17 3.56, 25.42 1.85 C31.68 0.14, 43.42 0.6, 47.51 0.5 C51.59 0.41, 50.51 0.48, 49.93 1.28" stroke="#000000" stroke-width="4" fill="none"></path></g><g stroke-linecap="round" transform="translate(223.00351321642398 671.724244883254) rotate(65.0908650168829 34 39)"><path d="M33.58 0.43 C39.84 -0.23, 47.76 2.12, 53.43 6.09 C59.11 10.06, 65.61 16.82, 67.62 24.24 C69.64 31.67, 67.53 42.83, 65.52 50.63 C63.52 58.44, 60.58 66.71, 55.59 71.1 C50.61 75.49, 42.71 76.84, 35.63 76.96 C28.56 77.08, 18.99 75.88, 13.14 71.82 C7.29 67.76, 2.34 59.82, 0.55 52.58 C-1.23 45.33, 0.58 35.52, 2.45 28.34 C4.32 21.16, 2.97 12.6, 11.78 9.5 C20.58 6.41, 46.16 5.51, 55.28 9.76 C64.4 14.01, 66.57 34.6, 66.48 35.01 M46.8 3.73 C52.92 6.38, 61.99 11.25, 65.83 17.53 C69.67 23.8, 71.32 33.78, 69.84 41.37 C68.37 48.95, 62 57.51, 56.97 63.03 C51.93 68.55, 45.96 72.95, 39.64 74.51 C33.33 76.07, 24.62 75.36, 19.08 72.38 C13.54 69.41, 9.34 63.14, 6.39 56.66 C3.44 50.18, 1.09 41.29, 1.37 33.51 C1.64 25.73, 3.61 15.61, 8.05 10 C12.49 4.4, 21.11 0.62, 28.02 -0.13 C34.93 -0.89, 46.44 4.88, 49.52 5.48 C52.59 6.09, 47.32 2.86, 46.46 3.48" stroke="none" stroke-width="0" fill="#82c91e"></path><path d="M46.59 2.25 C52.6 4.24, 58.93 10.96, 62.66 17.88 C66.4 24.79, 69.88 36.12, 68.98 43.76 C68.08 51.4, 61.62 58.02, 57.27 63.7 C52.92 69.37, 48.81 76.15, 42.87 77.83 C36.93 79.51, 27.89 76.71, 21.63 73.77 C15.37 70.82, 8.79 66.75, 5.31 60.17 C1.83 53.59, 0.02 42.41, 0.74 34.29 C1.45 26.18, 5.39 16.92, 9.6 11.46 C13.8 5.99, 16.54 -0.77, 25.96 1.51 C35.37 3.78, 59.69 15.97, 66.09 25.11 C72.49 34.24, 65.11 55.95, 64.34 56.29 M6.28 15.48 C9.57 9.28, 18.44 5.12, 24.86 3.02 C31.29 0.92, 38.78 0.67, 44.82 2.88 C50.85 5.1, 57.37 10.64, 61.07 16.34 C64.78 22.03, 66.73 29.39, 67.04 37.05 C67.35 44.71, 66.68 55.89, 62.92 62.3 C59.16 68.71, 50.63 73.1, 44.49 75.51 C38.34 77.92, 32.17 78.66, 26.04 76.76 C19.91 74.86, 11.68 70.77, 7.72 64.12 C3.75 57.48, 2.16 45.12, 2.27 36.87 C2.38 28.62, 7.88 18.09, 8.36 14.65 C8.83 11.21, 4.66 15.37, 5.12 16.25" stroke="#000000" stroke-width="4" fill="none"></path></g><g stroke-linecap="round" transform="translate(342.78211088073317 913.9249974194272) rotate(65.0908650168829 34 39)"><path d="M54.33 7.28 C59.44 11.39, 64.13 20.06, 65.89 27.8 C67.65 35.55, 67.15 46.11, 64.9 53.73 C62.66 61.35, 57.62 69.37, 52.42 73.5 C47.21 77.63, 40.02 79.14, 33.66 78.5 C27.3 77.86, 19.97 74.37, 14.24 69.65 C8.51 64.93, 1.54 57.75, -0.71 50.18 C-2.96 42.61, -1.68 31.63, 0.73 24.22 C3.15 16.82, 8.03 9.98, 13.77 5.77 C19.5 1.56, 26.53 -3.98, 35.14 -1.03 C43.75 1.92, 60.09 15.9, 65.43 23.45 C70.78 30.99, 67.39 43.87, 67.22 44.24 M44.15 4.26 C50.66 5.68, 55.25 10.03, 59.41 15.85 C63.57 21.66, 68.64 31.58, 69.1 39.15 C69.57 46.72, 65.49 55.44, 62.17 61.25 C58.85 67.07, 55.32 71.79, 49.2 74.06 C43.07 76.33, 31.92 76.25, 25.44 74.88 C18.95 73.51, 14.19 71.78, 10.28 65.86 C6.37 59.94, 2.87 47.8, 1.97 39.36 C1.07 30.93, 1.51 21.01, 4.86 15.25 C8.22 9.49, 15.54 7.59, 22.11 4.79 C28.68 2, 41.35 -1.17, 44.27 -1.53 C47.19 -1.9, 39.65 1.34, 39.63 2.62" stroke="none" stroke-width="0" fill="#82c91e"></path><path d="M52.16 5.33 C58.19 8.05, 62.82 15.42, 65.37 22.26 C67.92 29.09, 69.08 38.46, 67.44 46.34 C65.81 54.23, 60.88 64.33, 55.56 69.57 C50.25 74.81, 41.73 77.11, 35.56 77.77 C29.38 78.43, 23.76 77.58, 18.49 73.53 C13.23 69.49, 7.18 60.51, 3.98 53.49 C0.78 46.48, -1.96 38.42, -0.7 31.44 C0.55 24.45, 6.51 16.67, 11.49 11.57 C16.47 6.48, 21.62 0.86, 29.19 0.89 C36.75 0.91, 51.05 8.71, 56.87 11.75 C62.7 14.79, 64.49 18.5, 64.12 19.14 M22.02 4.33 C28.07 1.21, 35.74 -1.2, 42.26 0.06 C48.78 1.32, 56.58 6.49, 61.13 11.9 C65.68 17.31, 69.67 25.12, 69.57 32.53 C69.47 39.94, 64.12 49.45, 60.54 56.36 C56.96 63.26, 54.1 70.24, 48.08 73.97 C42.07 77.69, 31.52 80, 24.45 78.72 C17.37 77.43, 10.02 72.03, 5.63 66.26 C1.25 60.49, -1.28 51.65, -1.86 44.1 C-2.44 36.55, -1.85 28.18, 2.14 20.96 C6.13 13.74, 18.68 3.68, 22.06 0.78 C25.45 -2.13, 22.86 2.25, 22.43 3.52" stroke="#000000" stroke-width="4" fill="none"></path></g><g stroke-linecap="round" transform="translate(606.783003067135 819.32253787942) rotate(65.0908650168829 34 39)"><path d="M39.76 0.26 C46.04 1.03, 53.07 7.04, 57.62 12.69 C62.17 18.33, 66.17 26.7, 67.08 34.14 C67.98 41.58, 66.25 50.61, 63.05 57.33 C59.84 64.05, 53.58 71.26, 47.84 74.44 C42.09 77.63, 35.04 78.3, 28.58 76.42 C22.12 74.54, 13.69 68.61, 9.07 63.17 C4.45 57.73, 1.25 51.2, 0.85 43.78 C0.45 36.36, 3.25 25.26, 6.68 18.63 C10.11 12, 11.46 3.37, 21.44 4.02 C31.41 4.67, 59.41 13.33, 66.51 22.52 C73.62 31.71, 64.99 58.81, 64.06 59.14 M16.35 5.24 C20.74 -0.17, 27.57 -3.44, 33.98 -2.66 C40.4 -1.88, 49.16 5.38, 54.85 9.94 C60.54 14.5, 66.71 17.65, 68.12 24.7 C69.53 31.74, 65.36 44.32, 63.33 52.2 C61.29 60.09, 60.97 68.15, 55.93 72.01 C50.89 75.86, 40.47 75.49, 33.09 75.34 C25.71 75.19, 17.33 75.64, 11.64 71.11 C5.95 66.58, 0.59 55.79, -1.03 48.14 C-2.64 40.48, -0.38 31.66, 1.95 25.18 C4.27 18.7, 10.92 11.95, 12.93 9.27 C14.93 6.6, 13.64 8.78, 13.97 9.11" stroke="none" stroke-width="0" fill="#82c91e"></path><path d="M47.17 4.62 C52.9 7.75, 60.78 15.45, 63.96 22.15 C67.13 28.85, 67.25 37.43, 66.22 44.82 C65.18 52.21, 61.78 61.04, 57.73 66.49 C53.68 71.94, 48.44 75.97, 41.91 77.53 C35.38 79.09, 24.99 79.36, 18.55 75.86 C12.11 72.35, 6.6 63.31, 3.28 56.49 C-0.03 49.68, -2.47 42.25, -1.34 34.97 C-0.2 27.68, 5.3 18.3, 10.07 12.77 C14.84 7.24, 18.03 -0.76, 27.27 1.78 C36.51 4.33, 59.8 19.14, 65.52 28.05 C71.24 36.97, 62.23 55.2, 61.56 55.26 M22.43 2.65 C28.48 0.24, 38.06 1.13, 44.33 3.96 C50.61 6.79, 55.87 13.83, 60.08 19.63 C64.3 25.43, 69.29 31.5, 69.62 38.77 C69.95 46.04, 66.96 56.66, 62.08 63.25 C57.2 69.84, 47.39 76.02, 40.34 78.31 C33.29 80.61, 25.26 80.18, 19.77 77.01 C14.29 73.84, 10.93 66.29, 7.44 59.29 C3.95 52.28, -0.81 42.74, -1.14 34.99 C-1.48 27.25, 1.32 18.63, 5.43 12.82 C9.54 7, 20 1.88, 23.51 0.09 C27.02 -1.71, 25.59 0.82, 26.47 2.04" stroke="#000000" stroke-width="4" fill="none"></path></g><g stroke-linecap="round"><g transform="translate(176.3701399466527 49.530279623234605) rotate(65.0908650168829 -7.197064958020789 110.91472132179581)"><path d="M2.34 1.6 C-0.43 38.04, -11.92 182.83, -15.18 219.36 M0.17 0 C-2.99 36.66, -13.46 184.58, -16.73 221.83" stroke="#a61e4d" stroke-width="4" fill="none"></path></g><g transform="translate(176.3701399466527 49.530279623234605) rotate(65.0908650168829 -7.197064958020789 110.91472132179581)"><path d="M-19.2 220.98 L-22.84 210.58 L-11.62 207.92 L-13.34 221.77" stroke="none" stroke-width="0" fill="#a61e4d" fill-rule="evenodd"></path><path d="M-15.02 223.18 C-20.94 216.15, -21.26 214.59, -19.16 210.59 M-17.74 222.68 C-17.63 219.57, -18.27 215.67, -22.39 208.08 M-20.13 205.32 C-16.92 209.79, -15.73 208.02, -8.1 208.37 M-22.27 207.67 C-16.76 209.59, -13.03 209.52, -8.94 208.3 M-10.76 209.64 C-8.9 210.2, -13.26 218.99, -14.21 224.12 M-9.56 210.12 C-12.37 212.86, -12.52 215.49, -17.78 221.94 M-16.73 221.83 C-16.73 221.83, -16.73 221.83, -16.73 221.83 M-16.73 221.83 C-16.73 221.83, -16.73 221.83, -16.73 221.83" stroke="#a61e4d" stroke-width="4" fill="none"></path></g></g><mask></mask><g stroke-linecap="round"><g transform="translate(104.02014936914475 439.01541280840814) rotate(65.0908650168829 143.10700364679593 -124.04981931282222)"><path d="M0.69 -2.28 C48.74 -43.69, 240.72 -206.33, 288.6 -247.12 M-2.39 2.65 C45.47 -39.61, 239.35 -208.45, 287.59 -250.75" stroke="#a61e4d" stroke-width="4" fill="none"></path></g><g transform="translate(104.02014936914475 439.01541280840814) rotate(65.0908650168829 143.10700364679593 -124.04981931282222)"><path d="M286.16 -253.8 L285.46 -235.51 L269.62 -246.66 L289.72 -250.81" stroke="none" stroke-width="0" fill="#a61e4d" fill-rule="evenodd"></path><path d="M285.15 -248.33 C288.57 -244.71, 286.79 -243.88, 283.88 -236.29 M287.27 -251.07 C287.51 -248.62, 284.79 -243.45, 281.5 -238.32 M281.98 -237.89 C277.66 -242.43, 274.47 -242.11, 273.78 -246.16 M281.71 -236.99 C278.14 -239.91, 275.24 -242.54, 273.4 -245.33 M270.32 -246.68 C275.36 -245.38, 283.88 -247.33, 286.44 -249.03 M273.56 -246.3 C278.82 -247.62, 286.06 -250.94, 286.95 -251.04 M287.59 -250.75 C287.59 -250.75, 287.59 -250.75, 287.59 -250.75 M287.59 -250.75 C287.59 -250.75, 287.59 -250.75, 287.59 -250.75" stroke="#a61e4d" stroke-width="4" fill="none"></path></g></g><mask></mask><g stroke-linecap="round"><g transform="translate(520.362734504863 267.17817427437524) rotate(65.0908650168829 -126.13403474475292 -6.2493982137470425)"><path d="M0.21 -1.93 C-41.95 -3.93, -209.16 -10.33, -251.48 -12.07 M-3.11 3.2 C-45.58 0.47, -210.42 -12.39, -252.48 -15.7" stroke="#a61e4d" stroke-width="4" fill="none"></path></g><g transform="translate(520.362734504863 267.17817427437524) rotate(65.0908650168829 -126.13403474475292 -6.2493982137470425)"><path d="M-253.92 -17.78 L-238.57 -22.27 L-241.33 -10.21 L-252.34 -11.71" stroke="none" stroke-width="0" fill="#a61e4d" fill-rule="evenodd"></path><path d="M-254.55 -13.25 C-244.79 -17.53, -240.12 -22.22, -240.79 -22.65 M-252.66 -15.74 C-248.05 -16.01, -245.58 -18, -237.58 -20.83 M-238.61 -20.51 C-236.54 -19.27, -237.72 -13.77, -237.42 -9.51 M-237.17 -21.22 C-238.89 -15.12, -239.95 -12.09, -240.27 -9.15 M-238 -9.19 C-246.14 -10.92, -248.58 -12.09, -255.27 -15.03 M-238.87 -6.9 C-242.78 -8.97, -244.98 -13.32, -253.03 -16.33 M-252.48 -15.7 C-252.48 -15.7, -252.48 -15.7, -252.48 -15.7 M-252.48 -15.7 C-252.48 -15.7, -252.48 -15.7, -252.48 -15.7" stroke="#a61e4d" stroke-width="4" fill="none"></path></g></g><mask></mask><g stroke-linecap="round"><g transform="translate(188.61719281986382 371.6000682747063) rotate(65.0908650168829 -101.11083193235051 -10.717759154972242)"><path d="M-2.12 -0.68 C-35.81 -3.85, -169.65 -17.79, -203.33 -20.75 M1.93 -3.52 C-31.79 -6.26, -169.65 -16.46, -204.15 -18.43" stroke="#a61e4d" stroke-width="4" fill="none"></path></g><g transform="translate(188.61719281986382 371.6000682747063) rotate(65.0908650168829 -101.11083193235051 -10.717759154972242)"><path d="M-205.67 -16.9 L-189.71 -23.83 L-193.92 -11.75 L-200.22 -17.96" stroke="none" stroke-width="0" fill="#a61e4d" fill-rule="evenodd"></path><path d="M-204.88 -15.64 C-203.07 -17.77, -196.98 -19.73, -187.89 -24.72 M-203.33 -18.76 C-199.26 -19.06, -194.76 -23.26, -189.54 -23.47 M-190.25 -24.68 C-191.79 -20.2, -190.82 -11.62, -189.48 -8.82 M-189.46 -25.06 C-190.31 -20.19, -190.96 -17.81, -189.92 -10.19 M-189.26 -10.84 C-196.23 -13.38, -200.08 -14.47, -201.24 -17.76 M-192.04 -10.72 C-193.84 -14.44, -198.13 -15.39, -205.63 -18.39 M-204.15 -18.43 C-204.15 -18.43, -204.15 -18.43, -204.15 -18.43 M-204.15 -18.43 C-204.15 -18.43, -204.15 -18.43, -204.15 -18.43" stroke="#a61e4d" stroke-width="4" fill="none"></path></g></g><mask></mask><g stroke-linecap="round"><g transform="translate(271.32954460633795 562.7063301790174) rotate(65.0908650168829 27.790208326389774 -108.20423480389971)"><path d="M2.02 -1.93 C11.24 -37.98, 47.42 -180.31, 55.9 -216.02 M-0.32 3.2 C8.55 -33.6, 44.32 -182.35, 54.15 -219.6" stroke="#a61e4d" stroke-width="4" fill="none"></path></g><g transform="translate(271.32954460633795 562.7063301790174) rotate(65.0908650168829 27.790208326389774 -108.20423480389971)"><path d="M57.76 -222.84 L53.01 -205.85 L46.22 -206.06 L57.16 -218.9" stroke="none" stroke-width="0" fill="#a61e4d" fill-rule="evenodd"></path><path d="M52.09 -218.65 C57.9 -217.13, 58.69 -209.64, 54.03 -204.78 M53.42 -220.43 C55.1 -215.52, 54.72 -212.01, 57.85 -203.42 M58.63 -203.79 C54.92 -204.98, 48.44 -206.22, 44.04 -207.43 M57.01 -205.8 C53.58 -204.41, 50.68 -206.41, 45.02 -208.96 M42.09 -210.48 C48.91 -211.17, 50.01 -215.37, 56.75 -221.55 M46.17 -207.48 C49.24 -213.55, 51 -217.11, 53.21 -219.17 M54.15 -219.6 C54.15 -219.6, 54.15 -219.6, 54.15 -219.6 M54.15 -219.6 C54.15 -219.6, 54.15 -219.6, 54.15 -219.6" stroke="#a61e4d" stroke-width="4" fill="none"></path></g></g><mask></mask><g stroke-linecap="round"><g transform="translate(309.2248990057826 593.8991866980555) rotate(65.0908650168829 -85.16003626306278 -2.0169561061944705)"><path d="M0.89 1.71 C-15.14 -2.05, -67.16 -21.83, -95.45 -19.82 C-123.74 -17.81, -156.92 7.55, -168.86 13.77 M-2.08 0.17 C-17.31 -2.05, -62.14 -19.62, -90.33 -16.99 C-118.51 -14.37, -158.59 11.01, -171.21 15.93" stroke="#a61e4d" stroke-width="4" fill="none"></path></g><g transform="translate(309.2248990057826 593.8991866980555) rotate(65.0908650168829 -85.16003626306278 -2.0169561061944705)"><path d="M-168.74 13.85 L-165.07 7.47 L-158.71 13.32 L-171.43 19.41" stroke="none" stroke-width="0" fill="#a61e4d" fill-rule="evenodd"></path><path d="M-169.37 13.4 C-169.98 10.99, -167.23 9.11, -159.74 5.2 M-171.93 16.17 C-167.84 12.21, -165.42 7.56, -160.53 2.91 M-159.87 3.05 C-160.29 7.1, -159.28 8.37, -153.93 13.51 M-161.25 5.16 C-160.55 5.76, -159.2 7.99, -155.95 14.36 M-156 15.54 C-162.6 16.36, -165.96 18.9, -171.83 16.7 M-155.69 14.79 C-159.89 14.96, -167.23 16.05, -171.63 16.29 M-171.21 15.93 C-171.21 15.93, -171.21 15.93, -171.21 15.93 M-171.21 15.93 C-171.21 15.93, -171.21 15.93, -171.21 15.93" stroke="#a61e4d" stroke-width="4" fill="none"></path></g></g><mask></mask><g stroke-linecap="round"><g transform="translate(76.31887043548335 610.3958848406742) rotate(65.0908650168829 87.56094992629123 11.690103219431577)"><path d="M2.58 -0.01 C17.72 3.95, 61.18 26.69, 89.84 26.22 C118.51 25.75, 161.26 1.36, 174.58 -2.85 M0.54 -2.49 C15.35 1.82, 58.44 21.33, 87.37 21.66 C116.3 21.99, 160.51 3.72, 174.13 -0.52" stroke="#a61e4d" stroke-width="4" fill="none"></path></g><g transform="translate(76.31887043548335 610.3958848406742) rotate(65.0908650168829 87.56094992629123 11.690103219431577)"><path d="M177.75 1.02 L161.06 9.59 L161.42 0.13 L176.85 -1.72" stroke="none" stroke-width="0" fill="#a61e4d" fill-rule="evenodd"></path><path d="M174.12 -0.98 C172.34 5.14, 167.05 2.77, 165.94 8.51 M175.19 -1.99 C170.71 0.48, 169.04 5.62, 162.5 10.08 M161.11 11.26 C159.72 6.92, 161.91 4.06, 157.61 -0.22 M162.97 9.97 C162.96 8.3, 161.73 4.73, 158.92 -1.73 M160.26 0.34 C166.2 -3.54, 165.73 -2.13, 172.82 -2.98 M158.19 -3.36 C162.66 -0.2, 165.67 -0.44, 175.03 -1.15 M174.13 -0.52 C174.13 -0.52, 174.13 -0.52, 174.13 -0.52 M174.13 -0.52 C174.13 -0.52, 174.13 -0.52, 174.13 -0.52" stroke="#a61e4d" stroke-width="4" fill="none"></path></g></g><mask></mask><g stroke-linecap="round"><g transform="translate(395.58242503272726 792.4522805254835) rotate(65.0908650168829 18.19784797149913 -110.94735854326808)"><path d="M1.91 -0.84 C7.8 -37.93, 31.11 -184.22, 36.9 -221.05 M-0.5 -3.77 C4.77 -40.6, 28.26 -181.98, 34.02 -217.97" stroke="#a61e4d" stroke-width="4" fill="none"></path></g><g transform="translate(395.58242503272726 792.4522805254835) rotate(65.0908650168829 18.19784797149913 -110.94735854326808)"><path d="M30.03 -217.58 L39.71 -202.34 L24.89 -206.93 L33.77 -216.39" stroke="none" stroke-width="0" fill="#a61e4d" fill-rule="evenodd"></path><path d="M33.12 -219.24 C34.54 -214.43, 35.13 -207.19, 39.7 -203.39 M34.06 -216.82 C33.88 -213.88, 36.65 -210.92, 39.28 -203.56 M36.07 -205.37 C34.79 -205.37, 29.7 -207.44, 23.6 -204 M37.94 -204.59 C35.95 -203.26, 31.65 -203.16, 26.46 -205.14 M24.81 -207.91 C30.28 -206.01, 28.28 -212.29, 35.99 -217.21 M26.08 -205.52 C28.55 -210.52, 32.57 -213.48, 34.38 -216.93 M34.02 -217.97 C34.02 -217.97, 34.02 -217.97, 34.02 -217.97 M34.02 -217.97 C34.02 -217.97, 34.02 -217.97, 34.02 -217.97" stroke="#a61e4d" stroke-width="4" fill="none"></path></g></g><mask></mask><g stroke-linecap="round"><g transform="translate(581.1058165085235 524.775027209882) rotate(65.0908650168829 -77.31851592957065 6.509254550248443)"><path d="M1.61 1.48 C-24.26 3.4, -128.39 11.62, -154.91 13.21 M-0.97 -0.19 C-27.08 0.67, -129.77 6.24, -156.24 8.47" stroke="#a61e4d" stroke-width="4" fill="none"></path></g><g transform="translate(581.1058165085235 524.775027209882) rotate(65.0908650168829 -77.31851592957065 6.509254550248443)"><path d="M-157.95 6.52 L-141.9 1.65 L-138.71 17.54 L-154.07 10.22" stroke="none" stroke-width="0" fill="#a61e4d" fill-rule="evenodd"></path><path d="M-154.66 10.25 C-151.7 5.08, -149.98 3.41, -140.96 0.47 M-154.77 8.29 C-152.6 6.98, -147.78 3.83, -143.64 0.86 M-145.21 1.08 C-141.69 6, -141.4 8.98, -142.8 11.87 M-144.04 1.08 C-142.03 5.02, -142.38 10.7, -142.49 14.03 M-139.37 16.62 C-147.09 10.34, -152.09 12.57, -154.44 5.68 M-142.47 14.79 C-146.6 11.95, -147.79 12.37, -156.22 8.14 M-156.24 8.47 C-156.24 8.47, -156.24 8.47, -156.24 8.47 M-156.24 8.47 C-156.24 8.47, -156.24 8.47, -156.24 8.47" stroke="#a61e4d" stroke-width="4" fill="none"></path></g></g><mask></mask><g stroke-linecap="round"><g transform="translate(485.67039945695467 743.9347356852489) rotate(65.0908650168829 86.94879117033975 14.261379788306314)"><path d="M1.69 -2.3 C14.77 2.66, 51.24 24.71, 80.09 29.33 C108.93 33.95, 159.28 26.43, 174.74 25.43 M-0.84 2.63 C13.01 6.76, 56.48 20.6, 85.55 24.93 C114.63 29.25, 159.01 28.58, 173.61 28.57" stroke="#a61e4d" stroke-width="4" fill="none"></path></g><g transform="translate(485.67039945695467 743.9347356852489) rotate(65.0908650168829 86.94879117033975 14.261379788306314)"><path d="M176.57 26.95 L157.24 35.68 L156.83 22.66 L172.17 27.76" stroke="none" stroke-width="0" fill="#a61e4d" fill-rule="evenodd"></path><path d="M171.15 26.72 C169.94 32.33, 163.94 32.61, 157.85 37.65 M174.63 27.61 C168.74 31.1, 166.52 33.3, 159.74 35.29 M162.4 34.37 C160.75 31.97, 158.41 26.8, 158.92 21.02 M161.18 35.62 C160.54 31.13, 160.8 27.74, 160.03 23.41 M162.56 23.42 C163.94 22.26, 167.87 29.22, 172.95 25.6 M161.01 21.43 C164.77 25.17, 169.98 27.64, 173.97 27.08 M173.61 28.57 C173.61 28.57, 173.61 28.57, 173.61 28.57 M173.61 28.57 C173.61 28.57, 173.61 28.57, 173.61 28.57" stroke="#a61e4d" stroke-width="4" fill="none"></path></g></g><mask></mask><g stroke-linecap="round"><g transform="translate(712.1244999159047 748.5186139699491) rotate(65.0908650168829 -77.17582575080549 -16.70968099286313)"><path d="M-1.81 -1.93 C-11.55 -7.13, -32.47 -30.54, -57.92 -32.31 C-83.37 -34.09, -138.55 -15.85, -154.52 -12.57 M2.4 3.19 C-7.51 -2.73, -32.15 -34.39, -58.68 -36.49 C-85.2 -38.58, -141 -13.8, -156.75 -9.39" stroke="#a61e4d" stroke-width="4" fill="none"></path></g><g transform="translate(712.1244999159047 748.5186139699491) rotate(65.0908650168829 -77.17582575080549 -16.70968099286313)"><path d="M-156.54 -11.39 L-146.4 -21.18 L-142.44 -6.8 L-160.02 -13.37" stroke="none" stroke-width="0" fill="#a61e4d" fill-rule="evenodd"></path><path d="M-158.82 -6.46 C-151.62 -13.42, -149.73 -15.96, -145.99 -17.06 M-156.9 -8.95 C-153.75 -12.14, -150.05 -15.53, -146.67 -19.84 M-145.49 -17.56 C-145.5 -16.81, -141.65 -8.37, -143.18 -9.61 M-147.22 -21.12 C-144.68 -17.16, -144.3 -11.47, -140.57 -8.11 M-144.06 -10.53 C-147.73 -6.15, -153.04 -10.54, -156.67 -8.42 M-141.6 -6.87 C-145.44 -8.24, -147.08 -9.82, -158.07 -10.75 M-156.75 -9.39 C-156.75 -9.39, -156.75 -9.39, -156.75 -9.39 M-156.75 -9.39 C-156.75 -9.39, -156.75 -9.39, -156.75 -9.39" stroke="#a61e4d" stroke-width="4" fill="none"></path></g></g><mask></mask><g stroke-linecap="round"><g transform="translate(298.031680867543 1033.093425568964) rotate(65.0908650168829 63.35775195433034 2.470737448947574)"><path d="M0.27 -1.02 C14.23 7.79, 63.58 56.46, 84.97 51.57 C106.35 46.68, 135.97 -14.79, 128.59 -30.37 C121.21 -45.95, 55.31 -39.67, 40.67 -41.92 M-3.03 -4.04 C10.47 4, 61.12 52.11, 82.91 46.98 C104.69 41.86, 134.51 -19.12, 127.67 -34.78 C120.83 -50.44, 56.84 -45.6, 41.88 -46.97" stroke="#a61e4d" stroke-width="4" fill="none"></path></g><g transform="translate(298.031680867543 1033.093425568964) rotate(65.0908650168829 63.35775195433034 2.470737448947574)"><path d="M40.45 -50.35 L57.38 -55.31 L52.24 -38.43 L42.46 -50.87" stroke="none" stroke-width="0" fill="#a61e4d" fill-rule="evenodd"></path><path d="M40.79 -46.61 C47.48 -47.37, 53.56 -49.99, 57.49 -51.83 M42.27 -47.36 C47.04 -50.31, 48.53 -51.41, 54.77 -53.47 M53.25 -52.04 C57.7 -50.09, 53.95 -45.79, 56.34 -39.99 M55.75 -52.54 C56.44 -51.35, 56.52 -47.8, 55.67 -41.5 M57.02 -38.38 C49.51 -40.45, 42.54 -45.04, 44.41 -46.62 M56.57 -39.84 C52.28 -41.95, 46.26 -44.55, 42.37 -47.36 M41.88 -46.97 C41.88 -46.97, 41.88 -46.97, 41.88 -46.97 M41.88 -46.97 C41.88 -46.97, 41.88 -46.97, 41.88 -46.97" stroke="#a61e4d" stroke-width="4" fill="none"></path></g></g><mask></mask><g stroke-linecap="round"><g transform="translate(410.88249507399445 824.4255585070518) rotate(65.0908650168829 -89.8738807600151 6.510444807774611)"><path d="M1.52 0.31 C-28.17 2.56, -148.72 12.71, -178.57 15.01 M-1.1 -1.99 C-31.19 -0.76, -151.56 7.28, -181.27 10.49" stroke="#a61e4d" stroke-width="4" fill="none"></path></g><g transform="translate(410.88249507399445 824.4255585070518) rotate(65.0908650168829 -89.8738807600151 6.510444807774611)"><path d="M-179.03 12.65 L-164.73 6.03 L-170.65 13.7 L-177.36 11.89" stroke="none" stroke-width="0" fill="#a61e4d" fill-rule="evenodd"></path><path d="M-180.93 9.58 C-176.69 8.35, -173.94 6.72, -167.34 2.4 M-179.96 9.92 C-176.7 7.42, -172.23 6.29, -167.01 3.66 M-170.02 5.37 C-169.9 5.18, -165.94 11.05, -167.21 17.52 M-167.49 2.96 C-166.8 6.55, -166.29 8.33, -166.23 15.46 M-164.84 13.13 C-170.02 12.19, -179.92 11.78, -180.14 11.59 M-168.17 17.16 C-169.43 14.21, -174.86 13.97, -180.87 9.65 M-181.27 10.49 C-181.27 10.49, -181.27 10.49, -181.27 10.49 M-181.27 10.49 C-181.27 10.49, -181.27 10.49, -181.27 10.49" stroke="#a61e4d" stroke-width="4" fill="none"></path></g></g><mask></mask><g stroke-linecap="round"><g transform="translate(495.8019511987836 996.5952357861997) rotate(65.0908650168829 9.825907810125166 -91.70019588333143)"><path d="M0.95 0.51 C4.22 -30.32, 18.34 -153.57, 21.64 -183.91 M-1.98 -1.69 C0.91 -32.17, 16.85 -149.85, 20.42 -180.57" stroke="#a61e4d" stroke-width="4" fill="none"></path></g><g transform="translate(495.8019511987836 996.5952357861997) rotate(65.0908650168829 9.825907810125166 -91.70019588333143)"><path d="M23.98 -181.92 L27.32 -169.33 L13.76 -165.24 L19.24 -180.36" stroke="none" stroke-width="0" fill="#a61e4d" fill-rule="evenodd"></path><path d="M20.97 -178.55 C21.65 -174.25, 25.94 -167.26, 23.51 -166.63 M19.31 -181.32 C22 -176.5, 23.78 -169.94, 23.66 -165.45 M27.19 -166.89 C21.48 -164.75, 15.34 -169.26, 10.94 -167.14 M25.46 -166.85 C20.88 -166.83, 18.29 -167.33, 13.11 -166.61 M14.09 -166.86 C16.71 -171.1, 14.23 -174.8, 21.24 -178.05 M12.8 -169.2 C15.08 -174.04, 18.51 -178.52, 19.33 -180.63 M20.42 -180.57 C20.42 -180.57, 20.42 -180.57, 20.42 -180.57 M20.42 -180.57 C20.42 -180.57, 20.42 -180.57, 20.42 -180.57" stroke="#a61e4d" stroke-width="4" fill="none"></path></g></g><mask></mask><g stroke-linecap="round" transform="translate(869.9985547400872 9.999367989236475) rotate(1.4498777997696684 38 39)"><path d="M33.79 1.38 C40.87 -0.52, 50.25 1.08, 56.4 4.48 C62.54 7.88, 67.44 14.67, 70.64 21.76 C73.85 28.86, 76.69 39.79, 75.64 47.06 C74.59 54.33, 69.62 60.14, 64.33 65.36 C59.04 70.59, 50.95 76.98, 43.89 78.41 C36.83 79.83, 28.7 77.43, 21.99 73.92 C15.28 70.41, 7.36 64.1, 3.63 57.33 C-0.1 50.56, -1.78 41.29, -0.37 33.28 C1.03 25.27, 3.78 14.26, 12.08 9.26 C20.38 4.25, 40.87 2.98, 49.44 3.22 C58.02 3.47, 64.05 10.29, 63.55 10.72 M9.05 15.54 C12.42 10.17, 18.54 5.86, 24.9 4.03 C31.27 2.2, 39.87 2.03, 47.23 4.57 C54.6 7.11, 63.9 13.8, 69.1 19.26 C74.31 24.72, 78.3 30.37, 78.48 37.31 C78.65 44.26, 74.9 54.07, 70.16 60.95 C65.42 67.82, 57.54 76.4, 50.03 78.54 C42.53 80.68, 32.8 76.29, 25.14 73.81 C17.49 71.32, 7.82 69.62, 4.12 63.64 C0.42 57.65, 2.07 45.64, 2.93 37.88 C3.8 30.12, 8.39 20.83, 9.31 17.09 C10.22 13.35, 8.29 15.46, 8.41 15.45" stroke="none" stroke-width="0" fill="#82c91e"></path><path d="M53.69 5.13 C60.48 8.17, 66.47 14.97, 70.07 21.61 C73.67 28.26, 76.21 37.89, 75.26 45 C74.31 52.11, 69.14 58.61, 64.38 64.29 C59.61 69.97, 53.41 77.65, 46.68 79.08 C39.95 80.51, 31.18 76.56, 24.01 72.86 C16.85 69.16, 7.86 63.05, 3.69 56.89 C-0.48 50.74, -2.15 43.42, -1.02 35.92 C0.1 28.43, 5.41 17.45, 10.44 11.92 C15.46 6.39, 21.25 3.55, 29.12 2.75 C36.99 1.96, 52.54 6.33, 57.65 7.17 C62.76 8, 59.8 7.73, 59.78 7.78 M66.48 18.26 C70.63 23.69, 75.66 31.07, 75.66 38.87 C75.65 46.67, 70.46 58.54, 66.44 65.05 C62.43 71.56, 58.7 75.73, 51.58 77.94 C44.46 80.15, 31.69 81.58, 23.73 78.31 C15.76 75.04, 7.96 65.16, 3.79 58.32 C-0.38 51.48, -1.99 44.12, -1.3 37.26 C-0.62 30.4, 3.42 22.83, 7.89 17.17 C12.36 11.5, 18.36 6.05, 25.52 3.29 C32.68 0.53, 43.4 -1.79, 50.85 0.58 C58.31 2.95, 67.28 14.39, 70.24 17.53 C73.19 20.66, 69.72 19.29, 68.57 19.37" stroke="#e67700" stroke-width="4" fill="none"></path></g><g transform="translate(903.2504987029477 26.422203522961127) rotate(1.4498777997696684 4.877998352050781 22.5)"><text x="4.877998352050781" y="0" font-family="Virgil, Segoe UI Emoji" font-size="36px" fill="#e67700" text-anchor="middle" style="white-space: pre;" direction="ltr" dominant-baseline="text-before-edge">1</text></g><g stroke-linecap="round" transform="translate(1129.0442026767569 540.1789502024958) rotate(65.0908650168829 34 39)"><path d="M48.3 4.53 C54.01 7.66, 61.42 16.6, 64.58 23.16 C67.74 29.73, 68.33 36.52, 67.26 43.93 C66.19 51.34, 62.59 61.96, 58.15 67.62 C53.71 73.29, 47.31 76.75, 40.61 77.91 C33.92 79.06, 24.3 78.02, 17.97 74.56 C11.65 71.11, 5.49 64.49, 2.68 57.17 C-0.12 49.86, -0.31 38.04, 1.16 30.69 C2.63 23.33, 6.54 17.85, 11.5 13.03 C16.46 8.21, 21.62 -2.54, 30.93 1.74 C40.25 6.03, 64.41 26.91, 67.39 38.74 C70.37 50.57, 49.54 72.6, 48.8 72.7 M27.75 2.78 C34.3 1.64, 44.63 5.15, 51.27 8.23 C57.9 11.31, 64.64 14.96, 67.57 21.25 C70.5 27.54, 70.54 37.8, 68.82 45.99 C67.1 54.18, 62.61 65.47, 57.25 70.4 C51.88 75.34, 43.84 74.89, 36.63 75.6 C29.41 76.31, 19.09 78.28, 13.96 74.67 C8.83 71.06, 7.73 61.05, 5.84 53.94 C3.96 46.84, 1.67 39.52, 2.65 32.04 C3.62 24.57, 7.11 14.6, 11.68 9.09 C16.25 3.59, 27.18 0.87, 30.05 -0.97 C32.93 -2.81, 28.32 -2.66, 28.92 -1.92" stroke="none" stroke-width="0" fill="#82c91e"></path><path d="M57.78 13.2 C62.45 17.53, 64.78 24.54, 66.04 32.15 C67.3 39.77, 67.83 52.19, 65.32 58.88 C62.81 65.57, 57.34 69.43, 50.99 72.32 C44.63 75.21, 34.25 76.98, 27.17 76.21 C20.08 75.45, 12.86 73.09, 8.46 67.73 C4.06 62.37, 1.77 51.52, 0.77 44.06 C-0.22 36.6, -0.55 29.35, 2.48 22.95 C5.5 16.56, 12.86 9.56, 18.91 5.67 C24.96 1.79, 30.81 -2.89, 38.78 -0.34 C46.74 2.21, 61.65 14.93, 66.71 20.98 C71.76 27.03, 69.91 35.75, 69.1 35.95 M45.3 5.04 C51.88 7.77, 62.37 13.38, 65.9 19.96 C69.44 26.54, 67.97 37.56, 66.52 44.5 C65.06 51.44, 61.47 56.29, 57.18 61.6 C52.88 66.92, 46.79 73.78, 40.76 76.38 C34.74 78.97, 27.29 79.7, 21.03 77.18 C14.77 74.66, 6.7 68.4, 3.2 61.27 C-0.29 54.14, -0.88 42.22, 0.06 34.38 C1 26.54, 4.58 19.48, 8.85 14.24 C13.12 9, 19.84 5.06, 25.68 2.96 C31.53 0.86, 40.92 1.23, 43.92 1.63 C46.92 2.03, 43.46 4.59, 43.66 5.39" stroke="#000000" stroke-width="4" fill="none"></path></g><g stroke-linecap="round" transform="translate(598.9402530148665 136.66644969352012) rotate(65.0908650168829 34 39)"><path d="M36.06 -1.38 C42.43 -1.53, 50.72 4.72, 56.13 9.93 C61.55 15.14, 67.03 22.44, 68.54 29.87 C70.05 37.31, 68.09 47.38, 65.19 54.53 C62.29 61.68, 56.61 69.22, 51.14 72.8 C45.67 76.38, 38.63 76.35, 32.36 76 C26.09 75.65, 18.41 75.09, 13.52 70.72 C8.63 66.35, 4.95 57.39, 3 49.78 C1.06 42.17, 0.01 32.24, 1.86 25.04 C3.71 17.83, 7.54 10.33, 14.09 6.55 C20.63 2.78, 35.42 2.91, 41.13 2.41 C46.84 1.91, 47.99 3.41, 48.36 3.55 M62.21 11.54 C66.92 16, 69.22 26.19, 69.46 34.52 C69.7 42.86, 67.49 55.19, 63.64 61.56 C59.78 67.93, 53.06 69.86, 46.33 72.75 C39.6 75.64, 29.12 80.43, 23.27 78.91 C17.42 77.39, 14.74 69.55, 11.2 63.65 C7.66 57.75, 2.99 51.13, 2.01 43.51 C1.02 35.89, 2.23 24.88, 5.29 17.94 C8.35 11, 14.55 5.18, 20.35 1.88 C26.15 -1.43, 33.06 -3.71, 40.08 -1.88 C47.11 -0.04, 59.46 9.97, 62.49 12.87 C65.52 15.77, 59.35 14.72, 58.25 15.52" stroke="none" stroke-width="0" fill="#82c91e"></path><path d="M58.51 12.48 C64 17, 68.41 23.19, 69.25 30.19 C70.08 37.18, 66.9 47.04, 63.53 54.44 C60.16 61.85, 54.61 70.87, 49.03 74.63 C43.46 78.39, 36.68 77.88, 30.06 77 C23.44 76.12, 14.19 74.22, 9.29 69.35 C4.39 64.49, 1.8 55.79, 0.65 47.8 C-0.5 39.82, -0.75 28.85, 2.41 21.43 C5.57 14.02, 13.3 6.69, 19.61 3.3 C25.92 -0.09, 32.48 -2.51, 40.29 1.08 C48.1 4.67, 61.92 17.42, 66.47 24.84 C71.01 32.25, 68.29 45.22, 67.57 45.58 M54.8 12.07 C58.94 15.73, 62.78 20.55, 64.32 27.47 C65.86 34.38, 66.16 45.75, 64.03 53.57 C61.91 61.4, 57.33 70.08, 51.54 74.42 C45.76 78.76, 35.93 80.88, 29.3 79.61 C22.67 78.34, 16.38 72.02, 11.78 66.82 C7.18 61.61, 3.27 55.22, 1.71 48.38 C0.15 41.54, 0.46 33.1, 2.41 25.76 C4.36 18.43, 8.17 8.37, 13.41 4.39 C18.65 0.41, 26.8 1.07, 33.86 1.89 C40.92 2.72, 51.61 7.63, 55.75 9.33 C59.89 11.03, 58.77 11.4, 58.71 12.12" stroke="#000000" stroke-width="4" fill="none"></path></g><g stroke-linecap="round" transform="translate(1010.868611220867 333.9078960135579) rotate(65.0908650168829 34 39)"><path d="M12.7 10.47 C16.97 5.22, 23.74 1.95, 29.95 1.18 C36.17 0.42, 44.02 2.57, 49.98 5.89 C55.93 9.2, 62.59 13.93, 65.7 21.08 C68.81 28.23, 69.78 40.76, 68.64 48.77 C67.5 56.79, 64.1 64.25, 58.84 69.18 C53.58 74.12, 44.36 77.67, 37.09 78.39 C29.83 79.1, 21.21 77.18, 15.25 73.46 C9.3 69.75, 3.82 63.35, 1.37 56.1 C-1.09 48.85, -4.08 39.51, 0.51 29.98 C5.1 20.44, 21.14 3.35, 28.91 -1.11 C36.67 -5.57, 46.9 1.99, 47.1 3.21 M13.85 10.42 C18.19 5.42, 26.18 -1.91, 32.26 -2.18 C38.33 -2.45, 44.16 4.24, 50.28 8.8 C56.4 13.35, 65.95 18.05, 68.98 25.14 C72.02 32.23, 70.81 43.99, 68.49 51.31 C66.17 58.63, 60.75 64.82, 55.08 69.07 C49.4 73.32, 41.42 76.95, 34.42 76.81 C27.42 76.67, 18.02 72.47, 13.07 68.24 C8.12 64, 6.81 57.85, 4.71 51.38 C2.6 44.92, -0.79 36.38, 0.44 29.42 C1.66 22.47, 9.83 13.15, 12.07 9.68 C14.31 6.2, 13.79 8.6, 13.87 8.58" stroke="none" stroke-width="0" fill="#82c91e"></path><path d="M59.93 14.25 C63.6 20.23, 66.33 31.96, 66.72 39.7 C67.11 47.43, 66.1 54.3, 62.27 60.66 C58.44 67.02, 50.08 74.98, 43.72 77.85 C37.37 80.72, 30.44 80.6, 24.15 77.89 C17.87 75.19, 9.71 68.23, 6.01 61.62 C2.3 55.01, 1.58 45.6, 1.92 38.24 C2.27 30.87, 4.56 23.77, 8.08 17.42 C11.6 11.08, 16.97 2.82, 23.07 0.16 C29.17 -2.5, 37.38 -4.16, 44.69 1.48 C51.99 7.12, 63.44 24.67, 66.91 33.99 C70.38 43.31, 65.77 57.31, 65.52 57.39 M58.71 13.41 C63.58 19.41, 67.45 30.34, 67.82 38.34 C68.19 46.34, 64.47 55.55, 60.95 61.4 C57.44 67.24, 52.45 70.77, 46.72 73.42 C40.99 76.07, 33.09 78.53, 26.59 77.28 C20.09 76.03, 12.64 72.06, 7.73 65.93 C2.82 59.79, -1.95 48.1, -2.87 40.47 C-3.79 32.83, -1.74 26.4, 2.2 20.11 C6.15 13.82, 13.64 5.54, 20.81 2.72 C27.97 -0.09, 38.4 1.16, 45.18 3.23 C51.95 5.3, 59.07 13.63, 61.47 15.15 C63.88 16.67, 60.25 12.1, 59.61 12.35" stroke="#000000" stroke-width="4" fill="none"></path></g><g stroke-linecap="round" transform="translate(701.5333175934452 399.4773376671758) rotate(65.0908650168829 34 39)"><path d="M38.87 1.31 C45.36 1.55, 54.04 4.24, 59.06 9.89 C64.08 15.55, 67.84 27.15, 69 35.25 C70.17 43.34, 69.5 51.93, 66.07 58.49 C62.64 65.05, 55.04 71.34, 48.42 74.6 C41.8 77.86, 33.09 79.26, 26.36 78.04 C19.62 76.82, 12.37 73.05, 8 67.29 C3.63 61.53, 0.58 51.55, 0.14 43.5 C-0.29 35.45, 1.97 25.54, 5.39 18.98 C8.82 12.42, 10.55 3.49, 20.69 4.15 C30.84 4.81, 59.29 14.15, 66.27 22.95 C73.25 31.75, 63.55 56.86, 62.58 56.94 M55.13 13.43 C60.55 18.43, 68.69 24.72, 70.53 32.15 C72.36 39.59, 69.61 51.23, 66.14 58.03 C62.68 64.82, 56.07 69.88, 49.74 72.93 C43.4 75.98, 35.05 77.88, 28.13 76.33 C21.21 74.77, 12.39 68.93, 8.23 63.6 C4.07 58.28, 4.07 51.19, 3.16 44.37 C2.26 37.55, 0.41 29.13, 2.78 22.71 C5.15 16.28, 11.28 9.54, 17.41 5.82 C23.54 2.11, 33.25 -0.28, 39.56 0.4 C45.87 1.08, 52.14 7.82, 55.28 9.92 C58.41 12.02, 58.31 12.15, 58.38 13" stroke="none" stroke-width="0" fill="#82c91e"></path><path d="M14.56 6.66 C19.41 2.09, 26.19 1.57, 32.79 1.99 C39.4 2.4, 48.73 5.11, 54.18 9.15 C59.64 13.2, 63.19 19.49, 65.53 26.26 C67.87 33.03, 69.82 42.23, 68.2 49.76 C66.58 57.29, 61.5 67.05, 55.8 71.43 C50.1 75.81, 40.86 76.23, 34 76.03 C27.14 75.82, 20.21 74.59, 14.65 70.22 C9.1 65.85, 2.62 56.73, 0.7 49.82 C-1.22 42.91, -0.07 36.55, 3.14 28.76 C6.35 20.97, 16.13 7.79, 19.97 3.08 C23.81 -1.62, 26.37 -0.05, 26.16 0.54 M26.42 2.3 C32.59 -0.07, 42.65 -0.85, 49.07 2.33 C55.49 5.5, 61.87 13.98, 64.92 21.34 C67.98 28.71, 69 39.24, 67.4 46.52 C65.81 53.79, 60.47 59.55, 55.36 65 C50.24 70.45, 42.89 77.74, 36.74 79.21 C30.59 80.68, 23.44 77.16, 18.46 73.82 C13.48 70.48, 9.62 65.71, 6.85 59.17 C4.07 52.62, 1.31 42.81, 1.8 34.56 C2.29 26.31, 5.33 15.29, 9.79 9.66 C14.24 4.04, 25.01 2.26, 28.52 0.8 C32.02 -0.66, 31.12 0.22, 30.82 0.9" stroke="#000000" stroke-width="4" fill="none"></path></g><g stroke-linecap="round" transform="translate(817.0135347782036 618.0131461895726) rotate(65.0908650168829 34 39)"><path d="M47.68 4.48 C53.96 7.16, 61.31 12.99, 64.59 19.22 C67.86 25.45, 68.36 34.32, 67.34 41.84 C66.32 49.35, 62.84 58.3, 58.45 64.29 C54.07 70.29, 47.18 76.15, 41.02 77.81 C34.85 79.47, 27.16 77.53, 21.46 74.27 C15.77 71.01, 10.15 64.47, 6.87 58.25 C3.59 52.02, 1.31 43.96, 1.77 36.91 C2.23 29.87, 5.94 21.73, 9.65 15.97 C13.36 10.21, 16.43 3.37, 24.04 2.34 C31.65 1.3, 48.58 6.92, 55.31 9.74 C62.03 12.56, 64.87 19.14, 64.39 19.24 M56.36 9.1 C61.26 13.04, 65.34 19.84, 66.9 26.74 C68.45 33.65, 68.19 43.65, 65.68 50.53 C63.16 57.42, 56.74 63.58, 51.82 68.05 C46.9 72.52, 42.7 76.76, 36.15 77.36 C29.61 77.96, 18.55 75.86, 12.56 71.64 C6.58 67.41, 2.01 59.58, 0.25 52.01 C-1.51 44.43, 0.11 33.95, 2.01 26.2 C3.92 18.44, 6.12 9.68, 11.68 5.48 C17.24 1.27, 28.23 0.44, 35.36 0.96 C42.49 1.48, 51.13 7.62, 54.46 8.61 C57.8 9.6, 55.43 6.21, 55.37 6.88" stroke="none" stroke-width="0" fill="#82c91e"></path><path d="M22.77 3.8 C28.67 0.42, 36.16 -0.92, 42.85 0.75 C49.55 2.42, 58.41 7.49, 62.93 13.83 C67.44 20.18, 70.07 31.25, 69.94 38.81 C69.81 46.37, 66.14 53.04, 62.16 59.17 C58.18 65.3, 52.54 72.88, 46.07 75.57 C39.61 78.26, 29.65 77.14, 23.37 75.33 C17.1 73.51, 12.14 70.73, 8.41 64.68 C4.68 58.64, 1.11 47.31, 1 39.03 C0.89 30.75, 0.47 21.21, 7.76 15.01 C15.04 8.81, 35.49 0.79, 44.72 1.83 C53.96 2.86, 62.87 20.67, 63.18 21.21 M53.48 6.85 C58.99 11, 63.85 20.21, 65.58 27.08 C67.3 33.94, 66.05 40.68, 63.84 48.04 C61.62 55.39, 57.07 66.25, 52.29 71.21 C47.51 76.18, 40.81 77.43, 35.14 77.83 C29.47 78.24, 23.54 77.63, 18.28 73.66 C13.03 69.69, 6.46 61.84, 3.63 54 C0.8 46.16, -0.25 34.16, 1.3 26.62 C2.86 19.09, 7.38 13.3, 12.96 8.8 C18.55 4.3, 28.56 -0.06, 34.81 -0.38 C41.06 -0.7, 47.35 5.23, 50.47 6.87 C53.6 8.5, 53.41 9.03, 53.55 9.41" stroke="#000000" stroke-width="4" fill="none"></path></g><g stroke-linecap="round" transform="translate(936.7921324425128 860.2138987257458) rotate(65.0908650168829 34 39)"><path d="M60.27 15.73 C63.87 21.03, 66.08 30.69, 66.11 38.4 C66.15 46.12, 63.95 55.99, 60.48 62.03 C57.01 68.06, 51.05 72.53, 45.3 74.63 C39.55 76.72, 32.05 76.53, 25.97 74.6 C19.9 72.67, 12.84 68.48, 8.84 63.02 C4.84 57.57, 2.7 49.34, 1.99 41.86 C1.28 34.37, 1.29 24.65, 4.58 18.12 C7.86 11.58, 14.95 5.52, 21.7 2.67 C28.45 -0.19, 37.73 -3.37, 45.08 0.98 C52.42 5.33, 61.99 20.63, 65.77 28.77 C69.54 36.9, 68.12 49.1, 67.71 49.78 M47.14 2.08 C52.78 4.17, 57.74 9.68, 61.65 16.36 C65.56 23.04, 71.13 33.83, 70.6 42.17 C70.07 50.51, 63.55 60.3, 58.46 66.39 C53.38 72.48, 46.39 77.33, 40.07 78.71 C33.75 80.08, 26.92 78.24, 20.55 74.65 C14.18 71.06, 5.12 63.58, 1.85 57.17 C-1.42 50.75, -0.2 43.37, 0.92 36.15 C2.04 28.94, 4.05 20, 8.56 13.86 C13.08 7.72, 21.22 0.8, 28 -0.7 C34.78 -2.2, 46.42 3.91, 49.25 4.87 C52.09 5.82, 45.35 4.67, 45.01 5.03" stroke="none" stroke-width="0" fill="#82c91e"></path><path d="M60.17 10.19 C65.4 15.27, 68.88 26.53, 69.58 34.01 C70.27 41.48, 67.6 48.43, 64.33 55.04 C61.05 61.65, 56.08 70.13, 49.94 73.69 C43.8 77.25, 33.93 77.31, 27.47 76.41 C21.01 75.52, 15.52 73.76, 11.17 68.33 C6.82 62.9, 2.29 52.03, 1.36 43.83 C0.43 35.63, 2.96 25.91, 5.59 19.14 C8.21 12.37, 11.49 6.32, 17.11 3.21 C22.72 0.1, 30.6 -4.64, 39.28 0.47 C47.97 5.58, 65.25 23.98, 69.22 33.88 C73.18 43.77, 64.06 59.5, 63.07 59.86 M35.96 -0.86 C41.83 -0.35, 49.61 7.32, 54.79 12.85 C59.98 18.38, 64.96 24.72, 67.07 32.31 C69.18 39.89, 70.09 51.28, 67.45 58.36 C64.81 65.43, 57.62 71.91, 51.24 74.77 C44.86 77.63, 35.98 76.79, 29.18 75.53 C22.39 74.26, 14.84 72.22, 10.46 67.16 C6.08 62.1, 4.4 52.64, 2.88 45.15 C1.35 37.65, -1.45 28.56, 1.31 22.17 C4.07 15.78, 13.09 10.52, 19.44 6.81 C25.79 3.09, 35.96 1.05, 39.42 -0.12 C42.89 -1.28, 40.22 -1.07, 40.24 -0.17" stroke="#000000" stroke-width="4" fill="none"></path></g><g stroke-linecap="round" transform="translate(1200.7930246289147 765.6114391857386) rotate(65.0908650168829 34 39)"><path d="M42.68 2.93 C49.12 4.35, 56.71 9.14, 61.18 14.81 C65.64 20.47, 69.11 29.07, 69.47 36.92 C69.83 44.76, 67.14 55.07, 63.35 61.87 C59.55 68.66, 53.5 75.11, 46.68 77.67 C39.85 80.23, 29.19 79.75, 22.38 77.22 C15.57 74.69, 9.28 68.91, 5.81 62.48 C2.35 56.06, 1.73 46.7, 1.58 38.67 C1.43 30.64, 1.07 20.07, 4.91 14.29 C8.74 8.5, 16 4.4, 24.59 3.94 C33.17 3.48, 49.58 8.08, 56.42 11.51 C63.25 14.95, 65.97 24.33, 65.58 24.55 M23.77 2.33 C29.56 -0.2, 35.18 0.42, 40.99 2.58 C46.8 4.75, 54.13 9.76, 58.64 15.31 C63.15 20.86, 67.8 28.78, 68.05 35.87 C68.31 42.96, 63.54 51.14, 60.15 57.83 C56.77 64.52, 53.44 72.69, 47.75 76 C42.06 79.3, 32.42 79.88, 26.03 77.66 C19.65 75.45, 13.49 68.37, 9.44 62.7 C5.39 57.03, 2.87 50.82, 1.75 43.64 C0.63 36.47, -0.67 26.41, 2.7 19.65 C6.07 12.89, 19.02 5.28, 21.97 3.1 C24.93 0.91, 20.17 5.7, 20.43 6.54" stroke="none" stroke-width="0" fill="#82c91e"></path><path d="M11.25 8.22 C15.42 2.77, 24.56 0.72, 31 0.03 C37.44 -0.67, 43.99 -0.1, 49.89 4.05 C55.79 8.19, 63.32 17.92, 66.39 24.9 C69.46 31.88, 69.58 39.09, 68.29 45.93 C67 52.77, 64.03 60.8, 58.66 65.96 C53.29 71.12, 43.02 75.73, 36.05 76.88 C29.08 78.02, 22.13 76.68, 16.86 72.84 C11.59 69, 6.92 60.79, 4.42 53.84 C1.92 46.89, -2.66 40, 1.86 31.12 C6.38 22.24, 22.72 4.3, 31.54 0.56 C40.36 -3.17, 54.37 8.48, 54.79 8.72 M19.56 3.34 C26.12 -0.08, 37.01 1.11, 43.85 2.88 C50.69 4.66, 56.57 9.02, 60.58 13.98 C64.58 18.94, 67.36 25.21, 67.89 32.64 C68.41 40.07, 66.66 51.65, 63.75 58.56 C60.83 65.47, 56.87 70.94, 50.39 74.12 C43.92 77.3, 31.62 78.73, 24.91 77.64 C18.19 76.56, 14.14 73.41, 10.1 67.6 C6.07 61.78, 1.42 50.98, 0.72 42.77 C0.02 34.56, 2.49 24.72, 5.89 18.34 C9.29 11.96, 19.19 6.53, 21.11 4.51 C23.03 2.48, 16.91 5.29, 17.42 6.2" stroke="#000000" stroke-width="4" fill="none"></path></g><g stroke-linecap="round"><g transform="translate(770.3801615084323 -4.180819070446773) rotate(65.0908650168829 -9.068230444743989 110.23659677374798)"><path d="M1.07 0.24 C-1.79 36.88, -16.24 185.91, -19.21 222.57 M-1.79 -2.1 C-3.64 34.88, -11.48 180.7, -14.31 218.15" stroke="#5f3dc4" stroke-width="4" fill="none"></path></g><g transform="translate(770.3801615084323 -4.180819070446773) rotate(65.0908650168829 -9.068230444743989 110.23659677374798)"><path d="M-14.93 216.58 L-22.01 200.31 L-3.45 204.14 L-15.59 220.15" stroke="none" stroke-width="0" fill="#5f3dc4" fill-rule="evenodd"></path><path d="M-14.05 215.19 C-14.65 214.71, -18.42 210.31, -17.64 207.18 M-15.69 216.86 C-16.75 213.11, -18.05 209.53, -20.72 205.06 M-19.41 203.99 C-14.45 201.86, -13.3 202.1, -5.64 204.61 M-19.17 204.71 C-15.98 203.37, -12.19 204.59, -6.11 204.8 M-4.78 205.49 C-9.24 209.45, -11.68 212.12, -13.26 215.29 M-6.14 204.53 C-9.06 208.56, -11.71 213.58, -13.49 218 M-14.31 218.15 C-14.31 218.15, -14.31 218.15, -14.31 218.15 M-14.31 218.15 C-14.31 218.15, -14.31 218.15, -14.31 218.15" stroke="#5f3dc4" stroke-width="4" fill="none"></path></g></g><mask></mask><g stroke-linecap="round"><g transform="translate(698.0301709309243 385.3043141147267) rotate(65.0908650168829 141.63731181324025 -124.92960622413102)"><path d="M-2.76 1.09 C44.73 -40.78, 238.1 -209.49, 286.04 -250.95 M0.93 -0.79 C47.93 -42.31, 236.75 -206.12, 283.64 -248.01" stroke="#5f3dc4" stroke-width="4" fill="none"></path></g><g transform="translate(698.0301709309243 385.3043141147267) rotate(65.0908650168829 141.63731181324025 -124.92960622413102)"><path d="M281.41 -251.89 L281.29 -235.12 L267.95 -241.8 L281.99 -245.85" stroke="none" stroke-width="0" fill="#5f3dc4" fill-rule="evenodd"></path><path d="M284.8 -248.34 C280.25 -245.06, 281.72 -235.85, 279.09 -235.66 M282.97 -248.26 C281 -241.76, 277.77 -236.61, 277.59 -235.14 M279.17 -236.77 C273.77 -239.9, 273.6 -240.89, 269.14 -241.29 M277.65 -235.15 C274.51 -237.62, 272.35 -241.42, 268.3 -243.61 M268.71 -242.37 C272.74 -244.17, 280.05 -249.59, 285.66 -245.28 M269.7 -245.2 C275.39 -246.62, 281.5 -247.23, 282.83 -246.91 M283.64 -248.01 C283.64 -248.01, 283.64 -248.01, 283.64 -248.01 M283.64 -248.01 C283.64 -248.01, 283.64 -248.01, 283.64 -248.01" stroke="#5f3dc4" stroke-width="4" fill="none"></path></g></g><mask></mask><g stroke-linecap="round"><g transform="translate(1114.3727560666425 213.46707558069386) rotate(65.0908650168829 -127.77018683250097 -6.949778830233072)"><path d="M-0.3 -1.28 C-42.38 -3.56, -213.46 -10.63, -255.24 -12.62" stroke="#5f3dc4" stroke-width="4.5" fill="none" stroke-dasharray="8 12"></path></g><g transform="translate(1114.3727560666425 213.46707558069386) rotate(65.0908650168829 -127.77018683250097 -6.949778830233072)"><path d="M-254.56 -13.32 L-239.47 -20.15 L-240.45 -4.29 L-259.05 -9.91" stroke="none" stroke-width="0" fill="#5f3dc4" fill-rule="evenodd"></path><path d="M-256.61 -14.19 C-250.36 -10.75, -248.22 -16.29, -238.76 -21.13 M-241.46 -16.59 C-243.2 -14.17, -241.75 -14.41, -241.26 -5.32 M-243.21 -8.64 C-244.15 -8.42, -249.92 -7.03, -253.16 -11.18 M-255.24 -12.62 C-255.24 -12.62, -255.24 -12.62, -255.24 -12.62" stroke="#5f3dc4" stroke-width="4.5" fill="none"></path></g></g><mask></mask><g stroke-linecap="round"><g transform="translate(781.2166719167778 317.888969581025) rotate(65.0908650168829 -100.46967771939883 -9.609551620569647)"><path d="M-1.47 1.99 C-35.28 -0.62, -168.85 -13.97, -203.15 -16.95 M2.93 0.6 C-30.97 -2.72, -168.42 -17.76, -203.87 -21.21" stroke="#a61e4d" stroke-width="4" fill="none"></path></g><g transform="translate(781.2166719167778 317.888969581025) rotate(65.0908650168829 -100.46967771939883 -9.609551620569647)"><path d="M-205.15 -19.21 L-191.33 -23.95 L-190.79 -13.62 L-207.63 -23.3" stroke="none" stroke-width="0" fill="#a61e4d" fill-rule="evenodd"></path><path d="M-201.73 -18.22 C-198.24 -23.87, -193.01 -26.67, -192.28 -27.43 M-204.81 -20.34 C-199.86 -23.66, -195.43 -23.96, -189.81 -25.19 M-188.2 -26.48 C-190.17 -21.08, -188.57 -19.84, -189.96 -13.42 M-188.68 -26.29 C-190.91 -23, -189.75 -19.29, -190.78 -13.72 M-189.96 -16.36 C-193.38 -13.35, -196.9 -16.8, -204.77 -20.29 M-190.18 -13.65 C-194.51 -14.2, -197.74 -15.61, -203.77 -19.73 M-203.87 -21.21 C-203.87 -21.21, -203.87 -21.21, -203.87 -21.21 M-203.87 -21.21 C-203.87 -21.21, -203.87 -21.21, -203.87 -21.21" stroke="#a61e4d" stroke-width="4" fill="none"></path></g></g><mask></mask><g stroke-linecap="round"><g transform="translate(863.9290237032519 507.5846890204705) rotate(65.0908650168829 27.290413175483934 -109.24577069564123)"><path d="M2.79 1.39 C11.99 -34.98, 45.44 -179.12, 53.72 -216.19 M0.87 -0.33 C9.71 -37.61, 41.28 -183.39, 50.77 -219.88" stroke="#a61e4d" stroke-width="4" fill="none"></path></g><g transform="translate(863.9290237032519 507.5846890204705) rotate(65.0908650168829 27.290413175483934 -109.24577069564123)"><path d="M49.13 -217.72 L54.04 -205.32 L37.72 -210.19 L51.78 -218.6" stroke="none" stroke-width="0" fill="#a61e4d" fill-rule="evenodd"></path><path d="M52.26 -221.27 C54.36 -219.08, 49.9 -213.99, 53.32 -205.29 M50.76 -220.74 C52.12 -214.27, 52.73 -208.14, 52.35 -205.83 M53.72 -202.68 C53.06 -204.6, 49.86 -206.32, 39.74 -207.92 M52.89 -205 C50.5 -205.13, 46.39 -207.24, 42.09 -208.67 M43.52 -205.36 C47.52 -209.93, 46.76 -214.94, 47.97 -218.96 M40.68 -206.99 C42 -209.36, 45.52 -211.74, 52.01 -220.86 M50.77 -219.88 C50.77 -219.88, 50.77 -219.88, 50.77 -219.88 M50.77 -219.88 C50.77 -219.88, 50.77 -219.88, 50.77 -219.88" stroke="#a61e4d" stroke-width="4" fill="none"></path></g></g><mask></mask><g stroke-linecap="round"><g transform="translate(903.2349205675622 540.188088004374) rotate(65.0908650168829 -85.19213163231234 -2.92695977872188)"><path d="M-1.3 2.44 C-17.71 -1.25, -67.72 -22.86, -95.69 -20.76 C-123.65 -18.66, -157.05 8.68, -169.09 15.05" stroke="#495057" stroke-width="4.5" fill="none" stroke-dasharray="8 12"></path></g><g transform="translate(903.2349205675622 540.188088004374) rotate(65.0908650168829 -85.19213163231234 -2.92695977872188)"><path d="M-172.9 17.75 L-157.4 6.36 L-151.6 11.86 L-167.86 11.3" stroke="none" stroke-width="0" fill="#495057" fill-rule="evenodd"></path><path d="M-166.47 12.27 C-168.59 8.74, -163.29 4.9, -158.96 0.49 M-160.37 2.75 C-158.8 7.85, -158.65 9.04, -156.72 14.56 M-152.14 14.51 C-157.23 14.02, -164.77 14.7, -168.84 17.44 M-169.09 15.05 C-169.09 15.05, -169.09 15.05, -169.09 15.05" stroke="#495057" stroke-width="4.5" fill="none"></path></g></g><mask></mask><g stroke-linecap="round"><g transform="translate(668.9183495323973 556.6847861469927) rotate(65.0908650168829 84.70320846653414 12.19255746356103)"><path d="M-2.59 -2.42 C12.47 1.33, 59.94 24.43, 89.04 24.92 C118.14 25.41, 158.45 4.65, 172 0.53 M1.2 2.44 C15.89 7.85, 57.98 29.36, 86.13 28.29 C114.29 27.23, 156.17 1.59, 170.14 -3.95" stroke="#495057" stroke-width="4" fill="none"></path></g><g transform="translate(668.9183495323973 556.6847861469927) rotate(65.0908650168829 84.70320846653414 12.19255746356103)"><path d="M166.37 -6.04 L161.68 8.96 L155.13 -2.72 L171.88 -6.09" stroke="none" stroke-width="0" fill="#495057" fill-rule="evenodd"></path><path d="M167.55 -5.27 C167.44 -1.26, 167.62 -0.11, 162.42 7.66 M170.02 -3.02 C166.43 -1.74, 164.14 2.6, 160.45 7.63 M161.72 7.77 C156.56 3.37, 156.31 0.66, 154.78 -5.59 M160.89 7.47 C159.44 3.61, 157.56 1.03, 153.93 -2.86 M154.24 -2.79 C158.2 -3.09, 164.42 -2.46, 169.83 -5.56 M155.24 -2.24 C161.99 -5.04, 167.14 -4.75, 170.42 -2.76 M170.14 -3.95 C170.14 -3.95, 170.14 -3.95, 170.14 -3.95 M170.14 -3.95 C170.14 -3.95, 170.14 -3.95, 170.14 -3.95" stroke="#495057" stroke-width="4" fill="none"></path></g></g><mask></mask><g stroke-linecap="round"><g transform="translate(988.1819041296412 738.741181831802) rotate(65.0908650168829 18.380607858330166 -111.26569542720043)"><path d="M-1.23 -0.47 C5.53 -36.42, 31.74 -181.78, 38 -218.1 M3.29 -3.19 C9.91 -39.71, 29.22 -185.42, 35.71 -222.06" stroke="#495057" stroke-width="4" fill="none"></path></g><g transform="translate(988.1819041296412 738.741181831802) rotate(65.0908650168829 18.380607858330166 -111.26569542720043)"><path d="M36.72 -220.79 L39.92 -206.67 L29.13 -211.72 L37.9 -219.92" stroke="none" stroke-width="0" fill="#495057" fill-rule="evenodd"></path><path d="M35.2 -222.16 C38.42 -220.93, 38.96 -216.08, 38.2 -206.86 M34.23 -222.7 C35.54 -216.71, 38.12 -213.12, 41.41 -206.63 M38.18 -207.49 C35.76 -206.3, 30.83 -210.86, 27.78 -208.52 M40.53 -208.24 C35.65 -207.99, 29.24 -208.3, 28.55 -208.32 M24.59 -208.66 C28.06 -212.55, 33.24 -220.37, 37.92 -224.83 M28.63 -210.56 C31.38 -215.16, 34.07 -218.19, 35.28 -223.16 M35.71 -222.06 C35.71 -222.06, 35.71 -222.06, 35.71 -222.06 M35.71 -222.06 C35.71 -222.06, 35.71 -222.06, 35.71 -222.06" stroke="#495057" stroke-width="4" fill="none"></path></g></g><mask></mask><g stroke-linecap="round"><g transform="translate(1175.1158380703032 471.0639285162007) rotate(65.0908650168829 -79.21159713595199 7.425142950475276)"><path d="M-0.09 1.94 C-26.27 4.41, -132.25 12.8, -158.33 14.32 M-3.58 0.53 C-28.75 2.22, -127.08 8.07, -152.89 10.2" stroke="#a61e4d" stroke-width="4" fill="none"></path></g><g transform="translate(1175.1158380703032 471.0639285162007) rotate(65.0908650168829 -79.21159713595199 7.425142950475276)"><path d="M-152.9 11.19 L-138.03 0.79 L-136.69 17.72 L-155.99 11.6" stroke="none" stroke-width="0" fill="#a61e4d" fill-rule="evenodd"></path><path d="M-150.81 8.31 C-147.76 8.31, -147.88 7.29, -139.33 2.7 M-154.37 11.08 C-148.22 7.62, -141.78 6.09, -139.05 3.55 M-139.56 4.95 C-140.03 4.89, -139.03 11.65, -136.91 16.01 M-139.3 3.37 C-140.61 7.37, -137.99 11.34, -138.06 15.19 M-141.33 17.21 C-143.73 12.27, -145.84 9.34, -150.31 10.4 M-138.1 14.98 C-144.28 14.43, -150.57 10.01, -154.38 11.17 M-152.89 10.2 C-152.89 10.2, -152.89 10.2, -152.89 10.2 M-152.89 10.2 C-152.89 10.2, -152.89 10.2, -152.89 10.2" stroke="#a61e4d" stroke-width="4" fill="none"></path></g></g><mask></mask><g stroke-linecap="round"><g transform="translate(1078.2698785538687 690.2236369915676) rotate(65.0908650168829 86.24071553594962 15.888078965377552)"><path d="M-1.76 1.63 C11.88 5.74, 52.45 22.57, 81.78 26.6 C111.12 30.62, 159 25.71, 174.24 25.8 M2.47 0.04 C15.75 4.31, 51.13 24.5, 79.53 29.35 C107.92 34.19, 157.14 30.35, 172.84 29.13" stroke="#495057" stroke-width="4" fill="none"></path></g><g transform="translate(1078.2698785538687 690.2236369915676) rotate(65.0908650168829 86.24071553594962 15.888078965377552)"><path d="M174.58 26.98 L161.91 38.53 L155.75 25.14 L174.13 29.31" stroke="none" stroke-width="0" fill="#495057" fill-rule="evenodd"></path><path d="M174.59 29.1 C167.32 31.92, 165.59 33.04, 161.56 33.44 M172.62 29.06 C170.8 32.19, 166.66 33.64, 159.77 35.36 M159.36 34.52 C159.81 33.57, 161.14 29.07, 158.4 24.95 M158.51 37.25 C160.56 34.43, 160.01 29.56, 159.23 22.55 M158.54 22.13 C165.59 22.6, 170.58 27.35, 175.8 31.6 M159.12 24.92 C161.76 24.02, 163.98 27.35, 174.31 28.71 M172.84 29.13 C172.84 29.13, 172.84 29.13, 172.84 29.13 M172.84 29.13 C172.84 29.13, 172.84 29.13, 172.84 29.13" stroke="#495057" stroke-width="4" fill="none"></path></g></g><mask></mask><g stroke-linecap="round"><g transform="translate(1306.1345214776843 694.8075152762677) rotate(65.0908650168829 -77.8777834799663 -15.976641411210593)"><path d="M0.75 0.41 C-9.39 -4.68, -34.66 -29.75, -60.87 -32.13 C-87.08 -34.51, -140.56 -17.4, -156.5 -13.88" stroke="#495057" stroke-width="4.5" fill="none" stroke-dasharray="8 12"></path></g><g transform="translate(1306.1345214776843 694.8075152762677) rotate(65.0908650168829 -77.8777834799663 -15.976641411210593)"><path d="M-158.65 -10.94 L-148.64 -20.02 L-141.48 -7.24 L-153.2 -16.5" stroke="none" stroke-width="0" fill="#495057" fill-rule="evenodd"></path><path d="M-156.07 -14.12 C-151.1 -19.76, -150.76 -22.62, -143.19 -23.9 M-143.74 -22.41 C-143.68 -21.62, -142.64 -16.03, -139.73 -11.55 M-139.41 -10.68 C-145.62 -10.25, -149.78 -11.17, -155.46 -16.74 M-156.5 -13.88 C-156.5 -13.88, -156.5 -13.88, -156.5 -13.88" stroke="#495057" stroke-width="4.5" fill="none"></path></g></g><mask></mask><g stroke-linecap="round"><g transform="translate(892.0417024293226 979.3823268752826) rotate(65.0908650168829 62.35883693785564 5.17916097449411)"><path d="M-2.75 -1.19 C10.93 7.26, 60.33 57.65, 81.88 52.42 C103.42 47.19, 133.14 -16.86, 126.54 -32.56 C119.93 -48.26, 56.55 -40.12, 42.26 -41.79" stroke="#364fc7" stroke-width="4.5" fill="none" stroke-dasharray="8 12"></path></g><g transform="translate(892.0417024293226 979.3823268752826) rotate(65.0908650168829 62.35883693785564 5.17916097449411)"><path d="M42.53 -37.84 L59.1 -50.89 L58.03 -37.19 L43 -38.64" stroke="none" stroke-width="0" fill="#364fc7" fill-rule="evenodd"></path><path d="M40.99 -44.74 C47.9 -43.86, 49.97 -42.34, 57.87 -46.83 M55.97 -48.06 C57.87 -44.3, 54.02 -39.23, 56.97 -33.61 M54.57 -34.48 C52.66 -40.29, 49.31 -36.66, 45.24 -39.82 M42.26 -41.79 C42.26 -41.79, 42.26 -41.79, 42.26 -41.79" stroke="#364fc7" stroke-width="4.5" fill="none"></path></g></g><mask></mask><g stroke-linecap="round"><g transform="translate(1004.892516635774 770.7144598133705) rotate(65.0908650168829 -89.83095037260753 8.812532394743748)"><path d="M-2.76 1.64 C-31.99 4.17, -149.44 11.59, -178.14 13.99 M0.94 0.07 C-28.45 3.18, -151.24 15.64, -180.6 17.56" stroke="#a61e4d" stroke-width="4" fill="none"></path></g><g transform="translate(1004.892516635774 770.7144598133705) rotate(65.0908650168829 -89.83095037260753 8.812532394743748)"><path d="M-179.02 19.65 L-169.69 11.18 L-169.25 21.66 L-178.47 19.02" stroke="none" stroke-width="0" fill="#a61e4d" fill-rule="evenodd"></path><path d="M-178.84 17.11 C-178.04 19.27, -173.22 16.23, -166.37 10.16 M-179.41 17.35 C-178.72 16.03, -173.98 15.24, -167.35 9.81 M-166.72 7.65 C-165.63 16.76, -164.44 20.51, -167.28 23.48 M-166.92 9.94 C-167.99 13.63, -168.25 16.39, -166.43 23.95 M-167.72 23.25 C-169.47 20.03, -179.43 15.94, -178.67 20.49 M-166.32 22.27 C-170.64 20.83, -175.08 18.57, -179.22 17.24 M-180.6 17.56 C-180.6 17.56, -180.6 17.56, -180.6 17.56 M-180.6 17.56 C-180.6 17.56, -180.6 17.56, -180.6 17.56" stroke="#a61e4d" stroke-width="4" fill="none"></path></g></g><mask></mask><g stroke-linecap="round"><g transform="translate(1089.811972760563 942.8841370925184) rotate(65.0908650168829 9.217283113393592 -92.75361853119506)"><path d="M-0.41 -0.11 C3.8 -30.63, 18.93 -151.08, 22.52 -181.43 M-4.08 -2.65 C0.26 -34.09, 17.77 -154.65, 21.78 -185.39" stroke="#a61e4d" stroke-width="4" fill="none"></path></g><g transform="translate(1089.811972760563 942.8841370925184) rotate(65.0908650168829 9.217283113393592 -92.75361853119506)"><path d="M19.69 -184.28 L23.46 -172.1 L15.77 -171.34 L18.19 -187.4" stroke="none" stroke-width="0" fill="#a61e4d" fill-rule="evenodd"></path><path d="M21.66 -182.43 C24.91 -181.05, 24.96 -179.51, 24.13 -170.85 M20.68 -185.17 C23.99 -179.79, 24.99 -176.8, 26.91 -171.73 M27.91 -168.74 C24.47 -170.22, 16.95 -171.69, 11.26 -172.03 M25.51 -170.12 C22.26 -170.37, 20.77 -170.59, 14.68 -173.63 M16 -173.65 C14.41 -180.25, 21.42 -178.78, 20.94 -183.5 M13.4 -173.39 C15.55 -178.5, 20.54 -181.66, 21.3 -184.64 M21.78 -185.39 C21.78 -185.39, 21.78 -185.39, 21.78 -185.39 M21.78 -185.39 C21.78 -185.39, 21.78 -185.39, 21.78 -185.39" stroke="#a61e4d" stroke-width="4" fill="none"></path></g></g><mask></mask><g stroke-linecap="round" transform="translate(1736.1509494284323 30.880113174728763) rotate(1.4498777997696684 38 39)"><path d="M24.4 1.57 C30.85 -2.36, 39.65 -2.47, 46.78 -0.42 C53.91 1.63, 62.51 7.94, 67.19 13.88 C71.87 19.82, 74.08 27.81, 74.87 35.22 C75.66 42.63, 75.3 51.65, 71.93 58.33 C68.56 65.02, 61.86 72.18, 54.63 75.31 C47.4 78.44, 36 78.65, 28.54 77.11 C21.07 75.58, 14.29 71.87, 9.85 66.11 C5.4 60.34, 2.86 50.07, 1.87 42.52 C0.88 34.98, -2.33 27.7, 3.93 20.83 C10.19 13.97, 30.85 3.7, 39.44 1.35 C48.04 -1, 55.4 6.04, 55.48 6.74 M12.76 10.96 C16.94 5.6, 24.26 3, 30.83 2.15 C37.4 1.3, 45.48 2.97, 52.17 5.87 C58.86 8.76, 67.3 12.88, 70.98 19.54 C74.66 26.2, 75.17 38.27, 74.24 45.84 C73.31 53.4, 70.42 59.28, 65.4 64.93 C60.37 70.59, 51.68 78.75, 44.07 79.77 C36.47 80.79, 26.12 74.57, 19.76 71.04 C13.41 67.52, 8.92 64.66, 5.96 58.63 C2.99 52.6, 1.01 42.98, 1.95 34.87 C2.89 26.75, 9.65 13.44, 11.59 9.94 C13.52 6.43, 13.13 13, 13.59 13.85" stroke="none" stroke-width="0" fill="#7950f2"></path><path d="M20.77 5.46 C27.34 2.21, 38.5 0.66, 45.94 2.02 C53.39 3.39, 60.47 8.48, 65.42 13.66 C70.38 18.83, 74.95 25.82, 75.66 33.07 C76.36 40.32, 73.21 49.95, 69.66 57.17 C66.11 64.38, 61 73.2, 54.34 76.37 C47.68 79.54, 37.06 77.97, 29.7 76.2 C22.33 74.42, 14.93 71.06, 10.17 65.74 C5.41 60.42, 2.2 51.63, 1.13 44.27 C0.06 36.9, -2.15 28.72, 3.76 21.56 C9.67 14.4, 28.67 4.15, 36.58 1.33 C44.49 -1.5, 51.39 4.37, 51.24 4.6 M54.26 1.43 C60.88 3.84, 67.99 14.17, 71.75 21.3 C75.51 28.44, 77.63 36.91, 76.83 44.23 C76.03 51.55, 71.79 59.6, 66.94 65.23 C62.09 70.85, 55.09 76.88, 47.74 77.98 C40.38 79.08, 29.79 75.28, 22.81 71.82 C15.83 68.37, 9.25 63.34, 5.86 57.25 C2.48 51.16, 1.66 42.69, 2.51 35.29 C3.35 27.9, 6.28 18.9, 10.95 12.9 C15.63 6.89, 23.31 1, 30.57 -0.71 C37.83 -2.42, 50.85 1.46, 54.51 2.62 C58.17 3.79, 52.69 5.78, 52.53 6.26" stroke="#e67700" stroke-width="4" fill="none"></path></g><g transform="translate(1769.4028933912928 47.302948708453414) rotate(1.4498777997696684 4.877998352050781 22.5)"><text x="4.877998352050781" y="0" font-family="Virgil, Segoe UI Emoji" font-size="36px" fill="#e67700" text-anchor="middle" style="white-space: pre;" direction="ltr" dominant-baseline="text-before-edge">1</text></g><g stroke-linecap="round" transform="translate(1996.6071398299673 561.0596953879881) rotate(65.0908650168829 34 39)"><path d="M8.17 16 C11.4 10.22, 17.28 4.14, 23.69 1.84 C30.1 -0.46, 40.01 -0.46, 46.62 2.21 C53.22 4.88, 60.03 11.52, 63.32 17.87 C66.62 24.22, 66.79 32.62, 66.38 40.3 C65.97 47.99, 64.42 58.05, 60.87 63.98 C57.31 69.92, 51.65 73.73, 45.04 75.9 C38.44 78.06, 27.89 79.26, 21.24 76.96 C14.59 74.66, 8.91 68.55, 5.14 62.11 C1.36 55.67, -7.65 48.2, -1.39 38.33 C4.87 28.46, 31.58 3.52, 42.71 2.9 C53.84 2.28, 65.48 34.05, 65.39 34.62 M23.16 2.89 C29.23 0.15, 39.76 -1.31, 46.16 1.47 C52.57 4.25, 57.9 13.07, 61.57 19.58 C65.25 26.09, 68.49 32.69, 68.19 40.51 C67.88 48.33, 64.3 60.93, 59.73 66.52 C55.16 72.1, 46.93 72.32, 40.77 74.02 C34.61 75.72, 28.46 78.85, 22.77 76.7 C17.08 74.55, 10.28 68.19, 6.62 61.13 C2.95 54.07, 0.19 41.98, 0.79 34.36 C1.39 26.74, 5.9 20.85, 10.22 15.42 C14.53 9.99, 24.32 4.2, 26.69 1.75 C29.07 -0.7, 24.28 -0.19, 24.47 0.7" stroke="none" stroke-width="0" fill="#fab005"></path><path d="M60.89 16.99 C64.91 22.09, 68.04 30.09, 67.92 37.39 C67.8 44.7, 63.94 54.06, 60.15 60.82 C56.35 67.58, 51.38 75.58, 45.16 77.97 C38.94 80.35, 29.23 77.71, 22.82 75.12 C16.41 72.52, 10.36 68.27, 6.7 62.41 C3.04 56.54, 1.11 47.36, 0.87 39.95 C0.63 32.53, 1.64 24.01, 5.28 17.91 C8.91 11.8, 16.32 5.83, 22.68 3.31 C29.03 0.79, 36.67 -0.16, 43.41 2.79 C50.14 5.75, 59.13 16.56, 63.08 21.03 C67.04 25.51, 67.12 29.16, 67.14 29.64 M11.46 11.28 C15.83 5.59, 23.62 0.89, 30.48 -0.13 C37.33 -1.14, 46.73 1.93, 52.58 5.18 C58.43 8.43, 62.89 12.72, 65.58 19.39 C68.26 26.06, 69.64 37.07, 68.69 45.21 C67.74 53.35, 64.75 62.74, 59.87 68.24 C54.99 73.75, 46.44 77.61, 39.41 78.25 C32.39 78.89, 23.67 75.95, 17.72 72.09 C11.78 68.22, 6.84 61.38, 3.74 55.06 C0.64 48.73, -2.14 41.77, -0.88 34.12 C0.37 26.48, 8.82 13.11, 11.25 9.21 C13.68 5.3, 13.65 9.96, 13.68 10.67" stroke="#000000" stroke-width="4" fill="none"></path></g><g stroke-linecap="round" transform="translate(1452.397765519421 160.36827980874375) rotate(65.0908650168829 34 39)"><path d="M51.32 4.65 C57.44 7.73, 63.46 16.09, 65.88 23.02 C68.29 29.94, 67.23 38.63, 65.81 46.19 C64.4 53.75, 61.69 63.21, 57.39 68.36 C53.08 73.51, 46.8 76.07, 39.99 77.09 C33.18 78.12, 22.77 77.87, 16.53 74.52 C10.3 71.16, 5.47 63.98, 2.58 56.97 C-0.31 49.95, -2.17 39.91, -0.82 32.45 C0.52 24.99, 5.84 17.39, 10.65 12.21 C15.47 7.04, 19.39 0.27, 28.08 1.39 C36.77 2.52, 56.36 13.33, 62.8 18.95 C69.24 24.58, 67.07 35.31, 66.72 35.15 M51.62 7.72 C57.29 11.34, 63.73 16.82, 66.21 24.2 C68.69 31.58, 68.57 44.89, 66.49 51.99 C64.4 59.09, 58.62 62.23, 53.68 66.83 C48.75 71.42, 43.09 78.55, 36.9 79.58 C30.72 80.61, 22.26 77.81, 16.57 72.99 C10.88 68.17, 4.95 57.84, 2.77 50.67 C0.58 43.49, 1.62 36.9, 3.46 29.95 C5.3 22.99, 9.17 14.13, 13.78 8.95 C18.4 3.77, 24.42 -1.12, 31.13 -1.15 C37.85 -1.17, 50.75 7.26, 54.06 8.82 C57.37 10.39, 51.09 8.16, 50.99 8.25" stroke="none" stroke-width="0" fill="#7950f2"></path><path d="M50.79 5.24 C56.45 9.25, 63.53 19.6, 66.07 26.69 C68.61 33.77, 67.75 40.61, 66.02 47.73 C64.28 54.84, 60.53 64.23, 55.68 69.37 C50.83 74.52, 43.76 77.92, 36.92 78.6 C30.08 79.29, 20.5 77.49, 14.64 73.49 C8.78 69.49, 4.17 61.81, 1.76 54.59 C-0.64 47.37, -1.29 38, 0.21 30.18 C1.72 22.37, 5.34 12.67, 10.78 7.7 C16.21 2.72, 23.83 -1.58, 32.83 0.31 C41.82 2.21, 59.28 13.02, 64.76 19.06 C70.24 25.1, 66.33 36.1, 65.69 36.55 M39.76 0.82 C46.07 0.63, 52.68 2.37, 57.45 7.22 C62.21 12.06, 66.68 21.82, 68.35 29.88 C70.02 37.95, 70.17 48.4, 67.45 55.61 C64.73 62.82, 58.17 69.67, 52.02 73.14 C45.87 76.62, 37.23 77.44, 30.54 76.45 C23.85 75.47, 17.05 71.73, 11.87 67.23 C6.69 62.73, 0.82 57.02, -0.54 49.45 C-1.91 41.89, 0.34 29.31, 3.67 21.84 C7.01 14.36, 14.11 8.27, 19.47 4.6 C24.83 0.93, 32.47 -0.06, 35.82 -0.19 C39.17 -0.33, 39.85 2.84, 39.56 3.77" stroke="#000000" stroke-width="4" fill="none"></path></g><g stroke-linecap="round" transform="translate(1877.021005909212 354.7886411990502) rotate(65.0908650168829 34 39)"><path d="M30.08 0.05 C36.18 -0.92, 45.93 2.97, 52.12 6.94 C58.31 10.91, 64.92 16.71, 67.2 23.85 C69.49 30.99, 67.84 42.07, 65.83 49.79 C63.82 57.52, 60.29 65.4, 55.13 70.2 C49.98 75, 41.45 78.01, 34.91 78.59 C28.38 79.16, 21.6 77.63, 15.92 73.63 C10.25 69.64, 3.3 61.78, 0.87 54.64 C-1.56 47.49, -0.46 38.45, 1.34 30.76 C3.15 23.07, 2.63 12.59, 11.7 8.5 C20.77 4.4, 46.4 2.43, 55.76 6.2 C65.12 9.97, 68.56 30.45, 67.87 31.13 M45.86 4.85 C51.67 6.69, 57.19 8.5, 61.15 14.77 C65.11 21.05, 69.47 34.13, 69.61 42.51 C69.76 50.89, 66.37 59.65, 62.03 65.05 C57.7 70.45, 49.94 72.89, 43.62 74.9 C37.29 76.9, 30.31 79.41, 24.09 77.09 C17.87 74.77, 10.59 67.86, 6.32 61 C2.04 54.14, -1.96 43.3, -1.58 35.93 C-1.2 28.56, 4.42 22.36, 8.6 16.76 C12.77 11.16, 16.84 4.79, 23.48 2.34 C30.12 -0.12, 44.24 2.21, 48.43 2.02 C52.63 1.83, 49.15 0.79, 48.66 1.18" stroke="none" stroke-width="0" fill="#7950f2"></path><path d="M18.58 2.68 C24.05 -1.18, 33.55 -0.76, 40.39 0.95 C47.23 2.66, 55.24 7.15, 59.62 12.94 C64 18.73, 66.05 27.98, 66.65 35.67 C67.25 43.36, 66.39 52.46, 63.22 59.06 C60.06 65.65, 53.84 72.39, 47.64 75.23 C41.45 78.08, 32.32 77.66, 26.06 76.12 C19.81 74.58, 14.17 71.34, 10.13 65.98 C6.09 60.62, 3.07 51.53, 1.82 43.95 C0.58 36.38, -1.12 27.43, 2.64 20.54 C6.41 13.64, 20.1 5.64, 24.4 2.58 C28.7 -0.47, 28.43 1.42, 28.43 2.21 M42.59 0.46 C49.06 2.14, 57.38 8.53, 61.69 14.44 C66 20.36, 68.25 28.78, 68.45 35.95 C68.66 43.12, 66.34 51.16, 62.9 57.44 C59.45 63.73, 54.07 70.09, 47.79 73.66 C41.51 77.24, 31.61 80.65, 25.22 78.88 C18.82 77.1, 13.13 69.19, 9.44 63.01 C5.74 56.83, 4.03 49.16, 3.03 41.8 C2.04 34.43, 0.13 24.77, 3.46 18.81 C6.79 12.86, 17.15 8.81, 23.02 6.05 C28.88 3.3, 35.95 2.79, 38.67 2.31 C41.39 1.82, 38.77 2.98, 39.35 3.15" stroke="#000000" stroke-width="4" fill="none"></path></g><g stroke-linecap="round" transform="translate(1567.68571228179 420.3580828526682) rotate(65.0908650168829 34 39)"><path d="M34.95 -0.58 C41.06 -1.2, 47.18 3.61, 52.26 8.28 C57.34 12.95, 63.28 20.35, 65.42 27.46 C67.57 34.58, 66.95 43.59, 65.14 50.95 C63.32 58.32, 59.87 66.97, 54.53 71.65 C49.2 76.34, 39.73 78.96, 33.12 79.07 C26.52 79.17, 20.2 76.92, 14.92 72.28 C9.63 67.64, 3.48 58.97, 1.41 51.23 C-0.65 43.5, 0.33 33.18, 2.53 25.88 C4.73 18.58, 8.76 11.85, 14.63 7.45 C20.49 3.05, 32.73 0.28, 37.7 -0.53 C42.67 -1.33, 44.52 1.86, 44.45 2.63 M59.3 12.58 C64.63 17.99, 68.03 26.91, 69.02 33.88 C70.01 40.85, 68.07 47.52, 65.24 54.39 C62.42 61.26, 57.97 71.1, 52.09 75.08 C46.22 79.06, 37.23 79.79, 30 78.25 C22.77 76.72, 13.47 70.91, 8.74 65.86 C4.01 60.8, 2.76 55.1, 1.61 47.93 C0.46 40.76, -1.28 30.16, 1.86 22.84 C4.99 15.53, 13.81 8.12, 20.43 4.03 C27.05 -0.06, 35.29 -2.55, 41.6 -1.71 C47.9 -0.86, 55.89 7.31, 58.26 9.12 C60.64 10.92, 56.47 8.19, 55.86 9.12" stroke="none" stroke-width="0" fill="#ced4da"></path><path d="M17.72 6 C22.77 2.11, 29.93 0.94, 36.31 1.81 C42.69 2.67, 51.03 6.23, 56.03 11.21 C61.04 16.18, 65.1 24.63, 66.35 31.67 C67.59 38.72, 65.9 46.62, 63.52 53.49 C61.13 60.37, 57.25 68.87, 52.03 72.92 C46.8 76.98, 39.19 78.57, 32.16 77.82 C25.13 77.06, 14.95 73.35, 9.83 68.39 C4.72 63.43, 2.59 55.42, 1.46 48.05 C0.33 40.68, -1.53 31.82, 3.05 24.17 C7.64 16.52, 22.34 5.74, 28.95 2.16 C35.57 -1.42, 42.85 2.2, 42.72 2.68 M29.24 1.13 C34.99 -0.97, 43.13 -0.33, 49.01 2.84 C54.89 6, 61.67 12.79, 64.54 20.13 C67.4 27.46, 67.12 39.42, 66.2 46.85 C65.28 54.29, 62.99 59.78, 59 64.73 C55.01 69.69, 49.19 75.17, 42.25 76.61 C35.31 78.06, 23.35 76.26, 17.35 73.42 C11.35 70.58, 9.54 66.11, 6.27 59.59 C2.99 53.08, -2.61 42.11, -2.31 34.33 C-2.02 26.55, 2.62 18.79, 8.02 12.92 C13.43 7.05, 26.6 0.8, 30.13 -0.89 C33.67 -2.59, 29.43 1.61, 29.23 2.76" stroke="#000000" stroke-width="4" fill="none"></path></g><g stroke-linecap="round" transform="translate(1683.1659294665487 638.8938913750649) rotate(65.0908650168829 34 39)"><path d="M23.47 2.96 C29.35 0.25, 37.35 0.28, 43.75 2.84 C50.15 5.4, 58.11 11.97, 61.88 18.31 C65.66 24.65, 66.48 33.29, 66.4 40.87 C66.33 48.45, 65.26 58, 61.42 63.81 C57.58 69.62, 49.62 74.04, 43.37 75.74 C37.12 77.43, 29.93 76.48, 23.92 73.99 C17.9 71.5, 11.42 66.91, 7.28 60.8 C3.13 54.68, -1.01 44.84, -0.95 37.31 C-0.89 29.78, -1.63 20.4, 7.63 15.63 C16.89 10.86, 44.44 4.33, 54.62 8.69 C64.8 13.05, 69.23 41.08, 68.71 41.79 M52.05 3.73 C57.83 6.98, 64.74 17.79, 67.38 25.2 C70.03 32.61, 70.03 41.22, 67.93 48.21 C65.84 55.19, 59.77 61.82, 54.82 67.12 C49.88 72.43, 44.87 78.96, 38.24 80.03 C31.61 81.09, 20.56 77.86, 15.05 73.51 C9.53 69.16, 7.04 61.44, 5.14 53.91 C3.24 46.38, 2.49 36.02, 3.67 28.34 C4.84 20.66, 7.87 12.95, 12.18 7.85 C16.49 2.75, 23.13 -2, 29.55 -2.25 C35.97 -2.49, 46.89 4.66, 50.7 6.4 C54.51 8.14, 53.03 7.49, 52.41 8.17" stroke="none" stroke-width="0" fill="#ced4da"></path><path d="M44.67 3.52 C50.83 5.32, 57.48 11.93, 61.1 17.79 C64.71 23.66, 66.24 31.2, 66.38 38.72 C66.52 46.24, 65.43 56.63, 61.91 62.9 C58.4 69.18, 52.08 74.18, 45.29 76.38 C38.5 78.57, 27.62 78.48, 21.19 76.07 C14.76 73.67, 10.22 68.12, 6.72 61.93 C3.22 55.74, 0.21 46.4, 0.19 38.94 C0.18 31.47, 2.54 23.23, 6.63 17.13 C10.71 11.03, 15.57 1.95, 24.7 2.34 C33.82 2.72, 54.38 12.23, 61.38 19.45 C68.38 26.66, 66.77 45.34, 66.7 45.61 M41.51 -0.22 C47.62 1.34, 53.45 9.27, 58 14.86 C62.54 20.46, 67.38 26.17, 68.76 33.32 C70.13 40.47, 69.96 50.94, 66.24 57.78 C62.51 64.62, 52.57 70.66, 46.41 74.36 C40.25 78.05, 36.05 81.28, 29.3 79.94 C22.55 78.6, 11.06 72.25, 5.89 66.32 C0.72 60.38, -1.77 52.4, -1.73 44.33 C-1.69 36.27, 2.39 24.53, 6.15 17.94 C9.9 11.35, 15.01 7.35, 20.82 4.79 C26.64 2.24, 37.48 3.53, 41.04 2.61 C44.59 1.69, 42.23 -1.1, 42.14 -0.74" stroke="#000000" stroke-width="4" fill="none"></path></g><g stroke-linecap="round" transform="translate(1802.9445271308578 881.0946439112381) rotate(65.0908650168829 34 39)"><path d="M54.41 9.41 C59.71 13.42, 62.9 21.38, 64.91 28.63 C66.93 35.88, 68.46 45.95, 66.48 52.9 C64.51 59.85, 58.38 66.45, 53.06 70.33 C47.73 74.2, 40.91 76.25, 34.53 76.15 C28.14 76.04, 20.42 74.13, 14.76 69.69 C9.09 65.26, 2.57 56.75, 0.54 49.55 C-1.49 42.36, 0.4 33.64, 2.56 26.54 C4.73 19.43, 7.95 11.51, 13.53 6.94 C19.12 2.37, 28.06 -3.19, 36.09 -0.86 C44.11 1.47, 56.34 14.76, 61.69 20.92 C67.05 27.09, 68.21 35.91, 68.22 36.13 M16.15 7 C20.56 2.12, 27.34 -1.76, 34.05 -1.12 C40.76 -0.49, 51.21 5.66, 56.41 10.8 C61.6 15.95, 63.26 22.83, 65.21 29.75 C67.17 36.67, 69.77 45.7, 68.15 52.33 C66.52 58.97, 61.31 65.59, 55.45 69.55 C49.58 73.51, 40.3 76.53, 32.96 76.1 C25.61 75.67, 16.79 71.3, 11.39 66.98 C5.98 62.65, 1.83 56.79, 0.54 50.16 C-0.76 43.52, 1.58 34.2, 3.62 27.18 C5.67 20.17, 10.64 11.17, 12.8 8.04 C14.95 4.91, 15.63 8.6, 16.56 8.42" stroke="none" stroke-width="0" fill="#15aabf"></path><path d="M53.18 6.94 C58.76 10.85, 65.12 20.76, 67.52 28.29 C69.91 35.83, 70.21 44.96, 67.56 52.16 C64.91 59.36, 57.27 67.06, 51.62 71.49 C45.97 75.92, 40.05 78.87, 33.68 78.74 C27.31 78.61, 18.83 75.22, 13.39 70.72 C7.95 66.21, 2.85 59.1, 1.02 51.74 C-0.81 44.38, 0.4 33.91, 2.43 26.56 C4.46 19.2, 7.84 11.76, 13.21 7.58 C18.59 3.4, 26 -0.96, 34.69 1.48 C43.38 3.92, 59.85 16.01, 65.36 22.22 C70.87 28.43, 68.55 38.51, 67.75 38.76 M22.55 0.88 C28.99 -2.71, 39.4 -1.8, 45.48 0.37 C51.56 2.54, 54.87 7.39, 59.03 13.92 C63.2 20.45, 70.34 31.64, 70.48 39.56 C70.63 47.47, 64.24 55.21, 59.9 61.41 C55.57 67.62, 49.98 74.46, 44.48 76.78 C38.98 79.1, 32.95 77.27, 26.9 75.35 C20.86 73.42, 12.71 70.63, 8.2 65.23 C3.69 59.84, 0.15 51.27, -0.15 43 C-0.45 34.72, 2.79 22.27, 6.41 15.57 C10.03 8.86, 18.74 4.39, 21.56 2.77 C24.38 1.16, 23.28 5.59, 23.35 5.89" stroke="#000000" stroke-width="4" fill="none"></path></g><g stroke-linecap="round" transform="translate(2066.9454193172596 786.4921843712309) rotate(65.0908650168829 34 39)"><path d="M58.58 12.93 C63.53 17.47, 66.04 25.62, 67.15 32.67 C68.26 39.71, 68.03 48.38, 65.23 55.18 C62.42 61.97, 56.64 69.87, 50.34 73.43 C44.04 76.99, 34.06 77.72, 27.41 76.57 C20.76 75.41, 15.12 71.84, 10.46 66.51 C5.8 61.18, 0.29 52.34, -0.56 44.6 C-1.4 36.87, 2.47 26.68, 5.39 20.11 C8.3 13.54, 11.05 8.28, 16.94 5.19 C22.82 2.1, 32.18 -2.57, 40.7 1.56 C49.22 5.69, 64.03 21.7, 68.05 29.96 C72.08 38.23, 65.38 50.98, 64.83 51.14 M42.27 3.07 C48.55 4.44, 53.08 8.72, 57.74 13.96 C62.39 19.21, 68.77 27.43, 70.19 34.52 C71.6 41.61, 69.87 50.13, 66.23 56.51 C62.59 62.9, 55.14 69.79, 48.36 72.82 C41.58 75.86, 32.25 75.86, 25.53 74.71 C18.8 73.56, 12 70.9, 8.01 65.95 C4.02 60.99, 2.58 52.48, 1.58 45 C0.58 37.52, -1.23 27.79, 2.02 21.08 C5.26 14.37, 14.36 8.54, 21.06 4.72 C27.77 0.91, 39.42 -0.95, 42.27 -1.82 C45.11 -2.68, 38.42 -1.53, 38.14 -0.47" stroke="none" stroke-width="0" fill="#fab005"></path><path d="M16.39 6.79 C20.96 2.27, 26.95 -0.06, 33.47 0.29 C39.98 0.64, 49.92 4.13, 55.48 8.9 C61.04 13.67, 65.12 21.4, 66.81 28.91 C68.51 36.42, 67.87 46.77, 65.66 53.94 C63.46 61.1, 59.31 67.78, 53.6 71.92 C47.88 76.06, 38.15 78.88, 31.37 78.78 C24.58 78.68, 17.75 76.06, 12.89 71.32 C8.03 66.58, 3.95 57.97, 2.2 50.35 C0.46 42.73, -0.32 33.35, 2.42 25.6 C5.16 17.85, 15.02 7.92, 18.63 3.87 C22.24 -0.17, 23.49 0.67, 24.09 1.33 M13.53 6.47 C18.43 2.56, 31.07 2.35, 37.48 2.85 C43.9 3.35, 47.48 5.04, 52.02 9.47 C56.56 13.9, 62.13 22.57, 64.72 29.44 C67.3 36.31, 69.37 43.49, 67.53 50.69 C65.7 57.9, 59.48 67.85, 53.7 72.68 C47.92 77.51, 39.42 80.56, 32.85 79.7 C26.28 78.84, 19.55 72.44, 14.3 67.51 C9.04 62.58, 3.13 56.63, 1.32 50.11 C-0.49 43.6, 1.35 35.91, 3.45 28.41 C5.55 20.91, 11.63 8.77, 13.91 5.1 C16.19 1.44, 16.34 5.97, 17.13 6.44" stroke="#000000" stroke-width="4" fill="none"></path></g><g stroke-linecap="round"><g transform="translate(1636.532556196777 16.699926115045514) rotate(65.0908650168829 -9.159271171495107 111.3338239047273)"><path d="M0.34 2.17 C-2.12 38.52, -13.69 182.62, -16.43 219.33 M-2.92 0.88 C-5.6 37.4, -16.2 185.69, -18.66 221.79" stroke="#5f3dc4" stroke-width="4" fill="none"></path></g><g transform="translate(1636.532556196777 16.699926115045514) rotate(65.0908650168829 -9.159271171495107 111.3338239047273)"><path d="M-17.64 222.64 L-26.19 206.22 L-9.92 211.59 L-20.79 223.08" stroke="none" stroke-width="0" fill="#5f3dc4" fill-rule="evenodd"></path><path d="M-16.33 221.81 C-22.38 218.85, -20.33 216.21, -23.76 209.07 M-18.13 220.57 C-19.83 217.61, -20.85 214.52, -23.73 208.11 M-24.97 206.61 C-18.87 208.8, -18.29 210.71, -12.14 207.6 M-25.18 208.36 C-21.17 208.42, -16.09 207.47, -11.17 209.3 M-13.78 208.61 C-13.27 214.05, -13.01 215.53, -20.38 223.74 M-10.87 208.65 C-11.95 210.86, -14.27 215.78, -17.72 221.43 M-18.66 221.79 C-18.66 221.79, -18.66 221.79, -18.66 221.79 M-18.66 221.79 C-18.66 221.79, -18.66 221.79, -18.66 221.79" stroke="#5f3dc4" stroke-width="4" fill="none"></path></g></g><mask></mask><g stroke-linecap="round"><g transform="translate(1564.182565619269 406.185059300219) rotate(65.0908650168829 141.6544583161225 -125.17552323712056)"><path d="M0.02 -2.16 C47.75 -43.97, 238.83 -207.5, 286.73 -248.71 M-3.42 2.84 C43.94 -40.04, 236.44 -211.69, 284.7 -253.2" stroke="#5f3dc4" stroke-width="4" fill="none"></path></g><g transform="translate(1564.182565619269 406.185059300219) rotate(65.0908650168829 141.6544583161225 -125.17552323712056)"><path d="M282.54 -254.76 L280.14 -236.54 L268.17 -247.69 L287.85 -253.89" stroke="none" stroke-width="0" fill="#5f3dc4" fill-rule="evenodd"></path><path d="M282.39 -252.78 C284.06 -247.77, 281.42 -243.34, 278.15 -236.78 M285.3 -253.43 C283.95 -248.25, 281.22 -244.13, 278.48 -240.15 M280.2 -238.68 C274.63 -240.04, 272.81 -246.49, 270 -246.84 M277.87 -238.84 C276.18 -243.73, 272.45 -246.27, 270.22 -248.26 M270.4 -247.51 C277.68 -251.27, 278.29 -249.84, 283.67 -251.26 M271.49 -250.18 C274.39 -249.71, 277.82 -251.27, 284.26 -252.39 M284.7 -253.2 C284.7 -253.2, 284.7 -253.2, 284.7 -253.2 M284.7 -253.2 C284.7 -253.2, 284.7 -253.2, 284.7 -253.2" stroke="#5f3dc4" stroke-width="4" fill="none"></path></g></g><mask></mask><g stroke-linecap="round"><g transform="translate(1980.5251507549874 234.34782076618615) rotate(65.0908650168829 -126.16040349300056 -6.698197805109544)"><path d="M0.39 0.96 C-41.73 -1.07, -210.55 -11.68, -252.71 -14.36" stroke="#5f3dc4" stroke-width="4.5" fill="none" stroke-dasharray="8 12"></path></g><g transform="translate(1980.5251507549874 234.34782076618615) rotate(65.0908650168829 -126.16040349300056 -6.698197805109544)"><path d="M-252.79 -14.23 L-236.77 -16.51 L-240.71 -9.47 L-250.1 -15.73" stroke="none" stroke-width="0" fill="#5f3dc4" fill-rule="evenodd"></path><path d="M-251.68 -13.22 C-248.15 -14.76, -244.75 -15, -238.09 -18.78 M-236.89 -18.77 C-238.3 -16.52, -239.31 -15.47, -239.31 -8.12 M-241.34 -4.3 C-243.86 -10.18, -246.66 -8.2, -249.87 -17.08 M-252.71 -14.36 C-252.71 -14.36, -252.71 -14.36, -252.71 -14.36" stroke="#5f3dc4" stroke-width="4.5" fill="none"></path></g></g><mask></mask><g stroke-linecap="round"><g transform="translate(1769.3873152559072 561.0688331898663) rotate(65.0908650168829 -82.11772465084414 -2.8689177685498635)"><path d="M2.5 0.61 C-13.05 -2.74, -63.91 -23.02, -92.12 -20.61 C-120.32 -18.2, -154.46 8.86, -166.74 15.07" stroke="#495057" stroke-width="4.5" fill="none" stroke-dasharray="8 12"></path></g><g transform="translate(1769.3873152559072 561.0688331898663) rotate(65.0908650168829 -82.11772465084414 -2.8689177685498635)"><path d="M-164.13 13.7 L-155.92 -0.28 L-150.49 13.29 L-163.56 11.89" stroke="none" stroke-width="0" fill="#495057" fill-rule="evenodd"></path><path d="M-166.08 16.12 C-166.31 11.82, -161.52 8.53, -157.25 3.15 M-158.27 1.6 C-157.56 7.6, -153.46 8.02, -149.41 12.57 M-149 10.61 C-154.32 12.13, -158.08 15.98, -168.12 15.56 M-166.74 15.07 C-166.74 15.07, -166.74 15.07, -166.74 15.07" stroke="#495057" stroke-width="4.5" fill="none"></path></g></g><mask></mask><g stroke-linecap="round"><g transform="translate(1535.0707442207422 577.565531332485) rotate(65.0908650168829 86.10281472197607 11.62434510007418)"><path d="M0.98 -2.27 C15.79 1.78, 62.53 24.61, 91.39 24.95 C120.25 25.28, 160.59 4.05, 174.14 -0.24 M-1.93 2.66 C12.38 7.1, 60.53 29.63, 89.76 28.33 C118.99 27.03, 159.48 -0.77, 173.44 -5.14" stroke="#495057" stroke-width="4" fill="none"></path></g><g transform="translate(1535.0707442207422 577.565531332485) rotate(65.0908650168829 86.10281472197607 11.62434510007418)"><path d="M174.28 -7.61 L162.16 3.21 L157.57 -3.77 L175.32 -2.42" stroke="none" stroke-width="0" fill="#495057" fill-rule="evenodd"></path><path d="M171.01 -3.95 C169.3 1.63, 167.31 4.55, 164.54 6.05 M172.75 -4.23 C171.5 -3.18, 170.06 0.21, 163.27 6.25 M165.06 4.82 C162.81 3.2, 158.32 -2.06, 159.72 -5.19 M163.87 6.47 C162.49 3.31, 159.55 -2.56, 159.27 -5.45 M158.41 -2.63 C161.53 -3.55, 169.86 -3.33, 172.72 -6.03 M158.08 -5.74 C163.08 -4.69, 169.2 -5.98, 173.34 -3.99 M173.44 -5.14 C173.44 -5.14, 173.44 -5.14, 173.44 -5.14 M173.44 -5.14 C173.44 -5.14, 173.44 -5.14, 173.44 -5.14" stroke="#495057" stroke-width="4" fill="none"></path></g></g><mask></mask><g stroke-linecap="round"><g transform="translate(1944.9871802642986 710.5085291220361) rotate(65.0908650168829 85.47368764291707 15.52594275346219)"><path d="M0.57 0.6 C13.76 5.05, 52.4 23.75, 81.23 27.87 C110.05 31.99, 158.39 25.28, 173.52 25.3 M-2.57 -1.54 C10.03 3.17, 49.73 25.9, 78.8 30.8 C107.87 35.7, 156.34 29.16, 171.85 27.85" stroke="#495057" stroke-width="4" fill="none"></path></g><g transform="translate(1944.9871802642986 710.5085291220361) rotate(65.0908650168829 85.47368764291707 15.52594275346219)"><path d="M173.72 30.57 L155.5 37.75 L158.75 24.76 L173.31 24.26" stroke="none" stroke-width="0" fill="#495057" fill-rule="evenodd"></path><path d="M172.49 27.47 C165.71 31.02, 161.16 32.23, 160.76 36.43 M171.22 27.67 C170.17 31.03, 164.44 32.13, 158 36.23 M160.22 35.33 C160.07 31.97, 156.16 26.62, 157.77 24.14 M159.78 35.07 C159.36 29.77, 158.49 25.81, 158.7 21.88 M156.97 22 C164.33 21.69, 169.5 25.5, 170.41 26.5 M157.58 24.04 C161.81 23.26, 168.05 27.16, 172.61 28.66 M171.85 27.85 C171.85 27.85, 171.85 27.85, 171.85 27.85 M171.85 27.85 C171.85 27.85, 171.85 27.85, 171.85 27.85" stroke="#495057" stroke-width="4" fill="none"></path></g></g><mask></mask><g stroke-linecap="round"><g transform="translate(2172.104862574001 716.0096819358707) rotate(65.0908650168829 -75.97505924835343 -16.72169773794525)"><path d="M0.25 -1.04 C-10.02 -6.19, -36.54 -29.78, -61.95 -32.16 C-87.36 -34.54, -137.46 -18.27, -152.2 -15.32" stroke="#495057" stroke-width="4.5" fill="none" stroke-dasharray="8 12"></path></g><g transform="translate(2172.104862574001 716.0096819358707) rotate(65.0908650168829 -75.97505924835343 -16.72169773794525)"><path d="M-153.38 -13.17 L-144.28 -22.45 L-138.43 -14.45 L-153.99 -13.87" stroke="none" stroke-width="0" fill="#495057" fill-rule="evenodd"></path><path d="M-153.32 -16.71 C-146.96 -17.14, -147.24 -17.92, -141.48 -26.07 M-142.89 -23.66 C-141.08 -20.1, -137.31 -18.96, -137.05 -11.26 M-139.86 -12.59 C-141.72 -11.77, -143.65 -14.95, -153.92 -13.37 M-152.2 -15.32 C-152.2 -15.32, -152.2 -15.32, -152.2 -15.32" stroke="#495057" stroke-width="4.5" fill="none"></path></g></g><mask></mask><g stroke-linecap="round"><g transform="translate(1758.1940971176678 1000.2630720607749) rotate(65.0908650168829 64.00721171762541 4.157646186145598)"><path d="M0.86 -1.68 C15.63 6.36, 66.5 55.12, 87.32 49.94 C108.14 44.76, 133.35 -17.6, 125.77 -32.77 C118.2 -47.94, 56.67 -39.47, 41.87 -41.08" stroke="#364fc7" stroke-width="4.5" fill="none" stroke-dasharray="8 12"></path></g><g transform="translate(1758.1940971176678 1000.2630720607749) rotate(65.0908650168829 64.00721171762541 4.157646186145598)"><path d="M40.9 -43 L53.57 -46.18 L55.93 -36.81 L41.58 -38" stroke="none" stroke-width="0" fill="#364fc7" fill-rule="evenodd"></path><path d="M40.06 -38.2 C44.31 -44.08, 48.28 -41.95, 58.2 -50.35 M56.63 -48.8 C55.68 -41.98, 55.16 -37.42, 56.43 -36.98 M58.05 -35.83 C49.75 -34.69, 46.37 -36.53, 39.75 -40.06 M41.87 -41.08 C41.87 -41.08, 41.87 -41.08, 41.87 -41.08" stroke="#364fc7" stroke-width="4.5" fill="none"></path></g></g><mask></mask><g stroke-linecap="round"><g transform="translate(1765.5532286499922 681.3539724666796) rotate(0 108.40930003582571 -33.1660689328813)"><path d="M-1.26 -0.84 C35.41 -11.9, 181.08 -54.38, 218.08 -65.5" stroke="#495057" stroke-width="4.5" fill="none" stroke-dasharray="1.5 10"></path></g><g transform="translate(1765.5532286499922 681.3539724666796) rotate(0 108.40930003582571 -33.1660689328813)"><path d="M219.4 -63.93 L208.27 -54.91 L206.82 -71.18 L216.01 -66.44" stroke="none" stroke-width="0" fill="#495057" fill-rule="evenodd"></path><path d="M217.18 -67.6 C217.93 -62.55, 213.15 -58.68, 205.46 -52.67 M205.76 -56.11 C206.35 -61.16, 202.79 -67.11, 202.15 -66.98 M203.63 -68.55 C207.78 -68.47, 208.49 -66.26, 219.32 -64.01 M218.08 -65.5 C218.08 -65.5, 218.08 -65.5, 218.08 -65.5" stroke="#495057" stroke-width="4.5" fill="none"></path></g></g><mask></mask></svg>