<svg version="1.1" xmlns="http://www.w3.org/2000/svg" viewBox="0 0 532.4999945679106 496.12603101593396" width="532.4999945679106" height="496.12603101593396">
  <!-- svg-source:excalidraw -->
  
  <defs>
    <style class="style-fonts">
      @font-face {
        font-family: "Virgil";
        src: url("https://excalidraw.com/Virgil.woff2");
      }
      @font-face {
        font-family: "Cascadia";
        src: url("https://excalidraw.com/Cascadia.woff2");
      }
    </style>
    
  </defs>
  <rect x="0" y="0" width="532.4999945679106" height="496.12603101593396" fill="#ffffff"></rect><g stroke-linecap="round"><g transform="translate(380.18406585979733 437.51146014464314) rotate(0 -165.65307626252718 -162.84780241119213)"><path d="M-2.61 -1.65 C-16.38 -74.56, -24.27 -146.79, -36.06 -203.99 M1.07 -0.13 C-15.68 -74.6, -26.6 -146.97, -37.52 -202.52 M-40.77 -199.7 C-58.43 -214.9, -84.11 -233.39, -136.28 -282.4 M-39.49 -200.6 C-69.38 -227.28, -98.03 -254.35, -132.21 -280.05 M-135.72 -278.24 C-175.16 -290.51, -213.38 -311.35, -266.7 -325.14 M-132.91 -278.37 C-158.49 -292.99, -185.45 -301.01, -262 -325.56 M-262.02 -324.65 C-285 -323.78, -298.28 -320.5, -332.37 -325.18 M-264.75 -324.37 C-291.75 -322.33, -315.84 -321.78, -331.15 -320.54" stroke="#1971c2" stroke-width="4" fill="none"></path></g><g transform="translate(380.18406585979733 437.51146014464314) rotate(0 -165.65307626252718 -162.84780241119213)"><path d="M-328.51 -323.63 L-319.86 -331.32 L-315.49 -314.37 L-327.17 -316.98" stroke="none" stroke-width="0" fill="#1971c2" fill-rule="evenodd"></path><path d="M-333.35 -321.93 C-329.07 -324.55, -319.42 -326.76, -316.15 -329.16 M-330.25 -320.65 C-327.76 -324.44, -320.36 -325.69, -317.38 -327.91 M-319.59 -326.07 C-316.87 -322.76, -319.22 -320.36, -318.93 -316.53 M-318.78 -326.65 C-317.98 -323.26, -316.71 -320.73, -316.35 -315.04 M-318.83 -313.68 C-322.41 -313.89, -324.89 -320.98, -333.29 -321.52 M-316.72 -313.78 C-319 -317.79, -321.89 -318.15, -329.77 -321.84 M-331.15 -320.54 C-331.15 -320.54, -331.15 -320.54, -331.15 -320.54 M-331.15 -320.54 C-331.15 -320.54, -331.15 -320.54, -331.15 -320.54" stroke="#1971c2" stroke-width="4" fill="none"></path></g></g><mask></mask><g stroke-linecap="round"><g transform="translate(10.34566215276709 432.64911340489635) rotate(0 255.9043351311882 -0.1418770410512309)"><path d="M0.11 -1.45 C202.15 2.64, 403.89 1.3, 512.15 -1.13 M-0.35 -0.66 C131.54 -0.99, 262.14 -1.46, 512 0.02" stroke="#1e1e1e" stroke-width="4" fill="none"></path></g><g transform="translate(10.34566215276709 432.64911340489635) rotate(0 255.9043351311882 -0.1418770410512309)"><path d="M513.05 1.97 L497.09 5.66 L497.28 -6.83 L508.41 -2.11" stroke="none" stroke-width="0" fill="#1e1e1e" fill-rule="evenodd"></path><path d="M512.21 -2.7 C505.91 3.73, 499.02 3.71, 499.57 4.18 M511.35 -1.21 C509.47 1.09, 505.13 1.82, 499.28 6.34 M497.04 8.51 C500.39 1.02, 500.1 -0.6, 499.59 -6.42 M498.41 5.94 C497.54 4.06, 498.88 1.22, 497.35 -7.28 M497.45 -6.86 C498.84 -2.28, 507.19 -2.69, 512.18 -1.34 M499.74 -6.23 C502.76 -3.95, 505.54 -2.26, 513.39 -0.37 M512 0.02 C512 0.02, 512 0.02, 512 0.02 M512 0.02 C512 0.02, 512 0.02, 512 0.02" stroke="#1e1e1e" stroke-width="4" fill="none"></path></g></g><mask></mask><g stroke-linecap="round"><g transform="translate(43.40961998304442 467.6580099310725) rotate(0 -0.6378627963742929 -228.17212714022395)"><path d="M0.46 1.31 C-5.21 -125.77, -2.01 -246.17, 1.37 -457.66 M-0.88 -0.01 C-1.51 -131.31, -1.73 -261.86, 0.03 -455.87" stroke="#1e1e1e" stroke-width="4" fill="none"></path></g><g transform="translate(43.40961998304442 467.6580099310725) rotate(0 -0.6378627963742929 -228.17212714022395)"><path d="M-2.24 -456.18 L5.5 -439.57 L-5.48 -440.51 L-3.58 -454.15" stroke="none" stroke-width="0" fill="#1e1e1e" fill-rule="evenodd"></path><path d="M0.76 -453.79 C-0.51 -455.14, 6.25 -445.88, 8.44 -444.73 M-1.37 -455.89 C2.27 -453.2, 3.71 -449.24, 6.32 -441.9 M7.48 -442.42 C1.3 -442.24, -1.09 -444.06, -4.3 -444.24 M7.13 -441.76 C2.1 -441.39, -3.07 -442.96, -5.49 -443.44 M-7.18 -442.28 C-5.36 -445.93, 0.16 -452.21, 1.19 -453.02 M-5.2 -443.32 C-5.17 -447.29, -2.22 -453.92, -0.29 -454.51 M0.03 -455.87 C0.03 -455.87, 0.03 -455.87, 0.03 -455.87 M0.03 -455.87 C0.03 -455.87, 0.03 -455.87, 0.03 -455.87" stroke="#1e1e1e" stroke-width="4" fill="none"></path></g></g><mask></mask><g transform="translate(364.8103717333795 451.12603101593396) rotate(0 9.967994689941406 17.5)"><text x="19.935989379882812" y="0" font-family="Virgil, Segoe UI Emoji" font-size="28px" fill="#1e1e1e" text-anchor="end" style="white-space: pre;" direction="ltr" dominant-baseline="text-before-edge">sqrt 2</text></g><g transform="translate(16.666345167516283 104.9269431459694) rotate(0 9.967994689941406 17.5)"><text x="19.935989379882812" y="0" font-family="Virgil, Segoe UI Emoji" font-size="28px" fill="#1e1e1e" text-anchor="end" style="white-space: pre;" direction="ltr" dominant-baseline="text-before-edge">sqrt 2</text></g><g stroke-linecap="round"><g transform="translate(247.62818305240557 159.38522663113235) rotate(0 -60.658897460159665 -38.033485808290294)"><path d="M-0.66 1.84 C-48.78 -28.17, -95.46 -57.07, -123.25 -77.91 M1.94 -1.76 C-37.9 -20.41, -70.02 -41.91, -121.81 -74.94" stroke="#e03131" stroke-width="2" fill="none"></path></g><g transform="translate(247.62818305240557 159.38522663113235) rotate(0 -60.658897460159665 -38.033485808290294)"><path d="M-119 -73.73 L-108.9 -73.47 L-115.44 -63.55 L-120.75 -76.84" stroke="none" stroke-width="0" fill="#e03131" fill-rule="evenodd"></path><path d="M-122.31 -73.56 C-116.89 -74.75, -110.37 -73.67, -108.22 -75.24 M-120.36 -76.27 C-118.79 -75.41, -112.03 -74.62, -107.14 -73.01 M-108.34 -71.02 C-107.98 -70.86, -111.63 -62.31, -113.76 -62.29 M-107.71 -74.11 C-110.29 -68.21, -112.98 -63.46, -113.74 -62.51 M-114.75 -59.92 C-113.93 -66.42, -117.99 -70.99, -119.96 -77.78 M-112.66 -63.18 C-116.32 -65.52, -120.39 -72.09, -120.72 -76.06 M-121.81 -74.94 C-121.81 -74.94, -121.81 -74.94, -121.81 -74.94 M-121.81 -74.94 C-121.81 -74.94, -121.81 -74.94, -121.81 -74.94" stroke="#e03131" stroke-width="2" fill="none"></path></g></g><mask></mask><g stroke-linecap="round"><g transform="translate(248.60065240035487 162.30263467498034) rotate(0 -60.36372752857892 -1.7132239217199583)"><path d="M1.23 0.38 C-28.1 -0.88, -55.76 -0.62, -121.96 -3.81" stroke="#e03131" stroke-width="2.5" fill="none" stroke-dasharray="8 10"></path></g><g transform="translate(248.60065240035487 162.30263467498034) rotate(0 -60.36372752857892 -1.7132239217199583)"><path d="M-122.83 -3.63 L-106.7 -9.4 L-106.71 4.68 L-121.64 -4.17" stroke="none" stroke-width="0" fill="#e03131" fill-rule="evenodd"></path><path d="M-121.04 -3.52 C-118.21 -5.04, -114.14 -5.36, -109.15 -8.79 M-108.01 -8.88 C-109.32 -7.15, -108.72 -3.33, -109.83 3.31 M-108.06 3.68 C-113.25 0.15, -116.74 -1.49, -121.95 -4.8 M-121.96 -3.81 C-121.96 -3.81, -121.96 -3.81, -121.96 -3.81" stroke="#e03131" stroke-width="2.5" fill="none"></path></g></g><mask></mask><g stroke-linecap="round"><g transform="translate(251.51806044420323 159.3852266311324) rotate(0 -0.6325739912473409 -39.262297795875114)"><path d="M-0.04 -0.86 C-0.08 -20.86, -0.27 -44.81, -1.23 -77.67" stroke="#e03131" stroke-width="2.5" fill="none" stroke-dasharray="8 10"></path></g><g transform="translate(251.51806044420323 159.3852266311324) rotate(0 -0.6325739912473409 -39.262297795875114)"><path d="M-2.25 -76.39 L7.26 -65.83 L-9.02 -65.91 L-1.98 -77.98" stroke="none" stroke-width="0" fill="#e03131" fill-rule="evenodd"></path><path d="M-1.26 -78.31 C0.84 -72.86, 3.19 -70.36, 6.71 -63.41 M4.85 -64.31 C1.71 -65.49, 0.49 -64.6, -7.25 -62.83 M-8.41 -65.34 C-4.4 -69.92, -2.24 -72.48, -0.06 -79 M-1.23 -77.67 C-1.23 -77.67, -1.23 -77.67, -1.23 -77.67" stroke="#e03131" stroke-width="2.5" fill="none"></path></g></g><mask></mask><g stroke-linecap="round"><g transform="translate(234.01361218111492 293.585996648141) rotate(0 -48.97140932803745 1.541850422418122)"><path d="M0.43 0.43 C-24.11 2.57, -47.06 2.31, -98.37 2.65" stroke="#2f9e44" stroke-width="2.5" fill="none" stroke-dasharray="8 10"></path></g><g transform="translate(234.01361218111492 293.585996648141) rotate(0 -48.97140932803745 1.541850422418122)"><path d="M-100.19 3.34 L-86.55 -2.72 L-83.03 9.66 L-97.68 2.78" stroke="none" stroke-width="0" fill="#2f9e44" fill-rule="evenodd"></path><path d="M-98.05 2.98 C-94.89 2.45, -90.53 -0.03, -83.47 -4.69 M-85.17 -3.06 C-84.12 1.52, -84.18 5.45, -84.29 8.83 M-84.75 7.77 C-88.75 6.25, -91.23 6.46, -98.35 1.76 M-98.37 2.65 C-98.37 2.65, -98.37 2.65, -98.37 2.65" stroke="#2f9e44" stroke-width="2.5" fill="none"></path></g></g><mask></mask><g stroke-linecap="round"><g transform="translate(234.01361218111515 291.6410579522424) rotate(0 0.6399330095224514 -31.808731356277747)"><path d="M1.78 1.67 C0.74 -19.15, -0.75 -41.08, -0.46 -65.29" stroke="#2f9e44" stroke-width="2.5" fill="none" stroke-dasharray="8 10"></path></g><g transform="translate(234.01361218111515 291.6410579522424) rotate(0 0.6399330095224514 -31.808731356277747)"><path d="M0.58 -63.58 L6.72 -51.05 L-6.58 -50.78 L-1.19 -66.88" stroke="none" stroke-width="0" fill="#2f9e44" fill-rule="evenodd"></path><path d="M0.87 -64.03 C2.06 -59.6, 2.78 -55.99, 4.9 -51.84 M6.95 -51.07 C3.12 -51.19, -1.01 -52.03, -6.96 -51.15 M-7.75 -50.86 C-3.89 -55.69, -3.76 -61.13, -1.68 -65.53 M-0.46 -65.29 C-0.46 -65.29, -0.46 -65.29, -0.46 -65.29" stroke="#2f9e44" stroke-width="2.5" fill="none"></path></g></g><mask></mask><g transform="translate(167.0708436675377 293.585996648141) rotate(0 22.287986755371094 17.5)"><text x="44.57597351074219" y="0" font-family="Virgil, Segoe UI Emoji" font-size="28px" fill="#2f9e44" text-anchor="end" style="white-space: pre;" direction="ltr" dominant-baseline="text-before-edge">-2y</text></g><g transform="translate(245.50676149205583 249.82487599042082) rotate(0 7.8679962158203125 17.5)"><text x="15.735992431640625" y="0" font-family="Virgil, Segoe UI Emoji" font-size="28px" fill="#2f9e44" text-anchor="end" style="white-space: pre;" direction="ltr" dominant-baseline="text-before-edge">x</text></g><g transform="translate(175.15296990454704 242.04512120682597) rotate(0 8.035995483398438 17.5)"><text x="16.071990966796875" y="0" font-family="Virgil, Segoe UI Emoji" font-size="28px" fill="#2f9e44" text-anchor="end" style="white-space: pre;" direction="ltr" dominant-baseline="text-before-edge">F</text></g></svg>