<svg version="1.1" xmlns="http://www.w3.org/2000/svg" viewBox="0 0 928.3473480328203 443.98773917973534" width="928.3473480328203" height="443.98773917973534">
  <!-- svg-source:excalidraw -->
  
  <defs>
    <style class="style-fonts">
      @font-face {
        font-family: "Virgil";
        src: url("https://excalidraw.com/Virgil.woff2");
      }
      @font-face {
        font-family: "Cascadia";
        src: url("https://excalidraw.com/Cascadia.woff2");
      }
    </style>
    
  </defs>
  <rect x="0" y="0" width="928.3473480328203" height="443.98773917973534" fill="#ffffff"></rect><g stroke-linecap="round"><g transform="translate(354.9431134381243 394.60717885087524) rotate(0 -149.60164205216643 -75.34718562070137)"><path d="M-1.02 1.23 C-63.8 -34.01, -124.58 -62.82, -299.02 -150.88 M-0.18 -0.38 C-68.59 -36.12, -137.32 -71.08, -298.87 -151.92" stroke="#2f9e44" stroke-width="2" fill="none"></path></g><g transform="translate(354.9431134381243 394.60717885087524) rotate(0 -149.60164205216643 -75.34718562070137)"><path d="M-298.73 -152.8 L-283.75 -151.05 L-290.34 -141.6 L-299.51 -153.4" stroke="none" stroke-width="0" fill="#2f9e44" fill-rule="evenodd"></path><path d="M-300.01 -150.56 C-296.96 -153.09, -292.7 -150.21, -283.32 -150.57 M-299.07 -152.35 C-296.04 -151.73, -292.45 -151.73, -283.15 -151.73 M-283.05 -150.29 C-286.08 -146.67, -286.7 -142.63, -290.33 -139.74 M-284.44 -151.88 C-285.67 -147.65, -287.83 -143, -289.92 -140.41 M-290.41 -139.8 C-291.85 -142.15, -293.7 -145.16, -299.85 -151.09 M-289.35 -139.96 C-293.43 -143.93, -296.49 -148.44, -298.39 -151.54 M-298.87 -151.92 C-298.87 -151.92, -298.87 -151.92, -298.87 -151.92 M-298.87 -151.92 C-298.87 -151.92, -298.87 -151.92, -298.87 -151.92" stroke="#2f9e44" stroke-width="2" fill="none"></path></g></g><mask></mask><g stroke-linecap="round"><g transform="translate(353.9706440901746 394.60717885087536) rotate(0 -151.5589438980934 -0.10401283566081077)"><path d="M-0.44 1.41 C-112.77 -3.23, -224.3 -1.57, -302.67 0.06" stroke="#2f9e44" stroke-width="2.5" fill="none" stroke-dasharray="8 10"></path></g><g transform="translate(353.9706440901746 394.60717885087536) rotate(0 -151.5589438980934 -0.10401283566081077)"><path d="M-304.41 -1.6 L-290.82 -6.87 L-290.79 4.69 L-303.59 1.94" stroke="none" stroke-width="0" fill="#2f9e44" fill-rule="evenodd"></path><path d="M-303.13 1.5 C-298.41 -3.09, -292.84 -3.49, -290.43 -5.53 M-289.97 -7.25 C-289.53 -1.49, -289.12 1.3, -288.04 5.38 M-289.68 6.99 C-295.44 3.23, -298.52 1.11, -302.06 1.02 M-302.67 0.06 C-302.67 0.06, -302.67 0.06, -302.67 0.06" stroke="#2f9e44" stroke-width="2.5" fill="none"></path></g></g><mask></mask><g stroke-linecap="round"><g transform="translate(354.9431134381243 392.66224015497653) rotate(0 -2.107760305681154 -74.44848237856723)"><path d="M-0.55 1.97 C-2.79 -40.72, -3.23 -82.04, -3.67 -150.87" stroke="#2f9e44" stroke-width="2.5" fill="none" stroke-dasharray="8 10"></path></g><g transform="translate(354.9431134381243 392.66224015497653) rotate(0 -2.107760305681154 -74.44848237856723)"><path d="M-2.61 -149.09 L1.37 -136.46 L-8.43 -139.19 L-4.71 -152.21" stroke="none" stroke-width="0" fill="#2f9e44" fill-rule="evenodd"></path><path d="M-4.08 -149.39 C-2.66 -146.15, -0.59 -141.89, 2.22 -136.7 M2.19 -136.78 C1.26 -137.03, -3.89 -136.63, -10.67 -136.65 M-10.13 -138.03 C-7.67 -140.53, -7 -146.3, -3.14 -151.19 M-3.67 -150.87 C-3.67 -150.87, -3.67 -150.87, -3.67 -150.87" stroke="#2f9e44" stroke-width="2.5" fill="none"></path></g></g><mask></mask><g stroke-linecap="round"><g transform="translate(351.0532360463269 392.66224015497664) rotate(0 -149.43458409067887 -168.3452089965847)"><path d="M-0.9 0.17 C-104.59 -120.37, -211.25 -240.16, -298.37 -336.08 M-0.43 -0.31 C-91.11 -104.55, -182.82 -207.5, -298.44 -336.86" stroke="#e03131" stroke-width="2" fill="none"></path></g><g transform="translate(351.0532360463269 392.66224015497664) rotate(0 -149.43458409067887 -168.3452089965847)"><path d="M-299.35 -338.08 L-285.13 -329.02 L-296.01 -323.22 L-298.51 -338.82" stroke="none" stroke-width="0" fill="#e03131" fill-rule="evenodd"></path><path d="M-299.84 -336.59 C-292.7 -335.51, -288.19 -333.21, -284.39 -330.33 M-299.1 -337.34 C-293.93 -335.65, -290.01 -333.53, -284.5 -331.55 M-285.69 -331.22 C-287.15 -328.84, -291.91 -324.45, -293.92 -323.51 M-284.95 -330.61 C-286.57 -328.95, -289.54 -326.19, -294.52 -321.92 M-293.51 -322.91 C-295.78 -325.35, -297.04 -329.74, -297.55 -338.26 M-293.82 -322.66 C-295.54 -327.32, -297.68 -332.35, -297.93 -336.7 M-298.44 -336.86 C-298.44 -336.86, -298.44 -336.86, -298.44 -336.86 M-298.44 -336.86 C-298.44 -336.86, -298.44 -336.86, -298.44 -336.86" stroke="#e03131" stroke-width="2" fill="none"></path></g></g><mask></mask><g stroke-linecap="round"><g transform="translate(58.33996231357605 241.92949122282914) rotate(0 45.93857419298274 -40.15384911275558)"><path d="M-1.1 0.1 C31.62 -24.92, 61.14 -54.2, 92.97 -80.41" stroke="#1971c2" stroke-width="2.5" fill="none" stroke-dasharray="8 10"></path></g></g><mask></mask><g stroke-linecap="round"><g transform="translate(49.5877381820319 393.63470950292594) rotate(0 88.66647201407193 -74.78922214709414)"><path d="M0.49 0.46 C63.07 -55.93, 129.49 -107.11, 176.84 -150.04" stroke="#1971c2" stroke-width="2.5" fill="none" stroke-dasharray="8 10"></path></g></g><mask></mask><g stroke-linecap="round"><g transform="translate(350.0807666983774 236.09467513513312) rotate(0 -36.31300035598315 29.886370894487584)"><path d="M1.56 0.4 C-17.29 12.83, -32.9 25.53, -74.18 59.37" stroke="#1971c2" stroke-width="2.5" fill="none" stroke-dasharray="8 10"></path></g></g><mask></mask><g transform="translate(31.570808519336424 212.7554107843489) rotate(0 8.035995483398438 17.5)"><text x="16.071990966796875" y="0" font-family="Virgil, Segoe UI Emoji" font-size="28px" fill="#2f9e44" text-anchor="end" style="white-space: pre;" direction="ltr" dominant-baseline="text-before-edge">F</text></g><g transform="translate(10 375.15779189188856) rotate(0 15.90399169921875 17.5)"><text x="31.8079833984375" y="0" font-family="Virgil, Segoe UI Emoji" font-size="28px" fill="#2f9e44" text-anchor="end" style="white-space: pre;" direction="ltr" dominant-baseline="text-before-edge">Fx</text></g><g transform="translate(358.80309177621416 218.59022687204504) rotate(0 14.60198974609375 17.5)"><text x="29.2039794921875" y="0" font-family="Virgil, Segoe UI Emoji" font-size="28px" fill="#2f9e44" text-anchor="end" style="white-space: pre;" direction="ltr" dominant-baseline="text-before-edge">Fy</text></g><g transform="translate(51.47571990478809 24.096357282177337) rotate(0 7.321998596191406 17.5)"><text x="14.643997192382812" y="0" font-family="Virgil, Segoe UI Emoji" font-size="28px" fill="#e03131" text-anchor="end" style="white-space: pre;" direction="ltr" dominant-baseline="text-before-edge">v</text></g><g stroke-linecap="round"><g transform="translate(892.0906756381883 389.263045700242) rotate(0 -142.27681427880907 0.4081272856297957)"><path d="M-0.63 -0.92 C-76.76 0.55, -153.49 2.94, -283.92 1.03" stroke="#e03131" stroke-width="2.5" fill="none" stroke-dasharray="8 10"></path></g><g transform="translate(892.0906756381883 389.263045700242) rotate(0 -142.27681427880907 0.4081272856297957)"><path d="M-284.42 0.35 L-268.35 -4.07 L-272.27 6.95 L-283.43 -0.66" stroke="none" stroke-width="0" fill="#e03131" fill-rule="evenodd"></path><path d="M-284.55 0.12 C-279.84 -2.23, -275.69 -1.59, -270.25 -4.29 M-270.17 -5.54 C-269.85 0.09, -270.53 2.41, -270.75 6.53 M-271.43 8.31 C-274.26 4.41, -278.24 3.24, -282.91 0.96 M-283.92 1.03 C-283.92 1.03, -283.92 1.03, -283.92 1.03" stroke="#e03131" stroke-width="2.5" fill="none"></path></g></g><mask></mask><g stroke-linecap="round"><g transform="translate(893.063144986138 387.3181070043432) rotate(0 -5.386048978088866 -168.28411428659035)"><path d="M0.38 -1.29 C-2.9 -130.17, -8.27 -261.08, -11.15 -335.28" stroke="#e03131" stroke-width="2.5" fill="none" stroke-dasharray="8 10"></path></g><g transform="translate(893.063144986138 387.3181070043432) rotate(0 -5.386048978088866 -168.28411428659035)"><path d="M-9.21 -334.13 L-6.19 -322.45 L-16.46 -323.14 L-11.21 -336.77" stroke="none" stroke-width="0" fill="#e03131" fill-rule="evenodd"></path><path d="M-10.73 -336.71 C-7.65 -329.11, -5.8 -323.86, -3.56 -322.81 M-3.75 -321.05 C-7.8 -323.04, -11.46 -322.63, -17.5 -321.02 M-17.34 -322.82 C-16.06 -326.36, -12.5 -329.52, -11.1 -334.36 M-11.15 -335.28 C-11.15 -335.28, -11.15 -335.28, -11.15 -335.28" stroke="#e03131" stroke-width="2.5" fill="none"></path></g></g><mask></mask><g stroke-linecap="round"><g transform="translate(889.1732675943404 387.3181070043433) rotate(0 -149.1459329471952 -168.11485925094425)"><path d="M0.56 0.59 C-71.91 -81.33, -142.93 -163.04, -298.85 -336.39 M-0.04 -0.46 C-82.81 -91.72, -164.85 -183.6, -298.6 -336.82" stroke="#e03131" stroke-width="2" fill="none"></path></g><g transform="translate(889.1732675943404 387.3181070043433) rotate(0 -149.1459329471952 -168.11485925094425)"><path d="M-300.37 -337.68 L-285.82 -332.19 L-296.3 -323.72 L-300.39 -336.95" stroke="none" stroke-width="0" fill="#e03131" fill-rule="evenodd"></path><path d="M-297.73 -335.91 C-295.26 -334.31, -291.29 -334.66, -285.35 -330.64 M-298.67 -337.52 C-295.03 -335.8, -291.36 -333.34, -284.96 -331.3 M-285.61 -331.53 C-287.44 -327.94, -291.65 -324.12, -293.47 -321.59 M-284.97 -330.18 C-287.79 -327.99, -291.27 -325.47, -293.79 -322.05 M-295.67 -322.46 C-296.35 -325.71, -296.81 -329.42, -298.65 -338.1 M-295.14 -321.69 C-295.09 -325.65, -296.52 -329.58, -299.06 -336.6 M-298.6 -336.82 C-298.6 -336.82, -298.6 -336.82, -298.6 -336.82 M-298.6 -336.82 C-298.6 -336.82, -298.6 -336.82, -298.6 -336.82" stroke="#e03131" stroke-width="2" fill="none"></path></g></g><mask></mask><g transform="translate(590.1126963742863 203.52140024191823) rotate(0 8.035995483398438 17.5)"><text x="16.071990966796875" y="0" font-family="Virgil, Segoe UI Emoji" font-size="28px" fill="#2f9e44" text-anchor="end" style="white-space: pre;" direction="ltr" dominant-baseline="text-before-edge">F</text></g><g transform="translate(591.3642072842495 398.98773917973534) rotate(0 15.189994812011719 17.5)"><text x="30.379989624023438" y="0" font-family="Virgil, Segoe UI Emoji" font-size="28px" fill="#e03131" text-anchor="end" style="white-space: pre;" direction="ltr" dominant-baseline="text-before-edge">vx</text></g><g transform="translate(890.5713623150468 10) rotate(0 13.887992858886719 17.5)"><text x="27.775985717773438" y="0" font-family="Virgil, Segoe UI Emoji" font-size="28px" fill="#e03131" text-anchor="end" style="white-space: pre;" direction="ltr" dominant-baseline="text-before-edge">vy</text></g><g transform="translate(589.5957514528018 18.752224131543926) rotate(0 7.321998596191406 17.5)"><text x="14.643997192382812" y="0" font-family="Virgil, Segoe UI Emoji" font-size="28px" fill="#e03131" text-anchor="end" style="white-space: pre;" direction="ltr" dominant-baseline="text-before-edge">v</text></g><g stroke-linecap="round"><g transform="translate(673.913059565507 279.8557957928533) rotate(0 -25.053334878763053 46.854384268736)"><path d="M-1.96 -0.89 C-9.88 24.76, -24.16 44.85, -48.15 94.6" stroke="#1971c2" stroke-width="2.5" fill="none" stroke-dasharray="8 10"></path></g></g><mask></mask><g stroke-linecap="round"><g transform="translate(879.1040919828174 70.7748859837456) rotate(0 -58.886952990666714 124.29231589716747)"><path d="M0.04 1.15 C-28.2 57.13, -56.64 117.28, -117.82 247.44" stroke="#1971c2" stroke-width="2.5" fill="none" stroke-dasharray="8 10"></path></g></g><mask></mask><g stroke-linecap="round"><g transform="translate(587.3632875980161 53.27043772065747) rotate(0 -32.15120792751213 75.19033197340758)"><path d="M-0.31 1.59 C-16.57 33.89, -32.61 69.24, -63.99 148.79" stroke="#1971c2" stroke-width="2.5" fill="none" stroke-dasharray="8 10"></path></g></g><mask></mask><g stroke-linecap="round"><g transform="translate(889.642617278228 385.3495311999842) rotate(0 -149.38581900663485 -75.84513174386143)"><path d="M1.16 0.37 C-69.23 -34.92, -137.3 -67.45, -299.01 -151.33 M0.25 0.4 C-100.04 -51.24, -201.51 -102, -299.94 -152.09" stroke="#2f9e44" stroke-width="2" fill="none"></path></g><g transform="translate(889.642617278228 385.3495311999842) rotate(0 -149.38581900663485 -75.84513174386143)"><path d="M-298.09 -152.12 L-284.17 -153.13 L-291.17 -139.15 L-301.44 -151.96" stroke="none" stroke-width="0" fill="#2f9e44" fill-rule="evenodd"></path><path d="M-298.64 -151.69 C-297.31 -152.91, -293.88 -150.62, -284.37 -151.19 M-299.66 -151.64 C-294.17 -152, -289.62 -151.38, -285.41 -152.03 M-284.17 -150.56 C-285.87 -148.78, -289.88 -142.72, -291.87 -141.08 M-284.44 -151.11 C-286.59 -148.9, -288.41 -144.46, -291.01 -140.92 M-291.4 -139.89 C-293.55 -144.51, -296.45 -150.19, -299.14 -151.2 M-290.33 -139.94 C-293.32 -142.92, -295.12 -145.17, -300.41 -152.46 M-299.94 -152.09 C-299.94 -152.09, -299.94 -152.09, -299.94 -152.09 M-299.94 -152.09 C-299.94 -152.09, -299.94 -152.09, -299.94 -152.09" stroke="#2f9e44" stroke-width="2" fill="none"></path></g></g><mask></mask></svg>