<svg version="1.1" xmlns="http://www.w3.org/2000/svg" viewBox="0 0 1299.9354215239123 1022.8016973823794" width="1299.9354215239123" height="1022.8016973823794">
  <!-- svg-source:excalidraw -->
  
  <defs>
    <style class="style-fonts">
      @font-face {
        font-family: "Virgil";
        src: url("https://excalidraw.com/Virgil.woff2");
      }
      @font-face {
        font-family: "Cascadia";
        src: url("https://excalidraw.com/Cascadia.woff2");
      }
    </style>
    
  </defs>
  <rect x="0" y="0" width="1299.9354215239123" height="1022.8016973823794" fill="#ffffff"></rect><g stroke-linecap="round"><g transform="translate(497.4550803758266 735.0009745140154) rotate(0 -54.01253178532431 -146.3740442651247)"><path d="M2.41 1.62 C-37.49 -102.78, -71.32 -197.03, -110.43 -294.37 M-0.8 1.11 C-27.72 -77.72, -58.98 -157.91, -110.22 -294.33" stroke="#2f9e44" stroke-width="2" fill="none"></path></g><g transform="translate(497.4550803758266 735.0009745140154) rotate(0 -54.01253178532431 -146.3740442651247)"><path d="M-111.13 -295.48 L-99.9 -284.04 L-115.22 -279.83 L-106.3 -296.76" stroke="none" stroke-width="0" fill="#2f9e44" fill-rule="evenodd"></path><path d="M-107.68 -292.63 C-107.49 -293.6, -100.82 -285.07, -101.08 -284.57 M-111.06 -293.16 C-106.29 -290.46, -105.58 -289.17, -100.86 -284.53 M-101.68 -285.84 C-100.78 -279.98, -104.41 -279.54, -112.65 -281.32 M-98.94 -283.91 C-102.99 -282.24, -107.7 -281.79, -111.69 -279.35 M-113.96 -277.75 C-111.73 -281.34, -110.61 -291.39, -109.26 -293.09 M-111.44 -278.32 C-110.84 -283.2, -111.04 -289.28, -111.31 -293.2 M-110.22 -294.33 C-110.22 -294.33, -110.22 -294.33, -110.22 -294.33 M-110.22 -294.33 C-110.22 -294.33, -110.22 -294.33, -110.22 -294.33" stroke="#2f9e44" stroke-width="2" fill="none"></path></g></g><mask></mask><g stroke-linecap="round"><g transform="translate(499.4000190717252 737.9183825578634) rotate(0 -92.8294719586138 -36.71164450238949)"><path d="M3.05 -1.2 C-56.66 -21.31, -111.79 -42.52, -188.71 -72.33 M1.76 -1.09 C-55.09 -20.26, -110.43 -43.87, -186.68 -70.47" stroke="#2f9e44" stroke-width="2" fill="none"></path></g><g transform="translate(499.4000190717252 737.9183825578634) rotate(0 -92.8294719586138 -36.71164450238949)"><path d="M-185.06 -70.97 L-175.6 -72.05 L-175.54 -60.8 L-182.96 -67.23" stroke="none" stroke-width="0" fill="#2f9e44" fill-rule="evenodd"></path><path d="M-184.13 -71.47 C-181 -72.35, -174.72 -72.15, -172.59 -72.09 M-185.21 -71.38 C-183 -69.68, -178.52 -72.03, -170.89 -70.53 M-173.73 -69.49 C-174.52 -71, -174.75 -65.36, -174.77 -59.29 M-172.49 -70.85 C-172.98 -68.91, -173.77 -63.53, -175.94 -60.43 M-177.75 -57.21 C-182.2 -61.5, -183.77 -64.35, -188.3 -70.03 M-175.91 -59.6 C-180.56 -63.93, -183.33 -68.36, -186.55 -70.1 M-186.68 -70.47 C-186.68 -70.47, -186.68 -70.47, -186.68 -70.47 M-186.68 -70.47 C-186.68 -70.47, -186.68 -70.47, -186.68 -70.47" stroke="#2f9e44" stroke-width="2" fill="none"></path></g></g><mask></mask><g stroke-linecap="round"><g transform="translate(501.344957767624 735.9734438619647) rotate(0 394.94770529804885 1.721322766889898)"><path d="M1.3 -0.91 C302.16 -2.33, 602.84 -2.48, 788.59 5.12" stroke="#1e1e1e" stroke-width="2.5" fill="none" stroke-dasharray="8 10"></path></g><g transform="translate(501.344957767624 735.9734438619647) rotate(0 394.94770529804885 1.721322766889898)"><path d="M789.37 6.45 L778.53 12.11 L775.35 1.09 L792.26 2.56" stroke="none" stroke-width="0" fill="#1e1e1e" fill-rule="evenodd"></path><path d="M791.04 3.41 C785.7 9.22, 780.08 7.06, 776.51 9.76 M773.85 11.33 C773.59 9.16, 772.79 4.34, 776.88 -0.99 M777.74 -1.11 C778.89 0.26, 783.73 2.17, 786.17 5.06 M788.59 5.12 C788.59 5.12, 788.59 5.12, 788.59 5.12" stroke="#1e1e1e" stroke-width="2.5" fill="none"></path></g></g><mask></mask><g stroke-linecap="round"><g transform="translate(501.3449577676238 738.8908519058127) rotate(0 5.85962618443466 -364.9880079224059)"><path d="M-1.38 -1.09 C3.8 -252.01, 9.89 -504.9, 13.1 -728.89" stroke="#1e1e1e" stroke-width="2.5" fill="none" stroke-dasharray="8 10"></path></g><g transform="translate(501.3449577676238 738.8908519058127) rotate(0 5.85962618443466 -364.9880079224059)"><path d="M15.46 -732.32 L19.82 -713.13 L5.38 -714.02 L11.36 -728.83" stroke="none" stroke-width="0" fill="#1e1e1e" fill-rule="evenodd"></path><path d="M10.51 -730.93 C13.03 -722.57, 18.36 -717.83, 20.06 -712.5 M17.46 -717.67 C16.53 -714.48, 12.66 -712.75, 5.56 -714.61 M7.17 -718.33 C8.69 -723.1, 11.75 -723.88, 10.58 -727.42 M13.1 -728.89 C13.1 -728.89, 13.1 -728.89, 13.1 -728.89" stroke="#1e1e1e" stroke-width="2.5" fill="none"></path></g></g><mask></mask><g stroke-linecap="round"><g transform="translate(548.9959558171415 1009.2373306357289) rotate(0 141.19016115481577 -219.17969736964318)"><path d="M1.07 0.53 C57.13 -89.34, 117.21 -181.15, 282.06 -437.65 M-0.18 0.36 C92.85 -148.48, 187.99 -297.74, 282.56 -438.89" stroke="#1e1e1e" stroke-width="2" fill="none"></path></g></g><mask></mask><g stroke-linecap="round"><g transform="translate(831.0120667224496 569.6811853626278) rotate(0 -279.27475368240675 -206.28488113487404)"><path d="M0.15 0.43 C-142.39 -105.53, -282.58 -209.75, -559.03 -412.44 M0.48 -0.35 C-154.12 -111.65, -306.02 -223.61, -558.68 -413" stroke="#1e1e1e" stroke-width="2" fill="none"></path></g></g><mask></mask><g stroke-linecap="round"><g transform="translate(270.8697223036306 161.24405922390565) rotate(0 -128.56947832227286 286.8409752224646)"><path d="M0.52 -0.11 C-56.55 131.41, -116.24 266.69, -256.68 573.89 M0.15 -0.8 C-77.25 181.9, -158.92 363.8, -257.66 574.48" stroke="#1e1e1e" stroke-width="2" fill="none"></path></g></g><mask></mask><g stroke-linecap="round"><g transform="translate(11.220406401157334 738.8908519058127) rotate(0 268.97143421097303 136.23672760435886)"><path d="M-1.22 -1.44 C112.11 58.47, 221.16 113.52, 539.16 273.29 M0.56 -0.35 C120.71 61.91, 241.95 123.46, 538.86 273.91" stroke="#1e1e1e" stroke-width="2" fill="none"></path></g></g><mask></mask><g stroke-linecap="round"><g transform="translate(499.4000190717252 734.028505166066) rotate(0 196.0366347277719 -202.41467506089467)"><path d="M0.3 -0.77 C124.08 -125.43, 245.88 -255.16, 390.43 -405.45 M0.12 0.62 C136.13 -144.35, 274.27 -286.59, 391.95 -404.94" stroke="#1971c2" stroke-width="2" fill="none"></path></g><g transform="translate(499.4000190717252 734.028505166066) rotate(0 196.0366347277719 -202.41467506089467)"><path d="M389.36 -405.09 L390.8 -389.07 L381.58 -403.3 L394.36 -405.92" stroke="none" stroke-width="0" fill="#1971c2" fill-rule="evenodd"></path><path d="M392.52 -406.38 C393.29 -397.62, 390.12 -399.07, 384.15 -392.5 M392.18 -403.78 C389.27 -400.78, 387.15 -394.78, 387.02 -391.54 M388.18 -389.92 C386.65 -395.39, 384.47 -396.41, 375.82 -401.11 M387.23 -389.77 C384.85 -394.27, 383.12 -394.89, 376.79 -400.52 M380.02 -402.1 C383.79 -403.78, 384.95 -401.46, 392.73 -404.81 M378.51 -400.35 C382.8 -401.04, 388.25 -402.89, 390.74 -404.08 M391.95 -404.94 C391.95 -404.94, 391.95 -404.94, 391.95 -404.94 M391.95 -404.94 C391.95 -404.94, 391.95 -404.94, 391.95 -404.94" stroke="#1971c2" stroke-width="2" fill="none"></path></g></g><mask></mask><g stroke-linecap="round"><g transform="translate(497.4550803758261 734.0285051660661) rotate(0 -31.57175730274662 -166.55999229735002)"><path d="M-0.42 1.22 C-25.29 -130.93, -49.06 -258.68, -62.72 -332.32 M-0.54 -0.1 C-16.53 -100.19, -35.88 -200.07, -60.2 -334.34" stroke="#f08c00" stroke-width="2" fill="none"></path></g><g transform="translate(497.4550803758261 734.0285051660661) rotate(0 -31.57175730274662 -166.55999229735002)"><path d="M-58.41 -335.85 L-51.17 -320.49 L-65.42 -319.06 L-60.31 -331.12" stroke="none" stroke-width="0" fill="#f08c00" fill-rule="evenodd"></path><path d="M-60.67 -332.97 C-57.99 -329.84, -54.86 -322.31, -54.24 -320.72 M-60.8 -334.46 C-57.87 -331.07, -56.54 -326.51, -51.41 -322.99 M-52.11 -320.92 C-52.73 -319.64, -59.52 -318.7, -62.88 -317.57 M-51.03 -322.21 C-56.92 -321, -59.23 -319.47, -64.74 -319.79 M-63.97 -318.1 C-65.83 -325.4, -60.61 -328.15, -58.67 -333.94 M-64.13 -318.73 C-63.56 -325.09, -62.23 -329.24, -60.86 -335.17 M-60.2 -334.34 C-60.2 -334.34, -60.2 -334.34, -60.2 -334.34 M-60.2 -334.34 C-60.2 -334.34, -60.2 -334.34, -60.2 -334.34" stroke="#f08c00" stroke-width="2" fill="none"></path></g></g><mask></mask><g transform="translate(463.4186531975997 400.47151881944296) rotate(0 -9.724693479493453 13.12833619731606)" stroke="none"><path fill="#1e1e1e" d="M 2.35,-0.19 Q 2.35,-0.19 2.49,3.17 2.64,6.53 2.65,9.12 2.67,11.70 3.01,13.20 3.34,14.69 3.56,16.03 3.79,17.36 4.01,18.86 4.24,20.37 3.57,22.19 2.90,24.00 -0.21,24.56 -3.32,25.11 -5.61,25.39 -7.90,25.68 -9.98,26.04 -12.07,26.40 -13.89,26.62 -15.71,26.85 -17.03,27.00 -18.35,27.16 -19.49,27.71 -20.62,28.27 -20.97,28.34 -21.31,28.41 -21.65,28.37 -22.00,28.32 -22.32,28.17 -22.63,28.02 -22.88,27.77 -23.13,27.53 -23.29,27.22 -23.45,26.91 -23.50,26.56 -23.55,26.22 -23.49,25.87 -23.42,25.53 -23.25,25.22 -23.09,24.92 -22.83,24.68 -22.57,24.44 -22.25,24.30 -21.93,24.16 -21.58,24.13 -21.24,24.10 -20.90,24.18 -20.56,24.26 -20.26,24.45 -19.96,24.63 -19.74,24.90 -19.52,25.17 -19.40,25.50 -19.27,25.82 -19.26,26.17 -19.25,26.52 -19.35,26.86 -19.45,27.19 -19.65,27.48 -19.85,27.76 -20.13,27.97 -20.41,28.18 -20.74,28.28 -21.08,28.39 -21.43,28.38 -21.77,28.38 -22.10,28.26 -22.43,28.14 -22.71,27.93 -22.98,27.71 -23.17,27.42 -23.36,27.12 -23.45,26.79 -23.54,26.45 -23.51,26.10 -23.49,25.75 -23.35,25.43 -23.22,25.11 -22.99,24.85 -22.76,24.58 -22.46,24.41 -22.15,24.23 -22.15,24.23 -22.15,24.23 -20.41,23.70 -18.66,23.16 -17.39,23.15 -16.12,23.14 -14.48,22.98 -12.84,22.81 -10.73,22.26 -8.62,21.70 -6.31,21.16 -4.00,20.61 -2.21,20.59 -0.43,20.56 -0.37,19.19 -0.31,17.82 -0.37,16.64 -0.43,15.45 -0.75,13.67 -1.08,11.88 -1.30,9.38 -1.52,6.88 -1.93,3.53 -2.35,0.19 -2.34,-0.08 -2.33,-0.37 -2.25,-0.64 -2.17,-0.92 -2.03,-1.16 -1.89,-1.41 -1.69,-1.62 -1.49,-1.82 -1.25,-1.97 -1.01,-2.13 -0.74,-2.22 -0.47,-2.31 -0.19,-2.33 0.08,-2.36 0.37,-2.31 0.65,-2.27 0.91,-2.16 1.17,-2.04 1.40,-1.87 1.63,-1.70 1.81,-1.48 1.99,-1.26 2.11,-1.01 2.23,-0.75 2.29,-0.47 2.35,-0.19 2.35,-0.19 L 2.35,-0.19 Z"></path></g><g stroke-linecap="round"><g transform="translate(442.0243275427142 398.52658012354425) rotate(0 214.23985826777687 -34.20546702015336)"><path d="M1.98 -0.32 C107.84 -21.29, 219.23 -39.19, 428.02 -68.41 M-0.61 0 C101.23 -18.95, 201.27 -34.14, 429.09 -68.04" stroke="#e03131" stroke-width="4" fill="none"></path></g><g transform="translate(442.0243275427142 398.52658012354425) rotate(0 214.23985826777687 -34.20546702015336)"><path d="M433.03 -66.29 L419.84 -63.06 L414.72 -71.05 L429.57 -67.21" stroke="none" stroke-width="0" fill="#e03131" fill-rule="evenodd"></path><path d="M432 -68.51 C423.64 -66.92, 424.53 -65.79, 415.35 -60.25 M428.19 -68.05 C426.22 -66.85, 422.57 -63.79, 416.93 -59.71 M418.9 -58.43 C416.97 -60.44, 413.6 -63.73, 416.13 -71.37 M417.74 -60.55 C416.89 -64.64, 414.32 -67.72, 415.65 -71.77 M411.98 -69.71 C418.67 -68.5, 424.43 -67.85, 431.19 -71.04 M413.38 -73.78 C419.86 -69.74, 425.2 -67.62, 429.46 -67.19 M429.09 -68.04 C429.09 -68.04, 429.09 -68.04, 429.09 -68.04 M429.09 -68.04 C429.09 -68.04, 429.09 -68.04, 429.09 -68.04" stroke="#e03131" stroke-width="4" fill="none"></path></g></g><mask></mask><g transform="translate(650.3762833083667 320.7290322875973) rotate(0 7.657997131347656 17.5)"><text x="15.315994262695312" y="0" font-family="Virgil, Segoe UI Emoji" font-size="28px" fill="#e03131" text-anchor="end" style="white-space: pre;" direction="ltr" dominant-baseline="text-before-edge">e</text></g><g transform="translate(802.949497804284 419.92090577842976) rotate(0 7.2239990234375 17.5)"><text x="14.447998046875" y="0" font-family="Virgil, Segoe UI Emoji" font-size="28px" fill="#1971c2" text-anchor="end" style="white-space: pre;" direction="ltr" dominant-baseline="text-before-edge">Y</text></g></svg>