<svg version="1.1" xmlns="http://www.w3.org/2000/svg" viewBox="0 0 1356.4889854601506 1225.3085362276502" width="1356.4889854601506" height="1225.3085362276502">
  <!-- svg-source:excalidraw -->
  
  <defs>
    <style class="style-fonts">
      @font-face {
        font-family: "Virgil";
        src: url("https://excalidraw.com/Virgil.woff2");
      }
      @font-face {
        font-family: "Cascadia";
        src: url("https://excalidraw.com/Cascadia.woff2");
      }
    </style>
  </defs>
  <rect x="0" y="0" width="1356.4889854601506" height="1225.3085362276502" fill="#ffffff"></rect><g stroke-linecap="round" transform="translate(10 10) rotate(0 256.01345737310544 595.9541914057136)"><path d="M98.44 128.41 C106.72 99.41, 120.74 85.34, 133.89 68.94 C147.04 52.53, 162.86 40.76, 177.35 29.97 C191.83 19.19, 205.33 8.82, 220.81 4.23 C236.28 -0.37, 254.78 0.56, 270.18 2.4 C285.59 4.24, 299.02 7.7, 313.24 15.25 C327.46 22.81, 341.68 33.43, 355.5 47.75 C369.32 62.07, 383.41 81.25, 396.18 101.19 C408.95 121.12, 421.2 143.09, 432.11 167.34 C443.02 191.59, 452.23 218.15, 461.63 246.69 C471.03 275.22, 481.81 306.43, 488.53 338.53 C495.25 370.63, 498 404.93, 501.95 439.28 C505.9 473.63, 510.75 509.2, 512.25 544.62 C513.74 580.03, 512.55 616.25, 510.93 651.76 C509.32 687.27, 506.95 723.41, 502.54 757.67 C498.13 791.93, 491.07 825.94, 484.47 857.31 C477.87 888.67, 471.55 917.25, 462.91 945.85 C454.27 974.46, 443.64 1004.43, 432.65 1028.94 C421.65 1053.44, 409.82 1073.89, 396.94 1092.87 C384.06 1111.85, 369.58 1128.8, 355.36 1142.84 C341.14 1156.87, 326.61 1168.71, 311.62 1177.1 C296.63 1185.48, 280.65 1191.68, 265.43 1193.16 C250.21 1194.63, 235.31 1191.15, 220.3 1185.94 C205.3 1180.73, 189.89 1172.7, 175.39 1161.91 C160.89 1151.12, 146.54 1138.24, 133.3 1121.21 C120.07 1104.18, 107.45 1082.06, 95.97 1059.73 C84.49 1037.41, 74.65 1013.63, 64.44 987.24 C54.22 960.85, 42.51 932.3, 34.7 901.4 C26.89 870.5, 22.94 835.38, 17.59 801.85 C12.23 768.31, 5.22 734.82, 2.55 700.2 C-0.12 665.58, 1.16 629.27, 1.56 594.11 C1.97 558.96, 2.34 524.06, 4.96 489.28 C7.59 454.5, 11.93 418.59, 17.33 385.45 C22.73 352.31, 29.96 320.99, 37.36 290.45 C44.77 259.9, 45.09 238.96, 61.76 202.18 C78.43 165.4, 117.07 96.99, 137.4 69.78 C157.72 42.56, 181.99 30.67, 183.69 38.88 M157.88 45.69 C169.13 23.81, 185.38 21.63, 200.95 13.63 C216.53 5.62, 235.12 -0.76, 251.34 -2.33 C267.55 -3.9, 283.63 -1.93, 298.25 4.23 C312.88 10.38, 325.02 22.17, 339.07 34.6 C353.12 47.02, 368.71 61.33, 382.53 78.79 C396.35 96.24, 410.63 116.94, 421.98 139.35 C433.34 161.76, 441.51 186.86, 450.64 213.25 C459.76 239.65, 469.04 267.25, 476.75 297.74 C484.46 328.24, 491.16 362.49, 496.89 396.23 C502.61 429.98, 508.22 465.06, 511.11 500.22 C513.99 535.38, 515.23 571.47, 514.18 607.18 C513.13 642.9, 508.04 680.14, 504.8 714.51 C501.57 748.88, 499.54 780.36, 494.76 813.42 C489.98 846.49, 483.84 882.2, 476.12 912.89 C468.39 943.58, 459.47 971.43, 448.41 997.56 C437.36 1023.68, 422.5 1048.43, 409.81 1069.65 C397.11 1090.86, 385.77 1109.09, 372.24 1124.86 C358.7 1140.64, 342.98 1153.72, 328.58 1164.28 C314.17 1174.84, 300.87 1183.92, 285.79 1188.22 C270.7 1192.53, 253.37 1192.43, 238.06 1190.1 C222.75 1187.77, 208.71 1182.97, 193.95 1174.25 C179.19 1165.52, 163.59 1152.09, 149.52 1137.75 C135.44 1123.42, 121.34 1107.93, 109.48 1088.25 C97.61 1068.57, 88.99 1045.04, 78.34 1019.68 C67.68 994.31, 54.49 965.13, 45.54 936.06 C36.59 906.99, 30.82 877.81, 24.62 845.23 C18.42 812.65, 12.13 775.33, 8.35 740.58 C4.56 705.83, 2.96 671.29, 1.92 636.75 C0.88 602.21, 0.35 568.36, 2.1 533.35 C3.85 498.34, 8.04 461.01, 12.42 426.68 C16.8 392.36, 21.67 359.14, 28.36 327.41 C35.05 295.68, 43.96 264.88, 52.56 236.28 C61.16 207.68, 68.88 180.19, 79.99 155.83 C91.09 131.46, 105.94 108.67, 119.19 90.1 C132.44 71.53, 152.32 50.23, 159.5 44.39 C166.68 38.55, 160.48 45.56, 162.25 55.07" stroke="#000000" stroke-width="4" fill="none"></path></g><g stroke-linecap="round" transform="translate(276.5925258595976 256.84493135147875) rotate(0 24.684493135147818 27.505578064879103)"><path d="M45.57 12.4 C48.59 16.29, 50.22 22.47, 49.65 28.39 C49.07 34.32, 45.57 43.9, 42.1 47.97 C38.63 52.04, 33.77 52.08, 28.84 52.81 C23.9 53.54, 17.41 54.9, 12.5 52.35 C7.58 49.79, 1.14 43.61, -0.65 37.48 C-2.44 31.35, -0.71 21.31, 1.75 15.55 C4.21 9.79, 9.21 5.38, 14.1 2.91 C19 0.44, 25.56 -1.72, 31.12 0.7 C36.69 3.13, 44.7 13.91, 47.5 17.45 C50.3 20.99, 48.43 21.66, 47.95 21.94 M10.82 4.04 C15.6 0.81, 24.58 -1.4, 30.52 -0.07 C36.45 1.25, 43.09 7.14, 46.45 11.98 C49.81 16.81, 51.34 23.33, 50.67 28.93 C50.01 34.53, 46.02 41.76, 42.46 45.56 C38.9 49.37, 34.14 50.76, 29.29 51.77 C24.44 52.78, 18.22 53.82, 13.37 51.61 C8.52 49.4, 2.3 44.5, 0.19 38.49 C-1.92 32.48, -1.07 21.69, 0.72 15.56 C2.5 9.43, 8.84 3.63, 10.9 1.73 C12.96 -0.17, 12.82 2.98, 13.07 4.15" stroke="none" stroke-width="0" fill="#82c91e"></path><path d="M28.56 1.82 C33.44 2.71, 38.81 6.19, 42.35 10.25 C45.88 14.3, 49.72 20.72, 49.75 26.17 C49.79 31.62, 45.65 38.52, 42.56 42.94 C39.48 47.37, 36 51.51, 31.26 52.72 C26.52 53.93, 19.29 52.51, 14.1 50.21 C8.92 47.9, 2.55 44.19, 0.15 38.88 C-2.24 33.57, -2.23 23.95, -0.24 18.34 C1.74 12.73, 5.47 7.18, 12.09 5.21 C18.7 3.24, 33.71 4.48, 39.44 6.53 C45.17 8.59, 46.55 17.28, 46.47 17.55 M16.97 3.2 C21.96 1.33, 29.78 0.84, 34.44 2.52 C39.1 4.2, 42.55 8.04, 44.93 13.3 C47.31 18.56, 49.39 28.5, 48.74 34.08 C48.08 39.65, 45.07 43.46, 41 46.75 C36.92 50.04, 30 53.41, 24.27 53.82 C18.54 54.24, 11 52.35, 6.63 49.22 C2.26 46.08, -0.96 40.32, -1.96 35.02 C-2.95 29.72, -1.77 23.19, 0.68 17.42 C3.13 11.65, 9.84 2.63, 12.74 0.4 C15.64 -1.82, 17.06 3.7, 18.09 4.09" stroke="#000000" stroke-width="4" fill="none"></path></g><g stroke-linecap="round" transform="translate(158.81223004332026 549.5324928110897) rotate(0 24.684493135147818 27.505578064879103)"><path d="M20.03 1.7 C25.09 0.33, 32.56 -0.02, 37.51 2.87 C42.46 5.76, 48.21 13.06, 49.73 19.02 C51.25 24.99, 48.55 33.51, 46.64 38.63 C44.73 43.75, 42.95 47.14, 38.29 49.73 C33.62 52.33, 23.85 54.99, 18.66 54.19 C13.46 53.39, 10.12 49.17, 7.13 44.93 C4.14 40.68, 0.78 34.5, 0.71 28.71 C0.64 22.92, 1.11 14.38, 6.71 10.19 C12.31 6.01, 28.51 3.56, 34.34 3.62 C40.17 3.68, 41.94 10.09, 41.69 10.53 M28.01 -0.35 C32.63 1.39, 42.11 8.17, 45.31 13.48 C48.52 18.79, 48.21 25.8, 47.25 31.5 C46.29 37.2, 42.58 44.22, 39.58 47.69 C36.57 51.17, 33.49 52.35, 29.21 52.33 C24.94 52.3, 18.76 50.1, 13.93 47.53 C9.1 44.97, 2.07 41.78, 0.24 36.93 C-1.58 32.09, 0.31 23.81, 2.99 18.47 C5.67 13.13, 11.96 7.74, 16.33 4.9 C20.7 2.07, 27.11 2.49, 29.21 1.48 C31.32 0.48, 28.9 -1.27, 28.95 -1.12" stroke="none" stroke-width="0" fill="#82c91e"></path><path d="M5.64 8.95 C8.33 4.39, 12.2 1.67, 17.44 0.47 C22.67 -0.74, 31.84 -1.2, 37.05 1.72 C42.26 4.63, 46.62 12.38, 48.72 17.97 C50.83 23.55, 51.72 29.99, 49.68 35.21 C47.65 40.44, 41.26 45.81, 36.52 49.3 C31.78 52.79, 26.52 56.84, 21.25 56.16 C15.98 55.49, 8.14 49.52, 4.92 45.25 C1.7 40.98, 1.75 36.59, 1.91 30.53 C2.08 24.47, 5.15 12.85, 5.91 8.89 C6.66 4.93, 6.29 6.16, 6.42 6.75 M8.04 8.76 C11.33 5.11, 18.4 -1.5, 23.83 -1.6 C29.25 -1.7, 36.36 4.11, 40.61 8.15 C44.86 12.2, 48.28 17.17, 49.33 22.67 C50.38 28.16, 49.24 36.47, 46.9 41.11 C44.55 45.76, 40.09 48.43, 35.26 50.54 C30.44 52.65, 23.76 55.21, 17.97 53.75 C12.17 52.29, 3.19 46.78, 0.5 41.76 C-2.2 36.74, 0.77 29.66, 1.78 23.64 C2.79 17.63, 5.8 8.61, 6.55 5.68 C7.31 2.74, 5.75 5.87, 6.32 6.04" stroke="#000000" stroke-width="4" fill="none"></path></g><g stroke-linecap="round" transform="translate(117.90649856221819 782.2719995139125) rotate(0 24.684493135147818 27.505578064879103)"><path d="M15.35 3.36 C19.84 0.92, 28.46 -1.43, 33.82 0.57 C39.17 2.58, 45.27 10.33, 47.5 15.4 C49.73 20.46, 48.43 25.17, 47.21 30.98 C45.98 36.78, 43.9 46.09, 40.13 50.21 C36.36 54.34, 29.57 55.88, 24.6 55.72 C19.62 55.55, 14.24 53.03, 10.3 49.22 C6.37 45.42, 1.86 39.14, 1 32.88 C0.13 26.62, 1 17.12, 5.11 11.67 C9.23 6.21, 20.39 1.48, 25.71 0.15 C31.02 -1.17, 36.69 3.53, 37.02 3.72 M8.18 7.49 C11.77 2.42, 17.81 -2.26, 22.86 -2.55 C27.9 -2.84, 34.67 1.75, 38.43 5.75 C42.2 9.74, 44.37 16.3, 45.46 21.43 C46.55 26.55, 46.11 31.35, 44.95 36.51 C43.8 41.67, 42.32 48.96, 38.53 52.38 C34.73 55.8, 27.32 58.53, 22.18 57.05 C17.03 55.58, 11.24 48.77, 7.66 43.53 C4.08 38.29, 1.38 31.37, 0.69 25.63 C0 19.88, 2.76 11.28, 3.52 9.05 C4.28 6.83, 4.64 11.52, 5.25 12.27" stroke="none" stroke-width="0" fill="#82c91e"></path><path d="M31.77 2.29 C36.76 4.12, 41.01 8.86, 44.09 13.87 C47.17 18.89, 50.78 26.99, 50.27 32.37 C49.75 37.76, 45.29 42.46, 41 46.17 C36.72 49.89, 29.53 54.4, 24.55 54.66 C19.57 54.93, 15.28 50.98, 11.14 47.78 C7 44.59, 0.81 41.05, -0.31 35.49 C-1.42 29.93, 1.89 20.28, 4.44 14.42 C6.99 8.55, 9.64 2.26, 15.01 0.28 C20.38 -1.7, 31.9 1.36, 36.67 2.54 C41.45 3.72, 43.57 7.05, 43.65 7.37 M17.2 0.91 C21.92 -0.58, 32.34 0.46, 37.35 3.18 C42.37 5.89, 45.46 11.53, 47.29 17.21 C49.11 22.89, 50.26 31.45, 48.31 37.25 C46.37 43.05, 39.95 49.56, 35.63 52.02 C31.31 54.48, 27.11 52.68, 22.39 52 C17.66 51.33, 10.88 52.11, 7.3 47.96 C3.72 43.81, 1.44 33.69, 0.89 27.12 C0.33 20.54, 1.11 12.95, 3.95 8.49 C6.79 4.04, 15.75 1.12, 17.93 0.37 C20.1 -0.38, 16.91 3.54, 17.01 3.98" stroke="#000000" stroke-width="4" fill="none"></path></g><g stroke-linecap="round" transform="translate(316.792986108267 522.7321859786434) rotate(0 24.684493135147818 27.505578064879103)"><path d="M11.77 4.72 C16 1.35, 26 -2.11, 31.13 -1.22 C36.27 -0.33, 39.27 5.13, 42.57 10.04 C45.87 14.94, 50.7 22.02, 50.92 28.23 C51.14 34.44, 47.53 42.77, 43.89 47.29 C40.24 51.81, 34.3 54.44, 29.07 55.35 C23.84 56.25, 17.47 55.95, 12.51 52.72 C7.55 49.49, 1.08 41.55, -0.7 35.97 C-2.48 30.39, -3.41 24.82, 1.83 19.25 C7.06 13.68, 23.88 4.05, 30.72 2.54 C37.56 1.02, 43.17 9.93, 42.87 10.15 M38.27 8.18 C42.88 10.88, 49.28 15.95, 51.01 21.12 C52.73 26.3, 51.86 33.52, 48.63 39.24 C45.39 44.96, 36.99 52.79, 31.61 55.43 C26.22 58.08, 20.7 57.26, 16.34 55.11 C11.98 52.96, 8.29 47.97, 5.43 42.53 C2.56 37.1, -1.27 29.02, -0.85 22.5 C-0.43 15.98, 3.63 7.32, 7.94 3.39 C12.25 -0.54, 19.08 -1.59, 25.02 -1.09 C30.95 -0.58, 40.54 5.03, 43.54 6.41 C46.55 7.79, 44.09 6.61, 43.06 7.21" stroke="none" stroke-width="0" fill="#82c91e"></path><path d="M23.4 1.24 C28.43 0.46, 36.02 1.37, 39.94 4.26 C43.85 7.16, 45.75 12.64, 46.91 18.61 C48.07 24.58, 49.09 34.64, 46.91 40.1 C44.73 45.55, 38.24 48.69, 33.85 51.32 C29.46 53.95, 25.52 57.2, 20.57 55.9 C15.63 54.6, 7.91 48.76, 4.18 43.54 C0.45 38.33, -2.01 30.22, -1.81 24.62 C-1.6 19.02, 1.27 13.91, 5.41 9.95 C9.56 5.99, 19.83 2.49, 23.06 0.86 C26.29 -0.77, 24.3 -0.06, 24.79 0.17 M12.51 3.82 C16.79 0.37, 24.06 -0.2, 29.56 0.3 C35.07 0.81, 41.95 2.31, 45.53 6.86 C49.1 11.42, 51.8 21.21, 51.02 27.64 C50.25 34.07, 44.28 40.82, 40.88 45.44 C37.48 50.06, 35.69 54.52, 30.6 55.38 C25.5 56.25, 15.61 53.82, 10.31 50.63 C5.01 47.44, 0.35 41.96, -1.2 36.26 C-2.76 30.56, -1.67 21.96, 0.99 16.42 C3.66 10.87, 12.99 5.18, 14.81 2.97 C16.63 0.76, 12.22 2.78, 11.93 3.15" stroke="#000000" stroke-width="4" fill="none"></path></g><g transform="translate(120.2219178760331 551.6483065083881) rotate(0 9.773994445800781 22.5)"><text x="19.547988891601562" y="0" font-family="Virgil, Segoe UI Emoji" font-size="36px" fill="#000000" text-anchor="end" style="white-space: pre;" direction="ltr" dominant-baseline="text-before-edge">s</text></g><g transform="translate(67.10237754419222 94.63254789193559) rotate(0 10.944000244140625 22.5)"><text x="21.88800048828125" y="0" font-family="Virgil, Segoe UI Emoji" font-size="36px" fill="#000000" text-anchor="end" style="white-space: pre;" direction="ltr" dominant-baseline="text-before-edge">S</text></g><g stroke-linecap="round" transform="translate(834.4620707139397 23.400153416222906) rotate(0 256.01345737310544 595.9541914057136)"><path d="M281.89 3.15 C296.47 -3.2, 312.2 12.43, 327.02 22.46 C341.84 32.48, 357.01 46.86, 370.8 63.3 C384.59 79.74, 397.34 99.92, 409.78 121.09 C422.22 142.26, 435.35 164.42, 445.45 190.33 C455.56 216.24, 462.23 246.89, 470.4 276.53 C478.57 306.17, 488.38 335.49, 494.45 368.17 C500.53 400.85, 504.2 437.29, 506.86 472.63 C509.51 507.96, 510.28 544.96, 510.4 580.2 C510.52 615.43, 509.53 649.38, 507.58 684.04 C505.62 718.71, 503.28 754.28, 498.69 788.19 C494.09 822.11, 487.47 856.27, 479.99 887.52 C472.51 918.77, 463.37 948.75, 453.8 975.72 C444.24 1002.68, 434.38 1026.65, 422.6 1049.29 C410.81 1071.92, 396.8 1093.66, 383.11 1111.51 C369.42 1129.35, 354.61 1144.2, 340.45 1156.37 C326.29 1168.54, 312.84 1178.72, 298.14 1184.54 C283.44 1190.35, 267.7 1191.63, 252.25 1191.25 C236.8 1190.86, 220.64 1189.17, 205.43 1182.23 C190.23 1175.29, 175.08 1162.68, 161.03 1149.58 C146.98 1136.48, 133.86 1122.44, 121.14 1103.64 C108.42 1084.84, 95.96 1060.84, 84.7 1036.8 C73.43 1012.76, 62.57 986.95, 53.55 959.38 C44.53 931.82, 37.88 902.9, 30.57 871.4 C23.27 839.9, 14.46 804.43, 9.72 770.39 C4.98 736.35, 3.38 701.96, 2.14 667.16 C0.91 632.36, 1.65 597.05, 2.31 561.58 C2.98 526.12, 3.01 488.83, 6.12 454.37 C9.23 419.9, 14.67 387.1, 20.98 354.8 C27.3 322.49, 35.49 290.11, 44.02 260.54 C52.55 230.96, 61.44 202.95, 72.15 177.36 C82.85 151.76, 95.72 127.39, 108.26 106.95 C120.8 86.5, 133.62 69.6, 147.36 54.69 C161.11 39.78, 175.95 26, 190.75 17.47 C205.55 8.94, 210.01 -0.14, 236.16 3.5 C262.31 7.14, 320.21 19.64, 347.64 39.33 C375.07 59.02, 402.49 112.72, 400.73 121.64 M304.37 10.5 C319.6 7.46, 336.44 27.55, 350.29 40.57 C364.14 53.59, 374.36 69.92, 387.47 88.63 C400.58 107.34, 417.52 129.68, 428.95 152.83 C440.38 175.99, 446.84 199.92, 456.04 227.53 C465.25 255.14, 476.39 287.05, 484.18 318.5 C491.96 349.94, 498.28 382.11, 502.75 416.22 C507.21 450.33, 509.47 488.03, 510.95 523.18 C512.43 558.33, 512.6 591.93, 511.62 627.13 C510.63 662.33, 508.84 699.39, 505.03 734.4 C501.22 769.4, 494.69 804.77, 488.75 837.18 C482.81 869.59, 477.78 899.5, 469.41 928.84 C461.03 958.18, 449.71 987.37, 438.51 1013.21 C427.31 1039.04, 414.77 1063.83, 402.21 1083.85 C389.65 1103.87, 376.82 1118.23, 363.14 1133.35 C349.45 1148.47, 334.98 1165.15, 320.12 1174.57 C305.26 1184, 288.45 1187.58, 273.98 1189.9 C259.51 1192.21, 248.27 1192.22, 233.32 1188.45 C218.36 1184.69, 199.11 1176.61, 184.25 1167.31 C169.39 1158.02, 157.96 1148.4, 144.18 1132.7 C130.41 1117.01, 113.99 1094.49, 101.59 1073.13 C89.18 1051.78, 80.26 1030.17, 69.75 1004.59 C59.25 979, 46.48 949.3, 38.58 919.62 C30.68 889.93, 27.86 859.38, 22.34 826.48 C16.82 793.58, 8.79 756.67, 5.45 722.23 C2.11 687.78, 2.7 655.32, 2.3 619.79 C1.89 584.27, 0.84 544.38, 3 509.1 C5.16 473.81, 10.07 440.96, 15.25 408.09 C20.43 375.22, 26.66 343.26, 34.08 311.86 C41.49 280.46, 50.17 247.64, 59.74 219.69 C69.31 191.74, 80.2 166.73, 91.49 144.16 C102.78 121.58, 114.3 102.53, 127.47 84.24 C140.63 65.94, 156.74 46.48, 170.5 34.39 C184.25 22.3, 195.44 17.6, 209.98 11.7 C224.52 5.8, 241.76 -0.39, 257.73 -1 C273.7 -1.6, 297.88 4.04, 305.83 8.07 C313.77 12.1, 306.06 13.14, 305.39 23.19" stroke="#000000" stroke-width="4" fill="none"></path></g><g stroke-linecap="round" transform="translate(1070.0226623464937 460.66831752455687) rotate(0 24.684493135147818 27.505578064879103)"><path d="M21.61 0.52 C26.52 -0.68, 32.57 1.44, 36.97 4.4 C41.36 7.37, 46.46 12.65, 47.99 18.29 C49.52 23.92, 48.4 32.83, 46.17 38.21 C43.94 43.58, 39.32 47.58, 34.62 50.55 C29.92 53.52, 22.75 57.04, 17.96 56.03 C13.16 55.03, 8.93 49.31, 5.85 44.53 C2.77 39.76, -0.65 33.65, -0.53 27.4 C-0.42 21.15, 1.43 11.39, 6.54 7.03 C11.65 2.66, 25.18 1.64, 30.11 1.21 C35.04 0.78, 36.27 3.85, 36.12 4.45 M34.25 3.44 C39.21 4.21, 40.83 6.71, 43.62 11.27 C46.41 15.83, 50.82 24.87, 50.97 30.81 C51.13 36.75, 48.45 42.5, 44.54 46.91 C40.64 51.32, 33.24 56.86, 27.52 57.27 C21.81 57.68, 14.72 53.03, 10.25 49.38 C5.77 45.73, 2.28 40.58, 0.67 35.36 C-0.94 30.14, -1.86 23.49, 0.6 18.08 C3.05 12.68, 10.47 5.46, 15.41 2.93 C20.35 0.4, 28.05 2.64, 30.26 2.89 C32.46 3.14, 28.91 4.58, 28.64 4.43" stroke="none" stroke-width="0" fill="#fa5252"></path><path d="M17.17 -0.45 C22.12 -2.23, 30.08 -0.25, 35.06 2.74 C40.05 5.73, 44.55 12.29, 47.1 17.49 C49.64 22.69, 51.91 28.33, 50.35 33.95 C48.79 39.56, 42.05 47.98, 37.72 51.17 C33.39 54.36, 29.36 53.64, 24.38 53.07 C19.41 52.49, 12.17 51.16, 7.87 47.69 C3.58 44.22, -0.53 38.31, -1.39 32.23 C-2.25 26.15, -3.42 16.23, 2.7 11.2 C8.82 6.16, 27.97 1, 35.35 2.02 C42.73 3.04, 47.2 16.6, 46.97 17.29 M36.4 1.04 C41.06 3.88, 44.97 12.72, 47.03 18.79 C49.09 24.85, 50.63 32.23, 48.76 37.41 C46.9 42.6, 40.24 47.41, 35.85 49.91 C31.46 52.4, 27.76 53.3, 22.44 52.4 C17.12 51.5, 7.47 48.72, 3.92 44.51 C0.38 40.31, 1.3 32.97, 1.15 27.17 C1 21.36, 0.03 13.7, 3.03 9.68 C6.03 5.67, 13.17 4.46, 19.13 3.08 C25.1 1.7, 36.12 1.11, 38.82 1.4 C41.53 1.69, 35.78 3.55, 35.35 4.82" stroke="#000000" stroke-width="4" fill="none"></path></g><g stroke-linecap="round" transform="translate(1249.8668266168575 574.2169859462374) rotate(0 24.684493135147818 27.505578064879103)"><path d="M38.36 5.53 C42.52 8.36, 47.23 14.41, 48.41 20.14 C49.58 25.87, 47.98 34.73, 45.42 39.92 C42.86 45.12, 37.9 48.73, 33.05 51.33 C28.2 53.93, 21 56.9, 16.31 55.51 C11.61 54.11, 7.67 47.95, 4.89 42.95 C2.11 37.95, -0.84 31.71, -0.35 25.5 C0.13 19.29, 3.69 9.84, 7.78 5.7 C11.87 1.56, 18.2 -0.25, 24.19 0.64 C30.17 1.54, 39.9 8.1, 43.69 11.05 C47.47 14.01, 47.05 18.33, 46.9 18.36 M36.68 3.72 C40.87 6.17, 47.79 14.35, 50.01 20.06 C52.23 25.77, 52.2 32.27, 50.01 37.99 C47.82 43.7, 42.01 51.71, 36.86 54.35 C31.7 56.99, 24.42 55.37, 19.09 53.83 C13.76 52.29, 8.36 49.31, 4.88 45.1 C1.39 40.88, -2.24 34.53, -1.8 28.55 C-1.36 22.57, 3.8 13.64, 7.53 9.23 C11.27 4.82, 15.92 2.39, 20.59 2.07 C25.26 1.76, 33.02 7.12, 35.56 7.32 C38.09 7.51, 35.93 2.86, 35.81 3.24" stroke="none" stroke-width="0" fill="#fa5252"></path><path d="M23.35 0.37 C28.51 0.23, 34.98 3.89, 39.49 7.28 C44 10.66, 49.43 15.05, 50.42 20.68 C51.4 26.31, 47.8 36.03, 45.42 41.05 C43.04 46.08, 40.66 48.61, 36.12 50.83 C31.57 53.06, 23.73 55.4, 18.15 54.39 C12.57 53.37, 5.89 49.85, 2.62 44.72 C-0.64 39.6, -2.34 29.9, -1.43 23.64 C-0.53 17.37, 2.75 10.76, 8.06 7.14 C13.37 3.52, 25.72 2.26, 30.43 1.92 C35.15 1.57, 36.34 5.04, 36.36 5.05 M13.29 2.92 C18.03 0.73, 26.95 -0.11, 32.07 1.09 C37.19 2.3, 40.75 5.68, 44.01 10.13 C47.27 14.57, 52.22 21.7, 51.64 27.77 C51.05 33.85, 44.44 42.04, 40.5 46.56 C36.56 51.09, 33.48 54.33, 27.99 54.93 C22.5 55.53, 12.36 53.1, 7.57 50.17 C2.78 47.24, -0.12 43.47, -0.75 37.35 C-1.37 31.22, 1.61 19.13, 3.82 13.42 C6.04 7.7, 10.74 4.31, 12.55 3.05 C14.35 1.79, 13.87 5.82, 14.67 5.86" stroke="#000000" stroke-width="4" fill="none"></path></g><g stroke-linecap="round" transform="translate(1179.3397033735773 873.251988497743) rotate(0 24.684493135147818 27.505578064879103)"><path d="M28.81 -1.16 C33.88 -0.51, 39.41 5.02, 42.69 9.57 C45.97 14.11, 48.48 19.84, 48.48 26.12 C48.47 32.4, 45.77 42.35, 42.66 47.25 C39.56 52.14, 35.04 54.54, 29.85 55.5 C24.66 56.45, 16.33 56.36, 11.52 52.99 C6.72 49.61, 2.61 41.02, 1.02 35.27 C-0.58 29.51, 0.12 23.68, 1.95 18.45 C3.79 13.23, 5.59 5.64, 12.04 3.91 C18.49 2.19, 34.67 5.87, 40.66 8.08 C46.64 10.28, 48.03 16.73, 47.95 17.14 M44.24 9.09 C48.62 12.97, 51.7 19.28, 51.92 25.45 C52.14 31.62, 49.12 41.4, 45.55 46.12 C41.98 50.83, 35.81 52.56, 30.5 53.75 C25.18 54.93, 18.7 55.32, 13.66 53.21 C8.62 51.09, 2.22 46.54, 0.25 41.06 C-1.71 35.57, 0.29 26.04, 1.89 20.28 C3.5 14.52, 6.07 9.37, 9.89 6.5 C13.71 3.63, 19.71 2.99, 24.81 3.05 C29.91 3.1, 37.91 5.39, 40.47 6.83 C43.04 8.28, 40.63 11.13, 40.2 11.72" stroke="none" stroke-width="0" fill="#fa5252"></path><path d="M8.21 9.13 C11.95 4.98, 20.36 0.03, 25.38 -0.31 C30.41 -0.66, 34.2 3.7, 38.35 7.04 C42.51 10.38, 48.89 14.1, 50.33 19.72 C51.76 25.33, 49.94 34.86, 46.98 40.72 C44.03 46.59, 37.81 52.88, 32.59 54.91 C27.37 56.94, 20.37 55.09, 15.65 52.91 C10.93 50.72, 6.77 46.42, 4.26 41.79 C1.76 37.16, -1.16 31.53, 0.61 25.14 C2.38 18.76, 11.02 7.79, 14.89 3.48 C18.75 -0.83, 23.78 -0.82, 23.79 -0.7 M5.69 11.52 C8.4 6.46, 12.44 1.04, 17.8 -0.78 C23.16 -2.59, 33.21 -2.13, 37.84 0.65 C42.47 3.43, 43.63 10.16, 45.58 15.9 C47.54 21.64, 51.24 29.33, 49.57 35.09 C47.9 40.84, 40.39 46.68, 35.55 50.43 C30.71 54.18, 25.06 58.63, 20.54 57.58 C16.03 56.54, 12.16 48.78, 8.46 44.17 C4.76 39.56, -1.05 34.93, -1.64 29.93 C-2.23 24.92, 3.45 17.48, 4.91 14.14 C6.38 10.8, 6.9 10.38, 7.14 9.9" stroke="#000000" stroke-width="4" fill="none"></path></g><g stroke-linecap="round" transform="translate(1039.6959993518844 692.7025529949474) rotate(0 24.684493135147818 27.505578064879103)"><path d="M20 -0.19 C24.84 -1.36, 32.16 -1.08, 36.72 2.4 C41.27 5.87, 45.33 14.63, 47.34 20.65 C49.35 26.66, 50.69 33, 48.77 38.47 C46.86 43.95, 40.75 51.07, 35.84 53.5 C30.94 55.94, 24.37 54.46, 19.35 53.08 C14.33 51.7, 9.04 49.56, 5.72 45.23 C2.41 40.9, -0.6 32.86, -0.52 27.13 C-0.43 21.39, 1.77 15.52, 6.24 10.82 C10.7 6.12, 22.08 0.18, 26.27 -1.08 C30.46 -2.35, 31.21 2.72, 31.38 3.21 M21.47 0.51 C26.15 -0.86, 32.31 2.62, 36.61 5.2 C40.91 7.78, 45.31 10.82, 47.25 16 C49.19 21.18, 50.06 30.14, 48.27 36.29 C46.48 42.44, 40.76 49.72, 36.52 52.89 C32.29 56.06, 27.98 56.08, 22.85 55.32 C17.72 54.57, 9.96 52.22, 5.73 48.35 C1.5 44.49, -2.02 38.6, -2.52 32.13 C-3.01 25.66, -0.48 14.29, 2.76 9.54 C5.99 4.79, 14.68 5, 16.9 3.63 C19.13 2.25, 15.29 1.41, 16.11 1.28" stroke="none" stroke-width="0" fill="#fa5252"></path><path d="M30.25 -0.01 C35 0.41, 38.46 6.57, 41.9 10.76 C45.35 14.94, 50.5 19.36, 50.9 25.11 C51.3 30.86, 48.14 40.04, 44.31 45.27 C40.48 50.49, 33.45 55.56, 27.93 56.48 C22.4 57.39, 15.48 54.02, 11.17 50.76 C6.86 47.51, 3.64 42.1, 2.07 36.94 C0.5 31.79, 0.07 25.16, 1.72 19.86 C3.38 14.56, 5.81 7.98, 12 5.14 C18.18 2.31, 33.57 1.79, 38.85 2.85 C44.12 3.91, 44.37 10.99, 43.66 11.5 M26.61 -1.42 C31.87 -1.51, 41.46 1.99, 44.97 6.47 C48.48 10.95, 47.57 19.22, 47.68 25.46 C47.8 31.7, 49.03 39.09, 45.66 43.91 C42.29 48.73, 33.07 52.57, 27.47 54.39 C21.87 56.21, 16.05 57.9, 12.06 54.83 C8.07 51.76, 5.67 41.76, 3.55 35.98 C1.43 30.2, -1.97 24.92, -0.68 20.14 C0.61 15.37, 6.26 10.96, 11.29 7.34 C16.33 3.71, 26.91 -0.21, 29.55 -1.61 C32.19 -3, 27.19 -1.65, 27.13 -1.02" stroke="#000000" stroke-width="4" fill="none"></path></g><g transform="translate(1210.4845070032814 576.3327996435359) rotate(0 10.169998168945312 22.5)"><text x="20.339996337890625" y="0" font-family="Virgil, Segoe UI Emoji" font-size="36px" fill="#000000" text-anchor="end" style="white-space: pre;" direction="ltr" dominant-baseline="text-before-edge">t</text></g><g transform="translate(884.5084485022726 106.62215884329288) rotate(0 14.472000122070312 22.5)"><text x="28.944000244140625" y="0" font-family="Virgil, Segoe UI Emoji" font-size="36px" fill="#000000" text-anchor="end" style="white-space: pre;" direction="ltr" dominant-baseline="text-before-edge">T</text></g><g stroke-linecap="round" transform="translate(274.4767121622991 926.1473309302037) rotate(0 24.684493135147818 27.505578064879103)"><path d="M29.35 2.04 C34.74 3.21, 42.35 6.98, 45.65 11.42 C48.95 15.85, 49.48 22.94, 49.16 28.63 C48.84 34.33, 46.93 41.43, 43.74 45.56 C40.54 49.7, 35.31 52.23, 30 53.45 C24.69 54.66, 16.67 55.47, 11.86 52.86 C7.04 50.25, 2.8 43.78, 1.11 37.77 C-0.58 31.77, 0.01 22.42, 1.72 16.82 C3.43 11.23, 4.57 5.36, 11.38 4.22 C18.2 3.08, 36.46 6.8, 42.61 9.99 C48.76 13.18, 48.61 23.14, 48.28 23.33 M26.06 -2.46 C31.15 -2.59, 35.28 2.14, 39.06 6.28 C42.85 10.42, 47.84 16.52, 48.77 22.37 C49.7 28.22, 47.48 36.01, 44.63 41.35 C41.77 46.7, 36.61 52.61, 31.64 54.44 C26.66 56.27, 19.18 54.82, 14.76 52.35 C10.35 49.87, 7.34 44.63, 5.15 39.61 C2.96 34.59, 0.96 28.05, 1.65 22.22 C2.33 16.38, 5.56 8.73, 9.26 4.59 C12.96 0.44, 20.77 -2.05, 23.86 -2.66 C26.96 -3.28, 27.26 -0.28, 27.81 0.9" stroke="none" stroke-width="0" fill="#82c91e"></path><path d="M43.4 12.89 C46.22 17.68, 47.5 25.66, 47.42 31.4 C47.34 37.14, 46.47 43.48, 42.91 47.31 C39.35 51.15, 31.24 53.91, 26.04 54.43 C20.85 54.95, 15.71 53.37, 11.75 50.43 C7.78 47.49, 3.65 42.54, 2.27 36.78 C0.89 31.02, 1.42 21.69, 3.46 15.87 C5.49 10.04, 9.73 4.05, 14.48 1.81 C19.23 -0.42, 26.3 -0.59, 31.94 2.46 C37.57 5.51, 45.82 15.31, 48.31 20.13 C50.8 24.95, 46.95 31.34, 46.86 31.38 M21.14 -0.47 C25.95 -2.15, 32.01 -1.82, 36.33 1.94 C40.64 5.7, 45.11 16.15, 47.04 22.11 C48.97 28.07, 49.46 32.98, 47.91 37.71 C46.36 42.43, 42.98 47.73, 37.72 50.47 C32.46 53.2, 22.08 55.34, 16.34 54.11 C10.61 52.89, 5.81 47.99, 3.31 43.12 C0.81 38.26, 0.48 31.22, 1.35 24.94 C2.21 18.66, 5.33 9.13, 8.49 5.44 C11.64 1.75, 17.67 3.15, 20.29 2.82 C22.91 2.49, 24.3 3.04, 24.21 3.48" stroke="#000000" stroke-width="4" fill="none"></path></g><g stroke-linecap="round" transform="translate(1016.422048681602 233.57098068119654) rotate(0 24.684493135147818 27.505578064879103)"><path d="M30.36 -0.51 C34.83 0.28, 38.77 4.07, 42.08 8.91 C45.38 13.75, 49.93 22.35, 50.18 28.54 C50.43 34.73, 47.25 41.44, 43.6 46.03 C39.95 50.63, 33.93 55.36, 28.3 56.12 C22.66 56.88, 14.21 54.22, 9.78 50.6 C5.35 46.98, 2.98 39.69, 1.73 34.42 C0.47 29.15, 0.62 23.87, 2.23 18.95 C3.85 14.04, 4.74 7.04, 11.4 4.92 C18.06 2.8, 36.19 3.9, 42.2 6.22 C48.21 8.54, 48.12 18.28, 47.48 18.85 M8.96 6.91 C12.65 2.87, 16.68 0.91, 21.81 0.41 C26.93 -0.08, 35.21 0.75, 39.72 3.92 C44.24 7.09, 47.44 13.28, 48.9 19.44 C50.36 25.59, 50.32 35.56, 48.48 40.84 C46.63 46.12, 42.67 48.55, 37.83 51.1 C32.99 53.66, 24.83 57.07, 19.44 56.17 C14.06 55.28, 8.85 51.2, 5.49 45.72 C2.14 40.25, -1.03 29.29, -0.67 23.31 C-0.31 17.33, 5.91 12.77, 7.66 9.82 C9.4 6.88, 9.84 5.59, 9.79 5.63" stroke="none" stroke-width="0" fill="#fa5252"></path><path d="M43.25 9.57 C47.09 13.46, 47.82 21, 47.82 26.46 C47.81 31.92, 46.09 37.86, 43.22 42.33 C40.36 46.8, 35.38 51.29, 30.62 53.3 C25.87 55.3, 19.71 56.6, 14.69 54.38 C9.67 52.16, 2.67 45.43, 0.51 39.97 C-1.66 34.51, 0.16 27.75, 1.7 21.62 C3.25 15.49, 5.78 6.97, 9.76 3.18 C13.74 -0.61, 19.24 -4.01, 25.59 -1.14 C31.94 1.73, 44.22 14.62, 47.85 20.4 C51.49 26.18, 47.76 33.5, 47.42 33.53 M8.3 2.75 C11.88 -0.95, 21 0.94, 26.23 1.94 C31.46 2.94, 35.42 4.9, 39.69 8.75 C43.97 12.61, 51.12 19.14, 51.86 25.09 C52.61 31.04, 46.95 39.4, 44.15 44.46 C41.36 49.52, 39.66 54.27, 35.1 55.45 C30.53 56.64, 22.12 54.23, 16.77 51.58 C11.42 48.94, 5.99 44.68, 3.02 39.61 C0.06 34.54, -1.76 26.46, -1 21.17 C-0.25 15.87, 5.69 10.53, 7.57 7.83 C9.44 5.12, 9.99 4.91, 10.25 4.95" stroke="#000000" stroke-width="4" fill="none"></path></g><g stroke-linecap="round"><g transform="translate(1033.8788162835822 713.3217915668087) rotate(0 -328.1929689434853 -81.43822648570186)"><path d="M0.72 -2.46 C-59.29 -9.17, -251.07 -12.6, -360.71 -38.92 C-470.34 -65.25, -607 -140.29, -657.11 -160.42" stroke="#862e9c" stroke-width="4.5" fill="none" stroke-dasharray="8 12"></path></g><g transform="translate(1033.8788162835822 713.3217915668087) rotate(0 -328.1929689434853 -81.43822648570186)"><path d="M-630.72 -161.65 C-635.45 -154.57, -646.68 -161.32, -658.99 -161.28" stroke="#862e9c" stroke-width="4.5" fill="none"></path></g><g transform="translate(1033.8788162835822 713.3217915668087) rotate(0 -328.1929689434853 -81.43822648570186)"><path d="M-639.31 -143.02 C-641.84 -141.13, -650.69 -153.03, -658.99 -161.28" stroke="#862e9c" stroke-width="4.5" fill="none"></path></g></g><mask></mask><g stroke-linecap="round"><g transform="translate(1056.6111053164113 477.23062987250205) rotate(0 -360.9633366786172 -96.39980895379838)"><path d="M2.24 -1.05 C-60.74 -9.96, -259.29 -21.89, -380.36 -53.68 C-501.43 -85.46, -666.94 -168.7, -724.17 -191.75" stroke="#862e9c" stroke-width="4.5" fill="none" stroke-dasharray="8 12"></path></g><g transform="translate(1056.6111053164113 477.23062987250205) rotate(0 -360.9633366786172 -96.39980895379838)"><path d="M-695.74 -189.02 C-700.19 -188.46, -705.81 -188.29, -723.4 -191.68" stroke="#862e9c" stroke-width="4.5" fill="none"></path></g><g transform="translate(1056.6111053164113 477.23062987250205) rotate(0 -360.9633366786172 -96.39980895379838)"><path d="M-704.06 -170.26 C-706.71 -173.8, -710.58 -177.6, -723.4 -191.68" stroke="#862e9c" stroke-width="4.5" fill="none"></path></g></g><mask></mask><g stroke-linecap="round"><g transform="translate(333.1484952806999 943.6248630501761) rotate(0 345.575766987189 -106.62711577251498)"><path d="M-0.41 -0.15 C60.57 -7.3, 251.09 -10.49, 367.03 -45.25 C482.97 -80.01, 640.3 -181.34, 695.23 -208.71 M-4.07 -2.69 C57.65 -9.18, 255.84 -6.7, 372.12 -41.77 C488.41 -76.84, 639.31 -184.28, 693.63 -213.11" stroke="#e67700" stroke-width="4" fill="none"></path></g><g transform="translate(333.1484952806999 943.6248630501761) rotate(0 345.575766987189 -106.62711577251498)"><path d="M674.59 -193.19 C681.24 -197.12, 691.04 -203.21, 695.55 -215.94 M673.56 -188.6 C680.14 -195.03, 683.23 -202.54, 695.26 -212.67" stroke="#e67700" stroke-width="4" fill="none"></path></g><g transform="translate(333.1484952806999 943.6248630501761) rotate(0 345.575766987189 -106.62711577251498)"><path d="M663.99 -210.76 C673.97 -208.65, 687.4 -208.74, 695.55 -215.94 M662.96 -206.17 C672.38 -208.4, 677.99 -211.74, 695.26 -212.67" stroke="#e67700" stroke-width="4" fill="none"></path></g></g><mask></mask><g stroke-linecap="round"><g transform="translate(327.37205459475877 266.7187286055381) rotate(0 341.5236980044284 -16.05349348132171)"><path d="M1.17 0.55 C58.69 -4.02, 229.8 -25.72, 343.72 -28.28 C457.64 -30.84, 628.11 -16.57, 684.69 -14.81 M-1.64 -1.62 C55.59 -6.95, 227.22 -30.95, 341.23 -32.56 C455.24 -34.18, 625.55 -14.03, 682.43 -11.31" stroke="#e67700" stroke-width="4" fill="none"></path></g><g transform="translate(327.37205459475877 266.7187286055381) rotate(0 341.5236980044284 -16.05349348132171)"><path d="M654.3 -3.95 C662.71 -6.73, 669.03 -10.85, 679.35 -12.57 M652.25 -4.98 C660.18 -4.76, 665.79 -5.8, 681.75 -10.37" stroke="#e67700" stroke-width="4" fill="none"></path></g><g transform="translate(327.37205459475877 266.7187286055381) rotate(0 341.5236980044284 -16.05349348132171)"><path d="M655.92 -24.41 C663.8 -22.06, 669.72 -21.07, 679.35 -12.57 M653.86 -25.44 C661.47 -21.05, 666.75 -17.89, 681.75 -10.37" stroke="#e67700" stroke-width="4" fill="none"></path></g></g><mask></mask><g stroke-linecap="round"><g transform="translate(374.97109857632944 539.2532917792928) rotate(0 342.13317928461254 -20.820400329570397)"><path d="M1.92 2.3 C58.36 -3.78, 224.76 -30.29, 338.56 -36.5 C452.36 -42.7, 626.52 -35.24, 684.74 -34.92 M-0.48 1.08 C55.7 -5.91, 223.12 -34.46, 336.91 -41.25 C450.7 -48.03, 623.48 -39.89, 682.25 -39.63" stroke="#e67700" stroke-width="4" fill="none"></path></g><g transform="translate(374.97109857632944 539.2532917792928) rotate(0 342.13317928461254 -20.820400329570397)"><path d="M657.12 -28.45 C662.96 -35.05, 672.89 -33.39, 684.85 -42.11 M653.3 -30.19 C659.73 -32.79, 666.34 -35.91, 683.79 -41.45" stroke="#e67700" stroke-width="4" fill="none"></path></g><g transform="translate(374.97109857632944 539.2532917792928) rotate(0 342.13317928461254 -20.820400329570397)"><path d="M657.58 -48.96 C663.27 -49.47, 673.07 -41.72, 684.85 -42.11 M653.75 -50.71 C659.84 -48.56, 666.34 -46.94, 683.79 -41.45" stroke="#e67700" stroke-width="4" fill="none"></path></g></g><mask></mask></svg>