<svg version="1.1" xmlns="http://www.w3.org/2000/svg" viewBox="0 0 1100.5540129820938 903.9724728992337" width="1100.5540129820938" height="903.9724728992337">
  <!-- svg-source:excalidraw -->
  
  <defs>
    <style class="style-fonts">
      @font-face {
        font-family: "Virgil";
        src: url("https://excalidraw.com/Virgil.woff2");
      }
      @font-face {
        font-family: "Cascadia";
        src: url("https://excalidraw.com/Cascadia.woff2");
      }
    </style>
  </defs>
  <rect x="0" y="0" width="1100.5540129820938" height="903.9724728992337" fill="#ffffff"></rect><g stroke-linecap="round"><g transform="translate(10.000394683033164 757.1438018491755) rotate(0 522.3063336785517 0.42006875229762386)"><path d="M2.23 0.45 C175.02 0, 866.52 -0.68, 1039.24 -0.65 M0 -1.77 C173.46 -1.98, 870.62 1.65, 1044.61 2.62" stroke="#000000" stroke-width="4" fill="none"></path></g><g transform="translate(10.000394683033164 757.1438018491755) rotate(0 522.3063336785517 0.42006875229762386)"><path d="M1044.54 2.94 L1033.84 6.95 L1027.44 -7.35 L1042.2 0.61" stroke="none" stroke-width="0" fill="#000000" fill-rule="evenodd"></path><path d="M1045.1 0.59 C1038.7 2.5, 1034.74 9.61, 1029.27 7.66 M1044.1 3.09 C1040.8 5.69, 1033.57 6.8, 1030.2 9.26 M1032.62 7.16 C1032.77 7.09, 1030.72 1.43, 1030.44 -3.24 M1029.91 8.69 C1030 5.96, 1031.94 1.64, 1031.39 -4.92 M1030.84 -5.14 C1034.85 -0.14, 1037.71 0.47, 1041.73 1.47 M1030.24 -5.23 C1035.99 -0.08, 1040.27 1.41, 1045.67 3.7 M1044.61 2.62 C1044.61 2.62, 1044.61 2.62, 1044.61 2.62 M1044.61 2.62 C1044.61 2.62, 1044.61 2.62, 1044.61 2.62" stroke="#000000" stroke-width="4" fill="none"></path></g></g><mask></mask><g stroke-linecap="round"><g transform="translate(142.022682961094 891.8499894021207) rotate(0 -0.018062167614630198 -428.2135791466042)"><path d="M-2.44 2.12 C-1.9 -140.39, 2.14 -711.19, 2.4 -854.26 M1.44 0.81 C1.89 -142.62, 2.23 -716.16, 1.47 -858.55" stroke="#000000" stroke-width="4" fill="none"></path></g><g transform="translate(142.022682961094 891.8499894021207) rotate(0 -0.018062167614630198 -428.2135791466042)"><path d="M3.17 -857.6 L8.5 -842.47 L-3.39 -843.97 L-1.6 -860.07" stroke="none" stroke-width="0" fill="#000000" fill-rule="evenodd"></path><path d="M3.74 -855.98 C4.68 -855.71, 4.25 -850.53, 5.94 -845.57 M2.33 -859.98 C4.16 -853.69, 6.71 -849.56, 9.12 -844.94 M9.3 -844.84 C6.23 -843.91, -1.09 -844.81, -5.43 -845.51 M7.98 -845.9 C5.79 -844.51, 3.52 -844.16, -4.37 -843.97 M-5.08 -842.05 C-1.72 -849.26, -0.94 -853.12, 0.49 -860.38 M-3.61 -843.84 C-1.97 -849.51, 0.34 -854.27, 2.91 -858.46 M1.47 -858.55 C1.47 -858.55, 1.47 -858.55, 1.47 -858.55 M1.47 -858.55 C1.47 -858.55, 1.47 -858.55, 1.47 -858.55" stroke="#000000" stroke-width="4" fill="none"></path></g></g><mask></mask><g stroke-linecap="round"><g transform="translate(280.9598886334054 642.2388192175353) rotate(0 284.94369524726017 0.3148555110127802)"><path d="M1.9 0.43 C96.15 0.52, 470.83 2.98, 565.48 2.68 M-0.52 -1.8 C94.56 -2.62, 475.51 -1.35, 570.4 -0.88" stroke="#1971c2" stroke-width="4" fill="none"></path></g><g transform="translate(280.9598886334054 642.2388192175353) rotate(0 284.94369524726017 0.3148555110127802)"><path d="M572.91 0.72 L554.44 6.19 L560.11 -4.78 L567.7 -3.12" stroke="none" stroke-width="0" fill="#1971c2" fill-rule="evenodd"></path><path d="M570.87 -3.79 C569.29 2.88, 560.89 5.49, 558.13 3.05 M569.95 -0.42 C566.31 0.47, 563.02 2.76, 557.95 5.5 M557.89 6.18 C559.37 -0.36, 555.09 -2.6, 554.76 -6.72 M556.07 5.83 C558.15 1.32, 557.9 -1.43, 557.85 -8.24 M557.74 -8.39 C563.56 -6.95, 562.64 -4.94, 572.78 -0.91 M557.09 -6.53 C562.03 -6.38, 564.21 -4.12, 571.19 0.57 M570.4 -0.88 C570.4 -0.88, 570.4 -0.88, 570.4 -0.88 M570.4 -0.88 C570.4 -0.88, 570.4 -0.88, 570.4 -0.88" stroke="#1971c2" stroke-width="4" fill="none"></path></g></g><mask></mask><g stroke-linecap="round"><g transform="translate(877.0707753242243 645.523176719964) rotate(0 1.0670876806398155 -217.1134634683949)"><path d="M-0.98 1.28 C-0.67 -71.61, 0.02 -363.14, 0.44 -435.5 M3.69 -0.5 C3.79 -73.24, -1.03 -361.45, -1.55 -432.94" stroke="#1971c2" stroke-width="4" fill="none"></path></g><g transform="translate(877.0707753242243 645.523176719964) rotate(0 1.0670876806398155 -217.1134634683949)"><path d="M2.31 -430.1 L6.2 -421.49 L-5.64 -421.11 L-4.4 -435.36" stroke="none" stroke-width="0" fill="#1971c2" fill-rule="evenodd"></path><path d="M-0.18 -432.47 C-1.87 -427.88, 2.53 -424.06, 2.45 -419.78 M-1.75 -434.06 C0.64 -426.42, 2.24 -423.71, 5.35 -419.29 M2.43 -416.96 C4.37 -417.64, 0.77 -421.45, -9.66 -421.08 M4.68 -420.07 C1.04 -420.14, -6.12 -418.49, -6.54 -418.6 M-10.2 -419.41 C-8.38 -425.15, -5.22 -424.98, -1.69 -435.71 M-6.54 -419.89 C-6.85 -422.79, -4.48 -423.89, -1.79 -432.88 M-1.55 -432.94 C-1.55 -432.94, -1.55 -432.94, -1.55 -432.94 M-1.55 -432.94 C-1.55 -432.94, -1.55 -432.94, -1.55 -432.94" stroke="#1971c2" stroke-width="4" fill="none"></path></g></g><mask></mask><g transform="translate(207.29041800587515 678.3667517442517) rotate(0 48.329986572265625 22.5)"><text x="96.65997314453125" y="0" font-family="Virgil, Segoe UI Emoji" font-size="36px" fill="#1971c2" text-anchor="end" style="white-space: pre;" direction="ltr" dominant-baseline="text-before-edge">(a, b)</text></g><g transform="translate(840.5427034111738 688.2198242515377) rotate(0 45.359985351562386 22.5)"><text x="90.719970703125" y="0" font-family="Virgil, Segoe UI Emoji" font-size="36px" fill="#1971c2" text-anchor="end" style="white-space: pre;" direction="ltr" dominant-baseline="text-before-edge">(c, b)</text></g><g transform="translate(825.2092742559514 139.73212134593575) rotate(0 46.45798492431652 22.5)"><text x="92.91596984863281" y="0" font-family="Virgil, Segoe UI Emoji" font-size="36px" fill="#1971c2" text-anchor="end" style="white-space: pre;" direction="ltr" dominant-baseline="text-before-edge">(c, d)</text></g><g stroke-linecap="round"><g transform="translate(280.9598886334054 630.7435679590345) rotate(0 284.90099403212014 -200.69519998460402)"><path d="M0.93 -0.94 C95.48 -67.47, 474.16 -333.6, 568.87 -400.45" stroke="#1971c2" stroke-width="4.5" fill="none" stroke-dasharray="8 12"></path></g><g transform="translate(280.9598886334054 630.7435679590345) rotate(0 284.90099403212014 -200.69519998460402)"><path d="M569.66 -397.83 L564.32 -384.43 L550.4 -401.58 L572.82 -402.75" stroke="none" stroke-width="0" fill="#1971c2" fill-rule="evenodd"></path><path d="M567.86 -397.96 C568.12 -392.93, 563.76 -392.75, 561.1 -384.54 M561.38 -389.58 C557.62 -392.41, 559.51 -392.07, 551.72 -399.76 M554.84 -396.14 C562.31 -399.22, 562.89 -399.28, 568.92 -400.81 M568.87 -400.45 C568.87 -400.45, 568.87 -400.45, 568.87 -400.45" stroke="#1971c2" stroke-width="4.5" fill="none"></path></g></g><mask></mask><g transform="translate(1070.3220183531876 781.8240130707574) rotate(0 10.115997314453125 22.5)"><text x="20.23199462890625" y="0" font-family="Virgil, Segoe UI Emoji" font-size="36px" fill="#1e1e1e" text-anchor="end" style="white-space: pre;" direction="ltr" dominant-baseline="text-before-edge">x</text></g><g transform="translate(93.28931108035249 10) rotate(0 8.441993713378906 22.5)"><text x="16.883987426757812" y="0" font-family="Virgil, Segoe UI Emoji" font-size="36px" fill="#1e1e1e" text-anchor="end" style="white-space: pre;" direction="ltr" dominant-baseline="text-before-edge">y</text></g><g transform="translate(98.5427384045206 771.9709405634711) rotate(0 12.383995056152344 22.5)"><text x="24.767990112304688" y="0" font-family="Virgil, Segoe UI Emoji" font-size="36px" fill="#1e1e1e" text-anchor="end" style="white-space: pre;" direction="ltr" dominant-baseline="text-before-edge">0</text></g><g stroke-linecap="round"><g transform="translate(375.0757670857531 635.7689126356364) rotate(0 -13.078564358182234 -23.548802995649183)"><path d="M-1.33 -0.98 C-2.42 -5.54, -1.34 -19.17, -5.26 -26.7 C-9.17 -34.22, -21.82 -42.67, -24.83 -46.11" stroke="#e03131" stroke-width="4.5" fill="none" stroke-dasharray="8 12"></path></g></g><mask></mask><g transform="translate(386.2294009071559 580.9498635375877) rotate(0 12.581993103027344 22.5)"><text x="25.163986206054688" y="0" font-family="Virgil, Segoe UI Emoji" font-size="36px" fill="#e03131" text-anchor="end" style="white-space: pre;" direction="ltr" dominant-baseline="text-before-edge">α</text></g><g stroke-linecap="round"><g transform="translate(869.1638678231045 633.0622171871892) rotate(0 -96.34951281957467 -132.87385237580145)"><path d="M-1.82 -1.94 C-33.25 -45.49, -159.5 -220.38, -190.88 -263.81" stroke="#1971c2" stroke-width="4.5" fill="none" stroke-dasharray="8 12"></path></g><g transform="translate(869.1638678231045 633.0622171871892) rotate(0 -96.34951281957467 -132.87385237580145)"><path d="M-188.37 -261.08 L-179.01 -259.85 L-188.79 -248.59 L-192.57 -261.42" stroke="none" stroke-width="0" fill="#1971c2" fill-rule="evenodd"></path><path d="M-192.95 -262.45 C-188.59 -259.82, -184.38 -260.85, -180.69 -256.66 M-177.35 -257.85 C-178.76 -257.07, -181.9 -250.92, -189.42 -247.05 M-186.51 -252.05 C-189.02 -253.02, -188.7 -255.25, -188.36 -262.86 M-190.88 -263.81 C-190.88 -263.81, -190.88 -263.81, -190.88 -263.81" stroke="#1971c2" stroke-width="4.5" fill="none"></path></g></g><mask></mask><g stroke-linecap="round"><g transform="translate(644.8884650691757 389.2050444948936) rotate(0 8.555380963940706 9.125693212540074)"><path d="M0.73 -1.24 C3.74 1.68, 14.12 15.76, 16.39 19.49" stroke="#e03131" stroke-width="4.5" fill="none" stroke-dasharray="8 12"></path></g></g><mask></mask><g stroke-linecap="round"><g transform="translate(663.0974223052331 410.11162502518175) rotate(0 12.408831108226195 -8.612823312865277)"><path d="M1.18 0.24 C4.9 -2.73, 19.93 -14.33, 23.64 -17.47" stroke="#e03131" stroke-width="4.5" fill="none" stroke-dasharray="8 12"></path></g></g><mask></mask><g stroke-linecap="round"><g transform="translate(845.8614004893645 590.8523857386401) rotate(0 14.56617910755881 -6.628424938495243)"><path d="M1.12 -1.64 C2.85 -3.69, 6.72 -9.87, 11.2 -11.22 C15.68 -12.57, 25.35 -10.11, 28.01 -9.73" stroke="#e03131" stroke-width="4.5" fill="none" stroke-dasharray="8 12"></path></g></g><mask></mask><g transform="translate(839.3490597983564 529.9112537958523) rotate(0 12.581993103027344 22.5)"><text x="25.163986206054688" y="0" font-family="Virgil, Segoe UI Emoji" font-size="36px" fill="#e03131" text-anchor="end" style="white-space: pre;" direction="ltr" dominant-baseline="text-before-edge">α</text></g><g stroke-linecap="round"><g stroke-opacity="0.3" fill-opacity="0.3" transform="translate(585.5407525960998 631.9911409756585) rotate(0 -2.7506627399568515 -90.38376215780063)"><path d="M2.13 -1.66 C4.68 -21, 21.14 -86.46, 16.93 -116.04 C12.72 -145.61, -15.9 -169, -23.12 -179.11" stroke="#f08c00" stroke-width="4.5" fill="none" stroke-dasharray="8 12"></path></g><g stroke-opacity="0.3" fill-opacity="0.3" transform="translate(585.5407525960998 631.9911409756585) rotate(0 -2.7506627399568515 -90.38376215780063)"><path d="M-23.63 -182.21 L-7.99 -172.4 L-15.77 -162.37 L-21.59 -177.73" stroke="none" stroke-width="0" fill="#f08c00" fill-rule="evenodd"></path><path d="M-24.89 -177.59 C-20.42 -176.66, -15.9 -178.04, -9.39 -175.95 M-7.43 -174.4 C-11.56 -173.22, -14.66 -171.86, -16.74 -163.31 M-21.68 -165.41 C-20.29 -165.1, -19.89 -168.29, -20.32 -177.25 M-23.12 -179.11 C-23.12 -179.11, -23.12 -179.11, -23.12 -179.11" stroke="#f08c00" stroke-width="4.5" fill="none"></path></g></g><mask></mask><g stroke-linecap="round"><g stroke-opacity="0.4" fill-opacity="0.4" transform="translate(866.0935751960949 414.8324657900855) rotate(0 -52.32352886306194 -49.856166705603094)"><path d="M1.48 1.47 C-8.67 -4.04, -41.56 -15.83, -59.5 -32.93 C-77.44 -50.04, -98.1 -90.65, -106.13 -101.18" stroke="#f08c00" stroke-width="4.5" fill="none" stroke-dasharray="8 12"></path></g><g stroke-opacity="0.4" fill-opacity="0.4" transform="translate(866.0935751960949 414.8324657900855) rotate(0 -52.32352886306194 -49.856166705603094)"><path d="M-106.86 -100.71 L-97.1 -91.68 L-106.96 -83.5 L-107.98 -97.4" stroke="none" stroke-width="0" fill="#f08c00" fill-rule="evenodd"></path><path d="M-104.56 -99.18 C-101.57 -98.02, -100.17 -96.88, -90.95 -90.43 M-91.08 -91.22 C-98.8 -88.82, -102.77 -90.43, -102.56 -84.11 M-104.2 -83.55 C-106.04 -91.68, -102.36 -95.06, -107.55 -104.14 M-106.13 -101.18 C-106.13 -101.18, -106.13 -101.18, -106.13 -101.18" stroke="#f08c00" stroke-width="4.5" fill="none"></path></g></g><mask></mask></svg>